  0
SECTION
  2
HEADER
  9
$ACADVER
  1
AC1024
  9
$ACADMAINTVER
 70
6
  9
$DWGCODEPAGE
  3
ANSI_1252
  9
$LASTSAVEDBY
  1
ezdxf
  9
$INSBASE
 10
0.0
 20
0.0
 30
0.0
  9
$EXTMIN
 10
1e+20
 20
1e+20
 30
1e+20
  9
$EXTMAX
 10
-1e+20
 20
-1e+20
 30
-1e+20
  9
$LIMMIN
 10
0.0
 20
0.0
  9
$LIMMAX
 10
420.0
 20
297.0
  9
$ORTHOMODE
 70
0
  9
$REGENMODE
 70
1
  9
$FILLMODE
 70
1
  9
$QTEXTMODE
 70
0
  9
$MIRRTEXT
 70
1
  9
$LTSCALE
 40
1.0
  9
$ATTMODE
 70
1
  9
$TEXTSIZE
 40
2.5
  9
$TRACEWID
 40
1.0
  9
$TEXTSTYLE
  7
Standard
  9
$CLAYER
  8
0
  9
$CELTYPE
  6
ByLayer
  9
$CECOLOR
 62
256
  9
$CELTSCALE
 40
1.0
  9
$DISPSILH
 70
0
  9
$DIMSCALE
 40
1.0
  9
$DIMASZ
 40
2.5
  9
$DIMEXO
 40
0.625
  9
$DIMDLI
 40
3.75
  9
$DIMRND
 40
0.0
  9
$DIMDLE
 40
0.0
  9
$DIMEXE
 40
1.25
  9
$DIMTP
 40
0.0
  9
$DIMTM
 40
0.0
  9
$DIMTXT
 40
2.5
  9
$DIMCEN
 40
2.5
  9
$DIMTSZ
 40
0.0
  9
$DIMTOL
 70
0
  9
$DIMLIM
 70
0
  9
$DIMTIH
 70
0
  9
$DIMTOH
 70
0
  9
$DIMSE1
 70
0
  9
$DIMSE2
 70
0
  9
$DIMTAD
 70
1
  9
$DIMZIN
 70
8
  9
$DIMBLK
  1

  9
$DIMASO
 70
1
  9
$DIMSHO
 70
1
  9
$DIMPOST
  1

  9
$DIMAPOST
  1

  9
$DIMALT
 70
0
  9
$DIMALTD
 70
3
  9
$DIMALTF
 40
0.03937007874
  9
$DIMLFAC
 40
1.0
  9
$DIMTOFL
 70
1
  9
$DIMTVP
 40
0.0
  9
$DIMTIX
 70
0
  9
$DIMSOXD
 70
0
  9
$DIMSAH
 70
0
  9
$DIMBLK1
  1

  9
$DIMBLK2
  1

  9
$DIMSTYLE
  2
ISO-25
  9
$DIMCLRD
 70
0
  9
$DIMCLRE
 70
0
  9
$DIMCLRT
 70
0
  9
$DIMTFAC
 40
1.0
  9
$DIMGAP
 40
0.625
  9
$DIMJUST
 70
0
  9
$DIMSD1
 70
0
  9
$DIMSD2
 70
0
  9
$DIMTOLJ
 70
0
  9
$DIMTZIN
 70
8
  9
$DIMALTZ
 70
0
  9
$DIMALTTZ
 70
0
  9
$DIMUPT
 70
0
  9
$DIMDEC
 70
2
  9
$DIMTDEC
 70
2
  9
$DIMALTU
 70
2
  9
$DIMALTTD
 70
3
  9
$DIMTXSTY
  7
Standard
  9
$DIMAUNIT
 70
0
  9
$DIMADEC
 70
0
  9
$DIMALTRND
 40
0.0
  9
$DIMAZIN
 70
0
  9
$DIMDSEP
 70
44
  9
$DIMATFIT
 70
3
  9
$DIMFRAC
 70
0
  9
$DIMLDRBLK
  1

  9
$DIMLUNIT
 70
2
  9
$DIMLWD
 70
-2
  9
$DIMLWE
 70
-2
  9
$DIMTMOVE
 70
0
  9
$DIMFXL
 40
1.0
  9
$DIMFXLON
 70
0
  9
$DIMJOGANG
 40
0.785398163397
  9
$DIMTFILL
 70
0
  9
$DIMTFILLCLR
 70
0
  9
$DIMARCSYM
 70
0
  9
$DIMLTYPE
  6

  9
$DIMLTEX1
  6

  9
$DIMLTEX2
  6

  9
$DIMTXTDIRECTION
 70
0
  9
$LUNITS
 70
2
  9
$LUPREC
 70
4
  9
$SKETCHINC
 40
1.0
  9
$FILLETRAD
 40
10.0
  9
$AUNITS
 70
0
  9
$AUPREC
 70
2
  9
$MENU
  1
.
  9
$ELEVATION
 40
0.0
  9
$PELEVATION
 40
0.0
  9
$THICKNESS
 40
0.0
  9
$LIMCHECK
 70
0
  9
$CHAMFERA
 40
0.0
  9
$CHAMFERB
 40
0.0
  9
$CHAMFERC
 40
0.0
  9
$CHAMFERD
 40
0.0
  9
$SKPOLY
 70
0
  9
$TDCREATE
 40
2460921.6138657406
  9
$TDUCREATE
 40
2458532.153996898
  9
$TDUPDATE
 40
2460921.6138657406
  9
$TDUUPDATE
 40
2458532.1544311
  9
$TDINDWG
 40
0.0
  9
$TDUSRTIMER
 40
0.0
  9
$USRTIMER
 70
1
  9
$ANGBASE
 50
0.0
  9
$ANGDIR
 70
0
  9
$PDMODE
 70
0
  9
$PDSIZE
 40
0.0
  9
$PLINEWID
 40
0.0
  9
$SPLFRAME
 70
0
  9
$SPLINETYPE
 70
6
  9
$SPLINESEGS
 70
8
  9
$HANDSEED
  5
12E
  9
$SURFTAB1
 70
6
  9
$SURFTAB2
 70
6
  9
$SURFTYPE
 70
6
  9
$SURFU
 70
6
  9
$SURFV
 70
6
  9
$UCSBASE
  2

  9
$UCSNAME
  2

  9
$UCSORG
 10
0.0
 20
0.0
 30
0.0
  9
$UCSXDIR
 10
1.0
 20
0.0
 30
0.0
  9
$UCSYDIR
 10
0.0
 20
1.0
 30
0.0
  9
$UCSORTHOREF
  2

  9
$UCSORTHOVIEW
 70
0
  9
$UCSORGTOP
 10
0.0
 20
0.0
 30
0.0
  9
$UCSORGBOTTOM
 10
0.0
 20
0.0
 30
0.0
  9
$UCSORGLEFT
 10
0.0
 20
0.0
 30
0.0
  9
$UCSORGRIGHT
 10
0.0
 20
0.0
 30
0.0
  9
$UCSORGFRONT
 10
0.0
 20
0.0
 30
0.0
  9
$UCSORGBACK
 10
0.0
 20
0.0
 30
0.0
  9
$PUCSBASE
  2

  9
$PUCSNAME
  2

  9
$PUCSORG
 10
0.0
 20
0.0
 30
0.0
  9
$PUCSXDIR
 10
1.0
 20
0.0
 30
0.0
  9
$PUCSYDIR
 10
0.0
 20
1.0
 30
0.0
  9
$PUCSORTHOREF
  2

  9
$PUCSORTHOVIEW
 70
0
  9
$PUCSORGTOP
 10
0.0
 20
0.0
 30
0.0
  9
$PUCSORGBOTTOM
 10
0.0
 20
0.0
 30
0.0
  9
$PUCSORGLEFT
 10
0.0
 20
0.0
 30
0.0
  9
$PUCSORGRIGHT
 10
0.0
 20
0.0
 30
0.0
  9
$PUCSORGFRONT
 10
0.0
 20
0.0
 30
0.0
  9
$PUCSORGBACK
 10
0.0
 20
0.0
 30
0.0
  9
$USERI1
 70
0
  9
$USERI2
 70
0
  9
$USERI3
 70
0
  9
$USERI4
 70
0
  9
$USERI5
 70
0
  9
$USERR1
 40
0.0
  9
$USERR2
 40
0.0
  9
$USERR3
 40
0.0
  9
$USERR4
 40
0.0
  9
$USERR5
 40
0.0
  9
$WORLDVIEW
 70
1
  9
$SHADEDGE
 70
3
  9
$SHADEDIF
 70
70
  9
$TILEMODE
 70
1
  9
$MAXACTVP
 70
64
  9
$PINSBASE
 10
0.0
 20
0.0
 30
0.0
  9
$PLIMCHECK
 70
0
  9
$PEXTMIN
 10
1e+20
 20
1e+20
 30
1e+20
  9
$PEXTMAX
 10
-1e+20
 20
-1e+20
 30
-1e+20
  9
$PLIMMIN
 10
0.0
 20
0.0
  9
$PLIMMAX
 10
420.0
 20
297.0
  9
$UNITMODE
 70
0
  9
$VISRETAIN
 70
1
  9
$PLINEGEN
 70
0
  9
$PSLTSCALE
 70
1
  9
$TREEDEPTH
 70
3020
  9
$CMLSTYLE
  2
Standard
  9
$CMLJUST
 70
0
  9
$CMLSCALE
 40
20.0
  9
$PROXYGRAPHICS
 70
1
  9
$MEASUREMENT
 70
1
  9
$CELWEIGHT
370
-1
  9
$ENDCAPS
280
0
  9
$JOINSTYLE
280
0
  9
$LWDISPLAY
290
0
  9
$INSUNITS
 70
6
  9
$HYPERLINKBASE
  1

  9
$STYLESHEET
  1

  9
$XEDIT
290
1
  9
$CEPSNTYPE
380
0
  9
$PSTYLEMODE
290
1
  9
$FINGERPRINTGUID
  2
{4ABA6879-585E-4701-843E-DD5499CEE951}
  9
$VERSIONGUID
  2
{8F9AC9D8-F503-4BFC-BB66-2D9BA6B0005D}
  9
$EXTNAMES
290
1
  9
$PSVPSCALE
 40
0.0
  9
$OLESTARTUP
290
0
  9
$SORTENTS
280
127
  9
$INDEXCTL
280
0
  9
$HIDETEXT
280
1
  9
$XCLIPFRAME
280
1
  9
$HALOGAP
280
0
  9
$OBSCOLOR
 70
257
  9
$OBSLTYPE
280
0
  9
$INTERSECTIONDISPLAY
280
0
  9
$INTERSECTIONCOLOR
 70
257
  9
$DIMASSOC
280
2
  9
$PROJECTNAME
  1

  9
$CAMERADISPLAY
290
0
  9
$LENSLENGTH
 40
50.0
  9
$CAMERAHEIGHT
 40
0.0
  9
$STEPSPERSEC
 40
24.0
  9
$STEPSIZE
 40
100.0
  9
$3DDWFPREC
 40
2.0
  9
$PSOLWIDTH
 40
0.005
  9
$PSOLHEIGHT
 40
0.08
  9
$LOFTANG1
 40
1.570796326795
  9
$LOFTANG2
 40
1.570796326795
  9
$LOFTMAG1
 40
0.0
  9
$LOFTMAG2
 40
0.0
  9
$LOFTPARAM
 70
7
  9
$LOFTNORMALS
280
1
  9
$LATITUDE
 40
37.795
  9
$LONGITUDE
 40
-122.394
  9
$NORTHDIRECTION
 40
0.0
  9
$TIMEZONE
 70
-8000
  9
$LIGHTGLYPHDISPLAY
280
1
  9
$TILEMODELIGHTSYNCH
280
1
  9
$CMATERIAL
347
20
  9
$SOLIDHIST
280
0
  9
$SHOWHIST
280
1
  9
$DWFFRAME
280
2
  9
$DGNFRAME
280
2
  9
$REALWORLDSCALE
290
1
  9
$INTERFERECOLOR
 62
256
  9
$CSHADOW
280
0
  9
$SHADOWPLANELOCATION
 40
0.0
  0
ENDSEC
  0
SECTION
  2
CLASSES
  0
CLASS
  1
ACDBDICTIONARYWDFLT
  2
AcDbDictionaryWithDefault
  3
ObjectDBX Classes
 90
0
 91
0
280
0
281
0
  0
CLASS
  1
SUN
  2
AcDbSun
  3
SCENEOE
 90
1153
 91
0
280
0
281
0
  0
CLASS
  1
VISUALSTYLE
  2
AcDbVisualStyle
  3
ObjectDBX Classes
 90
4095
 91
0
280
0
281
0
  0
CLASS
  1
MATERIAL
  2
AcDbMaterial
  3
ObjectDBX Classes
 90
1153
 91
0
280
0
281
0
  0
CLASS
  1
SCALE
  2
AcDbScale
  3
ObjectDBX Classes
 90
1153
 91
0
280
0
281
0
  0
CLASS
  1
TABLESTYLE
  2
AcDbTableStyle
  3
ObjectDBX Classes
 90
4095
 91
0
280
0
281
0
  0
CLASS
  1
MLEADERSTYLE
  2
AcDbMLeaderStyle
  3
ACDB_MLEADERSTYLE_CLASS
 90
4095
 91
0
280
0
281
0
  0
CLASS
  1
DICTIONARYVAR
  2
AcDbDictionaryVar
  3
ObjectDBX Classes
 90
0
 91
0
280
0
281
0
  0
CLASS
  1
CELLSTYLEMAP
  2
AcDbCellStyleMap
  3
ObjectDBX Classes
 90
1152
 91
0
280
0
281
0
  0
CLASS
  1
MENTALRAYRENDERSETTINGS
  2
AcDbMentalRayRenderSettings
  3
SCENEOE
 90
1024
 91
0
280
0
281
0
  0
CLASS
  1
ACDBDETAILVIEWSTYLE
  2
AcDbDetailViewStyle
  3
ObjectDBX Classes
 90
1025
 91
0
280
0
281
0
  0
CLASS
  1
ACDBSECTIONVIEWSTYLE
  2
AcDbSectionViewStyle
  3
ObjectDBX Classes
 90
1025
 91
0
280
0
281
0
  0
CLASS
  1
RASTERVARIABLES
  2
AcDbRasterVariables
  3
ISM
 90
0
 91
0
280
0
281
0
  0
CLASS
  1
LAYOUT
  2
AcDbLayout
  3
ObjectDBX Classes
 90
0
 91
0
280
0
281
0
  0
CLASS
  1
ACDBPLACEHOLDER
  2
AcDbPlaceHolder
  3
ObjectDBX Classes
 90
0
 91
0
280
0
281
0
  0
ENDSEC
  0
SECTION
  2
TABLES
  0
TABLE
  2
VPORT
  5
8
330
0
100
AcDbSymbolTable
 70
1
  0
VPORT
  5
23
330
8
100
AcDbSymbolTableRecord
100
AcDbViewportTableRecord
  2
*Active
 70
0
 10
0.0
 20
0.0
 11
1.0
 21
1.0
 12
0.0
 22
0.0
 13
0.0
 23
0.0
 14
0.5
 24
0.5
 15
0.5
 25
0.5
 16
0.0
 26
0.0
 36
1.0
 17
0.0
 27
0.0
 37
0.0
 40
1000.0
 41
1.34
 42
50.0
 43
0.0
 44
0.0
 50
0.0
 51
0.0
 71
0
 72
1000
 73
1
 74
3
 75
0
 76
0
 77
0
 78
0
281
0
 65
0
146
0.0
  0
ENDTAB
  0
TABLE
  2
LTYPE
  5
2
330
0
100
AcDbSymbolTable
 70
3
  0
LTYPE
  5
24
330
2
100
AcDbSymbolTableRecord
100
AcDbLinetypeTableRecord
  2
ByBlock
 70
0
  3

 72
65
 73
0
 40
0.0
  0
LTYPE
  5
25
330
2
100
AcDbSymbolTableRecord
100
AcDbLinetypeTableRecord
  2
ByLayer
 70
0
  3

 72
65
 73
0
 40
0.0
  0
LTYPE
  5
26
330
2
100
AcDbSymbolTableRecord
100
AcDbLinetypeTableRecord
  2
Continuous
 70
0
  3

 72
65
 73
0
 40
0.0
  0
ENDTAB
  0
TABLE
  2
LAYER
  5
1
330
0
100
AcDbSymbolTable
 70
2
  0
LAYER
  5
27
330
1
100
AcDbSymbolTableRecord
100
AcDbLayerTableRecord
  2
0
 70
0
 62
7
  6
Continuous
370
-3
390
13
347
21
  0
LAYER
  5
28
330
1
100
AcDbSymbolTableRecord
100
AcDbLayerTableRecord
  2
Defpoints
 70
0
 62
7
  6
Continuous
290
0
370
-3
390
13
347
21
  0
ENDTAB
  0
TABLE
  2
STYLE
  5
5
330
0
100
AcDbSymbolTable
 70
1
  0
STYLE
  5
29
330
5
100
AcDbSymbolTableRecord
100
AcDbTextStyleTableRecord
  2
Standard
 70
0
 40
0.0
 41
1.0
 50
0.0
 71
0
 42
2.5
  3
txt
  4

  0
ENDTAB
  0
TABLE
  2
VIEW
  5
7
330
0
100
AcDbSymbolTable
 70
0
  0
ENDTAB
  0
TABLE
  2
UCS
  5
6
330
0
100
AcDbSymbolTable
 70
0
  0
ENDTAB
  0
TABLE
  2
APPID
  5
3
330
0
100
AcDbSymbolTable
 70
3
  0
APPID
  5
2A
330
3
100
AcDbSymbolTableRecord
100
AcDbRegAppTableRecord
  2
ACAD
 70
0
  0
APPID
  5
12B
330
3
100
AcDbSymbolTableRecord
100
AcDbRegAppTableRecord
  2
HATCHBACKGROUNDCOLOR
 70
0
  0
APPID
  5
12C
330
3
100
AcDbSymbolTableRecord
100
AcDbRegAppTableRecord
  2
EZDXF
 70
0
  0
ENDTAB
  0
TABLE
  2
DIMSTYLE
  5
4
330
0
100
AcDbSymbolTable
 70
1
100
AcDbDimStyleTable
  0
DIMSTYLE
105
2B
330
4
100
AcDbSymbolTableRecord
100
AcDbDimStyleTableRecord
  2
Standard
 70
0
 40
1.0
 41
2.5
 42
0.625
 43
3.75
 44
1.25
 45
0.0
 46
0.0
 47
0.0
 48
0.0
 49
2.5
140
2.5
141
2.5
142
0.0
143
0.03937007874
144
1.0
145
0.0
146
1.0
147
0.625
148
0.0
 69
0
 70
0
 71
0
 72
0
 73
0
 74
0
 75
0
 76
0
 77
1
 78
8
 79
3
170
0
171
3
172
1
173
0
174
0
175
0
176
0
177
0
178
0
179
2
271
2
272
2
273
2
274
3
275
0
276
0
277
2
278
44
279
0
280
0
281
0
282
0
283
0
284
8
285
0
286
0
288
0
289
3
290
0
371
-2
372
-2
  0
ENDTAB
  0
TABLE
  2
BLOCK_RECORD
  5
9
330
0
100
AcDbSymbolTable
 70
2
  0
BLOCK_RECORD
  5
17
330
9
100
AcDbSymbolTableRecord
100
AcDbBlockTableRecord
  2
*Model_Space
340
1A
 70
0
280
1
281
0
  0
BLOCK_RECORD
  5
1B
330
9
100
AcDbSymbolTableRecord
100
AcDbBlockTableRecord
  2
*Paper_Space
340
1E
 70
0
280
1
281
0
  0
ENDTAB
  0
ENDSEC
  0
SECTION
  2
BLOCKS
  0
BLOCK
  5
18
330
17
100
AcDbEntity
  8
0
100
AcDbBlockBegin
  2
*Model_Space
 70
0
 10
0.0
 20
0.0
 30
0.0
  3
*Model_Space
  1

  0
ENDBLK
  5
19
330
17
100
AcDbEntity
  8
0
100
AcDbBlockEnd
  0
BLOCK
  5
1C
330
1B
100
AcDbEntity
  8
0
100
AcDbBlockBegin
  2
*Paper_Space
 70
0
 10
0.0
 20
0.0
 30
0.0
  3
*Paper_Space
  1

  0
ENDBLK
  5
1D
330
1B
100
AcDbEntity
  8
0
100
AcDbBlockEnd
  0
ENDSEC
  0
SECTION
  2
ENTITIES
  0
TEXT
  5
2F
330
17
100
AcDbEntity
  8
0
100
AcDbText
 10
0.0
 20
0.0
 30
0.0
 40
10.0
  1
Grid Box A1
100
AcDbText
  0
LWPOLYLINE
  5
30
330
17
100
AcDbEntity
  8
0
 62
8
100
AcDbPolyline
 90
5
 70
0
 10
-20.0
 20
-20.0
 10
320.0
 20
-20.0
 10
320.0
 20
320.0
 10
-20.0
 20
320.0
 10
-20.0
 20
-20.0
  0
LWPOLYLINE
  5
31
330
17
100
AcDbEntity
  8
0
 62
0
100
AcDbPolyline
 90
4
 70
1
 10
220.8585229312
 20
163.4914438144001
 10
206.68513085440003
 20
171.9740042240001
 10
193.4070746408188
 20
159.28072097412405
 10
202.0987164207234
 20
145.90269969570647
  0
LWPOLYLINE
  5
32
330
17
100
AcDbEntity
  8
0
 62
0
100
AcDbPolyline
 90
4
 70
1
 10
200.96969233467462
 20
144.27570863423148
 10
191.57443139200097
 20
158.79232432395236
 10
177.20789042986246
 20
151.6864398515121
 10
182.82345550907507
 20
134.5046580358317
  0
LWPOLYLINE
  5
33
330
17
100
AcDbEntity
  8
0
 62
0
100
AcDbPolyline
 90
4
 70
1
 10
160.27487720507565
 20
128.16958127423192
 10
157.8036087917693
 20
146.82696196318335
 10
141.80651783227614
 20
146.3158180998314
 10
139.44428581947625
 20
127.84745872703189
  0
LWPOLYLINE
  5
34
330
17
100
AcDbEntity
  8
0
 62
0
100
AcDbPolyline
 90
4
 70
1
 10
137.29680217147626
 20
128.81382636863185
 10
139.62555893945864
 20
146.93584319024313
 10
124.79694118834942
 20
149.66661901766298
 10
116.68095915067681
 20
133.96778712383173
  0
LWPOLYLINE
  5
35
330
17
100
AcDbEntity
  8
0
 62
0
100
AcDbPolyline
 90
4
 70
1
 10
116.16718885081343
 20
136.82160966987504
 10
122.22471460716957
 20
151.38057400743787
 10
109.10949167879193
 20
159.40194923352277
 10
98.62247597399062
 20
147.29828447201965
  0
LWPOLYLINE
  5
36
330
17
100
AcDbEntity
  8
0
 62
0
100
AcDbPolyline
 90
4
 70
1
 10
97.39320352452017
 20
147.48821172380678
 10
107.2493714896051
 20
161.10993545199568
 10
99.70390402499294
 20
172.92097959254795
 10
83.55650385738693
 20
162.84150200833227
  0
LWPOLYLINE
  5
37
330
17
100
AcDbEntity
  8
0
 62
0
100
AcDbPolyline
 90
4
 70
1
 10
240.61537249280002
 20
155.54575431680013
 10
223.20679746217127
 20
163.65950431742488
 10
211.64561360896028
 20
150.60725495808015
 10
224.74526386176024
 20
136.54123706368011
  0
LWPOLYLINE
  5
38
330
17
100
AcDbEntity
  8
0
 62
0
100
AcDbPolyline
 90
4
 70
1
 10
223.02727694336022
 20
135.25274687488007
 10
210.67924596736026
 20
149.3187647692801
 10
198.43858917376025
 20
139.86983671808014
 10
207.88751722496028
 20
123.65633517568011
  0
LWPOLYLINE
  5
39
330
17
100
AcDbEntity
  8
0
 62
0
100
AcDbPolyline
 90
4
 70
1
 10
206.0688691144677
 20
122.85597584445844
 10
197.63145648499727
 20
137.74471377722512
 10
182.16236729407956
 20
131.47290136899585
 10
187.08702690095583
 20
115.16355376387361
  0
LWPOLYLINE
  5
3A
330
17
100
AcDbEntity
  8
0
 62
0
100
AcDbPolyline
 90
4
 70
1
 10
185.15859669915397
 20
115.71503335365867
 10
180.46122349627512
 20
130.63918746943182
 10
163.5270860053842
 20
126.89648205153992
 10
166.7284234584833
 20
112.17237287445431
  0
LWPOLYLINE
  5
3B
330
17
100
AcDbEntity
  8
0
 62
0
100
AcDbPolyline
 90
4
 70
1
 10
165.10671541307556
 20
111.09708627263234
 10
161.56336739387564
 20
126.02209762623193
 10
145.13511748667605
 20
124.84098161983201
 10
144.49087239227612
 20
109.27172517183237
  0
LWPOLYLINE
  5
3C
330
17
100
AcDbEntity
  8
0
 62
0
100
AcDbPolyline
 90
4
 70
1
 10
142.7559229955188
 20
109.79894493494675
 10
143.2836628373729
 20
125.6280799692127
 10
127.76155114045145
 20
128.8568589949407
 10
123.66028100667666
 20
112.27820227903231
  0
LWPOLYLINE
  5
3D
330
17
100
AcDbEntity
  8
0
 62
0
100
AcDbPolyline
 90
4
 70
1
 10
122.23592155931004
 20
112.94450260243667
 10
126.00848242858018
 20
128.76166029110158
 10
109.63951629637239
 20
134.0590549377547
 10
102.91350491451863
 20
121.10772789035644
  0
LWPOLYLINE
  5
3E
330
17
100
AcDbEntity
  8
0
 62
0
100
AcDbPolyline
 90
4
 70
1
 10
100.60819116467337
 20
121.88693257793483
 10
109.26377759471427
 20
135.5518751892905
 10
95.05546950232275
 20
144.41681980480496
 10
85.13337216383013
 20
131.49937150367896
  0
LWPOLYLINE
  5
3F
330
17
100
AcDbEntity
  8
0
 62
0
100
AcDbPolyline
 90
4
 70
1
 10
83.64743722435327
 20
131.9751773115887
 10
94.90025153987307
 20
147.09346219350846
 10
84.76412872131323
 20
158.00267912534827
 10
70.24713926083348
 20
146.74986480982847
  0
LWPOLYLINE
  5
40
330
17
100
AcDbEntity
  8
0
 62
0
100
AcDbPolyline
 90
4
 70
1
 10
205.19363635199994
 20
172.8380308480002
 10
188.95329126399992
 20
182.7701427200002
 10
186.5076584919089
 20
180.39880755800198
 10
198.52527201640106
 20
167.69661556711117
  0
LWPOLYLINE
  5
41
330
17
100
AcDbEntity
  8
0
 62
0
100
AcDbPolyline
 90
4
 70
1
 10
197.96321522747468
 20
166.0726676614309
 10
184.86356497467506
 20
179.38706627903053
 10
171.75661765859087
 20
171.26377477266618
 10
179.70960421947518
 20
154.58363014463117
  0
LWPOLYLINE
  5
42
330
17
100
AcDbEntity
  8
0
 62
0
100
AcDbPolyline
 90
4
 70
1
 10
177.45474638907524
 20
153.6172625030312
 10
170.06301141694945
 20
171.09887014163291
 10
155.73215737869737
 20
167.62235169221736
 10
158.12739355707572
 20
148.67805011263135
  0
LWPOLYLINE
  5
43
330
17
100
AcDbEntity
  8
0
 62
0
100
AcDbPolyline
 90
4
 70
1
 10
155.5504131794758
 20
148.46330174783134
 10
153.995660313776
 20
167.2450423977785
 10
139.03557687645997
 20
168.96811103050914
 10
134.61244761147634
 20
149.75179193663132
  0
LWPOLYLINE
  5
44
330
17
100
AcDbEntity
  8
0
 62
0
100
AcDbPolyline
 90
4
 70
1
 10
132.1401949299124
 20
150.93682372312225
 10
137.83367308347624
 20
170.0455124102308
 10
122.96918479551732
 20
174.8629886245664
 10
112.54647948728052
 20
160.42761488079617
  0
LWPOLYLINE
  5
45
330
17
100
AcDbEntity
  8
0
 62
0
100
AcDbPolyline
 90
4
 70
1
 10
110.62355520890617
 20
162.0036978090476
 10
121.28315812173622
 20
175.3321691196644
 10
114.23858124800012
 20
184.04772771840004
 10
101.2463051776001
 20
173.31030947840003
  0
LWPOLYLINE
  5
46
330
17
100
AcDbEntity
  8
0
 62
0
100
AcDbPolyline
 90
4
 70
1
 10
262.91086004983515
 20
148.94777398090952
 10
242.75075001339053
 20
155.90480728039591
 10
232.58357917696026
 20
143.1984363724801
 10
248.15283562496018
 20
131.0651537612801
  0
LWPOLYLINE
  5
47
330
17
100
AcDbEntity
  8
0
 62
0
100
AcDbPolyline
 90
4
 70
1
 10
245.98408161279997
 20
128.91695708160012
 10
232.47620499456025
 20
140.83620435968015
 10
219.32220565876594
 20
129.95306905649983
 10
230.2213471641602
 20
115.9253940428801
  0
LWPOLYLINE
  5
48
330
17
100
AcDbEntity
  8
0
 62
0
100
AcDbPolyline
 90
4
 70
1
 10
227.9690882223549
 20
115.61008239397421
 10
218.5921285010852
 20
127.27242698878524
 10
204.30846000764666
 20
120.03758239276266
 10
212.57197442514712
 20
105.01363110970135
  0
LWPOLYLINE
  5
49
330
17
100
AcDbEntity
  8
0
 62
0
100
AcDbPolyline
 90
4
 70
1
 10
210.37460842496023
 20
103.70075424768015
 10
203.17905629948882
 20
118.55432679548505
 10
187.2672951834835
 20
113.22050449611544
 10
191.90093390807692
 20
95.64797452046417
  0
LWPOLYLINE
  5
4A
330
17
100
AcDbEntity
  8
0
 62
0
100
AcDbPolyline
 90
4
 70
1
 10
189.9918688396719
 20
97.25635997220934
 10
185.24449604507396
 20
114.16884512709868
 10
169.095419012114
 20
110.38927390661866
 10
171.21754502607286
 20
91.17555493019773
  0
LWPOLYLINE
  5
4B
330
17
100
AcDbEntity
  8
0
 62
0
100
AcDbPolyline
 90
4
 70
1
 10
169.7630312712347
 20
90.89567082084403
 10
167.20563340187402
 20
109.95977717701868
 10
149.6821668341941
 20
108.15589091269868
 10
149.6821668341941
 20
90.03112892357876
  0
LWPOLYLINE
  5
4C
330
17
100
AcDbEntity
  8
0
 62
0
100
AcDbPolyline
 90
4
 70
1
 10
147.633703857088
 20
89.71273864376474
 10
147.48272108214007
 20
107.62050234329695
 10
131.31213746640816
 20
108.1722195870376
 10
129.55447087001193
 20
90.09770977315713
  0
LWPOLYLINE
  5
4D
330
17
100
AcDbEntity
  8
0
 62
0
100
AcDbPolyline
 90
4
 70
1
 10
126.45842484880075
 20
91.71153789095018
 10
129.73036602267427
 20
109.01689763781866
 10
114.35438310299435
 20
113.14006624197862
 10
108.25552954267437
 20
96.8191905171787
  0
LWPOLYLINE
  5
4E
330
17
100
AcDbEntity
  8
0
 62
0
100
AcDbPolyline
 90
4
 70
1
 10
106.72463352563716
 20
98.07286378618574
 10
112.33466108480275
 20
113.00378769705759
 10
97.5901560236216
 20
120.70191484787932
 10
88.80694458668182
 20
106.80151287435308
  0
LWPOLYLINE
  5
4F
330
17
100
AcDbEntity
  8
0
 62
0
100
AcDbPolyline
 90
4
 70
1
 10
86.55596864861974
 20
107.55883424763613
 10
95.7209862564024
 20
121.08674391760093
 10
82.30694439753523
 20
131.09229973036253
 10
71.31834908907501
 20
117.85912089931628
  0
LWPOLYLINE
  5
50
330
17
100
AcDbEntity
  8
0
 62
0
100
AcDbPolyline
 90
4
 70
1
 10
69.35775275040811
 20
117.91390812501123
 10
80.87757928142645
 20
133.29132298591452
 10
70.37724323616567
 20
144.50634158922963
 10
55.35697305136296
 20
132.82413434058253
  0
LWPOLYLINE
  5
51
330
17
100
AcDbEntity
  8
0
 62
0
100
AcDbPolyline
 90
4
 70
1
 10
54.60880108416637
 20
133.9095903952968
 10
68.1921386598857
 20
145.30731986381147
 10
63.07991258563362
 20
155.9035138594282
 10
44.525653866913956
 20
148.08667338070836
  0
LWPOLYLINE
  5
52
330
17
100
AcDbEntity
  8
0
 62
0
100
AcDbPolyline
 90
4
 70
1
 10
187.74533171199994
 20
184.3807554560002
 10
173.78668799999997
 20
195.5208268800002
 10
166.62418551790478
 20
191.12417540303613
 10
175.42921212987528
 20
174.9721418886307
  0
LWPOLYLINE
  5
53
330
17
100
AcDbEntity
  8
0
 62
0
100
AcDbPolyline
 90
4
 70
1
 10
173.81859939387533
 20
174.2205226118307
 10
165.87867552503445
 20
189.1951681376961
 10
152.2640761481399
 20
181.7671135725891
 10
151.49098203485988
 20
168.88221168458915
  0
LWPOLYLINE
  5
54
330
17
100
AcDbEntity
  8
0
 62
0
100
AcDbPolyline
 90
4
 70
1
 10
149.68765612374239
 20
169.47214342956613
 10
149.77299511645992
 20
182.1107109562691
 10
135.23891421419302
 20
189.96594232862532
 10
127.41837739067654
 20
175.09209898303067
  0
LWPOLYLINE
  5
55
330
17
100
AcDbEntity
  8
0
 62
0
100
AcDbPolyline
 90
4
 70
1
 10
282.5094806937601
 20
132.9136097484801
 10
263.18212786176014
 20
145.04689235968004
 10
253.81767269370482
 20
133.72236273300342
 10
269.4129237401602
 20
120.4351097036801
  0
LWPOLYLINE
  5
56
330
17
100
AcDbEntity
  8
0
 62
0
100
AcDbPolyline
 90
4
 70
1
 10
268.0170593689602
 20
119.36136787968007
 10
252.50305652464453
 20
131.3044931545587
 10
240.94628206211462
 20
120.71651609304132
 10
253.62891892736025
 20
106.7985885388801
  0
LWPOLYLINE
  5
57
330
17
100
AcDbEntity
  8
0
 62
0
100
AcDbPolyline
 90
4
 70
1
 10
252.23305455616025
 20
105.51009835008011
 10
238.91865593856028
 20
120.11298715648007
 10
224.63788967936023
 20
109.69769146368009
 10
235.16055955456022
 20
94.0210608332801
  0
LWPOLYLINE
  5
58
330
17
100
AcDbEntity
  8
0
 62
0
100
AcDbPolyline
 90
4
 70
1
 10
233.31779810234514
 20
93.36809252730052
 10
223.29741305255686
 20
107.96582607102522
 10
208.22749100236535
 20
100.12258255399507
 10
216.85504668160024
 20
85.18348663039978
  0
LWPOLYLINE
  5
59
330
17
100
AcDbEntity
  8
0
 62
0
100
AcDbPolyline
 90
4
 70
1
 10
214.77694990336022
 20
84.05127886848015
 10
207.0756978679517
 20
98.53723640541682
 10
192.65786832896026
 20
93.71495528448014
 10
196.2012163481603
 20
77.50145374208017
  0
LWPOLYLINE
  5
5A
330
17
100
AcDbEntity
  8
0
 62
0
100
AcDbPolyline
 90
4
 70
1
 10
194.5906036121603
 20
77.28670537728021
 10
190.2956363161603
 20
93.92970364928016
 10
172.9010187673603
 20
89.52736217088017
 10
174.9411282329603
 20
73.42123481088021
  0
LWPOLYLINE
  5
5B
330
17
100
AcDbEntity
  8
0
 62
0
100
AcDbPolyline
 90
4
 70
1
 10
152.81861032285963
 20
72.51903898606821
 10
152.5437324159156
 20
87.91220177493216
 10
136.7657405573301
 20
88.24205526326494
 10
134.01696148789011
 20
73.56357503245539
  0
LWPOLYLINE
  5
5C
330
17
100
AcDbEntity
  8
0
 62
0
100
AcDbPolyline
 90
4
 70
1
 10
132.44328547063577
 20
73.70101398592743
 10
133.92762616813332
 20
87.88471398423775
 10
118.58943896065819
 20
91.40315119312095
 10
114.1913924495542
 20
75.13037910203622
  0
LWPOLYLINE
  5
5D
330
17
100
AcDbEntity
  8
0
 62
0
100
AcDbPolyline
 90
4
 70
1
 10
112.38850360221505
 20
75.14385146237203
 10
116.90758345463593
 20
92.0766557522249
 10
100.37195936503599
 20
97.4453648722249
 10
93.7069390584818
 20
82.22436547402361
  0
LWPOLYLINE
  5
5E
330
17
100
AcDbEntity
  8
0
 62
0
100
AcDbPolyline
 90
4
 70
1
 10
92.16790463939316
 20
82.32816588118988
 10
99.51897214916403
 20
99.3091122432329
 10
83.30117563946811
 20
106.38721834704091
 10
73.43655236812856
 20
90.7054462197762
  0
LWPOLYLINE
  5
5F
330
17
100
AcDbEntity
  8
0
 62
0
100
AcDbPolyline
 90
4
 70
1
 10
71.85600440320053
 20
92.07983575449623
 10
82.47654191863609
 20
107.69288840502492
 10
69.69471924574015
 20
115.80178665987285
 10
56.256683184128576
 20
101.21952616038419
  0
LWPOLYLINE
  5
60
330
17
100
AcDbEntity
  8
0
 62
0
100
AcDbPolyline
 90
4
 70
1
 10
54.74485469593657
 20
102.04415988121616
 10
67.6892379539641
 20
116.79177662160089
 10
54.70281141411169
 20
129.47509725985907
 10
39.35169190707262
 20
114.41366569369615
  0
LWPOLYLINE
  5
61
330
17
100
AcDbEntity
  8
0
 62
0
100
AcDbPolyline
 90
4
 70
1
 10
38.006024966144594
 20
115.25870050918411
 10
53.87662313002818
 20
131.2915862128968
 10
43.51468997714966
 20
143.87568341210255
 10
23.437495898112616
 20
127.76564527513608
  0
LWPOLYLINE
  5
62
330
17
100
AcDbEntity
  8
0
 62
0
100
AcDbPolyline
 90
4
 70
1
 10
173.13761720669982
 20
197.14309649226902
 10
162.40019896669986
 20
207.708716040429
 10
153.5525663369399
 20
201.00856705866903
 10
162.05660158301987
 20
189.75575274314906
  0
LWPOLYLINE
  5
63
330
17
100
AcDbEntity
  8
0
 62
0
100
AcDbPolyline
 90
4
 70
1
 10
80.69867374019327
 20
162.72043226454815
 10
82.79958409330726
 20
159.3293367808821
 10
69.3855422344401
 20
148.20227910778902
 10
64.69992056259355
 20
156.38535550294824
  0
LWPOLYLINE
  5
64
330
17
100
AcDbEntity
  8
0
 62
0
100
AcDbPolyline
 90
4
 70
1
 10
134.36445129053988
 20
192.21336355658912
 10
125.56590868993828
 20
175.32912237960363
 10
115.5619238537401
 20
185.32440765258906
 10
128.5930889865399
 20
197.85050813258908
  0
LWPOLYLINE
  5
65
330
17
100
AcDbEntity
  8
0
 62
0
100
AcDbPolyline
 90
4
 70
1
 10
151.31918334301992
 20
201.094466404589
 10
160.85401074013987
 20
188.72496059210908
 10
151.31918334301992
 20
182.9697044154691
 10
139.98046968157996
 20
189.49805470538905
  0
LWPOLYLINE
  5
66
330
17
100
AcDbEntity
  8
0
 62
0
100
AcDbPolyline
 90
4
 70
1
 10
149.51529707869992
 20
201.95345986378902
 10
137.91888537949995
 20
190.35704816458906
 10
129.93024620894
 20
199.54827817802902
 10
138.34838210909993
 20
209.08310557514898
  0
LWPOLYLINE
  5
67
330
17
100
AcDbEntity
  8
0
 62
0
100
AcDbPolyline
 90
7
 70
1
 10
144.16269408605984
 20
224.47519462218906
 10
156.0983031693375
 20
223.6779892266469
 10
158.1642874710198
 20
217.087850873069
 10
162.88875149661976
 20
210.30180254538908
 10
151.89363521885986
 20
202.22726402890908
 10
140.0395254818999
 20
210.04410450762907
 10
143.81909670237985
 20
215.62756199242904
  0
LWPOLYLINE
  5
68
330
17
100
AcDbEntity
  8
0
 62
0
100
AcDbPolyline
 90
4
 70
1
 10
241.7658569984003
 20
96.0282790527998
 10
225.3376070912003
 20
87.22359609599977
 10
234.70369164887984
 20
77.97629531896189
 10
247.17996605132817
 20
89.82509191833594
  0
LWPOLYLINE
  5
69
330
17
100
AcDbEntity
  8
0
 62
0
100
AcDbPolyline
 90
4
 70
1
 10
247.83967302799374
 20
88.39572680222716
 10
234.92041140162576
 20
75.97124540835836
 10
253.50215791104017
 20
62.61217913087995
 10
261.6509993617411
 20
81.3567049008127
  0
LWPOLYLINE
  5
6A
330
17
100
AcDbEntity
  8
0
 62
0
100
AcDbPolyline
 90
4
 70
1
 10
262.80548657090594
 20
80.64202234275831
 10
255.10890517647397
 20
61.62047118223353
 10
279.11019393536014
 20
55.3705301908891
 10
281.1717782374401
 20
75.50533687453702
  0
LWPOLYLINE
  5
6B
330
17
100
AcDbEntity
  8
0
 62
0
100
AcDbPolyline
 90
4
 70
1
 10
283.5769599232001
 20
74.74942263044102
 10
280.41586399334415
 20
55.645408097833126
 10
301.51274335129597
 20
53.446384842281134
 10
300.68810963046406
 20
73.10015518877702
  0
LWPOLYLINE
  5
6C
330
17
100
AcDbEntity
  8
0
 62
0
100
AcDbPolyline
 90
4
 70
1
 10
269.01782609612815
 20
101.20212620650494
 10
259.29194747636086
 20
84.3214742904513
 10
278.39262017664146
 20
77.91474457262922
 10
281.0994165843972
 20
95.1314703254526
  0
LWPOLYLINE
  5
6D
330
17
100
AcDbEntity
  8
0
 62
0
100
AcDbPolyline
 90
4
 70
1
 10
282.55970546503715
 20
94.7878729417726
 10
280.012942373888
 20
77.21902882564103
 10
301.806625780735
 20
74.93786209232917
 10
300.625509774335
 20
91.4734861819291
  0
LWPOLYLINE
  5
6E
330
17
100
AcDbEntity
  8
0
 62
0
100
AcDbPolyline
 90
4
 70
1
 10
224.15649108480034
 20
86.25722845439981
 10
206.4397509888003
 20
79.3852807807998
 10
213.06238923264038
 20
68.03308243199984
 10
228.4332927977474
 20
80.14938959390713
  0
LWPOLYLINE
  5
6F
330
17
100
AcDbEntity
  8
0
 62
0
100
AcDbPolyline
 90
4
 70
1
 10
229.1479753558018
 20
78.44514657085438
 10
214.7803761510403
 20
66.95934060799982
 10
230.8886497376734
 20
53.14552607849424
 10
240.36299395911703
 20
69.37417564170238
  0
LWPOLYLINE
  5
70
330
17
100
AcDbEntity
  8
0
 62
0
100
AcDbPolyline
 90
4
 70
1
 10
241.51748116828173
 20
68.21968843253757
 10
232.35415377577067
 20
51.24850607617009
 10
249.99019721664115
 20
43.263580414134594
 10
255.5487098275844
 20
59.36647234529278
  0
LWPOLYLINE
  5
71
330
17
100
AcDbEntity
  8
0
 62
0
100
AcDbPolyline
 90
4
 70
1
 10
257.0477989236567
 20
59.06473987650122
 10
252.46753288979164
 20
43.66126661824035
 10
270.3371412211716
 20
37.3762397897728
 10
274.1313741414116
 20
54.740030780286304
  0
LWPOLYLINE
  5
72
330
17
100
AcDbEntity
  8
0
 62
0
100
AcDbPolyline
 90
4
 70
1
 10
275.5531772247007
 20
54.390704065186185
 10
273.5874897112201
 20
37.888347167503525
 10
291.6900660200504
 20
35.06441764622326
 10
292.3045254575924
 20
52.403737371593024
  0
LWPOLYLINE
  5
73
330
17
100
AcDbEntity
  8
0
 62
0
100
AcDbPolyline
 90
4
 70
1
 10
277.2179380111352
 20
124.00786344912888
 10
258.67968729927725
 20
108.6176676348926
 10
280.549263963135
 20
97.22891013072905
 10
283.01887015833495
 20
116.23414041552894
  0
LWPOLYLINE
  5
74
330
17
100
AcDbEntity
  8
0
 62
0
100
AcDbPolyline
 90
4
 70
1
 10
284.30736034713493
 20
114.62352767952893
 10
282.7315041568771
 20
96.5917592060926
 10
300.09136515993487
 20
93.14869119952908
 10
299.66186843033483
 20
107.53683164112897
  0
LWPOLYLINE
  5
75
330
17
100
AcDbEntity
  8
0
 62
0
100
AcDbPolyline
 90
4
 70
1
 10
204.6143898880003
 20
78.84840986879976
 10
185.9312821504003
 20
73.05020401919978
 10
194.42834632066382
 20
59.8778795063933
 10
209.6894363048272
 20
70.44216638309206
  0
LWPOLYLINE
  5
76
330
17
100
AcDbEntity
  8
0
 62
0
100
AcDbPolyline
 90
4
 70
1
 10
210.7347182848003
 20
68.54048835839978
 10
196.02445529600027
 20
58.984186124799805
 10
210.16328630784034
 20
42.90752375039983
 10
221.43757545984033
 20
57.939909286399825
  0
LWPOLYLINE
  5
77
330
17
100
AcDbEntity
  8
0
 62
0
100
AcDbPolyline
 90
4
 70
1
 10
223.15556237824035
 20
56.436670732799826
 10
211.51642965708015
 20
42.230806243533436
 10
227.1284071270403
 20
30.88161532159984
 10
235.4059758524204
 20
47.128001482368745
  0
LWPOLYLINE
  5
78
330
17
100
AcDbEntity
  8
0
 62
0
100
AcDbPolyline
 90
4
 70
1
 10
237.22158027264027
 20
46.45087176959987
 10
229.02752702408736
 20
31.392027193697686
 10
247.8399056460903
 20
24.803601187754566
 10
252.8982109030403
 20
40.86741428479985
  0
LWPOLYLINE
  5
79
330
17
100
AcDbEntity
  8
0
 62
0
100
AcDbPolyline
 90
4
 70
1
 10
254.72357200384033
 20
41.082162649599866
 10
249.1231857200039
 20
22.163811559325552
 10
266.40827907782125
 20
18.711078394673393
 10
269.97029214511815
 20
35.61662632155935
  0
LWPOLYLINE
  5
7A
330
17
100
AcDbEntity
  8
0
 62
0
100
AcDbPolyline
 90
4
 70
1
 10
272.01081537024027
 20
36.035576076799885
 10
268.55005010752313
 20
17.294919276608198
 10
288.2465444014765
 20
15.284478927566965
 10
290.4791747430403
 20
33.45859569919986
  0
LWPOLYLINE
  5
7B
330
17
100
AcDbEntity
  8
0
 62
0
100
AcDbPolyline
 90
4
 70
1
 10
191.25941756393763
 20
62.07241052365168
 10
171.75789007360032
 20
49.1057613439998
 10
186.58760684032023
 20
35.28127244543981
 10
201.25246622608256
 20
48.55297102737961
  0
LWPOLYLINE
  5
7C
330
17
100
AcDbEntity
  8
0
 62
0
100
AcDbPolyline
 90
4
 70
1
 10
203.46997148603452
 20
47.04660261293367
 10
188.39149310464023
 20
33.649184872959836
 10
204.88416752128023
 20
22.48226990335985
 10
215.56150657674266
 20
35.649576913495935
  0
LWPOLYLINE
  5
7D
330
17
100
AcDbEntity
  8
0
 62
0
100
AcDbPolyline
 90
4
 70
1
 10
216.82417660416024
 20
34.42227898623986
 10
206.51625509376026
 20
21.27967906047985
 10
223.460642977999
 20
11.126358699955404
 10
231.94246148608022
 20
27.37853262079983
  0
LWPOLYLINE
  5
7E
330
17
100
AcDbEntity
  8
0
 62
0
100
AcDbPolyline
 90
4
 70
1
 10
233.2487355238403
 20
26.37189966079984
 10
225.34518024816282
 20
11.313395021093925
 10
244.1223999448439
 20
4.158764822520141
 10
248.0663726950403
 20
20.57369381119986
  0
LWPOLYLINE
  5
7F
330
17
100
AcDbEntity
  8
0
 62
0
100
AcDbPolyline
 90
4
 70
1
 10
249.35486288384027
 20
19.499951987199893
 10
246.19132286479064
 20
1.6002513670688312
 10
264.49462260224027
 20
0.8168442495998534
 10
267.7158480742403
 20
15.097610508799846
  0
LWPOLYLINE
  5
80
330
17
100
AcDbEntity
  8
0
 62
0
100
AcDbPolyline
 90
4
 70
1
 10
269.5412091750403
 20
15.204984691199854
 10
266.59241752078947
 20
2.137122279068801
 10
286.8861379943884
 20
1.4928771846688371
 10
287.04320090624026
 20
13.486997772799896
  0
LWPOLYLINE
  5
81
330
17
100
AcDbEntity
  8
0
 62
0
100
AcDbPolyline
 90
4
 70
1
 10
74.47263937987344
 20
88.16932140374979
 10
61.41593880003364
 20
96.24385992022962
 10
54.25547512888403
 20
87.05764195084265
 10
64.60277012412695
 20
75.39846933535961
  0
LWPOLYLINE
  5
82
330
17
100
AcDbEntity
  8
0
 62
0
100
AcDbPolyline
 90
4
 70
1
 10
63.24376038728087
 20
73.25967494183357
 10
52.773717089216404
 20
86.7802486385504
 10
40.77290617965849
 20
77.05539638912694
 10
45.903544488247974
 20
63.4336028833261
  0
LWPOLYLINE
  5
83
330
17
100
AcDbEntity
  8
0
 62
0
100
AcDbPolyline
 90
4
 70
1
 10
44.949918856763674
 20
61.302618748159766
 10
37.21895280577155
 20
77.71157555181799
 10
23.111719664034297
 20
72.66350904663011
 10
25.53666667884479
 20
55.03196649600012
  0
LWPOLYLINE
  5
84
330
17
100
AcDbEntity
  8
0
 62
0
100
AcDbPolyline
 90
4
 70
1
 10
23.47508237676491
 20
54.51657042048015
 10
21.58857344676693
 20
71.96051429192312
 10
1.0553530916461944
 20
71.1810435289592
 10
1.3989504753261746
 20
52.970382193920244
  0
LWPOLYLINE
  5
85
330
17
100
AcDbEntity
  8
0
 62
0
100
AcDbPolyline
 90
4
 70
1
 10
94.65898567107308
 20
78.72039335254993
 10
76.44832433603341
 20
87.56802598230979
 10
69.49047731651353
 20
77.43190316374995
 10
83.19487262655338
 20
65.16154787262968
  0
LWPOLYLINE
  5
86
330
17
100
AcDbEntity
  8
0
 62
0
100
AcDbPolyline
 90
4
 70
1
 10
82.03178182083332
 20
63.85980650839019
 10
68.03018843587353
 20
76.40111101270998
 10
58.95987055439872
 20
65.00517883814973
 10
68.63148385731353
 20
49.686414431590435
  0
LWPOLYLINE
  5
87
330
17
100
AcDbEntity
  8
0
 62
0
100
AcDbPolyline
 90
4
 70
1
 10
66.27614098883356
 20
49.04118891863055
 10
55.670280671208445
 20
65.06792467363209
 10
42.18617247041516
 20
58.054606460979414
 10
48.34465252803386
 20
39.27013832023067
  0
LWPOLYLINE
  5
88
330
17
100
AcDbEntity
  8
0
 62
0
100
AcDbPolyline
 90
4
 70
1
 10
46.41191724483389
 20
39.27013832023067
 10
39.62415940972398
 20
57.694846219519974
 10
22.8423379235536
 20
52.95923013801695
 10
26.356617582527008
 20
35.52174531418643
  0
LWPOLYLINE
  5
89
330
17
100
AcDbEntity
  8
0
 62
0
100
AcDbPolyline
 90
4
 70
1
 10
24.829706582434255
 20
34.43830011223076
 10
21.28635856323433
 20
52.691911120230486
 10
0.9694537457261992
 20
51.42419396736033
 10
1.3417737231981808
 20
32.07268194432147
  0
LWPOLYLINE
  5
8A
330
17
100
AcDbEntity
  8
0
 62
0
100
AcDbPolyline
 90
4
 70
1
 10
59.36643409347363
 20
96.99682137430966
 10
43.303256406433945
 20
108.76503176534948
 10
34.815505545634096
 20
100.79554483542967
 10
47.205364595562685
 20
85.72884895154391
  0
LWPOLYLINE
  5
8B
330
17
100
AcDbEntity
  8
0
 62
0
100
AcDbPolyline
 90
4
 70
1
 10
45.45074005443388
 20
83.51062406486989
 10
34.54152312259407
 20
98.45711025494961
 10
20.883527121314273
 20
93.8185455752697
 10
24.319500958114247
 20
75.17838751063005
  0
LWPOLYLINE
  5
8C
330
17
100
AcDbEntity
  8
0
 62
0
100
AcDbPolyline
 90
4
 70
1
 10
22.03797784003433
 20
74.16674760023011
 10
19.467230893548845
 20
93.0972605690281
 10
0.9674404798062112
 20
90.52496386175814
 10
1.5043113918061803
 20
72.80822376575915
  0
LWPOLYLINE
  5
8D
330
17
100
AcDbEntity
  8
0
 62
0
100
AcDbPolyline
 90
4
 70
1
 10
115.53252672963276
 20
72.79333848407003
 10
97.06416735683308
 20
78.97809139030994
 10
88.0447360352332
 20
66.52268623191014
 10
102.56172549571295
 20
54.23907976535031
  0
LWPOLYLINE
  5
8E
330
17
100
AcDbEntity
  8
0
 62
0
100
AcDbPolyline
 90
4
 70
1
 10
101.960430074273
 20
52.43519350103037
 10
86.15495042499327
 20
65.66369277271014
 10
74.75466255896362
 20
53.74646158323122
 10
85.81135304131323
 20
38.86309684567061
  0
LWPOLYLINE
  5
8F
330
17
100
AcDbEntity
  8
0
 62
0
100
AcDbPolyline
 90
4
 70
1
 10
83.99602937316519
 20
38.483472374243036
 10
73.81118606225857
 20
51.237779785571036
 10
60.84553018665213
 20
42.99667563818548
 10
67.66503326781094
 20
29.530583599840497
  0
LWPOLYLINE
  5
90
330
17
100
AcDbEntity
  8
0
 62
0
100
AcDbPolyline
 90
4
 70
1
 10
64.50263906814627
 20
28.481053974250983
 10
58.867322403233686
 20
42.49136379223063
 10
43.791640786966184
 20
35.43385776752939
 10
47.674697565428005
 20
20.89563462723089
  0
LWPOLYLINE
  5
91
330
17
100
AcDbEntity
  8
0
 62
0
100
AcDbPolyline
 90
4
 70
1
 10
45.833071507003595
 20
19.499970491650195
 10
41.794827401633995
 20
36.69315794263076
 10
25.259203312034288
 20
32.93506155863082
 10
26.72485316488377
 20
16.33753931611062
  0
LWPOLYLINE
  5
92
330
17
100
AcDbEntity
  8
0
 62
0
100
AcDbPolyline
 90
4
 70
1
 10
24.738141776838688
 20
15.242230408137857
 10
23.56074713360664
 20
32.073909211514206
 10
1.2730542464621848
 20
30.56085345612955
 10
1.0668958162541966
 20
16.335921771778366
  0
LWPOLYLINE
  5
93
330
17
100
AcDbEntity
  8
0
 62
0
100
AcDbPolyline
 90
4
 70
1
 10
41.524871510434025
 20
109.57839119702948
 10
29.491234803478676
 20
120.70104109209416
 10
20.532084929536722
 20
113.91622998992915
 10
28.27087087043418
 20
97.76991548758963
  0
LWPOLYLINE
  5
94
330
17
100
AcDbEntity
  8
0
 62
0
100
AcDbPolyline
 90
4
 70
1
 10
26.706100417536675
 20
97.27323171792926
 10
18.787254465536705
 20
112.43983498192915
 10
0.9674404798062112
 20
106.36265576575722
 10
1.2358759358061957
 20
92.40401205375802
  0
LWPOLYLINE
  5
95
330
17
100
AcDbEntity
  8
0
 62
0
100
AcDbPolyline
 90
4
 70
1
 10
135.94687165255743
 20
56.179005122252704
 10
113.66672880455747
 20
66.91642336225271
 10
105.3870066922168
 20
55.643990629881785
 10
122.52509885255745
 20
42.22036141025279
  0
LWPOLYLINE
  5
96
330
17
100
AcDbEntity
  8
0
 62
0
100
AcDbPolyline
 90
4
 70
1
 10
121.85401021255745
 20
40.475530946252775
 10
105.86709973363378
 20
53.07044042422149
 10
94.24517168775327
 20
42.264228405746394
 10
106.06741085302252
 20
27.81867789890734
  0
LWPOLYLINE
  5
97
330
17
100
AcDbEntity
  8
0
 62
0
100
AcDbPolyline
 90
4
 70
1
 10
104.90828804935751
 20
26.74788852705285
 10
92.02338616135756
 20
40.921280603852836
 10
76.74913679103878
 20
31.989034721588666
 10
86.64349992703876
 20
14.054090154292624
  0
LWPOLYLINE
  5
98
330
17
100
AcDbEntity
  8
0
 62
0
100
AcDbPolyline
 90
4
 70
1
 10
85.44090908415876
 20
12.507901927732632
 10
74.84351697735758
 20
31.042855823052832
 10
60.67012490055765
 20
24.063533967052877
 10
75.17281356578577
 20
1.5332961521279087
  0
LWPOLYLINE
  5
99
330
17
100
AcDbEntity
  8
0
 62
0
100
AcDbPolyline
 90
4
 70
1
 10
72.20156861218578
 20
1.586144382527908
 10
58.821052610106854
 20
23.829297526017946
 10
43.9776456351317
 20
17.30094723609832
 10
48.45899600711766
 20
1.2585998025729737
  0
LWPOLYLINE
  5
9A
330
17
100
AcDbEntity
  8
0
 62
0
100
AcDbPolyline
 90
4
 70
1
 10
46.44268842757959
 20
1.2737399001632317
 10
42.465817146939784
 20
16.888630375682343
 10
25.414528546364796
 20
13.986843096322504
 10
27.132515464764698
 20
0.9301425164832514
  0
LWPOLYLINE
  5
9B
330
17
100
AcDbEntity
  8
0
 62
0
100
AcDbPolyline
 90
4
 70
1
 10
25.414528546364796
 20
1.342459376899228
 10
23.627822151228898
 20
13.162209375490551
 10
0.9981763395182005
 20
14.54921537664247
 10
1.0668958162541966
 20
0.8053200294432585
  0
LWPOLYLINE
  5
9C
330
17
100
AcDbEntity
  8
0
 62
0
100
AcDbPolyline
 90
4
 70
1
 10
145.2078948845574
 20
70.94295520225268
 10
137.6917021165574
 20
57.52118240225269
 10
115.6799947245575
 20
68.12438291425269
 10
117.29060746055745
 20
73.4930920342527
  0
LWPOLYLINE
  5
9D
330
17
100
AcDbEntity
  8
0
 62
0
100
AcDbPolyline
 90
4
 70
1
 10
288.98137095884806
 20
13.733466345410875
 10
304.09965584076804
 20
13.623515182633241
 10
305.0656504487364
 20
1.2803011757395604
 10
288.2079038119373
 20
1.4950495405395485
  0
LWPOLYLINE
  5
9E
330
17
100
AcDbEntity
  8
0
 62
0
100
AcDbPolyline
 90
4
 70
1
 10
292.34110912614403
 20
32.513855092265146
 10
302.39133259878395
 20
32.771553130025154
 10
304.79651428454395
 20
15.677583291945268
 10
290.021826786304
 20
15.41988525418526
  0
LWPOLYLINE
  5
9F
330
17
100
AcDbEntity
  8
0
 62
0
100
AcDbPolyline
 90
4
 70
1
 10
294.3329002096641
 20
51.5767990001051
 10
302.0638413424641
 20
51.5767990001051
 10
304.21132499046416
 20
34.91232589162519
 10
293.47390675046415
 20
34.568728507945195
  0
LWPOLYLINE
  5
A0
330
17
100
AcDbEntity
  8
0
 62
0
100
AcDbPolyline
 90
4
 70
1
 10
285.66911404953487
 20
133.369182565929
 10
299.16132862873394
 20
124.69078420432896
 10
288.28039965593416
 20
114.78809799632899
 10
278.28713900953494
 20
125.45033661392904
  0
LWPOLYLINE
  5
A1
330
17
100
AcDbEntity
  8
0
 62
0
100
AcDbPolyline
 90
4
 70
1
 10
245.39492446863926
 20
249.2748685366754
 10
228.00889685443155
 20
239.9290197005795
 10
235.0870029582394
 20
229.4836592367077
 10
249.6555320262712
 20
243.57115196758753
  0
LWPOLYLINE
  5
A2
330
17
100
AcDbEntity
  8
0
 62
0
100
AcDbPolyline
 90
4
 70
1
 10
250.5488852238392
 20
241.71572609571547
 10
236.22150631716465
 20
228.39809795586143
 10
252.08842447813163
 20
215.797546709299
 10
260.3081917710391
 20
232.1563368543716
  0
LWPOLYLINE
  5
A3
330
17
100
AcDbEntity
  8
0
 62
0
100
AcDbPolyline
 90
4
 70
1
 10
261.2983928652849
 20
230.3756614619889
 10
253.29880514396723
 20
214.70158976342793
 10
273.09001444393493
 20
207.21116679920402
 10
277.7449203740822
 20
223.4185696075092
  0
LWPOLYLINE
  5
A4
330
17
100
AcDbEntity
  8
0
 62
0
100
AcDbPolyline
 90
4
 70
1
 10
279.4122063036468
 20
222.74176854153973
 10
274.739281885599
 20
206.798849938788
 10
295.12695476879867
 20
204.4462816024041
 10
295.60988729166115
 20
221.22644192928715
  0
LWPOLYLINE
  5
A5
330
17
100
AcDbEntity
  8
0
 62
0
100
AcDbPolyline
 90
4
 70
1
 10
261.19042167439886
 20
260.8559794148831
 10
246.7593315598391
 20
249.94676248304324
 10
257.38613912410733
 20
237.64781139491163
 10
267.89057065615873
 20
252.18014547696316
  0
LWPOLYLINE
  5
A6
330
17
100
AcDbEntity
  8
0
 62
0
100
AcDbPolyline
 90
4
 70
1
 10
268.7495641153587
 20
250.7198565963232
 10
259.1167926904385
 20
237.22914171035427
 10
277.6830960910386
 20
225.37954954992358
 10
281.46860065880276
 20
244.41689837973934
  0
LWPOLYLINE
  5
A7
330
17
100
AcDbEntity
  8
0
 62
0
100
AcDbPolyline
 90
4
 70
1
 10
283.0607600965087
 20
243.76435869749525
 10
279.37423946383853
 20
224.57961189104356
 10
299.30288771727817
 20
222.26032955120354
 10
299.5577682197603
 20
241.34933850915615
  0
LWPOLYLINE
  5
A8
330
17
100
AcDbEntity
  8
0
 62
0
100
AcDbPolyline
 90
4
 70
1
 10
226.6345073197116
 20
239.5167028401636
 10
208.28640703119981
 20
232.0949993526757
 10
213.02805092598373
 20
223.57378423741181
 10
229.10840848220755
 20
235.46225371273965
  0
LWPOLYLINE
  5
A9
330
17
100
AcDbEntity
  8
0
 62
0
100
AcDbPolyline
 90
4
 70
1
 10
229.8643227263035
 20
233.46938888739567
 10
213.71524569334372
 20
222.47427260963582
 10
227.52786051727958
 20
207.42470720445198
 10
239.8973663297594
 20
222.0619557492198
  0
LWPOLYLINE
  5
AA
330
17
100
AcDbEntity
  8
0
 62
0
100
AcDbPolyline
 90
4
 70
1
 10
241.5368489020525
 20
220.80161745350028
 10
228.97363710607954
 20
206.11511127792397
 10
247.27019778703925
 20
194.1751021950442
 10
254.0260404971707
 20
212.32624609805066
  0
LWPOLYLINE
  5
AB
330
17
100
AcDbEntity
  8
0
 62
0
100
AcDbPolyline
 90
4
 70
1
 10
255.60243434127915
 20
211.0113739953639
 10
248.98818470543915
 20
193.91740415728418
 10
267.1988460404789
 20
187.38905386736428
 10
272.73461659710995
 20
205.5902053291258
  0
LWPOLYLINE
  5
AC
330
17
100
AcDbEntity
  8
0
 62
0
100
AcDbPolyline
 90
4
 70
1
 10
274.60184293212694
 20
205.56189935754003
 10
269.5284272516991
 20
188.15329730056953
 10
286.9535887795205
 20
185.01034258843765
 10
289.2728711193604
 20
202.79150719387695
  0
LWPOLYLINE
  5
AD
330
17
100
AcDbEntity
  8
0
 62
0
100
AcDbPolyline
 90
4
 70
1
 10
273.1398259982386
 20
274.9474986776029
 10
262.23060906639876
 20
261.7189994059231
 10
275.4591083380785
 20
248.91999686384327
 10
286.04794266211695
 20
262.4912141077946
  0
LWPOLYLINE
  5
AE
330
17
100
AcDbEntity
  8
0
 62
0
100
AcDbPolyline
 90
4
 70
1
 10
207.08247401103984
 20
232.04023851965167
 10
182.92328297104018
 20
225.70516175805176
 10
188.5067404558401
 20
216.36360788925185
 10
208.37151533037667
 20
227.6944643563295
  0
LWPOLYLINE
  5
AF
330
17
100
AcDbEntity
  8
0
 62
0
100
AcDbPolyline
 90
4
 70
1
 10
209.44470602383979
 20
226.3494068524518
 10
189.58048227984006
 20
214.86036933565197
 10
204.72024199823983
 20
199.72060961725214
 10
219.12447845383952
 20
213.26760461233482
  0
LWPOLYLINE
  5
B0
330
17
100
AcDbEntity
  8
0
 62
0
100
AcDbPolyline
 90
4
 70
1
 10
220.07475008143967
 20
212.3907631404519
 10
205.68660963983984
 20
198.53949361085216
 10
222.54435627663963
 20
185.86934008765235
 10
233.61762163755043
 20
200.14023392729297
  0
LWPOLYLINE
  5
B1
330
17
100
AcDbEntity
  8
0
 62
0
100
AcDbPolyline
 90
4
 70
1
 10
234.3707067654675
 20
198.93242811507315
 10
224.26234319503953
 20
185.11772081085235
 10
242.62332838543932
 20
175.56141857725248
 10
248.85103096463922
 20
191.98966848445224
  0
LWPOLYLINE
  5
B2
330
17
100
AcDbEntity
  8
0
 62
0
100
AcDbPolyline
 90
4
 70
1
 10
250.2309927569588
 20
190.96520420765154
 10
244.12656693903932
 20
174.9171734828525
 10
262.487552129439
 20
168.15259999165255
 10
265.8294196861077
 20
185.82745039115105
  0
LWPOLYLINE
  5
B3
330
17
100
AcDbEntity
  8
0
 62
0
100
AcDbPolyline
 90
4
 70
1
 10
268.07842307922635
 20
185.65652775631406
 10
264.1137996742699
 20
167.43863932246825
 10
283.4289000998368
 20
166.22194638339812
 10
284.69202920622126
 20
183.23416535090826
  0
LWPOLYLINE
  5
B4
330
17
100
AcDbEntity
  8
0
 62
0
100
AcDbPolyline
 90
4
 70
1
 10
286.34161245144
 20
182.30384342176205
 10
285.23770868367865
 20
165.74241869552463
 10
296.7555511238693
 20
165.7206524040683
 10
296.9702994886693
 20
181.82677976406796
  0
LWPOLYLINE
  5
B5
330
17
100
AcDbEntity
  8
0
 62
0
100
AcDbPolyline
 90
4
 70
1
 10
186.50563965584024
 20
215.38016353213152
 10
167.86548159120042
 20
205.67353744317165
 10
183.92865927824027
 20
189.18086302653182
 10
198.3597493928001
 20
202.4952616441317
  0
LWPOLYLINE
  5
B6
330
17
100
AcDbEntity
  8
0
 62
0
100
AcDbPolyline
 90
4
 70
1
 10
200.0613665802224
 20
201.70408904042426
 10
185.13635522662258
 20
188.06756787562438
 10
201.10601000079197
 20
176.90643822697217
 10
211.12090736742226
 20
191.28879334762433
  0
LWPOLYLINE
  5
B7
330
17
100
AcDbEntity
  8
0
 62
0
100
AcDbPolyline
 90
4
 70
1
 10
212.45118313103978
 20
190.37905574845223
 10
202.33098836070246
 20
176.1388330818965
 10
219.51085754470228
 20
166.31194790864862
 10
227.8334010181925
 20
180.16505914440057
  0
LWPOLYLINE
  5
B8
330
17
100
AcDbEntity
  8
0
 62
0
100
AcDbPolyline
 90
4
 70
1
 10
229.71898817433419
 20
179.70318617552857
 10
221.33297821508552
 20
166.1640859035204
 10
237.90626958233406
 20
158.6310028795288
 10
244.34872052633398
 20
172.99229977552864
  0
LWPOLYLINE
  5
B9
330
17
100
AcDbEntity
  8
0
 62
0
100
AcDbPolyline
 90
4
 70
1
 10
246.09355099033394
 20
171.9185579515286
 10
239.7404779394692
 20
158.00859838086564
 10
257.1685079810319
 20
152.7327730442214
 10
261.5285897103338
 20
166.68406655952867
  0
LWPOLYLINE
  5
BA
330
17
100
AcDbEntity
  8
0
 62
0
100
AcDbPolyline
 90
4
 70
1
 10
262.87779045954846
 20
166.30005160902147
 10
260.1864124303338
 20
151.78589875152886
 10
279.3795475343336
 20
150.30950374352886
 10
280.3320255422002
 20
164.7442733793223
  0
LWPOLYLINE
  5
BB
330
17
100
AcDbEntity
  8
0
 62
0
100
AcDbPolyline
 90
4
 70
1
 10
282.46655527833354
 20
163.9997119995287
 10
281.6612489103336
 20
150.30950374352886
 10
299.5122067343334
 20
150.30950374352886
 10
299.5122067343334
 20
163.73127654352874
  0
LWPOLYLINE
  5
BC
330
17
100
AcDbEntity
  8
0
 62
0
100
AcDbPolyline
 90
5
 70
1
 10
283.49423252111876
 20
134.7334061151725
 10
289.9366834651187
 20
142.5180343391724
 10
292.35260256911863
 20
148.28939664317232
 10
266.4485810651189
 20
149.6315739231723
 10
264.70375060111894
 20
146.27613072317234
  0
LWPOLYLINE
  5
BD
330
17
100
AcDbEntity
  8
0
 62
0
100
AcDbPolyline
 90
5
 70
1
 10
22.080356972961965
 20
129.27194323901267
 10
12.631428921762051
 20
140.0093614790125
 10
8.765958355362102
 20
148.4274973791724
 10
41.751307188641704
 20
149.97368560573238
 10
43.64109279888169
 20
146.02231569341245
  0
LWPOLYLINE
  5
BE
330
17
100
AcDbEntity
  8
0
 62
0
100
AcDbPolyline
 90
5
 70
1
 10
167.38623877776013
 20
207.34853864381193
 10
160.17069372048024
 20
217.31286277053175
 10
157.70891590533745
 20
223.94642468264692
 10
180.12327648133697
 20
225.15438423464684
 10
185.51100076687987
 20
216.79746669501185
  0
LWPOLYLINE
  5
BF
330
17
100
AcDbEntity
  8
0
 62
0
100
AcDbPolyline
 90
5
 70
1
 10
287.95117171343816
 20
262.01166116182696
 10
276.47501909852633
 20
248.13032686115514
 10
300.0288591921246
 20
242.85220382530224
 10
299.47990868460454
 20
255.56128048962205
 10
294.44674388460464
 20
258.58117936962196
  0
LWPOLYLINE
  5
C0
330
17
100
AcDbEntity
  8
0
 62
0
100
AcDbPolyline
 90
4
 70
1
 10
75.60395991673221
 20
239.8103889015963
 10
60.34823608134053
 20
248.12544558665218
 10
55.72674167276375
 20
242.63443891706515
 10
67.90653743760191
 20
230.43157448022703
  0
LWPOLYLINE
  5
C1
330
17
100
AcDbEntity
  8
0
 62
0
100
AcDbPolyline
 90
4
 70
1
 10
67.02692813538113
 20
229.66191634078382
 10
54.547471160123735
 20
241.5366419207644
 10
44.53348885494029
 20
231.20385381172332
 10
52.8982037184598
 20
216.9075814585825
  0
LWPOLYLINE
  5
C2
330
17
100
AcDbEntity
  8
0
 62
0
100
AcDbPolyline
 90
4
 70
1
 10
51.06857281618767
 20
216.57975465794243
 10
43.23455246828382
 20
230.25493052840625
 10
29.00962078393212
 20
225.30712820341432
 10
33.40766729503605
 20
208.67701483330262
  0
LWPOLYLINE
  5
C3
330
17
100
AcDbEntity
  8
0
 62
0
100
AcDbPolyline
 90
4
 70
1
 10
31.940381625055466
 20
208.20670960470557
 10
27.42907281900409
 20
224.9978905581023
 10
11.022297748284416
 20
221.99141345090243
 10
12.253499897661243
 20
204.7877739002442
  0
LWPOLYLINE
  5
C4
330
17
100
AcDbEntity
  8
0
 62
0
100
AcDbPolyline
 90
4
 70
1
 10
96.93150478828267
 20
230.6707328554469
 10
77.25322735839615
 20
238.98575518076427
 10
74.05693060547378
 20
235.56406039894694
 10
90.69992887747344
 20
223.21602942294714
  0
LWPOLYLINE
  5
C5
330
17
100
AcDbEntity
  8
0
 62
0
100
AcDbPolyline
 90
4
 70
1
 10
89.62618705347347
 20
222.03491341654717
 10
73.30531132867378
 20
233.7386992981469
 10
63.10476400067398
 20
223.75290033494719
 10
75.23804661187376
 20
208.07626970454743
  0
LWPOLYLINE
  5
C6
330
17
100
AcDbEntity
  8
0
 62
0
100
AcDbPolyline
 90
4
 70
1
 10
73.73042693131913
 20
207.50496330834136
 10
62.031022176674014
 20
222.4644101461472
 10
50.2578913953804
 20
213.32877715617815
 10
56.6365460838212
 20
197.30366116201327
  0
LWPOLYLINE
  5
C7
330
17
100
AcDbEntity
  8
0
 62
0
100
AcDbPolyline
 90
4
 70
1
 10
55.21321625682765
 20
196.1571851654628
 10
48.66339113042778
 20
212.80018343746247
 10
32.502502937403904
 20
206.48121280322283
 10
37.57056434668385
 20
188.6141488518632
  0
LWPOLYLINE
  5
C8
330
17
100
AcDbEntity
  8
0
 62
0
100
AcDbPolyline
 90
4
 70
1
 10
35.85257742828384
 20
188.0987527763432
 10
30.923453752417288
 20
206.25516807540993
 10
14.878844667242106
 20
202.77317648414362
 10
16.353425904444236
 20
184.06148351810327
  0
LWPOLYLINE
  5
C9
330
17
100
AcDbEntity
  8
0
 62
0
100
AcDbPolyline
 90
4
 70
1
 10
58.698968639676536
 20
248.53776244706808
 10
44.74891486226886
 20
257.471294422748
 10
39.79857863148385
 20
253.68827209538176
 10
49.58279095583589
 20
238.27848308546197
  0
LWPOLYLINE
  5
CA
330
17
100
AcDbEntity
  8
0
 62
0
100
AcDbPolyline
 90
4
 70
1
 10
46.92822434284369
 20
237.71099375426206
 10
37.99469236716391
 20
253.08697667394176
 10
24.08632851408953
 20
245.41964984624053
 10
30.478776423228283
 20
227.62696419138217
  0
LWPOLYLINE
  5
CB
330
17
100
AcDbEntity
  8
0
 62
0
100
AcDbPolyline
 90
4
 70
1
 10
27.600871510844115
 20
227.23127355202223
 10
22.328739122925583
 20
245.35443027790757
 10
1.5601198907487515
 20
240.69324875586187
 10
1.4742205448287677
 20
222.2248893830623
  0
LWPOLYLINE
  5
CC
330
17
100
AcDbEntity
  8
0
 62
0
100
AcDbPolyline
 90
4
 70
1
 10
118.41440056771268
 20
225.50331209046692
 10
99.07898843628254
 20
230.6924224402917
 10
96.10091293865167
 20
226.69942031305516
 10
114.38786872771271
 20
216.91337749846707
  0
LWPOLYLINE
  5
CD
330
17
100
AcDbEntity
  8
0
 62
0
100
AcDbPolyline
 90
4
 70
1
 10
112.64303826371275
 20
215.1685470344671
 10
94.6916059647105
 20
225.60749853624657
 10
85.59006067342187
 20
213.13135394969254
 10
98.68439455171301
 20
199.3308551304674
  0
LWPOLYLINE
  5
CE
330
17
100
AcDbEntity
  8
0
 62
0
100
AcDbPolyline
 90
4
 70
1
 10
97.69734899139303
 20
198.08009270614747
 10
83.74015477408716
 20
212.08143266969182
 10
69.99103137087747
 20
201.07749787439235
 10
81.2905739206733
 20
185.62468754774767
  0
LWPOLYLINE
  5
CF
330
17
100
AcDbEntity
  8
0
 62
0
100
AcDbPolyline
 90
4
 70
1
 10
79.83028504003335
 20
184.3361973589477
 10
68.06207464899353
 20
201.34426785110736
 10
53.28738715075383
 20
193.0979306427875
 10
60.340858758867284
 20
176.58165226593434
  0
LWPOLYLINE
  5
D0
330
17
100
AcDbEntity
  8
0
 62
0
100
AcDbPolyline
 90
4
 70
1
 10
58.7849452896337
 20
176.60525622614784
 10
51.6396291298185
 20
192.54199778321322
 10
36.75069369244193
 20
186.3834223738471
 10
41.898566420808265
 20
170.43500938362416
  0
LWPOLYLINE
  5
D1
330
17
100
AcDbEntity
  8
0
 62
0
100
AcDbPolyline
 90
4
 70
1
 10
39.543563172907
 20
170.18067762383072
 10
35.11127029483731
 20
186.35047615327153
 10
18.842812892062852
 20
182.50009393646133
 10
20.415021636433153
 20
165.98320752168627
  0
LWPOLYLINE
  5
D2
330
17
100
AcDbEntity
  8
0
 62
0
100
AcDbPolyline
 90
4
 70
1
 10
18.93705844818851
 20
165.42711359298352
 10
17.192292180721495
 20
182.59697803922302
 10
1.4293382078062
 20
181.8434554073528
 10
1.6977736638061844
 20
165.06623940735378
  0
LWPOLYLINE
  5
D3
330
17
100
AcDbEntity
  8
0
 62
0
100
AcDbPolyline
 90
4
 70
1
 10
43.364915630907944
 20
258.4864929568216
 10
30.050517013308195
 20
271.1136968070614
 10
20.851369905425315
 20
264.6095998989547
 10
25.669650371388286
 20
247.83497406274182
  0
LWPOLYLINE
  5
D4
330
17
100
AcDbEntity
  8
0
 62
0
100
AcDbPolyline
 90
4
 70
1
 10
23.951663452988328
 20
247.4913766790619
 10
19.31309877330841
 20
263.72635305794154
 10
0.8273150746222416
 20
254.84458776702863
 10
1.4460348219487855
 20
242.5951139616219
  0
LWPOLYLINE
  5
D5
330
17
100
AcDbEntity
  8
0
 62
0
100
AcDbPolyline
 90
4
 70
1
 10
142.00544172933775
 20
223.94642468264692
 10
121.14350835139254
 20
225.58298289494712
 10
119.29801459139259
 20
220.88536241494717
 10
141.27616755139218
 20
215.18110897494728
  0
LWPOLYLINE
  5
D6
330
17
100
AcDbEntity
  8
0
 62
0
100
AcDbPolyline
 90
4
 70
1
 10
140.36348700099217
 20
213.67787042134728
 10
119.13024243139256
 20
219.37541297494727
 10
112.75490035139268
 20
210.81903281494738
 10
127.68662259139239
 20
199.57829809494757
  0
LWPOLYLINE
  5
D7
330
17
100
AcDbEntity
  8
0
 62
0
100
AcDbPolyline
 90
4
 70
1
 10
118.45915379139257
 20
190.16292447574773
 10
104.07101334979285
 20
201.86671035734753
 10
92.47460165059306
 20
191.77353721174774
 10
103.96363916739284
 20
177.60014513494798
  0
LWPOLYLINE
  5
D8
330
17
100
AcDbEntity
  8
0
 62
0
100
AcDbPolyline
 90
4
 70
1
 10
101.95876185539288
 20
176.57170179414788
 10
91.11396943299309
 20
190.42297132374767
 10
77.15532572099335
 20
181.08141745494783
 10
86.17475704259317
 20
166.26378028374808
  0
LWPOLYLINE
  5
D9
330
17
100
AcDbEntity
  8
0
 62
0
100
AcDbPolyline
 90
4
 70
1
 10
84.2420217593932
 20
165.8342835541481
 10
75.43733880259339
 20
180.43717236054783
 10
60.40495326659362
 20
174.42421814614795
 10
64.27042383299357
 20
157.67384569174823
  0
LWPOLYLINE
  5
DA
330
17
100
AcDbEntity
  8
0
 62
0
100
AcDbPolyline
 90
4
 70
1
 10
62.908113893793654
 20
157.19200404822817
 10
57.66825379267374
 20
174.45777257814785
 10
40.14478722499405
 20
168.44481836374797
 10
44.43975452099397
 20
150.92135179606828
  0
LWPOLYLINE
  5
DB
330
17
100
AcDbEntity
  8
0
 62
0
100
AcDbPolyline
 90
4
 70
1
 10
42.371629095164906
 20
151.630473835665
 10
38.711803263394074
 20
168.24563086678808
 10
22.22788398132957
 20
163.49260378628827
 10
24.71020987843434
 20
150.46446626134843
  0
LWPOLYLINE
  5
DC
330
17
100
AcDbEntity
  8
0
 62
0
100
AcDbPolyline
 90
4
 70
1
 10
22.992222960034383
 20
150.3785669154284
 10
20.415242582434416
 20
164.12246226262818
 10
1.5173864800347587
 20
163.26346880342817
 10
1.0878897504347833
 20
150.3785669154284
  0
LWPOLYLINE
  5
DD
330
17
100
AcDbEntity
  8
0
 62
0
100
AcDbPolyline
 90
4
 70
1
 10
28.504492364604005
 20
271.7412276000217
 10
18.08919667180419
 20
282.4786458400215
 10
9.259448170251233
 20
277.95024482715405
 10
16.732691265290953
 20
263.94865144219455
  0
LWPOLYLINE
  5
DE
330
17
100
AcDbEntity
  8
0
 62
0
100
AcDbPolyline
 90
4
 70
1
 10
105.35950353859283
 20
203.1552005461475
 10
119.64026979779254
 20
191.3440404821477
 10
126.94171420099241
 20
198.2159881557476
 10
111.80195448259269
 20
209.2755289429474
  0
LWPOLYLINE
  5
DF
330
17
100
AcDbEntity
  8
0
 62
0
100
AcDbPolyline
 90
4
 70
1
 10
13.132200432444336
 20
202.57279256386295
 10
14.291841602364286
 20
184.1473828640233
 10
1.2201472958062196
 20
184.40722372735266
 10
1.4253570073715878
 20
202.23749337499686
  0
LWPOLYLINE
  5
E0
330
17
100
AcDbEntity
  8
0
 62
0
100
AcDbPolyline
 90
4
 70
1
 10
10.346952799805695
 20
204.00301201535152
 10
1.488582751806204
 20
204.13722974335153
 10
1.6228004798061963
 20
220.51179255935057
 10
9.675864159805734
 20
221.8539698393505
  0
LWPOLYLINE
  5
E1
330
17
100
AcDbEntity
  8
0
 62
0
100
AcDbPolyline
 90
4
 70
1
 10
199.3617750452031
 20
293.78437835275633
 10
190.48257959279977
 20
305.5190237219998
 10
175.0475408727998
 20
298.53970186599986
 10
181.8597833140035
 20
283.47645684235647
  0
LWPOLYLINE
  5
E2
330
17
100
AcDbEntity
  8
0
 62
0
100
AcDbPolyline
 90
4
 70
1
 10
180.03442221320353
 20
282.4027150183565
 10
173.5711458647998
 20
296.7948714019999
 10
157.3308007767999
 20
294.5131700259999
 10
158.344837368404
 20
277.7856251751566
  0
LWPOLYLINE
  5
E3
330
17
100
AcDbEntity
  8
0
 62
0
100
AcDbPolyline
 90
4
 70
1
 10
156.30472790280407
 20
277.6782509927566
 10
155.2642925912
 20
293.9813728291998
 10
138.94297204079993
 20
294.91582320999987
 10
135.31909338479994
 20
281.0913972259999
  0
LWPOLYLINE
  5
E4
330
17
100
AcDbEntity
  8
0
 62
0
100
AcDbPolyline
 90
4
 70
1
 10
133.3058274647999
 20
281.35983268199993
 10
137.1981415767999
 20
295.58691184999986
 10
120.15249012079994
 20
301.3582741539999
 10
113.05582895163673
 20
288.2301825414289
  0
LWPOLYLINE
  5
E5
330
17
100
AcDbEntity
  8
0
 62
0
100
AcDbPolyline
 90
4
 70
1
 10
111.29787963053968
 20
288.2277741063175
 10
119.37241814701969
 20
302.6588642208774
 10
109.03739230221788
 20
308.44270091339956
 10
100.37344513171234
 20
294.8222976796154
  0
LWPOLYLINE
  5
E6
330
17
100
AcDbEntity
  8
0
 62
0
100
AcDbPolyline
 90
4
 70
1
 10
229.63264549947417
 20
293.67075626302767
 10
216.21087269947452
 20
304.1397390470273
 10
206.7452590585861
 20
297.57503481525987
 10
221.0513598900027
 20
285.0870695783565
  0
LWPOLYLINE
  5
E7
330
17
100
AcDbEntity
  8
0
 62
0
100
AcDbPolyline
 90
4
 70
1
 10
219.22599878920266
 20
283.26170847755657
 10
205.80422598920296
 20
296.0392361831563
 10
193.47854089853354
 20
287.0908049722277
 10
203.54936815880302
 20
270.59155495435687
  0
LWPOLYLINE
  5
E8
330
17
100
AcDbEntity
  8
0
 62
0
100
AcDbPolyline
 90
4
 70
1
 10
201.83138124040306
 20
269.9473098599568
 10
191.63083391240326
 20
286.05343721995644
 10
177.09930268986858
 20
279.3722449202562
 10
181.00078985480354
 20
262.64586545675695
  0
LWPOLYLINE
  5
E9
330
17
100
AcDbEntity
  8
0
 62
0
100
AcDbPolyline
 90
4
 70
1
 10
179.39017711880354
 20
262.53849127435694
 10
175.73945491720366
 20
278.8593669991566
 10
158.66695991560402
 20
275.9602640743567
 10
159.63332755720398
 20
259.8541367143571
  0
LWPOLYLINE
  5
EA
330
17
100
AcDbEntity
  8
0
 62
0
100
AcDbPolyline
 90
4
 70
1
 10
158.23746318600405
 20
259.8541367143571
 10
156.51947626760403
 20
276.38976080395673
 10
140.67986943256807
 20
278.6464595015774
 10
136.7895990878443
 20
261.1759583474019
  0
LWPOLYLINE
  5
EB
330
17
100
AcDbEntity
  8
0
 62
0
100
AcDbPolyline
 90
4
 70
1
 10
135.3579877013325
 20
261.36746058354163
 10
138.58798780680445
 20
278.0003735399566
 10
122.57616502843672
 20
282.60177889496515
 10
116.80372898261282
 20
265.3531902342295
  0
LWPOLYLINE
  5
EC
330
17
100
AcDbEntity
  8
0
 62
0
100
AcDbPolyline
 90
4
 70
1
 10
115.27579436706088
 20
265.98562416856555
 10
120.99561706350875
 20
283.6325710460052
 10
104.19368443118242
 20
289.2856304804192
 10
96.51537721813327
 20
274.5755587605653
  0
LWPOLYLINE
  5
ED
330
17
100
AcDbEntity
  8
0
 62
0
100
AcDbPolyline
 90
4
 70
1
 10
95.3471461136213
 20
275.53763143486935
 10
103.53964353860749
 20
290.7518638537281
 10
94.63340652205972
 20
296.9895073901574
 10
80.03051771565976
 20
284.27640419399745
  0
LWPOLYLINE
  5
EE
330
17
100
AcDbEntity
  8
0
 62
0
100
AcDbPolyline
 90
4
 70
1
 10
254.8754856372018
 20
287.1804467047566
 10
235.7616228788023
 20
298.1867198311562
 10
224.91683045640252
 20
286.6976823143565
 10
240.2793077172022
 20
273.4231295847569
  0
LWPOLYLINE
  5
EF
330
17
100
AcDbEntity
  8
0
 62
0
100
AcDbPolyline
 90
4
 70
1
 10
238.09826963720218
 20
272.5842687847569
 10
224.2725853620026
 20
285.5165663079565
 10
211.49505765640282
 20
274.3496513383567
 10
222.49545875720253
 20
260.5046732647571
  0
LWPOLYLINE
  5
F0
330
17
100
AcDbEntity
  8
0
 62
0
100
AcDbPolyline
 90
4
 70
1
 10
221.0513598900027
 20
259.31726580235704
 10
210.42131583240285
 20
272.8464127847568
 10
196.1405495732032
 20
264.7933491047569
 10
202.04612960520308
 20
251.04945375755722
  0
LWPOLYLINE
  5
F1
330
17
100
AcDbEntity
  8
0
 62
0
100
AcDbPolyline
 90
4
 70
1
 10
200.04699540919506
 20
251.75929192962406
 10
193.403879994698
 20
264.4332342153574
 10
178.6383362863163
 20
260.8910766772832
 10
182.15072653117494
 20
244.93784204484496
  0
LWPOLYLINE
  5
F2
330
17
100
AcDbEntity
  8
0
 62
0
100
AcDbPolyline
 90
4
 70
1
 10
180.25749420933698
 20
243.4079952426465
 10
176.9472014920796
 20
260.76336314559444
 10
160.25905273733736
 20
258.44038077864616
 10
160.52748819333738
 20
241.66316477864655
  0
LWPOLYLINE
  5
F3
330
17
100
AcDbEntity
  8
0
 62
0
100
AcDbPolyline
 90
4
 70
1
 10
158.95542540342046
 20
241.72117549042457
 10
158.78265772933742
 20
258.17194532264614
 10
140.93169990533778
 20
258.7088162346462
 10
139.70014219369995
 20
242.17377944206612
  0
LWPOLYLINE
  5
F4
330
17
100
AcDbEntity
  8
0
 62
0
100
AcDbPolyline
 90
4
 70
1
 10
137.30782124933785
 20
242.33425341864654
 10
139.45530489733784
 20
259.11146941864615
 10
123.75183072133814
 20
262.06425943464615
 10
118.76094450565813
 20
245.7870044714465
  0
LWPOLYLINE
  5
F5
330
17
100
AcDbEntity
  8
0
 62
0
100
AcDbPolyline
 90
4
 70
1
 10
116.30254140563949
 20
246.96223975301393
 10
120.96371925720757
 20
261.971248519793
 10
105.26466573460215
 20
268.3933274750175
 10
98.83183890008797
 20
253.9738545337343
  0
LWPOLYLINE
  5
F6
330
17
100
AcDbEntity
  8
0
 62
0
100
AcDbPolyline
 90
4
 70
1
 10
96.10306035771725
 20
253.20380149566972
 10
103.31860541499714
 20
268.9405616682135
 10
88.85864104333729
 20
277.4390675790547
 10
78.44215483656563
 20
261.9311750411416
  0
LWPOLYLINE
  5
F7
330
17
100
AcDbEntity
  8
0
 62
0
100
AcDbPolyline
 90
4
 70
1
 10
76.80770503207287
 20
262.564038472207
 10
87.17634664261988
 20
277.8138030404755
 10
72.86537124783587
 20
287.5799833893791
 10
60.534932940988426
 20
274.878568703298
  0
LWPOLYLINE
  5
F8
330
17
100
AcDbEntity
  8
0
 62
0
100
AcDbPolyline
 90
4
 70
1
 10
59.5511169947485
 20
276.16453559881154
 10
72.88269548153221
 20
289.7709919925393
 10
61.68142077356441
 20
302.48409518869903
 10
39.27887135762887
 20
297.60501234044307
  0
LWPOLYLINE
  5
F9
330
17
100
AcDbEntity
  8
0
 62
0
100
AcDbPolyline
 90
4
 70
1
 10
270.47829651720144
 20
274.42976254475684
 10
256.72097939720175
 20
284.83163646475657
 10
245.480244677202
 20
274.0942182247569
 10
259.4053339572017
 20
262.18239486475716
  0
LWPOLYLINE
  5
FA
330
17
100
AcDbEntity
  8
0
 62
0
100
AcDbPolyline
 90
4
 70
1
 10
257.55984019720177
 20
261.1757619047571
 10
243.466978757202
 20
273.5909017447568
 10
230.54852243720234
 20
262.6857113447571
 10
241.1181685172021
 20
249.26393854475737
  0
LWPOLYLINE
  5
FB
330
17
100
AcDbEntity
  8
0
 62
0
100
AcDbPolyline
 90
4
 70
1
 10
239.58172998533576
 20
247.83718026664644
 10
228.7100940173359
 20
261.5273885226461
 10
214.59390625613105
 20
253.75036539843234
 10
222.9387317133361
 20
239.64989885864657
  0
LWPOLYLINE
  5
FC
330
17
100
AcDbEntity
  8
0
 62
0
100
AcDbPolyline
 90
4
 70
1
 10
221.3281189773361
 20
239.11302794664664
 10
212.46974892933633
 20
253.87697802664627
 10
197.1689279373366
 20
246.89765617064643
 10
203.61137888133646
 20
232.67057700264672
  0
LWPOLYLINE
  5
FD
330
17
100
AcDbEntity
  8
0
 62
0
100
AcDbPolyline
 90
4
 70
1
 10
201.8665484173365
 20
232.4021415466467
 10
195.77507683205653
 20
246.6030482576864
 10
180.31319456645684
 20
241.70678554024653
 10
182.53919558533693
 20
227.3018678826469
  0
LWPOLYLINE
  5
FE
330
17
100
AcDbEntity
  8
0
 62
0
100
AcDbPolyline
 90
4
 70
1
 10
180.74269129605682
 20
226.58850065832678
 10
178.78109920133699
 20
241.39472932264653
 10
160.52748819333738
 20
239.64989885864657
 10
162.40653638533735
 20
225.42281969064686
  0
LWPOLYLINE
  5
FF
330
17
100
AcDbEntity
  8
0
 62
0
100
AcDbPolyline
 90
4
 70
1
 10
160.39327046533737
 20
225.55703741864693
 10
158.91687545733743
 20
240.05255204264654
 10
143.21340128133772
 20
239.9183343146466
 10
141.8712240013378
 20
225.82547287464683
  0
LWPOLYLINE
  5
100
330
17
100
AcDbEntity
  8
0
 62
0
100
AcDbPolyline
 90
4
 70
1
 10
140.12639353733778
 20
225.69125514664688
 10
141.60278854533777
 20
239.78411658664663
 10
124.90811644805797
 20
242.22218161576643
 10
120.7990407053382
 20
226.8992146986468
  0
LWPOLYLINE
  5
101
330
17
100
AcDbEntity
  8
0
 62
0
100
AcDbPolyline
 90
4
 70
1
 10
118.89838345913012
 20
227.0953067992549
 10
123.50258840044205
 20
242.90078644853452
 10
105.49808549561038
 20
248.32962511067842
 10
100.20668578693852
 20
231.90567017077478
  0
LWPOLYLINE
  5
102
330
17
100
AcDbEntity
  8
0
 62
0
100
AcDbPolyline
 90
4
 70
1
 10
98.69415936656094
 20
231.7919340680677
 10
103.6114902826389
 20
247.9082213852363
 10
88.70712927492912
 20
254.53679364667016
 10
80.10521623124833
 20
239.81568381149384
  0
LWPOLYLINE
  5
103
330
17
100
AcDbEntity
  8
0
 62
0
100
AcDbPolyline
 90
4
 70
1
 10
78.21530003270016
 20
240.36014471548424
 10
87.10080890530145
 20
254.5781910303897
 10
71.78003984118334
 20
263.80568152041906
 10
60.96671137196449
 20
249.1562377376921
  0
LWPOLYLINE
  5
104
330
17
100
AcDbEntity
  8
0
 62
0
100
AcDbPolyline
 90
4
 70
1
 10
59.72976079071651
 20
250.11831041199605
 10
70.62533044656334
 20
264.371418649072
 10
57.49418170277994
 20
275.23378634298285
 10
44.13043957164484
 20
259.8077566317719
  0
LWPOLYLINE
  5
105
330
17
100
AcDbEntity
  8
0
 62
0
100
AcDbPolyline
 90
4
 70
1
 10
42.854834284732874
 20
260.9751824299158
 10
55.73973617273259
 20
275.7498699281555
 10
43.88562643577285
 20
287.77577835695524
 10
26.104461830333207
 20
276.6947627332754
  0
LWPOLYLINE
  5
106
330
17
100
AcDbEntity
  8
0
 62
0
100
AcDbPolyline
 90
5
 70
1
 10
42.38842767993282
 20
289.47463924911517
 10
25.5306810431332
 20
278.09297591471545
 10
15.544882079933359
 20
287.9714006955152
 10
13.612146796733441
 20
295.9170901931151
 10
35.62385418873299
 20
297.849825476315
  0
LWPOLYLINE
  5
107
330
17
100
AcDbEntity
  8
0
 62
0
100
AcDbPolyline
 90
4
 70
1
 10
283.11017701640117
 20
283.7712115559567
 10
274.11758924040134
 20
276.52345424395685
 10
285.3344042329602
 20
265.78126370817824
 10
292.4812298135039
 20
277.46357475329773
  0
LWPOLYLINE
  5
108
330
17
100
AcDbEntity
  8
0
 62
0
100
AcDbPolyline
 90
5
 70
1
 10
257.01531468040184
 20
286.2185879399566
 10
264.22951756040163
 20
297.45932265995634
 10
287.54984780040115
 20
295.27828457995633
 10
284.3621767604012
 20
286.72190441995656
 10
271.1081761204015
 20
277.32666345995676
  0
LWPOLYLINE
  5
109
330
17
100
AcDbEntity
  8
0
 62
0
100
AcDbPolyline
 90
7
 70
1
 10
139.47935113480452
 20
57.58994000396149
 10
149.81411619080427
 20
49.93952950796165
 10
163.23588899080397
 20
57.58994000396149
 10
156.7934380468041
 20
64.30082640396131
 10
156.92765577480412
 20
71.68280144396113
 10
147.26397935880436
 20
71.01171280396113
 10
144.31118934280443
 20
64.56926185996127
  0
LWPOLYLINE
  5
10A
330
17
100
AcDbEntity
  8
0
 62
0
100
AcDbPolyline
 90
4
 70
1
 10
164.98071945480393
 20
56.38198045196151
 10
170.6178640308038
 20
47.255174947961734
 10
161.89371171080398
 20
37.72571625996193
 10
153.70643030280416
 20
49.53687632396168
  0
LWPOLYLINE
  5
10B
330
17
100
AcDbEntity
  8
0
 62
0
100
AcDbPolyline
 90
5
 70
1
 10
151.96159983880426
 20
48.865787683961685
 10
159.47779260680403
 20
36.51775670796195
 10
150.75364028680428
 20
31.6859184999621
 10
139.74778659080454
 20
39.87319990796186
 10
148.20350345480432
 20
48.19469904396169
  0
LWPOLYLINE
  5
10C
330
17
100
AcDbEntity
  8
0
 62
0
100
AcDbPolyline
 90
4
 70
1
 10
146.86132617480433
 20
49.53687632396168
 10
137.4660852148046
 20
40.812724003961875
 10
129.81567471880476
 20
47.38939267596169
 10
138.1371738548046
 20
55.71089181196152
  0
LWPOLYLINE
  5
10D
330
17
100
AcDbEntity
  8
0
 62
0
100
AcDbPolyline
 90
4
 70
1
 10
171.89293244680374
 20
46.28209641996165
 10
185.5831407028034
 20
33.397194531961986
 10
172.9666742708037
 20
19.841204003962332
 10
162.63190921480395
 20
35.947331363961894
  0
LWPOLYLINE
  5
10E
330
17
100
AcDbEntity
  8
0
 62
0
100
AcDbPolyline
 90
4
 70
1
 10
161.558167390804
 20
34.06828317196198
 10
170.5507551668038
 20
19.17011536396234
 10
149.8812250548043
 20
10.98283395596252
 10
150.4180959668043
 20
29.23644496396207
  0
LWPOLYLINE
  5
10F
330
17
100
AcDbEntity
  8
0
 62
0
100
AcDbPolyline
 90
4
 70
1
 10
148.53904777480432
 20
30.981275427962032
 10
148.4048300468043
 20
11.25126941196254
 10
130.68808995080474
 20
21.049163555962252
 10
140.62020182280452
 20
35.27624272396196
  0
LWPOLYLINE
  5
110
330
17
100
AcDbEntity
  8
0
 62
0
100
AcDbPolyline
 90
4
 70
1
 10
139.41224227080454
 20
36.7526377319619
 10
129.2116949428048
 20
22.25712310796223
 10
116.72944623880505
 20
33.397194531961986
 10
128.5406063028048
 20
45.61100777996171
  0
LWPOLYLINE
  5
111
330
17
100
AcDbEntity
  8
0
 62
0
100
AcDbPolyline
 90
4
 70
1
 10
187.58621453679973
 20
32.336142442000664
 10
203.9607773527997
 20
20.390764650000676
 10
188.45155588493668
 20
1.1121555273412667
 10
177.9225381207998
 20
20.524982378000686
  0
LWPOLYLINE
  5
112
330
17
100
AcDbEntity
  8
0
 62
0
100
AcDbPolyline
 90
4
 70
1
 10
186.58238611771753
 20
1.1121555273412682
 10
166.55628505633143
 20
1.470527598519511
 10
162.236805778004
 20
13.643700413562385
 10
176.49743937800366
 20
19.85127033356224
  0
LWPOLYLINE
  5
113
330
17
100
AcDbEntity
  8
0
 62
0
100
AcDbPolyline
 90
5
 70
1
 10
160.2752346548042
 20
13.072541066362476
 10
149.00094550280448
 20
9.099696317562575
 10
149.14322011967874
 20
1.5718611442987156
 10
155.51718831346045
 20
0.8548010869649548
 10
164.73657284415856
 20
1.4206145420587466
  0
LWPOLYLINE
  5
114
330
17
100
AcDbEntity
  8
0
 62
0
100
AcDbPolyline
 90
4
 70
1
 10
147.6050811316045
 20
9.636567229562559
 10
146.67322284757378
 20
1.1303177025220879
 10
130.13759875797388
 20
1.3450660673220864
 10
136.4381661620048
 20
15.542147261562434
  0
LWPOLYLINE
  5
115
330
17
100
AcDbEntity
  8
0
 62
0
100
AcDbPolyline
 90
4
 70
1
 10
135.44750511163681
 20
16.506702963834357
 10
127.45667239279993
 20
0.7949763620007388
 10
110.810245925974
 20
1.0229435201220884
 10
123.7651940665171
 20
23.6363486751942
  0
LWPOLYLINE
  5
116
330
17
100
AcDbEntity
  8
0
 62
0
100
AcDbPolyline
 90
4
 70
1
 10
122.8203012613971
 20
25.268436247674174
 10
109.09225900757401
 20
0.9155693377220891
 10
98.0681129343987
 20
19.37984960133258
 10
115.08936012859726
 20
32.054484575354024
  0
LWPOLYLINE
  5
117
330
17
100
AcDbEntity
  8
0
 62
0
100
AcDbPolyline
 90
4
 70
1
 10
194.60882100048227
 20
5.840055526778039
 10
190.3757012335447
 20
0.8372776203972699
 10
211.93895867919255
 20
2.0297480966688073
 10
200.0684632407997
 20
12.606136426000717
  0
LWPOLYLINE
  5
118
330
17
100
AcDbEntity
  8
0
 62
0
100
AcDbPolyline
 90
4
 70
1
 10
200.98598844158303
 20
13.536636921209993
 10
212.80573844017496
 20
2.9263497131716574
 10
220.5288932711921
 20
10.619682688668325
 10
205.9740432727997
 20
19.31702282600071
  0
LWPOLYLINE
  5
119
330
17
100
AcDbEntity
  8
0
 62
0
100
AcDbPolyline
 90
4
 70
1
 10
256.2540240594735
 20
289.2380322950279
 10
238.428232059474
 20
299.0946466950277
 10
243.8808272594739
 20
301.8209442950275
 10
262.54548005947333
 20
298.67521629502767
  0
LWPOLYLINE
  5
11A
330
17
100
AcDbEntity
  8
0
 62
0
100
AcDbPolyline
 90
4
 70
1
 10
222.91987903547408
 20
9.93654775103488
 10
243.93646503439078
 20
2.137122279068801
 10
230.19256968719154
 20
1.2781288198688492
 10
213.44219723279247
 20
1.707625549468825
  0
LWPOLYLINE
  5
11B
330
17
100
AcDbEntity
  8
0
 62
0
100
AcDbPolyline
 90
5
 70
1
 10
183.3633980114751
 20
72.05576285503327
 10
158.36534617147578
 20
71.8879906950333
 10
159.03643481147571
 20
64.50601565503348
 10
170.61271385147546
 20
51.9231036550338
 10
188.396562811475
 20
62.660521895033526
  0
LWPOLYLINE
  5
11C
330
17
100
AcDbEntity
  8
0
 62
0
100
AcDbPolyline
 90
4
 70
1
 10
170.78048601147543
 20
89.16852317503282
 10
172.96152409147538
 20
73.90125661503322
 10
154.33881433147587
 20
73.56571229503322
 10
154.00327001147588
 20
88.32966237503285
  0
LWPOLYLINE
  5
11D
330
17
100
AcDbEntity
  8
0
 62
0
100
AcDbPolyline
 90
4
 70
1
 10
159.66083109947567
 20
147.18320016703137
 10
175.23008754747525
 20
151.61238519103125
 10
181.4041030354751
 20
133.22455645503175
 10
161.8083147474756
 20
128.66115370303186
  0
LWPOLYLINE
  5
11E
330
17
100
AcDbEntity
  8
0
 62
0
100
AcDbPolyline
 90
4
 70
1
 10
257.9685975844651
 20
84.9327956225211
 10
243.19391008622551
 20
96.88998457458479
 10
256.9378054334252
 20
107.6102229454005
 10
267.45188537403294
 20
102.11266480652063
  0
LWPOLYLINE
  5
11F
330
17
100
AcDbEntity
  8
0
 62
0
100
AcDbPolyline
 90
5
 70
1
 10
0.9307165750514628
 20
295.0034545023543
 10
0.9647540280942337
 20
275.25427235761947
 10
16.239926175050925
 20
283.6788337023547
 10
13.723343775050978
 20
285.98570090235455
 10
11.416476575051092
 20
295.0034545023543
  0
LWPOLYLINE
  5
120
330
17
100
AcDbEntity
  8
0
 62
0
100
AcDbPolyline
 90
4
 70
1
 10
299.054832543041
 20
295.56103479035426
 10
289.65959158304133
 20
295.4268170623543
 10
285.09618883104156
 20
284.5551810943547
 10
298.786397087041
 20
276.23368195835496
  0
LWPOLYLINE
  5
121
330
17
100
AcDbEntity
  8
0
 62
0
100
AcDbPolyline
 90
5
 70
1
 10
0.7090647798517011
 20
148.2165214527592
 10
7.017297995851493
 20
148.2165214527592
 10
10.641176651851367
 20
138.41862730875954
 10
16.412538955851176
 20
132.51304727675978
 10
1.5143711478517048
 20
125.26528996476003
  0
LWPOLYLINE
  5
122
330
17
100
AcDbEntity
  8
0
 62
0
100
AcDbPolyline
 90
5
 70
1
 10
299.26661750176083
 20
148.13534594171915
 10
294.37035478432097
 20
148.4789433253991
 10
291.1920789852811
 20
142.03649238139934
 10
285.60862150048126
 20
134.9927460159596
 10
299.69611423136075
 20
126.23101273211995
  0
LWPOLYLINE
  5
123
330
17
100
AcDbEntity
  8
0
 62
0
100
AcDbPolyline
 90
4
 70
1
 10
93.51671502509976
 20
298.5356956167175
 10
78.91382621869974
 20
285.0494983072774
 10
64.57050134783896
 20
301.8945356301315
 10
80.61873584504968
 20
306.2311415719115
  0
LWPOLYLINE
  5
124
330
17
100
AcDbEntity
  8
0
 62
0
100
AcDbPolyline
 90
4
 70
1
 10
290.8190593459203
 20
202.87740653979694
 10
299.66669197568
 20
202.53380915611694
 10
298.97949720832
 20
183.5500537077977
 10
288.4997770060804
 20
184.32314782107767
  0
LWPOLYLINE
  5
125
330
17
100
AcDbEntity
  8
0
 62
0
100
AcDbPolyline
 90
4
 70
1
 10
7.970957981451306
 20
276.83355333019404
 10
1.7862050752115124
 20
273.82707622299415
 10
0.8960345513582376
 20
256.70001363890054
 10
14.32750957953101
 20
263.26145667483456
  0
LWPOLYLINE
  5
126
330
17
100
AcDbEntity
  8
0
 62
0
100
AcDbPolyline
 90
4
 70
1
 10
293.7181803947518
 20
276.9138189394098
 10
300.52140859161557
 20
273.6840035328179
 10
298.80342167321567
 20
257.8098044068025
 10
286.70879376768016
 20
264.88791051061025
  0
LWPOLYLINE
  5
127
330
17
100
AcDbEntity
  8
0
 62
0
100
AcDbPolyline
 90
4
 70
1
 10
17.515980800000023
 20
131.03663871999998
 10
27.8239023104
 20
121.58771066880001
 10
16.227490611199983
 20
113.53464698879998
 10
10.53665894400001
 20
127.60066488320001
  0
LWPOLYLINE
  5
128
330
17
100
AcDbEntity
  8
0
 62
0
100
AcDbPolyline
 90
4
 70
1
 10
2.813402910720015
 20
123.56848908287998
 10
2.5557048729600638
 20
108.87970093055998
 10
14.581613301760058
 20
113.00286953471999
 10
8.826357125120012
 20
126.23136880639998
  0
LWPOLYLINE
  5
129
330
17
100
AcDbEntity
  8
0
 62
0
100
AcDbPolyline
 90
4
 70
1
 10
106.84819737378545
 20
1.1037994225279129
 10
96.75502422818556
 20
1.6406703345279077
 10
77.21292303138574
 20
1.4259219697279097
 10
96.21815331618556
 20
18.283668606527744
  0
LWPOLYLINE
  5
12A
330
17
100
AcDbEntity
  8
0
 62
0
100
AcDbPolyline
 90
3
 70
1
 10
288.8629128426211
 20
113.75422284205882
 10
300.78161888771274
 20
123.3859447013765
 10
300.91356028304585
 20
108.60850842406722
  0
ENDSEC
  0
SECTION
  2
OBJECTS
  0
DICTIONARY
  5
A
330
0
100
AcDbDictionary
281
1
  3
ACAD_COLOR
350
B
  3
ACAD_GROUP
350
C
  3
ACAD_LAYOUT
350
D
  3
ACAD_MATERIAL
350
E
  3
ACAD_MLEADERSTYLE
350
F
  3
ACAD_MLINESTYLE
350
10
  3
ACAD_PLOTSETTINGS
350
11
  3
ACAD_PLOTSTYLENAME
350
12
  3
ACAD_SCALELIST
350
14
  3
ACAD_TABLESTYLE
350
15
  3
ACAD_VISUALSTYLE
350
16
  3
EZDXF_META
350
2D
  0
DICTIONARY
  5
B
330
A
100
AcDbDictionary
281
1
  0
DICTIONARY
  5
C
330
A
100
AcDbDictionary
281
1
  0
DICTIONARY
  5
D
330
A
100
AcDbDictionary
281
1
  3
Model
350
1A
  3
Layout1
350
1E
  0
DICTIONARY
  5
E
330
A
100
AcDbDictionary
281
1
  3
ByBlock
350
1F
  3
ByLayer
350
20
  3
Global
350
21
  0
DICTIONARY
  5
F
330
A
100
AcDbDictionary
281
1
  3
Standard
350
2C
  0
DICTIONARY
  5
10
330
A
100
AcDbDictionary
281
1
  3
Standard
350
22
  0
DICTIONARY
  5
11
330
A
100
AcDbDictionary
281
1
  0
ACDBDICTIONARYWDFLT
  5
12
330
A
100
AcDbDictionary
281
1
  3
Normal
350
13
100
AcDbDictionaryWithDefault
340
13
  0
ACDBPLACEHOLDER
  5
13
330
12
  0
DICTIONARY
  5
14
330
A
100
AcDbDictionary
281
1
  0
DICTIONARY
  5
15
330
A
100
AcDbDictionary
281
1
  0
DICTIONARY
  5
16
330
A
100
AcDbDictionary
281
1
  0
LAYOUT
  5
1A
330
D
100
AcDbPlotSettings
  1

  4
A3
  6

 40
7.5
 41
20.0
 42
7.5
 43
20.0
 44
420.0
 45
297.0
 46
0.0
 47
0.0
 48
0.0
 49
0.0
140
0.0
141
0.0
142
1.0
143
1.0
 70
1024
 72
1
 73
0
 74
5
  7

 75
16
 76
0
 77
2
 78
300
147
1.0
148
0.0
149
0.0
100
AcDbLayout
  1
Model
 70
1
 71
0
 10
0.0
 20
0.0
 11
420.0
 21
297.0
 12
0.0
 22
0.0
 32
0.0
 14
1e+20
 24
1e+20
 34
1e+20
 15
-1e+20
 25
-1e+20
 35
-1e+20
146
0.0
 13
0.0
 23
0.0
 33
0.0
 16
1.0
 26
0.0
 36
0.0
 17
0.0
 27
1.0
 37
0.0
 76
1
330
17
  0
LAYOUT
  5
1E
330
D
100
AcDbPlotSettings
  1

  4
A3
  6

 40
7.5
 41
20.0
 42
7.5
 43
20.0
 44
420.0
 45
297.0
 46
0.0
 47
0.0
 48
0.0
 49
0.0
140
0.0
141
0.0
142
1.0
143
1.0
 70
0
 72
1
 73
0
 74
5
  7

 75
16
 76
0
 77
2
 78
300
147
1.0
148
0.0
149
0.0
100
AcDbLayout
  1
Layout1
 70
1
 71
1
 10
0.0
 20
0.0
 11
420.0
 21
297.0
 12
0.0
 22
0.0
 32
0.0
 14
1e+20
 24
1e+20
 34
1e+20
 15
-1e+20
 25
-1e+20
 35
-1e+20
146
0.0
 13
0.0
 23
0.0
 33
0.0
 16
1.0
 26
0.0
 36
0.0
 17
0.0
 27
1.0
 37
0.0
 76
1
330
1B
  0
MATERIAL
  5
1F
102
{ACAD_REACTORS
330
E
102
}
330
E
100
AcDbMaterial
  1
ByBlock
  2

 70
0
 40
1.0
 71
1
 41
1.0
 91
-1023410177
 42
1.0
 72
1
  3

 73
1
 74
1
 75
1
 44
0.5
 73
0
 45
1.0
 46
1.0
 77
1
  4

 78
1
 79
1
170
1
 48
1.0
171
1
  6

172
1
173
1
174
1
140
1.0
141
1.0
175
1
  7

176
1
177
1
178
1
143
1.0
179
1
  8

270
1
271
1
272
1
145
1.0
146
1.0
273
1
  9

274
1
275
1
276
1
 42
1.0
 72
1
  3

 73
1
 74
1
 75
1
 94
63
  0
MATERIAL
  5
20
102
{ACAD_REACTORS
330
E
102
}
330
E
100
AcDbMaterial
  1
ByLayer
  2

 70
0
 40
1.0
 71
1
 41
1.0
 91
-1023410177
 42
1.0
 72
1
  3

 73
1
 74
1
 75
1
 44
0.5
 73
0
 45
1.0
 46
1.0
 77
1
  4

 78
1
 79
1
170
1
 48
1.0
171
1
  6

172
1
173
1
174
1
140
1.0
141
1.0
175
1
  7

176
1
177
1
178
1
143
1.0
179
1
  8

270
1
271
1
272
1
145
1.0
146
1.0
273
1
  9

274
1
275
1
276
1
 42
1.0
 72
1
  3

 73
1
 74
1
 75
1
 94
63
  0
MATERIAL
  5
21
102
{ACAD_REACTORS
330
E
102
}
330
E
100
AcDbMaterial
  1
Global
  2

 70
0
 40
1.0
 71
1
 41
1.0
 91
-1023410177
 42
1.0
 72
1
  3

 73
1
 74
1
 75
1
 44
0.5
 73
0
 45
1.0
 46
1.0
 77
1
  4

 78
1
 79
1
170
1
 48
1.0
171
1
  6

172
1
173
1
174
1
140
1.0
141
1.0
175
1
  7

176
1
177
1
178
1
143
1.0
179
1
  8

270
1
271
1
272
1
145
1.0
146
1.0
273
1
  9

274
1
275
1
276
1
 42
1.0
 72
1
  3

 73
1
 74
1
 75
1
 94
63
  0
MLINESTYLE
  5
22
102
{ACAD_REACTORS
330
10
102
}
330
10
100
AcDbMlineStyle
  2
Standard
 70
0
  3

 62
256
 51
90.0
 52
90.0
 71
2
 49
0.5
 62
256
  6
BYLAYER
 49
-0.5
 62
256
  6
BYLAYER
  0
MLEADERSTYLE
  5
2C
102
{ACAD_REACTORS
330
F
102
}
330
F
100
AcDbMLeaderStyle
179
2
170
2
171
1
172
0
 90
2
 40
0.0
 41
0.0
173
1
 91
-1056964608
 92
-2
290
1
 42
2.0
291
1
 43
8.0
  3
Standard
 44
4.0
300

342
29
174
1
175
1
176
0
178
1
 93
-1056964608
 45
4.0
292
0
297
0
 46
4.0
 94
-1056964608
 47
1.0
 49
1.0
140
1.0
294
1
141
0.0
177
0
142
1.0
295
0
296
0
143
3.75
271
0
272
9
273
9
  0
DICTIONARY
  5
2D
330
A
100
AcDbDictionary
280
1
281
1
  3
CREATED_BY_EZDXF
350
2E
  3
WRITTEN_BY_EZDXF
350
12D
  0
DICTIONARYVAR
  5
2E
330
2D
100
DictionaryVariables
280
0
  1
1.4.2 @ 2025-09-02T11:43:58.240701+00:00
  0
DICTIONARYVAR
  5
12D
330
2D
100
DictionaryVariables
280
0
  1
1.4.2 @ 2025-09-02T11:43:58.256701+00:00
  0
ENDSEC
  0
EOF
