  0
SECTION
  2
HEADER
  9
$ACADVER
  1
AC1024
  9
$ACADMAINTVER
 70
6
  9
$DWGCODEPAGE
  3
ANSI_1252
  9
$LASTSAVEDBY
  1
ezdxf
  9
$INSBASE
 10
0.0
 20
0.0
 30
0.0
  9
$EXTMIN
 10
1e+20
 20
1e+20
 30
1e+20
  9
$EXTMAX
 10
-1e+20
 20
-1e+20
 30
-1e+20
  9
$LIMMIN
 10
0.0
 20
0.0
  9
$LIMMAX
 10
420.0
 20
297.0
  9
$ORTHOMODE
 70
0
  9
$REGENMODE
 70
1
  9
$FILLMODE
 70
1
  9
$QTEXTMODE
 70
0
  9
$MIRRTEXT
 70
1
  9
$LTSCALE
 40
1.0
  9
$ATTMODE
 70
1
  9
$TEXTSIZE
 40
2.5
  9
$TRACEWID
 40
1.0
  9
$TEXTSTYLE
  7
Standard
  9
$CLAYER
  8
0
  9
$CELTYPE
  6
ByLayer
  9
$CECOLOR
 62
256
  9
$CELTSCALE
 40
1.0
  9
$DISPSILH
 70
0
  9
$DIMSCALE
 40
1.0
  9
$DIMASZ
 40
2.5
  9
$DIMEXO
 40
0.625
  9
$DIMDLI
 40
3.75
  9
$DIMRND
 40
0.0
  9
$DIMDLE
 40
0.0
  9
$DIMEXE
 40
1.25
  9
$DIMTP
 40
0.0
  9
$DIMTM
 40
0.0
  9
$DIMTXT
 40
2.5
  9
$DIMCEN
 40
2.5
  9
$DIMTSZ
 40
0.0
  9
$DIMTOL
 70
0
  9
$DIMLIM
 70
0
  9
$DIMTIH
 70
0
  9
$DIMTOH
 70
0
  9
$DIMSE1
 70
0
  9
$DIMSE2
 70
0
  9
$DIMTAD
 70
1
  9
$DIMZIN
 70
8
  9
$DIMBLK
  1

  9
$DIMASO
 70
1
  9
$DIMSHO
 70
1
  9
$DIMPOST
  1

  9
$DIMAPOST
  1

  9
$DIMALT
 70
0
  9
$DIMALTD
 70
3
  9
$DIMALTF
 40
0.03937007874
  9
$DIMLFAC
 40
1.0
  9
$DIMTOFL
 70
1
  9
$DIMTVP
 40
0.0
  9
$DIMTIX
 70
0
  9
$DIMSOXD
 70
0
  9
$DIMSAH
 70
0
  9
$DIMBLK1
  1

  9
$DIMBLK2
  1

  9
$DIMSTYLE
  2
ISO-25
  9
$DIMCLRD
 70
0
  9
$DIMCLRE
 70
0
  9
$DIMCLRT
 70
0
  9
$DIMTFAC
 40
1.0
  9
$DIMGAP
 40
0.625
  9
$DIMJUST
 70
0
  9
$DIMSD1
 70
0
  9
$DIMSD2
 70
0
  9
$DIMTOLJ
 70
0
  9
$DIMTZIN
 70
8
  9
$DIMALTZ
 70
0
  9
$DIMALTTZ
 70
0
  9
$DIMUPT
 70
0
  9
$DIMDEC
 70
2
  9
$DIMTDEC
 70
2
  9
$DIMALTU
 70
2
  9
$DIMALTTD
 70
3
  9
$DIMTXSTY
  7
Standard
  9
$DIMAUNIT
 70
0
  9
$DIMADEC
 70
0
  9
$DIMALTRND
 40
0.0
  9
$DIMAZIN
 70
0
  9
$DIMDSEP
 70
44
  9
$DIMATFIT
 70
3
  9
$DIMFRAC
 70
0
  9
$DIMLDRBLK
  1

  9
$DIMLUNIT
 70
2
  9
$DIMLWD
 70
-2
  9
$DIMLWE
 70
-2
  9
$DIMTMOVE
 70
0
  9
$DIMFXL
 40
1.0
  9
$DIMFXLON
 70
0
  9
$DIMJOGANG
 40
0.785398163397
  9
$DIMTFILL
 70
0
  9
$DIMTFILLCLR
 70
0
  9
$DIMARCSYM
 70
0
  9
$DIMLTYPE
  6

  9
$DIMLTEX1
  6

  9
$DIMLTEX2
  6

  9
$DIMTXTDIRECTION
 70
0
  9
$LUNITS
 70
2
  9
$LUPREC
 70
4
  9
$SKETCHINC
 40
1.0
  9
$FILLETRAD
 40
10.0
  9
$AUNITS
 70
0
  9
$AUPREC
 70
2
  9
$MENU
  1
.
  9
$ELEVATION
 40
0.0
  9
$PELEVATION
 40
0.0
  9
$THICKNESS
 40
0.0
  9
$LIMCHECK
 70
0
  9
$CHAMFERA
 40
0.0
  9
$CHAMFERB
 40
0.0
  9
$CHAMFERC
 40
0.0
  9
$CHAMFERD
 40
0.0
  9
$SKPOLY
 70
0
  9
$TDCREATE
 40
2460915.3437037035
  9
$TDUCREATE
 40
2458532.153996898
  9
$TDUPDATE
 40
2460915.3437037035
  9
$TDUUPDATE
 40
2458532.1544311
  9
$TDINDWG
 40
0.0
  9
$TDUSRTIMER
 40
0.0
  9
$USRTIMER
 70
1
  9
$ANGBASE
 50
0.0
  9
$ANGDIR
 70
0
  9
$PDMODE
 70
0
  9
$PDSIZE
 40
0.0
  9
$PLINEWID
 40
0.0
  9
$SPLFRAME
 70
0
  9
$SPLINETYPE
 70
6
  9
$SPLINESEGS
 70
8
  9
$HANDSEED
  5
37
  9
$SURFTAB1
 70
6
  9
$SURFTAB2
 70
6
  9
$SURFTYPE
 70
6
  9
$SURFU
 70
6
  9
$SURFV
 70
6
  9
$UCSBASE
  2

  9
$UCSNAME
  2

  9
$UCSORG
 10
0.0
 20
0.0
 30
0.0
  9
$UCSXDIR
 10
1.0
 20
0.0
 30
0.0
  9
$UCSYDIR
 10
0.0
 20
1.0
 30
0.0
  9
$UCSORTHOREF
  2

  9
$UCSORTHOVIEW
 70
0
  9
$UCSORGTOP
 10
0.0
 20
0.0
 30
0.0
  9
$UCSORGBOTTOM
 10
0.0
 20
0.0
 30
0.0
  9
$UCSORGLEFT
 10
0.0
 20
0.0
 30
0.0
  9
$UCSORGRIGHT
 10
0.0
 20
0.0
 30
0.0
  9
$UCSORGFRONT
 10
0.0
 20
0.0
 30
0.0
  9
$UCSORGBACK
 10
0.0
 20
0.0
 30
0.0
  9
$PUCSBASE
  2

  9
$PUCSNAME
  2

  9
$PUCSORG
 10
0.0
 20
0.0
 30
0.0
  9
$PUCSXDIR
 10
1.0
 20
0.0
 30
0.0
  9
$PUCSYDIR
 10
0.0
 20
1.0
 30
0.0
  9
$PUCSORTHOREF
  2

  9
$PUCSORTHOVIEW
 70
0
  9
$PUCSORGTOP
 10
0.0
 20
0.0
 30
0.0
  9
$PUCSORGBOTTOM
 10
0.0
 20
0.0
 30
0.0
  9
$PUCSORGLEFT
 10
0.0
 20
0.0
 30
0.0
  9
$PUCSORGRIGHT
 10
0.0
 20
0.0
 30
0.0
  9
$PUCSORGFRONT
 10
0.0
 20
0.0
 30
0.0
  9
$PUCSORGBACK
 10
0.0
 20
0.0
 30
0.0
  9
$USERI1
 70
0
  9
$USERI2
 70
0
  9
$USERI3
 70
0
  9
$USERI4
 70
0
  9
$USERI5
 70
0
  9
$USERR1
 40
0.0
  9
$USERR2
 40
0.0
  9
$USERR3
 40
0.0
  9
$USERR4
 40
0.0
  9
$USERR5
 40
0.0
  9
$WORLDVIEW
 70
1
  9
$SHADEDGE
 70
3
  9
$SHADEDIF
 70
70
  9
$TILEMODE
 70
1
  9
$MAXACTVP
 70
64
  9
$PINSBASE
 10
0.0
 20
0.0
 30
0.0
  9
$PLIMCHECK
 70
0
  9
$PEXTMIN
 10
1e+20
 20
1e+20
 30
1e+20
  9
$PEXTMAX
 10
-1e+20
 20
-1e+20
 30
-1e+20
  9
$PLIMMIN
 10
0.0
 20
0.0
  9
$PLIMMAX
 10
420.0
 20
297.0
  9
$UNITMODE
 70
0
  9
$VISRETAIN
 70
1
  9
$PLINEGEN
 70
0
  9
$PSLTSCALE
 70
1
  9
$TREEDEPTH
 70
3020
  9
$CMLSTYLE
  2
Standard
  9
$CMLJUST
 70
0
  9
$CMLSCALE
 40
20.0
  9
$PROXYGRAPHICS
 70
1
  9
$MEASUREMENT
 70
1
  9
$CELWEIGHT
370
-1
  9
$ENDCAPS
280
0
  9
$JOINSTYLE
280
0
  9
$LWDISPLAY
290
0
  9
$INSUNITS
 70
6
  9
$HYPERLINKBASE
  1

  9
$STYLESHEET
  1

  9
$XEDIT
290
1
  9
$CEPSNTYPE
380
0
  9
$PSTYLEMODE
290
1
  9
$FINGERPRINTGUID
  2
{1F7A3E71-AC18-4EFE-BAA9-43BE097F94EF}
  9
$VERSIONGUID
  2
{75141FD1-E26E-4FD7-BF4E-B27CF9F38D21}
  9
$EXTNAMES
290
1
  9
$PSVPSCALE
 40
0.0
  9
$OLESTARTUP
290
0
  9
$SORTENTS
280
127
  9
$INDEXCTL
280
0
  9
$HIDETEXT
280
1
  9
$XCLIPFRAME
280
1
  9
$HALOGAP
280
0
  9
$OBSCOLOR
 70
257
  9
$OBSLTYPE
280
0
  9
$INTERSECTIONDISPLAY
280
0
  9
$INTERSECTIONCOLOR
 70
257
  9
$DIMASSOC
280
2
  9
$PROJECTNAME
  1

  9
$CAMERADISPLAY
290
0
  9
$LENSLENGTH
 40
50.0
  9
$CAMERAHEIGHT
 40
0.0
  9
$STEPSPERSEC
 40
24.0
  9
$STEPSIZE
 40
100.0
  9
$3DDWFPREC
 40
2.0
  9
$PSOLWIDTH
 40
0.005
  9
$PSOLHEIGHT
 40
0.08
  9
$LOFTANG1
 40
1.570796326795
  9
$LOFTANG2
 40
1.570796326795
  9
$LOFTMAG1
 40
0.0
  9
$LOFTMAG2
 40
0.0
  9
$LOFTPARAM
 70
7
  9
$LOFTNORMALS
280
1
  9
$LATITUDE
 40
37.795
  9
$LONGITUDE
 40
-122.394
  9
$NORTHDIRECTION
 40
0.0
  9
$TIMEZONE
 70
-8000
  9
$LIGHTGLYPHDISPLAY
280
1
  9
$TILEMODELIGHTSYNCH
280
1
  9
$CMATERIAL
347
20
  9
$SOLIDHIST
280
0
  9
$SHOWHIST
280
1
  9
$DWFFRAME
280
2
  9
$DGNFRAME
280
2
  9
$REALWORLDSCALE
290
1
  9
$INTERFERECOLOR
 62
256
  9
$CSHADOW
280
0
  9
$SHADOWPLANELOCATION
 40
0.0
  0
ENDSEC
  0
SECTION
  2
CLASSES
  0
CLASS
  1
ACDBDICTIONARYWDFLT
  2
AcDbDictionaryWithDefault
  3
ObjectDBX Classes
 90
0
 91
0
280
0
281
0
  0
CLASS
  1
SUN
  2
AcDbSun
  3
SCENEOE
 90
1153
 91
0
280
0
281
0
  0
CLASS
  1
VISUALSTYLE
  2
AcDbVisualStyle
  3
ObjectDBX Classes
 90
4095
 91
0
280
0
281
0
  0
CLASS
  1
MATERIAL
  2
AcDbMaterial
  3
ObjectDBX Classes
 90
1153
 91
0
280
0
281
0
  0
CLASS
  1
SCALE
  2
AcDbScale
  3
ObjectDBX Classes
 90
1153
 91
0
280
0
281
0
  0
CLASS
  1
TABLESTYLE
  2
AcDbTableStyle
  3
ObjectDBX Classes
 90
4095
 91
0
280
0
281
0
  0
CLASS
  1
MLEADERSTYLE
  2
AcDbMLeaderStyle
  3
ACDB_MLEADERSTYLE_CLASS
 90
4095
 91
0
280
0
281
0
  0
CLASS
  1
DICTIONARYVAR
  2
AcDbDictionaryVar
  3
ObjectDBX Classes
 90
0
 91
0
280
0
281
0
  0
CLASS
  1
CELLSTYLEMAP
  2
AcDbCellStyleMap
  3
ObjectDBX Classes
 90
1152
 91
0
280
0
281
0
  0
CLASS
  1
MENTALRAYRENDERSETTINGS
  2
AcDbMentalRayRenderSettings
  3
SCENEOE
 90
1024
 91
0
280
0
281
0
  0
CLASS
  1
ACDBDETAILVIEWSTYLE
  2
AcDbDetailViewStyle
  3
ObjectDBX Classes
 90
1025
 91
0
280
0
281
0
  0
CLASS
  1
ACDBSECTIONVIEWSTYLE
  2
AcDbSectionViewStyle
  3
ObjectDBX Classes
 90
1025
 91
0
280
0
281
0
  0
CLASS
  1
RASTERVARIABLES
  2
AcDbRasterVariables
  3
ISM
 90
0
 91
0
280
0
281
0
  0
CLASS
  1
LAYOUT
  2
AcDbLayout
  3
ObjectDBX Classes
 90
0
 91
0
280
0
281
0
  0
CLASS
  1
ACDBPLACEHOLDER
  2
AcDbPlaceHolder
  3
ObjectDBX Classes
 90
0
 91
0
280
0
281
0
  0
ENDSEC
  0
SECTION
  2
TABLES
  0
TABLE
  2
VPORT
  5
8
330
0
100
AcDbSymbolTable
 70
1
  0
VPORT
  5
23
330
8
100
AcDbSymbolTableRecord
100
AcDbViewportTableRecord
  2
*Active
 70
0
 10
0.0
 20
0.0
 11
1.0
 21
1.0
 12
0.0
 22
0.0
 13
0.0
 23
0.0
 14
0.5
 24
0.5
 15
0.5
 25
0.5
 16
0.0
 26
0.0
 36
1.0
 17
0.0
 27
0.0
 37
0.0
 40
1000.0
 41
1.34
 42
50.0
 43
0.0
 44
0.0
 50
0.0
 51
0.0
 71
0
 72
1000
 73
1
 74
3
 75
0
 76
0
 77
0
 78
0
281
0
 65
0
146
0.0
  0
ENDTAB
  0
TABLE
  2
LTYPE
  5
2
330
0
100
AcDbSymbolTable
 70
3
  0
LTYPE
  5
24
330
2
100
AcDbSymbolTableRecord
100
AcDbLinetypeTableRecord
  2
ByBlock
 70
0
  3

 72
65
 73
0
 40
0.0
  0
LTYPE
  5
25
330
2
100
AcDbSymbolTableRecord
100
AcDbLinetypeTableRecord
  2
ByLayer
 70
0
  3

 72
65
 73
0
 40
0.0
  0
LTYPE
  5
26
330
2
100
AcDbSymbolTableRecord
100
AcDbLinetypeTableRecord
  2
Continuous
 70
0
  3

 72
65
 73
0
 40
0.0
  0
ENDTAB
  0
TABLE
  2
LAYER
  5
1
330
0
100
AcDbSymbolTable
 70
2
  0
LAYER
  5
27
330
1
100
AcDbSymbolTableRecord
100
AcDbLayerTableRecord
  2
0
 70
0
 62
7
  6
Continuous
370
-3
390
13
347
21
  0
LAYER
  5
28
330
1
100
AcDbSymbolTableRecord
100
AcDbLayerTableRecord
  2
Defpoints
 70
0
 62
7
  6
Continuous
290
0
370
-3
390
13
347
21
  0
ENDTAB
  0
TABLE
  2
STYLE
  5
5
330
0
100
AcDbSymbolTable
 70
1
  0
STYLE
  5
29
330
5
100
AcDbSymbolTableRecord
100
AcDbTextStyleTableRecord
  2
Standard
 70
0
 40
0.0
 41
1.0
 50
0.0
 71
0
 42
2.5
  3
txt
  4

  0
ENDTAB
  0
TABLE
  2
VIEW
  5
7
330
0
100
AcDbSymbolTable
 70
0
  0
ENDTAB
  0
TABLE
  2
UCS
  5
6
330
0
100
AcDbSymbolTable
 70
0
  0
ENDTAB
  0
TABLE
  2
APPID
  5
3
330
0
100
AcDbSymbolTable
 70
3
  0
APPID
  5
2A
330
3
100
AcDbSymbolTableRecord
100
AcDbRegAppTableRecord
  2
ACAD
 70
0
  0
APPID
  5
34
330
3
100
AcDbSymbolTableRecord
100
AcDbRegAppTableRecord
  2
HATCHBACKGROUNDCOLOR
 70
0
  0
APPID
  5
35
330
3
100
AcDbSymbolTableRecord
100
AcDbRegAppTableRecord
  2
EZDXF
 70
0
  0
ENDTAB
  0
TABLE
  2
DIMSTYLE
  5
4
330
0
100
AcDbSymbolTable
 70
1
100
AcDbDimStyleTable
  0
DIMSTYLE
105
2B
330
4
100
AcDbSymbolTableRecord
100
AcDbDimStyleTableRecord
  2
Standard
 70
0
 40
1.0
 41
2.5
 42
0.625
 43
3.75
 44
1.25
 45
0.0
 46
0.0
 47
0.0
 48
0.0
 49
2.5
140
2.5
141
2.5
142
0.0
143
0.03937007874
144
1.0
145
0.0
146
1.0
147
0.625
148
0.0
 69
0
 70
0
 71
0
 72
0
 73
0
 74
0
 75
0
 76
0
 77
1
 78
8
 79
3
170
0
171
3
172
1
173
0
174
0
175
0
176
0
177
0
178
0
179
2
271
2
272
2
273
2
274
3
275
0
276
0
277
2
278
44
279
0
280
0
281
0
282
0
283
0
284
8
285
0
286
0
288
0
289
3
290
0
371
-2
372
-2
  0
ENDTAB
  0
TABLE
  2
BLOCK_RECORD
  5
9
330
0
100
AcDbSymbolTable
 70
2
  0
BLOCK_RECORD
  5
17
330
9
100
AcDbSymbolTableRecord
100
AcDbBlockTableRecord
  2
*Model_Space
340
1A
 70
0
280
1
281
0
  0
BLOCK_RECORD
  5
1B
330
9
100
AcDbSymbolTableRecord
100
AcDbBlockTableRecord
  2
*Paper_Space
340
1E
 70
0
280
1
281
0
  0
ENDTAB
  0
ENDSEC
  0
SECTION
  2
BLOCKS
  0
BLOCK
  5
18
330
17
100
AcDbEntity
  8
0
100
AcDbBlockBegin
  2
*Model_Space
 70
0
 10
0.0
 20
0.0
 30
0.0
  3
*Model_Space
  1

  0
ENDBLK
  5
19
330
17
100
AcDbEntity
  8
0
100
AcDbBlockEnd
  0
BLOCK
  5
1C
330
1B
100
AcDbEntity
  8
0
100
AcDbBlockBegin
  2
*Paper_Space
 70
0
 10
0.0
 20
0.0
 30
0.0
  3
*Paper_Space
  1

  0
ENDBLK
  5
1D
330
1B
100
AcDbEntity
  8
0
100
AcDbBlockEnd
  0
ENDSEC
  0
SECTION
  2
ENTITIES
  0
LWPOLYLINE
  5
2F
330
17
100
AcDbEntity
  8
FRAME
100
AcDbPolyline
 90
5
 70
1
 10
280.0
 20
280.0
 10
620.0
 20
280.0
 10
620.0
 20
620.0
 10
280.0
 20
620.0
 10
280.0
 20
280.0
  0
CIRCLE
  5
30
330
17
100
AcDbEntity
  8
CIRCLES
100
AcDbCircle
 10
450.0
 20
400.0
 30
0.0
 40
5.0
  0
CIRCLE
  5
31
330
17
100
AcDbEntity
  8
CIRCLES
100
AcDbCircle
 10
400.0
 20
500.0
 30
0.0
 40
5.0
  0
CIRCLE
  5
32
330
17
100
AcDbEntity
  8
CIRCLES
100
AcDbCircle
 10
500.0
 20
500.0
 30
0.0
 40
5.0
  0
LWPOLYLINE
  5
33
330
17
100
AcDbEntity
  8
CONTOUR_1
100
AcDbPolyline
 90
556
 70
1
 10
354.71396374828083
 20
291.7764531182205
 10
346.2437574574743
 20
300.246659409027
 10
344.8320564090066
 20
300.246659409027
 10
343.42035536053885
 20
301.6583604574948
 10
342.0086543120711
 20
301.6583604574948
 10
330.7150459243291
 20
312.9519688452367
 10
329.30334487586134
 20
312.9519688452367
 10
319.4214375365871
 20
303.0700615059625
 10
303.8927260034419
 20
303.0700615059625
 10
302.48102495497415
 20
301.6583604574948
 10
301.06932390650644
 20
301.6583604574948
 10
299.6576228580387
 20
303.0700615059625
 10
296.83422076110315
 20
303.0700615059625
 10
294.0108186641677
 20
305.893463602898
 10
292.5991176156999
 20
305.893463602898
 10
289.77571551876446
 20
308.7168656998335
 10
288.3640144702967
 20
308.7168656998335
 10
291.18741656723216
 20
308.7168656998335
 10
292.5991176156999
 20
310.12856674830124
 10
299.6576228580387
 20
310.12856674830124
 10
301.06932390650644
 20
311.540267796769
 10
301.06932390650644
 20
312.9519688452367
 10
302.48102495497415
 20
314.36366989370447
 10
302.48102495497415
 20
315.77537094217223
 10
301.06932390650644
 20
317.18707199064
 10
301.06932390650644
 20
327.0689793299142
 10
303.8927260034419
 20
327.0689793299142
 10
305.30442705190967
 20
328.480680378382
 10
305.30442705190967
 20
334.12748457225297
 10
303.8927260034419
 20
335.5391856207207
 10
303.8927260034419
 20
339.77428876612396
 10
302.48102495497415
 20
341.18598981459166
 10
302.48102495497415
 20
344.0093919115272
 10
303.8927260034419
 20
345.42109295999495
 10
303.8927260034419
 20
353.8912992508014
 10
302.48102495497415
 20
355.3030002992692
 10
302.48102495497415
 20
359.5381034446724
 10
301.06932390650644
 20
360.94980449314016
 10
301.06932390650644
 20
365.1849076385434
 10
299.6576228580387
 20
366.59660868701116
 10
299.6576228580387
 20
368.0083097354789
 10
301.06932390650644
 20
369.4200107839466
 10
301.06932390650644
 20
375.0668149778176
 10
299.6576228580387
 20
376.4785160262854
 10
299.6576228580387
 20
377.89021707475314
 10
298.2459218095709
 20
379.3019181232209
 10
298.2459218095709
 20
380.7136191716886
 10
296.83422076110315
 20
382.12532022015637
 10
298.2459218095709
 20
383.53702126862413
 10
299.6576228580387
 20
383.53702126862413
 10
302.48102495497415
 20
386.3604233655596
 10
305.30442705190967
 20
386.3604233655596
 10
308.12782914884514
 20
389.1838254624951
 10
308.12782914884514
 20
392.0072275594306
 10
306.71612810037743
 20
393.41892860789835
 10
306.71612810037743
 20
394.8306296563661
 10
305.30442705190967
 20
396.2423307048339
 10
305.30442705190967
 20
397.6540317533016
 10
302.48102495497415
 20
400.4774338502371
 10
301.06932390650644
 20
400.4774338502371
 10
302.48102495497415
 20
400.4774338502371
 10
306.71612810037743
 20
404.71253699564033
 10
306.71612810037743
 20
406.1242380441081
 10
303.8927260034419
 20
408.94764014104356
 10
302.48102495497415
 20
407.53593909257586
 10
301.06932390650644
 20
407.53593909257586
 10
299.6576228580387
 20
408.94764014104356
 10
298.2459218095709
 20
408.94764014104356
 10
296.83422076110315
 20
410.3593411895113
 10
296.83422076110315
 20
413.18274328644685
 10
295.42251971263545
 20
414.59444433491456
 10
295.42251971263545
 20
416.0061453833823
 10
294.0108186641677
 20
417.4178464318501
 10
295.42251971263545
 20
417.4178464318501
 10
296.83422076110315
 20
418.82954748031784
 10
299.6576228580387
 20
418.82954748031784
 10
302.48102495497415
 20
421.6529495772533
 10
302.48102495497415
 20
424.47635167418883
 10
301.06932390650644
 20
425.88805272265654
 10
301.06932390650644
 20
428.71145481959206
 10
299.6576228580387
 20
430.1231558680598
 10
299.6576228580387
 20
431.53485691652753
 10
301.06932390650644
 20
432.9465579649953
 10
301.06932390650644
 20
434.35825901346305
 10
299.6576228580387
 20
435.7699600619308
 10
298.2459218095709
 20
434.35825901346305
 10
298.2459218095709
 20
442.8284653042695
 10
303.8927260034419
 20
442.8284653042695
 10
305.30442705190967
 20
444.2401663527373
 10
305.30442705190967
 20
449.88697054660827
 10
303.8927260034419
 20
451.29867159507603
 10
305.30442705190967
 20
451.29867159507603
 10
306.71612810037743
 20
452.71037264354374
 10
306.71612810037743
 20
462.592279982818
 10
303.8927260034419
 20
465.4156820797535
 10
302.48102495497415
 20
465.4156820797535
 10
303.8927260034419
 20
466.82738312822124
 10
303.8927260034419
 20
473.88588837056
 10
305.30442705190967
 20
475.2975894190277
 10
305.30442705190967
 20
476.70929046749546
 10
303.8927260034419
 20
478.1209915159632
 10
305.30442705190967
 20
479.532692564431
 10
305.30442705190967
 20
488.00289885523745
 10
301.06932390650644
 20
492.2380020006407
 10
301.06932390650644
 20
493.64970304910844
 10
299.6576228580387
 20
495.0614040975762
 10
299.6576228580387
 20
496.47310514604396
 10
301.06932390650644
 20
497.88480619451167
 10
298.2459218095709
 20
500.7082082914472
 10
296.83422076110315
 20
500.7082082914472
 10
295.42251971263545
 20
502.11990933991495
 10
296.83422076110315
 20
503.53161038838266
 10
296.83422076110315
 20
506.3550124853182
 10
298.2459218095709
 20
507.76671353378595
 10
299.6576228580387
 20
506.3550124853182
 10
301.06932390650644
 20
507.76671353378595
 10
302.48102495497415
 20
506.3550124853182
 10
303.8927260034419
 20
506.3550124853182
 10
306.71612810037743
 20
509.17841458225365
 10
306.71612810037743
 20
510.5901156307214
 10
308.12782914884514
 20
512.0018166791891
 10
308.12782914884514
 20
513.4135177276569
 10
309.5395301973129
 20
514.8252187761246
 10
309.5395301973129
 20
519.0603219215279
 10
305.30442705190967
 20
523.2954250669311
 10
303.8927260034419
 20
523.2954250669311
 10
302.48102495497415
 20
524.7071261153989
 10
301.06932390650644
 20
524.7071261153989
 10
301.06932390650644
 20
527.5305282123344
 10
302.48102495497415
 20
528.9422292608022
 10
302.48102495497415
 20
530.3539303092699
 10
303.8927260034419
 20
531.7656313577377
 10
303.8927260034419
 20
533.1773324062054
 10
305.30442705190967
 20
534.5890334546731
 10
305.30442705190967
 20
537.4124355516086
 10
303.8927260034419
 20
538.8241366000764
 10
301.06932390650644
 20
538.8241366000764
 10
301.06932390650644
 20
540.2358376485441
 10
299.6576228580387
 20
541.6475386970119
 10
298.2459218095709
 20
541.6475386970119
 10
296.83422076110315
 20
543.0592397454797
 10
296.83422076110315
 20
544.4709407939474
 10
298.2459218095709
 20
545.8826418424151
 10
298.2459218095709
 20
551.5294460362861
 10
299.6576228580387
 20
552.9411470847539
 10
302.48102495497415
 20
552.9411470847539
 10
305.30442705190967
 20
555.7645491816894
 10
305.30442705190967
 20
557.176250230157
 10
306.71612810037743
 20
558.5879512786248
 10
306.71612810037743
 20
561.4113533755603
 10
308.12782914884514
 20
562.8230544240281
 10
308.12782914884514
 20
564.2347554724959
 10
309.5395301973129
 20
565.6464565209636
 10
308.12782914884514
 20
567.0581575694314
 10
302.48102495497415
 20
567.0581575694314
 10
301.06932390650644
 20
565.6464565209636
 10
299.6576228580387
 20
567.0581575694314
 10
296.83422076110315
 20
567.0581575694314
 10
295.42251971263545
 20
565.6464565209636
 10
294.0108186641677
 20
565.6464565209636
 10
294.0108186641677
 20
567.0581575694314
 10
295.42251971263545
 20
568.469858617899
 10
295.42251971263545
 20
569.8815596663668
 10
296.83422076110315
 20
571.2932607148346
 10
296.83422076110315
 20
572.7049617633023
 10
298.2459218095709
 20
574.1166628117701
 10
298.2459218095709
 20
575.5283638602378
 10
299.6576228580387
 20
576.9400649087056
 10
299.6576228580387
 20
578.3517659571734
 10
301.06932390650644
 20
579.763467005641
 10
301.06932390650644
 20
583.9985701510443
 10
303.8927260034419
 20
586.8219722479798
 10
303.8927260034419
 20
588.2336732964476
 10
306.71612810037743
 20
591.057075393383
 10
306.71612810037743
 20
592.4687764418508
 10
308.12782914884514
 20
593.8804774903185
 10
308.12782914884514
 20
595.2921785387863
 10
312.3629322942484
 20
599.5272816841896
 10
315.1863343911839
 20
599.5272816841896
 10
316.59803543965165
 20
598.1155806357218
 10
318.0097364881194
 20
599.5272816841896
 10
322.24483963352264
 20
599.5272816841896
 10
323.65654068199035
 20
598.1155806357218
 10
325.0682417304581
 20
598.1155806357218
 10
326.4799427789259
 20
599.5272816841896
 10
330.7150459243291
 20
599.5272816841896
 10
332.12674697279687
 20
598.1155806357218
 10
339.1852522151356
 20
598.1155806357218
 10
342.0086543120711
 20
600.9389827326572
 10
343.42035536053885
 20
600.9389827326572
 10
344.8320564090066
 20
599.5272816841896
 10
349.06715955440984
 20
599.5272816841896
 10
350.4788606028776
 20
598.1155806357218
 10
353.30226269981307
 20
598.1155806357218
 10
353.30226269981307
 20
596.703879587254
 10
351.8905616513453
 20
595.2921785387863
 10
351.8905616513453
 20
593.8804774903185
 10
353.30226269981307
 20
592.4687764418508
 10
366.0075721360228
 20
592.4687764418508
 10
368.8309742329583
 20
595.2921785387863
 10
368.8309742329583
 20
596.703879587254
 10
371.6543763298938
 20
599.5272816841896
 10
371.6543763298938
 20
600.9389827326572
 10
375.88947947529704
 20
600.9389827326572
 10
374.4777784268293
 20
599.5272816841896
 10
375.88947947529704
 20
598.1155806357218
 10
378.71288157223256
 20
598.1155806357218
 10
381.53628366916803
 20
600.9389827326572
 10
381.53628366916803
 20
602.350683781125
 10
388.5947889115068
 20
609.4091890234638
 10
391.41819100844225
 20
606.5857869265283
 10
391.41819100844225
 20
605.1740858780605
 10
392.82989205691
 20
603.7623848295927
 10
392.82989205691
 20
602.350683781125
 10
394.2415931053778
 20
600.9389827326572
 10
392.82989205691
 20
600.9389827326572
 10
391.41819100844225
 20
599.5272816841896
 10
392.82989205691
 20
598.1155806357218
 10
412.5937067354585
 20
598.1155806357218
 10
414.0054077839262
 20
599.5272816841896
 10
412.5937067354585
 20
600.9389827326572
 10
415.417108832394
 20
600.9389827326572
 10
416.82880988086174
 20
602.350683781125
 10
421.06391302626497
 20
602.350683781125
 10
422.47561407473273
 20
603.7623848295927
 10
426.71071722013596
 20
603.7623848295927
 10
428.1224182686037
 20
605.1740858780605
 10
430.9458203655392
 20
605.1740858780605
 10
430.9458203655392
 20
599.5272816841896
 10
432.35752141400695
 20
598.1155806357218
 10
432.35752141400695
 20
596.703879587254
 10
435.1809235109425
 20
593.8804774903185
 10
436.5926245594102
 20
595.2921785387863
 10
442.2394287532812
 20
595.2921785387863
 10
443.65112980174894
 20
596.703879587254
 10
453.53303714102316
 20
596.703879587254
 10
454.9447381894909
 20
598.1155806357218
 10
456.3564392379587
 20
596.703879587254
 10
466.2383465772329
 20
596.703879587254
 10
467.65004762570067
 20
598.1155806357218
 10
469.06174867416837
 20
598.1155806357218
 10
474.70855286803936
 20
592.4687764418508
 10
476.1202539165071
 20
593.8804774903185
 10
477.5319549649749
 20
593.8804774903185
 10
478.94365601344265
 20
595.2921785387863
 10
480.35535706191035
 20
595.2921785387863
 10
483.1787591588459
 20
598.1155806357218
 10
486.00216125578135
 20
598.1155806357218
 10
487.4138623042491
 20
596.703879587254
 10
487.4138623042491
 20
595.2921785387863
 10
490.23726440118463
 20
592.4687764418508
 10
491.64896544965234
 20
592.4687764418508
 10
494.47236754658786
 20
595.2921785387863
 10
495.8840685950556
 20
595.2921785387863
 10
497.29576964352333
 20
596.703879587254
 10
498.7074706919911
 20
596.703879587254
 10
500.11917174045885
 20
598.1155806357218
 10
504.3542748858621
 20
598.1155806357218
 10
505.76597593432984
 20
599.5272816841896
 10
505.76597593432984
 20
602.350683781125
 10
507.1776769827976
 20
602.350683781125
 10
508.5893780312653
 20
600.9389827326572
 10
510.0010790797331
 20
600.9389827326572
 10
511.41278012820084
 20
599.5272816841896
 10
512.8244811766685
 20
599.5272816841896
 10
514.2361822251363
 20
598.1155806357218
 10
525.5297906128783
 20
598.1155806357218
 10
526.941491661346
 20
599.5272816841896
 10
526.941491661346
 20
600.9389827326572
 10
525.5297906128783
 20
602.350683781125
 10
525.5297906128783
 20
605.1740858780605
 10
524.1180895644105
 20
606.5857869265283
 10
524.1180895644105
 20
607.997487974996
 10
525.5297906128783
 20
607.997487974996
 10
528.3531927098138
 20
605.1740858780605
 10
529.7648937582816
 20
605.1740858780605
 10
531.1765948067493
 20
603.7623848295927
 10
532.5882958552171
 20
603.7623848295927
 10
535.4116979521525
 20
600.9389827326572
 10
536.8233990006203
 20
600.9389827326572
 10
539.6468010975558
 20
598.1155806357218
 10
542.4702031944913
 20
598.1155806357218
 10
549.52870843683
 20
605.1740858780605
 10
549.52870843683
 20
606.5857869265283
 10
550.9404094852978
 20
606.5857869265283
 10
553.7638115822333
 20
603.7623848295927
 10
553.7638115822333
 20
602.350683781125
 10
557.9989147276365
 20
598.1155806357218
 10
560.822316824572
 20
598.1155806357218
 10
560.822316824572
 20
596.703879587254
 10
562.2340178730398
 20
595.2921785387863
 10
565.0574199699753
 20
598.1155806357218
 10
567.8808220669107
 20
598.1155806357218
 10
569.2925231153785
 20
599.5272816841896
 10
570.7042241638462
 20
599.5272816841896
 10
572.115925212314
 20
600.9389827326572
 10
572.115925212314
 20
599.5272816841896
 10
573.5276262607817
 20
598.1155806357218
 10
581.9978325515882
 20
598.1155806357218
 10
583.409533600056
 20
596.703879587254
 10
583.409533600056
 20
595.2921785387863
 10
584.8212346485237
 20
593.8804774903185
 10
584.8212346485237
 20
592.4687764418508
 10
587.6446367454593
 20
589.6453743449154
 10
589.056337793927
 20
591.057075393383
 10
590.4680388423947
 20
591.057075393383
 10
591.8797398908624
 20
592.4687764418508
 10
593.2914409393302
 20
592.4687764418508
 10
594.703141987798
 20
593.8804774903185
 10
596.1148430362657
 20
593.8804774903185
 10
597.5265440847335
 20
595.2921785387863
 10
598.9382451332012
 20
595.2921785387863
 10
600.349946181669
 20
593.8804774903185
 10
600.349946181669
 20
592.4687764418508
 10
601.7616472301366
 20
591.057075393383
 10
601.7616472301366
 20
589.6453743449154
 10
603.1733482786044
 20
588.2336732964476
 10
603.1733482786044
 20
585.4102711995121
 10
604.5850493270722
 20
583.9985701510443
 10
603.1733482786044
 20
583.9985701510443
 10
601.7616472301366
 20
582.5868691025765
 10
600.349946181669
 20
582.5868691025765
 10
598.9382451332012
 20
581.1751680541088
 10
598.9382451332012
 20
579.763467005641
 10
597.5265440847335
 20
579.763467005641
 10
593.2914409393302
 20
575.5283638602378
 10
594.703141987798
 20
574.1166628117701
 10
594.703141987798
 20
572.7049617633023
 10
596.1148430362657
 20
571.2932607148346
 10
596.1148430362657
 20
569.8815596663668
 10
597.5265440847335
 20
568.469858617899
 10
597.5265440847335
 20
565.6464565209636
 10
598.9382451332012
 20
564.2347554724959
 10
598.9382451332012
 20
558.5879512786248
 10
597.5265440847335
 20
558.5879512786248
 10
596.1148430362657
 20
557.176250230157
 10
596.1148430362657
 20
552.9411470847539
 10
597.5265440847335
 20
551.5294460362861
 10
597.5265440847335
 20
550.1177449878184
 10
598.9382451332012
 20
548.7060439393506
 10
598.9382451332012
 20
541.6475386970119
 10
600.349946181669
 20
540.2358376485441
 10
600.349946181669
 20
533.1773324062054
 10
601.7616472301366
 20
531.7656313577377
 10
601.7616472301366
 20
528.9422292608022
 10
600.349946181669
 20
528.9422292608022
 10
598.9382451332012
 20
527.5305282123344
 10
600.349946181669
 20
526.1188271638666
 10
601.7616472301366
 20
526.1188271638666
 10
601.7616472301366
 20
523.2954250669311
 10
603.1733482786044
 20
521.8837240184635
 10
603.1733482786044
 20
517.6486208730602
 10
601.7616472301366
 20
517.6486208730602
 10
598.9382451332012
 20
514.8252187761246
 10
597.5265440847335
 20
514.8252187761246
 10
596.1148430362657
 20
513.4135177276569
 10
594.703141987798
 20
513.4135177276569
 10
591.8797398908624
 20
510.5901156307214
 10
591.8797398908624
 20
507.76671353378595
 10
593.2914409393302
 20
506.3550124853182
 10
593.2914409393302
 20
500.7082082914472
 10
594.703141987798
 20
499.29650724297943
 10
594.703141987798
 20
497.88480619451167
 10
593.2914409393302
 20
496.47310514604396
 10
593.2914409393302
 20
495.0614040975762
 10
594.703141987798
 20
493.64970304910844
 10
594.703141987798
 20
488.00289885523745
 10
596.1148430362657
 20
486.5911978067697
 10
596.1148430362657
 20
483.7677957098342
 10
597.5265440847335
 20
482.35609466136646
 10
597.5265440847335
 20
480.9443936128987
 10
598.9382451332012
 20
479.532692564431
 10
598.9382451332012
 20
471.0624862736245
 10
600.349946181669
 20
469.6507852251567
 10
600.349946181669
 20
468.239084176689
 10
601.7616472301366
 20
466.82738312822124
 10
598.9382451332012
 20
464.0039810312857
 10
598.9382451332012
 20
462.592279982818
 10
593.2914409393302
 20
456.945475788947
 10
596.1148430362657
 20
454.1220736920115
 10
598.9382451332012
 20
454.1220736920115
 10
598.9382451332012
 20
452.71037264354374
 10
601.7616472301366
 20
449.88697054660827
 10
603.1733482786044
 20
449.88697054660827
 10
603.1733482786044
 20
448.4752694981405
 10
601.7616472301366
 20
447.0635684496728
 10
601.7616472301366
 20
444.2401663527373
 10
600.349946181669
 20
442.8284653042695
 10
600.349946181669
 20
440.00506320733405
 10
598.9382451332012
 20
438.5933621588663
 10
598.9382451332012
 20
435.7699600619308
 10
600.349946181669
 20
434.35825901346305
 10
598.9382451332012
 20
432.9465579649953
 10
598.9382451332012
 20
431.53485691652753
 10
600.349946181669
 20
430.1231558680598
 10
601.7616472301366
 20
431.53485691652753
 10
603.1733482786044
 20
430.1231558680598
 10
603.1733482786044
 20
428.71145481959206
 10
605.9967503755399
 20
425.88805272265654
 10
605.9967503755399
 20
424.47635167418883
 10
607.4084514240077
 20
423.0646506257211
 10
607.4084514240077
 20
421.6529495772533
 10
610.2318535209432
 20
418.82954748031784
 10
610.2318535209432
 20
417.4178464318501
 10
608.8201524724755
 20
417.4178464318501
 10
607.4084514240077
 20
416.0061453833823
 10
604.5850493270722
 20
416.0061453833823
 10
603.1733482786044
 20
414.59444433491456
 10
600.349946181669
 20
414.59444433491456
 10
598.9382451332012
 20
413.18274328644685
 10
598.9382451332012
 20
411.7710422379791
 10
594.703141987798
 20
407.53593909257586
 10
596.1148430362657
 20
406.1242380441081
 10
596.1148430362657
 20
401.88913489870487
 10
597.5265440847335
 20
400.4774338502371
 10
597.5265440847335
 20
396.2423307048339
 10
598.9382451332012
 20
394.8306296563661
 10
598.9382451332012
 20
392.0072275594306
 10
605.9967503755399
 20
384.9487223170919
 10
605.9967503755399
 20
383.53702126862413
 10
604.5850493270722
 20
382.12532022015637
 10
603.1733482786044
 20
382.12532022015637
 10
598.9382451332012
 20
377.89021707475314
 10
598.9382451332012
 20
376.4785160262854
 10
600.349946181669
 20
375.0668149778176
 10
601.7616472301366
 20
376.4785160262854
 10
603.1733482786044
 20
376.4785160262854
 10
610.2318535209432
 20
369.4200107839466
 10
607.4084514240077
 20
366.59660868701116
 10
605.9967503755399
 20
366.59660868701116
 10
603.1733482786044
 20
363.77320659007563
 10
601.7616472301366
 20
363.77320659007563
 10
598.9382451332012
 20
360.94980449314016
 10
598.9382451332012
 20
349.6561961053982
 10
603.1733482786044
 20
345.42109295999495
 10
604.5850493270722
 20
345.42109295999495
 10
605.9967503755399
 20
344.0093919115272
 10
605.9967503755399
 20
342.5976908630594
 10
604.5850493270722
 20
342.5976908630594
 10
601.7616472301366
 20
339.77428876612396
 10
600.349946181669
 20
339.77428876612396
 10
598.9382451332012
 20
338.3625877176562
 10
598.9382451332012
 20
336.95088666918844
 10
600.349946181669
 20
335.5391856207207
 10
601.7616472301366
 20
336.95088666918844
 10
601.7616472301366
 20
329.8923814268497
 10
598.9382451332012
 20
327.0689793299142
 10
597.5265440847335
 20
327.0689793299142
 10
596.1148430362657
 20
325.65727828144645
 10
596.1148430362657
 20
324.2455772329787
 10
597.5265440847335
 20
322.833876184511
 10
597.5265440847335
 20
320.01047408757546
 10
598.9382451332012
 20
318.5987730391077
 10
598.9382451332012
 20
315.77537094217223
 10
600.349946181669
 20
314.36366989370447
 10
598.9382451332012
 20
312.9519688452367
 10
600.349946181669
 20
311.540267796769
 10
601.7616472301366
 20
311.540267796769
 10
601.7616472301366
 20
307.30516465136577
 10
600.349946181669
 20
307.30516465136577
 10
598.9382451332012
 20
305.893463602898
 10
597.5265440847335
 20
305.893463602898
 10
596.1148430362657
 20
304.48176255443025
 10
593.2914409393302
 20
304.48176255443025
 10
591.8797398908624
 20
303.0700615059625
 10
590.4680388423947
 20
303.0700615059625
 10
589.056337793927
 20
301.6583604574948
 10
586.2329356969915
 20
301.6583604574948
 10
584.8212346485237
 20
300.246659409027
 10
580.5861315031204
 20
300.246659409027
 10
579.1744304546527
 20
298.83495836055926
 10
577.762729406185
 20
298.83495836055926
 10
576.3510283577173
 20
300.246659409027
 10
576.3510283577173
 20
301.6583604574948
 10
574.9393273092495
 20
303.0700615059625
 10
573.5276262607817
 20
301.6583604574948
 10
572.115925212314
 20
301.6583604574948
 10
570.7042241638462
 20
300.246659409027
 10
567.8808220669107
 20
300.246659409027
 10
566.469121018443
 20
298.83495836055926
 10
565.0574199699753
 20
298.83495836055926
 10
563.6457189215075
 20
297.4232573120915
 10
562.2340178730398
 20
297.4232573120915
 10
560.822316824572
 20
296.0115562636238
 10
557.9989147276365
 20
296.0115562636238
 10
557.9989147276365
 20
297.4232573120915
 10
553.7638115822333
 20
301.6583604574948
 10
553.7638115822333
 20
303.0700615059625
 10
550.9404094852978
 20
305.893463602898
 10
546.7053063398945
 20
301.6583604574948
 10
545.2936052914267
 20
301.6583604574948
 10
543.8819042429591
 20
300.246659409027
 10
542.4702031944913
 20
300.246659409027
 10
541.0585021460236
 20
298.83495836055926
 10
539.6468010975558
 20
300.246659409027
 10
539.6468010975558
 20
304.48176255443025
 10
538.235100049088
 20
305.893463602898
 10
532.5882958552171
 20
305.893463602898
 10
531.1765948067493
 20
304.48176255443025
 10
528.3531927098138
 20
304.48176255443025
 10
525.5297906128783
 20
301.6583604574948
 10
481.7670581103781
 20
301.6583604574948
 10
480.35535706191035
 20
303.0700615059625
 10
476.1202539165071
 20
303.0700615059625
 10
474.70855286803936
 20
304.48176255443025
 10
463.41494448029744
 20
304.48176255443025
 10
462.0032434318297
 20
305.893463602898
 10
460.5915423833619
 20
305.893463602898
 10
459.17984133489415
 20
304.48176255443025
 10
457.76814028642644
 20
305.893463602898
 10
452.12133609255545
 20
305.893463602898
 10
450.7096350440877
 20
307.30516465136577
 10
439.4160266563457
 20
307.30516465136577
 10
438.00432560787795
 20
308.7168656998335
 10
433.7692224624747
 20
304.48176255443025
 10
433.7692224624747
 20
301.6583604574948
 10
430.9458203655392
 20
298.83495836055926
 10
430.9458203655392
 20
297.4232573120915
 10
429.5341193170715
 20
297.4232573120915
 10
428.1224182686037
 20
298.83495836055926
 10
425.2990161716682
 20
298.83495836055926
 10
423.8873151232005
 20
300.246659409027
 10
421.06391302626497
 20
300.246659409027
 10
419.6522119777972
 20
301.6583604574948
 10
415.417108832394
 20
301.6583604574948
 10
414.0054077839262
 20
303.0700615059625
 10
412.5937067354585
 20
303.0700615059625
 10
411.18200568699075
 20
304.48176255443025
 10
409.770304638523
 20
304.48176255443025
 10
408.3586035900552
 20
305.893463602898
 10
405.53520149311976
 20
305.893463602898
 10
404.123500444652
 20
307.30516465136577
 10
402.71179939618423
 20
307.30516465136577
 10
399.88839729924877
 20
310.12856674830124
 10
395.65329415384554
 20
305.893463602898
 10
395.65329415384554
 20
304.48176255443025
 10
394.2415931053778
 20
303.0700615059625
 10
394.2415931053778
 20
301.6583604574948
 10
392.82989205691
 20
300.246659409027
 10
391.41819100844225
 20
300.246659409027
 10
390.00648995997454
 20
301.6583604574948
 10
385.77138681457126
 20
301.6583604574948
 10
381.53628366916803
 20
305.893463602898
 10
380.12458262070027
 20
305.893463602898
 10
375.88947947529704
 20
310.12856674830124
 10
373.06607737836157
 20
310.12856674830124
 10
371.6543763298938
 20
308.7168656998335
 10
371.6543763298938
 20
307.30516465136577
 10
367.4192731844906
 20
303.0700615059625
 10
367.4192731844906
 20
301.6583604574948
 10
364.59587108755505
 20
301.6583604574948
 10
363.1841700390873
 20
300.246659409027
 10
361.7724689906196
 20
300.246659409027
 10
357.5373658452163
 20
296.0115562636238
 10
357.5373658452163
 20
294.599855215156
 10
354.71396374828083
 20
291.7764531182205
  0
ENDSEC
  0
SECTION
  2
OBJECTS
  0
DICTIONARY
  5
A
330
0
100
AcDbDictionary
281
1
  3
ACAD_COLOR
350
B
  3
ACAD_GROUP
350
C
  3
ACAD_LAYOUT
350
D
  3
ACAD_MATERIAL
350
E
  3
ACAD_MLEADERSTYLE
350
F
  3
ACAD_MLINESTYLE
350
10
  3
ACAD_PLOTSETTINGS
350
11
  3
ACAD_PLOTSTYLENAME
350
12
  3
ACAD_SCALELIST
350
14
  3
ACAD_TABLESTYLE
350
15
  3
ACAD_VISUALSTYLE
350
16
  3
EZDXF_META
350
2D
  0
DICTIONARY
  5
B
330
A
100
AcDbDictionary
281
1
  0
DICTIONARY
  5
C
330
A
100
AcDbDictionary
281
1
  0
DICTIONARY
  5
D
330
A
100
AcDbDictionary
281
1
  3
Model
350
1A
  3
Layout1
350
1E
  0
DICTIONARY
  5
E
330
A
100
AcDbDictionary
281
1
  3
ByBlock
350
1F
  3
ByLayer
350
20
  3
Global
350
21
  0
DICTIONARY
  5
F
330
A
100
AcDbDictionary
281
1
  3
Standard
350
2C
  0
DICTIONARY
  5
10
330
A
100
AcDbDictionary
281
1
  3
Standard
350
22
  0
DICTIONARY
  5
11
330
A
100
AcDbDictionary
281
1
  0
ACDBDICTIONARYWDFLT
  5
12
330
A
100
AcDbDictionary
281
1
  3
Normal
350
13
100
AcDbDictionaryWithDefault
340
13
  0
ACDBPLACEHOLDER
  5
13
330
12
  0
DICTIONARY
  5
14
330
A
100
AcDbDictionary
281
1
  0
DICTIONARY
  5
15
330
A
100
AcDbDictionary
281
1
  0
DICTIONARY
  5
16
330
A
100
AcDbDictionary
281
1
  0
LAYOUT
  5
1A
330
D
100
AcDbPlotSettings
  1

  4
A3
  6

 40
7.5
 41
20.0
 42
7.5
 43
20.0
 44
420.0
 45
297.0
 46
0.0
 47
0.0
 48
0.0
 49
0.0
140
0.0
141
0.0
142
1.0
143
1.0
 70
1024
 72
1
 73
0
 74
5
  7

 75
16
 76
0
 77
2
 78
300
147
1.0
148
0.0
149
0.0
100
AcDbLayout
  1
Model
 70
1
 71
0
 10
0.0
 20
0.0
 11
420.0
 21
297.0
 12
0.0
 22
0.0
 32
0.0
 14
1e+20
 24
1e+20
 34
1e+20
 15
-1e+20
 25
-1e+20
 35
-1e+20
146
0.0
 13
0.0
 23
0.0
 33
0.0
 16
1.0
 26
0.0
 36
0.0
 17
0.0
 27
1.0
 37
0.0
 76
1
330
17
  0
LAYOUT
  5
1E
330
D
100
AcDbPlotSettings
  1

  4
A3
  6

 40
7.5
 41
20.0
 42
7.5
 43
20.0
 44
420.0
 45
297.0
 46
0.0
 47
0.0
 48
0.0
 49
0.0
140
0.0
141
0.0
142
1.0
143
1.0
 70
0
 72
1
 73
0
 74
5
  7

 75
16
 76
0
 77
2
 78
300
147
1.0
148
0.0
149
0.0
100
AcDbLayout
  1
Layout1
 70
1
 71
1
 10
0.0
 20
0.0
 11
420.0
 21
297.0
 12
0.0
 22
0.0
 32
0.0
 14
1e+20
 24
1e+20
 34
1e+20
 15
-1e+20
 25
-1e+20
 35
-1e+20
146
0.0
 13
0.0
 23
0.0
 33
0.0
 16
1.0
 26
0.0
 36
0.0
 17
0.0
 27
1.0
 37
0.0
 76
1
330
1B
  0
MATERIAL
  5
1F
102
{ACAD_REACTORS
330
E
102
}
330
E
100
AcDbMaterial
  1
ByBlock
  2

 70
0
 40
1.0
 71
1
 41
1.0
 91
-1023410177
 42
1.0
 72
1
  3

 73
1
 74
1
 75
1
 44
0.5
 73
0
 45
1.0
 46
1.0
 77
1
  4

 78
1
 79
1
170
1
 48
1.0
171
1
  6

172
1
173
1
174
1
140
1.0
141
1.0
175
1
  7

176
1
177
1
178
1
143
1.0
179
1
  8

270
1
271
1
272
1
145
1.0
146
1.0
273
1
  9

274
1
275
1
276
1
 42
1.0
 72
1
  3

 73
1
 74
1
 75
1
 94
63
  0
MATERIAL
  5
20
102
{ACAD_REACTORS
330
E
102
}
330
E
100
AcDbMaterial
  1
ByLayer
  2

 70
0
 40
1.0
 71
1
 41
1.0
 91
-1023410177
 42
1.0
 72
1
  3

 73
1
 74
1
 75
1
 44
0.5
 73
0
 45
1.0
 46
1.0
 77
1
  4

 78
1
 79
1
170
1
 48
1.0
171
1
  6

172
1
173
1
174
1
140
1.0
141
1.0
175
1
  7

176
1
177
1
178
1
143
1.0
179
1
  8

270
1
271
1
272
1
145
1.0
146
1.0
273
1
  9

274
1
275
1
276
1
 42
1.0
 72
1
  3

 73
1
 74
1
 75
1
 94
63
  0
MATERIAL
  5
21
102
{ACAD_REACTORS
330
E
102
}
330
E
100
AcDbMaterial
  1
Global
  2

 70
0
 40
1.0
 71
1
 41
1.0
 91
-1023410177
 42
1.0
 72
1
  3

 73
1
 74
1
 75
1
 44
0.5
 73
0
 45
1.0
 46
1.0
 77
1
  4

 78
1
 79
1
170
1
 48
1.0
171
1
  6

172
1
173
1
174
1
140
1.0
141
1.0
175
1
  7

176
1
177
1
178
1
143
1.0
179
1
  8

270
1
271
1
272
1
145
1.0
146
1.0
273
1
  9

274
1
275
1
276
1
 42
1.0
 72
1
  3

 73
1
 74
1
 75
1
 94
63
  0
MLINESTYLE
  5
22
102
{ACAD_REACTORS
330
10
102
}
330
10
100
AcDbMlineStyle
  2
Standard
 70
0
  3

 62
256
 51
90.0
 52
90.0
 71
2
 49
0.5
 62
256
  6
BYLAYER
 49
-0.5
 62
256
  6
BYLAYER
  0
MLEADERSTYLE
  5
2C
102
{ACAD_REACTORS
330
F
102
}
330
F
100
AcDbMLeaderStyle
179
2
170
2
171
1
172
0
 90
2
 40
0.0
 41
0.0
173
1
 91
-1056964608
 92
-2
290
1
 42
2.0
291
1
 43
8.0
  3
Standard
 44
4.0
300

342
29
174
1
175
1
176
0
178
1
 93
-1056964608
 45
4.0
292
0
297
0
 46
4.0
 94
-1056964608
 47
1.0
 49
1.0
140
1.0
294
1
141
0.0
177
0
142
1.0
295
0
296
0
143
3.75
271
0
272
9
273
9
  0
DICTIONARY
  5
2D
330
A
100
AcDbDictionary
280
1
281
1
  3
CREATED_BY_EZDXF
350
2E
  3
WRITTEN_BY_EZDXF
350
36
  0
DICTIONARYVAR
  5
2E
330
2D
100
DictionaryVariables
280
0
  1
1.4.2 @ 2025-08-27T05:14:56.280614+00:00
  0
DICTIONARYVAR
  5
36
330
2D
100
DictionaryVariables
280
0
  1
1.4.2 @ 2025-08-27T05:14:56.283613+00:00
  0
ENDSEC
  0
EOF
