  0
SECTION
  2
HEADER
  9
$ACADVER
  1
AC1024
  9
$ACADMAINTVER
 70
6
  9
$DWGCODEPAGE
  3
ANSI_1252
  9
$LASTSAVEDBY
  1
ezdxf
  9
$INSBASE
 10
0.0
 20
0.0
 30
0.0
  9
$EXTMIN
 10
1e+20
 20
1e+20
 30
1e+20
  9
$EXTMAX
 10
-1e+20
 20
-1e+20
 30
-1e+20
  9
$LIMMIN
 10
0.0
 20
0.0
  9
$LIMMAX
 10
420.0
 20
297.0
  9
$ORTHOMODE
 70
0
  9
$REGENMODE
 70
1
  9
$FILLMODE
 70
1
  9
$QTEXTMODE
 70
0
  9
$MIRRTEXT
 70
1
  9
$LTSCALE
 40
1.0
  9
$ATTMODE
 70
1
  9
$TEXTSIZE
 40
2.5
  9
$TRACEWID
 40
1.0
  9
$TEXTSTYLE
  7
Standard
  9
$CLAYER
  8
0
  9
$CELTYPE
  6
ByLayer
  9
$CECOLOR
 62
256
  9
$CELTSCALE
 40
1.0
  9
$DISPSILH
 70
0
  9
$DIMSCALE
 40
1.0
  9
$DIMASZ
 40
2.5
  9
$DIMEXO
 40
0.625
  9
$DIMDLI
 40
3.75
  9
$DIMRND
 40
0.0
  9
$DIMDLE
 40
0.0
  9
$DIMEXE
 40
1.25
  9
$DIMTP
 40
0.0
  9
$DIMTM
 40
0.0
  9
$DIMTXT
 40
2.5
  9
$DIMCEN
 40
2.5
  9
$DIMTSZ
 40
0.0
  9
$DIMTOL
 70
0
  9
$DIMLIM
 70
0
  9
$DIMTIH
 70
0
  9
$DIMTOH
 70
0
  9
$DIMSE1
 70
0
  9
$DIMSE2
 70
0
  9
$DIMTAD
 70
1
  9
$DIMZIN
 70
8
  9
$DIMBLK
  1

  9
$DIMASO
 70
1
  9
$DIMSHO
 70
1
  9
$DIMPOST
  1

  9
$DIMAPOST
  1

  9
$DIMALT
 70
0
  9
$DIMALTD
 70
3
  9
$DIMALTF
 40
0.03937007874
  9
$DIMLFAC
 40
1.0
  9
$DIMTOFL
 70
1
  9
$DIMTVP
 40
0.0
  9
$DIMTIX
 70
0
  9
$DIMSOXD
 70
0
  9
$DIMSAH
 70
0
  9
$DIMBLK1
  1

  9
$DIMBLK2
  1

  9
$DIMSTYLE
  2
ISO-25
  9
$DIMCLRD
 70
0
  9
$DIMCLRE
 70
0
  9
$DIMCLRT
 70
0
  9
$DIMTFAC
 40
1.0
  9
$DIMGAP
 40
0.625
  9
$DIMJUST
 70
0
  9
$DIMSD1
 70
0
  9
$DIMSD2
 70
0
  9
$DIMTOLJ
 70
0
  9
$DIMTZIN
 70
8
  9
$DIMALTZ
 70
0
  9
$DIMALTTZ
 70
0
  9
$DIMUPT
 70
0
  9
$DIMDEC
 70
2
  9
$DIMTDEC
 70
2
  9
$DIMALTU
 70
2
  9
$DIMALTTD
 70
3
  9
$DIMTXSTY
  7
Standard
  9
$DIMAUNIT
 70
0
  9
$DIMADEC
 70
0
  9
$DIMALTRND
 40
0.0
  9
$DIMAZIN
 70
0
  9
$DIMDSEP
 70
44
  9
$DIMATFIT
 70
3
  9
$DIMFRAC
 70
0
  9
$DIMLDRBLK
  1

  9
$DIMLUNIT
 70
2
  9
$DIMLWD
 70
-2
  9
$DIMLWE
 70
-2
  9
$DIMTMOVE
 70
0
  9
$DIMFXL
 40
1.0
  9
$DIMFXLON
 70
0
  9
$DIMJOGANG
 40
0.785398163397
  9
$DIMTFILL
 70
0
  9
$DIMTFILLCLR
 70
0
  9
$DIMARCSYM
 70
0
  9
$DIMLTYPE
  6

  9
$DIMLTEX1
  6

  9
$DIMLTEX2
  6

  9
$DIMTXTDIRECTION
 70
0
  9
$LUNITS
 70
2
  9
$LUPREC
 70
4
  9
$SKETCHINC
 40
1.0
  9
$FILLETRAD
 40
10.0
  9
$AUNITS
 70
0
  9
$AUPREC
 70
2
  9
$MENU
  1
.
  9
$ELEVATION
 40
0.0
  9
$PELEVATION
 40
0.0
  9
$THICKNESS
 40
0.0
  9
$LIMCHECK
 70
0
  9
$CHAMFERA
 40
0.0
  9
$CHAMFERB
 40
0.0
  9
$CHAMFERC
 40
0.0
  9
$CHAMFERD
 40
0.0
  9
$SKPOLY
 70
0
  9
$TDCREATE
 40
2460921.6138657406
  9
$TDUCREATE
 40
2458532.153996898
  9
$TDUPDATE
 40
2460921.6138657406
  9
$TDUUPDATE
 40
2458532.1544311
  9
$TDINDWG
 40
0.0
  9
$TDUSRTIMER
 40
0.0
  9
$USRTIMER
 70
1
  9
$ANGBASE
 50
0.0
  9
$ANGDIR
 70
0
  9
$PDMODE
 70
0
  9
$PDSIZE
 40
0.0
  9
$PLINEWID
 40
0.0
  9
$SPLFRAME
 70
0
  9
$SPLINETYPE
 70
6
  9
$SPLINESEGS
 70
8
  9
$HANDSEED
  5
12D
  9
$SURFTAB1
 70
6
  9
$SURFTAB2
 70
6
  9
$SURFTYPE
 70
6
  9
$SURFU
 70
6
  9
$SURFV
 70
6
  9
$UCSBASE
  2

  9
$UCSNAME
  2

  9
$UCSORG
 10
0.0
 20
0.0
 30
0.0
  9
$UCSXDIR
 10
1.0
 20
0.0
 30
0.0
  9
$UCSYDIR
 10
0.0
 20
1.0
 30
0.0
  9
$UCSORTHOREF
  2

  9
$UCSORTHOVIEW
 70
0
  9
$UCSORGTOP
 10
0.0
 20
0.0
 30
0.0
  9
$UCSORGBOTTOM
 10
0.0
 20
0.0
 30
0.0
  9
$UCSORGLEFT
 10
0.0
 20
0.0
 30
0.0
  9
$UCSORGRIGHT
 10
0.0
 20
0.0
 30
0.0
  9
$UCSORGFRONT
 10
0.0
 20
0.0
 30
0.0
  9
$UCSORGBACK
 10
0.0
 20
0.0
 30
0.0
  9
$PUCSBASE
  2

  9
$PUCSNAME
  2

  9
$PUCSORG
 10
0.0
 20
0.0
 30
0.0
  9
$PUCSXDIR
 10
1.0
 20
0.0
 30
0.0
  9
$PUCSYDIR
 10
0.0
 20
1.0
 30
0.0
  9
$PUCSORTHOREF
  2

  9
$PUCSORTHOVIEW
 70
0
  9
$PUCSORGTOP
 10
0.0
 20
0.0
 30
0.0
  9
$PUCSORGBOTTOM
 10
0.0
 20
0.0
 30
0.0
  9
$PUCSORGLEFT
 10
0.0
 20
0.0
 30
0.0
  9
$PUCSORGRIGHT
 10
0.0
 20
0.0
 30
0.0
  9
$PUCSORGFRONT
 10
0.0
 20
0.0
 30
0.0
  9
$PUCSORGBACK
 10
0.0
 20
0.0
 30
0.0
  9
$USERI1
 70
0
  9
$USERI2
 70
0
  9
$USERI3
 70
0
  9
$USERI4
 70
0
  9
$USERI5
 70
0
  9
$USERR1
 40
0.0
  9
$USERR2
 40
0.0
  9
$USERR3
 40
0.0
  9
$USERR4
 40
0.0
  9
$USERR5
 40
0.0
  9
$WORLDVIEW
 70
1
  9
$SHADEDGE
 70
3
  9
$SHADEDIF
 70
70
  9
$TILEMODE
 70
1
  9
$MAXACTVP
 70
64
  9
$PINSBASE
 10
0.0
 20
0.0
 30
0.0
  9
$PLIMCHECK
 70
0
  9
$PEXTMIN
 10
1e+20
 20
1e+20
 30
1e+20
  9
$PEXTMAX
 10
-1e+20
 20
-1e+20
 30
-1e+20
  9
$PLIMMIN
 10
0.0
 20
0.0
  9
$PLIMMAX
 10
420.0
 20
297.0
  9
$UNITMODE
 70
0
  9
$VISRETAIN
 70
1
  9
$PLINEGEN
 70
0
  9
$PSLTSCALE
 70
1
  9
$TREEDEPTH
 70
3020
  9
$CMLSTYLE
  2
Standard
  9
$CMLJUST
 70
0
  9
$CMLSCALE
 40
20.0
  9
$PROXYGRAPHICS
 70
1
  9
$MEASUREMENT
 70
1
  9
$CELWEIGHT
370
-1
  9
$ENDCAPS
280
0
  9
$JOINSTYLE
280
0
  9
$LWDISPLAY
290
0
  9
$INSUNITS
 70
6
  9
$HYPERLINKBASE
  1

  9
$STYLESHEET
  1

  9
$XEDIT
290
1
  9
$CEPSNTYPE
380
0
  9
$PSTYLEMODE
290
1
  9
$FINGERPRINTGUID
  2
{E62E2F51-154C-4A12-BB82-17FFEE2F70D6}
  9
$VERSIONGUID
  2
{66234E8D-E5B1-4EFA-B8CD-EC3B1B61D728}
  9
$EXTNAMES
290
1
  9
$PSVPSCALE
 40
0.0
  9
$OLESTARTUP
290
0
  9
$SORTENTS
280
127
  9
$INDEXCTL
280
0
  9
$HIDETEXT
280
1
  9
$XCLIPFRAME
280
1
  9
$HALOGAP
280
0
  9
$OBSCOLOR
 70
257
  9
$OBSLTYPE
280
0
  9
$INTERSECTIONDISPLAY
280
0
  9
$INTERSECTIONCOLOR
 70
257
  9
$DIMASSOC
280
2
  9
$PROJECTNAME
  1

  9
$CAMERADISPLAY
290
0
  9
$LENSLENGTH
 40
50.0
  9
$CAMERAHEIGHT
 40
0.0
  9
$STEPSPERSEC
 40
24.0
  9
$STEPSIZE
 40
100.0
  9
$3DDWFPREC
 40
2.0
  9
$PSOLWIDTH
 40
0.005
  9
$PSOLHEIGHT
 40
0.08
  9
$LOFTANG1
 40
1.570796326795
  9
$LOFTANG2
 40
1.570796326795
  9
$LOFTMAG1
 40
0.0
  9
$LOFTMAG2
 40
0.0
  9
$LOFTPARAM
 70
7
  9
$LOFTNORMALS
280
1
  9
$LATITUDE
 40
37.795
  9
$LONGITUDE
 40
-122.394
  9
$NORTHDIRECTION
 40
0.0
  9
$TIMEZONE
 70
-8000
  9
$LIGHTGLYPHDISPLAY
280
1
  9
$TILEMODELIGHTSYNCH
280
1
  9
$CMATERIAL
347
20
  9
$SOLIDHIST
280
0
  9
$SHOWHIST
280
1
  9
$DWFFRAME
280
2
  9
$DGNFRAME
280
2
  9
$REALWORLDSCALE
290
1
  9
$INTERFERECOLOR
 62
256
  9
$CSHADOW
280
0
  9
$SHADOWPLANELOCATION
 40
0.0
  0
ENDSEC
  0
SECTION
  2
CLASSES
  0
CLASS
  1
ACDBDICTIONARYWDFLT
  2
AcDbDictionaryWithDefault
  3
ObjectDBX Classes
 90
0
 91
0
280
0
281
0
  0
CLASS
  1
SUN
  2
AcDbSun
  3
SCENEOE
 90
1153
 91
0
280
0
281
0
  0
CLASS
  1
VISUALSTYLE
  2
AcDbVisualStyle
  3
ObjectDBX Classes
 90
4095
 91
0
280
0
281
0
  0
CLASS
  1
MATERIAL
  2
AcDbMaterial
  3
ObjectDBX Classes
 90
1153
 91
0
280
0
281
0
  0
CLASS
  1
SCALE
  2
AcDbScale
  3
ObjectDBX Classes
 90
1153
 91
0
280
0
281
0
  0
CLASS
  1
TABLESTYLE
  2
AcDbTableStyle
  3
ObjectDBX Classes
 90
4095
 91
0
280
0
281
0
  0
CLASS
  1
MLEADERSTYLE
  2
AcDbMLeaderStyle
  3
ACDB_MLEADERSTYLE_CLASS
 90
4095
 91
0
280
0
281
0
  0
CLASS
  1
DICTIONARYVAR
  2
AcDbDictionaryVar
  3
ObjectDBX Classes
 90
0
 91
0
280
0
281
0
  0
CLASS
  1
CELLSTYLEMAP
  2
AcDbCellStyleMap
  3
ObjectDBX Classes
 90
1152
 91
0
280
0
281
0
  0
CLASS
  1
MENTALRAYRENDERSETTINGS
  2
AcDbMentalRayRenderSettings
  3
SCENEOE
 90
1024
 91
0
280
0
281
0
  0
CLASS
  1
ACDBDETAILVIEWSTYLE
  2
AcDbDetailViewStyle
  3
ObjectDBX Classes
 90
1025
 91
0
280
0
281
0
  0
CLASS
  1
ACDBSECTIONVIEWSTYLE
  2
AcDbSectionViewStyle
  3
ObjectDBX Classes
 90
1025
 91
0
280
0
281
0
  0
CLASS
  1
RASTERVARIABLES
  2
AcDbRasterVariables
  3
ISM
 90
0
 91
0
280
0
281
0
  0
CLASS
  1
LAYOUT
  2
AcDbLayout
  3
ObjectDBX Classes
 90
0
 91
0
280
0
281
0
  0
CLASS
  1
ACDBPLACEHOLDER
  2
AcDbPlaceHolder
  3
ObjectDBX Classes
 90
0
 91
0
280
0
281
0
  0
ENDSEC
  0
SECTION
  2
TABLES
  0
TABLE
  2
VPORT
  5
8
330
0
100
AcDbSymbolTable
 70
1
  0
VPORT
  5
23
330
8
100
AcDbSymbolTableRecord
100
AcDbViewportTableRecord
  2
*Active
 70
0
 10
0.0
 20
0.0
 11
1.0
 21
1.0
 12
0.0
 22
0.0
 13
0.0
 23
0.0
 14
0.5
 24
0.5
 15
0.5
 25
0.5
 16
0.0
 26
0.0
 36
1.0
 17
0.0
 27
0.0
 37
0.0
 40
1000.0
 41
1.34
 42
50.0
 43
0.0
 44
0.0
 50
0.0
 51
0.0
 71
0
 72
1000
 73
1
 74
3
 75
0
 76
0
 77
0
 78
0
281
0
 65
0
146
0.0
  0
ENDTAB
  0
TABLE
  2
LTYPE
  5
2
330
0
100
AcDbSymbolTable
 70
3
  0
LTYPE
  5
24
330
2
100
AcDbSymbolTableRecord
100
AcDbLinetypeTableRecord
  2
ByBlock
 70
0
  3

 72
65
 73
0
 40
0.0
  0
LTYPE
  5
25
330
2
100
AcDbSymbolTableRecord
100
AcDbLinetypeTableRecord
  2
ByLayer
 70
0
  3

 72
65
 73
0
 40
0.0
  0
LTYPE
  5
26
330
2
100
AcDbSymbolTableRecord
100
AcDbLinetypeTableRecord
  2
Continuous
 70
0
  3

 72
65
 73
0
 40
0.0
  0
ENDTAB
  0
TABLE
  2
LAYER
  5
1
330
0
100
AcDbSymbolTable
 70
2
  0
LAYER
  5
27
330
1
100
AcDbSymbolTableRecord
100
AcDbLayerTableRecord
  2
0
 70
0
 62
7
  6
Continuous
370
-3
390
13
347
21
  0
LAYER
  5
28
330
1
100
AcDbSymbolTableRecord
100
AcDbLayerTableRecord
  2
Defpoints
 70
0
 62
7
  6
Continuous
290
0
370
-3
390
13
347
21
  0
ENDTAB
  0
TABLE
  2
STYLE
  5
5
330
0
100
AcDbSymbolTable
 70
1
  0
STYLE
  5
29
330
5
100
AcDbSymbolTableRecord
100
AcDbTextStyleTableRecord
  2
Standard
 70
0
 40
0.0
 41
1.0
 50
0.0
 71
0
 42
2.5
  3
txt
  4

  0
ENDTAB
  0
TABLE
  2
VIEW
  5
7
330
0
100
AcDbSymbolTable
 70
0
  0
ENDTAB
  0
TABLE
  2
UCS
  5
6
330
0
100
AcDbSymbolTable
 70
0
  0
ENDTAB
  0
TABLE
  2
APPID
  5
3
330
0
100
AcDbSymbolTable
 70
3
  0
APPID
  5
2A
330
3
100
AcDbSymbolTableRecord
100
AcDbRegAppTableRecord
  2
ACAD
 70
0
  0
APPID
  5
12A
330
3
100
AcDbSymbolTableRecord
100
AcDbRegAppTableRecord
  2
HATCHBACKGROUNDCOLOR
 70
0
  0
APPID
  5
12B
330
3
100
AcDbSymbolTableRecord
100
AcDbRegAppTableRecord
  2
EZDXF
 70
0
  0
ENDTAB
  0
TABLE
  2
DIMSTYLE
  5
4
330
0
100
AcDbSymbolTable
 70
1
100
AcDbDimStyleTable
  0
DIMSTYLE
105
2B
330
4
100
AcDbSymbolTableRecord
100
AcDbDimStyleTableRecord
  2
Standard
 70
0
 40
1.0
 41
2.5
 42
0.625
 43
3.75
 44
1.25
 45
0.0
 46
0.0
 47
0.0
 48
0.0
 49
2.5
140
2.5
141
2.5
142
0.0
143
0.03937007874
144
1.0
145
0.0
146
1.0
147
0.625
148
0.0
 69
0
 70
0
 71
0
 72
0
 73
0
 74
0
 75
0
 76
0
 77
1
 78
8
 79
3
170
0
171
3
172
1
173
0
174
0
175
0
176
0
177
0
178
0
179
2
271
2
272
2
273
2
274
3
275
0
276
0
277
2
278
44
279
0
280
0
281
0
282
0
283
0
284
8
285
0
286
0
288
0
289
3
290
0
371
-2
372
-2
  0
ENDTAB
  0
TABLE
  2
BLOCK_RECORD
  5
9
330
0
100
AcDbSymbolTable
 70
2
  0
BLOCK_RECORD
  5
17
330
9
100
AcDbSymbolTableRecord
100
AcDbBlockTableRecord
  2
*Model_Space
340
1A
 70
0
280
1
281
0
  0
BLOCK_RECORD
  5
1B
330
9
100
AcDbSymbolTableRecord
100
AcDbBlockTableRecord
  2
*Paper_Space
340
1E
 70
0
280
1
281
0
  0
ENDTAB
  0
ENDSEC
  0
SECTION
  2
BLOCKS
  0
BLOCK
  5
18
330
17
100
AcDbEntity
  8
0
100
AcDbBlockBegin
  2
*Model_Space
 70
0
 10
0.0
 20
0.0
 30
0.0
  3
*Model_Space
  1

  0
ENDBLK
  5
19
330
17
100
AcDbEntity
  8
0
100
AcDbBlockEnd
  0
BLOCK
  5
1C
330
1B
100
AcDbEntity
  8
0
100
AcDbBlockBegin
  2
*Paper_Space
 70
0
 10
0.0
 20
0.0
 30
0.0
  3
*Paper_Space
  1

  0
ENDBLK
  5
1D
330
1B
100
AcDbEntity
  8
0
100
AcDbBlockEnd
  0
ENDSEC
  0
SECTION
  2
ENTITIES
  0
TEXT
  5
2F
330
17
100
AcDbEntity
  8
0
100
AcDbText
 10
0.0
 20
0.0
 30
0.0
 40
10.0
  1
Grid Box B3 - #000000
100
AcDbText
  0
LWPOLYLINE
  5
30
330
17
100
AcDbEntity
  8
0
 62
8
100
AcDbPolyline
 90
5
 70
0
 10
580.0
 20
280.0
 10
920.0
 20
280.0
 10
920.0
 20
620.0
 10
580.0
 20
620.0
 10
580.0
 20
280.0
  0
LWPOLYLINE
  5
31
330
17
100
AcDbEntity
  8
0
 62
0
100
AcDbPolyline
 90
4
 70
1
 10
820.8585229312
 20
463.4914438144001
 10
806.6851308544001
 20
471.9740042240001
 10
793.4070746408188
 20
459.28072097412405
 10
802.0987164207233
 20
445.9026996957065
  0
LWPOLYLINE
  5
32
330
17
100
AcDbEntity
  8
0
 62
0
100
AcDbPolyline
 90
4
 70
1
 10
800.9696923346746
 20
444.2757086342315
 10
791.574431392001
 20
458.79232432395236
 10
777.2078904298625
 20
451.6864398515121
 10
782.8234555090751
 20
434.5046580358317
  0
LWPOLYLINE
  5
33
330
17
100
AcDbEntity
  8
0
 62
0
100
AcDbPolyline
 90
4
 70
1
 10
760.2748772050757
 20
428.1695812742319
 10
757.8036087917693
 20
446.82696196318335
 10
741.8065178322761
 20
446.3158180998314
 10
739.4442858194762
 20
427.8474587270319
  0
LWPOLYLINE
  5
34
330
17
100
AcDbEntity
  8
0
 62
0
100
AcDbPolyline
 90
4
 70
1
 10
737.2968021714762
 20
428.81382636863185
 10
739.6255589394586
 20
446.93584319024313
 10
724.7969411883494
 20
449.666619017663
 10
716.6809591506768
 20
433.9677871238317
  0
LWPOLYLINE
  5
35
330
17
100
AcDbEntity
  8
0
 62
0
100
AcDbPolyline
 90
4
 70
1
 10
716.1671888508134
 20
436.82160966987504
 10
722.2247146071695
 20
451.3805740074379
 10
709.109491678792
 20
459.40194923352277
 10
698.6224759739906
 20
447.29828447201965
  0
LWPOLYLINE
  5
36
330
17
100
AcDbEntity
  8
0
 62
0
100
AcDbPolyline
 90
4
 70
1
 10
697.3932035245202
 20
447.4882117238068
 10
707.2493714896051
 20
461.1099354519957
 10
699.7039040249929
 20
472.92097959254795
 10
683.5565038573869
 20
462.84150200833227
  0
LWPOLYLINE
  5
37
330
17
100
AcDbEntity
  8
0
 62
0
100
AcDbPolyline
 90
4
 70
1
 10
840.6153724928
 20
455.5457543168001
 10
823.2067974621713
 20
463.6595043174249
 10
811.6456136089603
 20
450.60725495808015
 10
824.7452638617602
 20
436.5412370636801
  0
LWPOLYLINE
  5
38
330
17
100
AcDbEntity
  8
0
 62
0
100
AcDbPolyline
 90
4
 70
1
 10
823.0272769433602
 20
435.2527468748801
 10
810.6792459673602
 20
449.3187647692801
 10
798.4385891737602
 20
439.86983671808014
 10
807.8875172249602
 20
423.6563351756801
  0
LWPOLYLINE
  5
39
330
17
100
AcDbEntity
  8
0
 62
0
100
AcDbPolyline
 90
4
 70
1
 10
806.0688691144677
 20
422.85597584445844
 10
797.6314564849972
 20
437.7447137772251
 10
782.1623672940796
 20
431.47290136899585
 10
787.0870269009558
 20
415.1635537638736
  0
LWPOLYLINE
  5
3A
330
17
100
AcDbEntity
  8
0
 62
0
100
AcDbPolyline
 90
4
 70
1
 10
785.158596699154
 20
415.71503335365867
 10
780.4612234962751
 20
430.6391874694318
 10
763.5270860053843
 20
426.8964820515399
 10
766.7284234584833
 20
412.1723728744543
  0
LWPOLYLINE
  5
3B
330
17
100
AcDbEntity
  8
0
 62
0
100
AcDbPolyline
 90
4
 70
1
 10
765.1067154130756
 20
411.09708627263234
 10
761.5633673938756
 20
426.0220976262319
 10
745.1351174866761
 20
424.840981619832
 10
744.4908723922761
 20
409.2717251718324
  0
LWPOLYLINE
  5
3C
330
17
100
AcDbEntity
  8
0
 62
0
100
AcDbPolyline
 90
4
 70
1
 10
742.7559229955189
 20
409.79894493494675
 10
743.283662837373
 20
425.6280799692127
 10
727.7615511404515
 20
428.8568589949407
 10
723.6602810066767
 20
412.2782022790323
  0
LWPOLYLINE
  5
3D
330
17
100
AcDbEntity
  8
0
 62
0
100
AcDbPolyline
 90
4
 70
1
 10
722.2359215593101
 20
412.94450260243667
 10
726.0084824285802
 20
428.7616602911016
 10
709.6395162963724
 20
434.0590549377547
 10
702.9135049145186
 20
421.10772789035644
  0
LWPOLYLINE
  5
3E
330
17
100
AcDbEntity
  8
0
 62
0
100
AcDbPolyline
 90
4
 70
1
 10
700.6081911646734
 20
421.88693257793483
 10
709.2637775947143
 20
435.5518751892905
 10
695.0554695023227
 20
444.41681980480496
 10
685.1333721638301
 20
431.49937150367896
  0
LWPOLYLINE
  5
3F
330
17
100
AcDbEntity
  8
0
 62
0
100
AcDbPolyline
 90
4
 70
1
 10
683.6474372243533
 20
431.9751773115887
 10
694.9002515398731
 20
447.09346219350846
 10
684.7641287213132
 20
458.00267912534827
 10
670.2471392608335
 20
446.74986480982847
  0
LWPOLYLINE
  5
40
330
17
100
AcDbEntity
  8
0
 62
0
100
AcDbPolyline
 90
4
 70
1
 10
805.1936363519999
 20
472.8380308480002
 10
788.953291264
 20
482.7701427200002
 10
786.5076584919088
 20
480.398807558002
 10
798.525272016401
 20
467.69661556711117
  0
LWPOLYLINE
  5
41
330
17
100
AcDbEntity
  8
0
 62
0
100
AcDbPolyline
 90
4
 70
1
 10
797.9632152274746
 20
466.0726676614309
 10
784.863564974675
 20
479.38706627903053
 10
771.7566176585908
 20
471.2637747726662
 10
779.7096042194752
 20
454.5836301446312
  0
LWPOLYLINE
  5
42
330
17
100
AcDbEntity
  8
0
 62
0
100
AcDbPolyline
 90
4
 70
1
 10
777.4547463890752
 20
453.6172625030312
 10
770.0630114169494
 20
471.0988701416329
 10
755.7321573786974
 20
467.62235169221736
 10
758.1273935570757
 20
448.67805011263135
  0
LWPOLYLINE
  5
43
330
17
100
AcDbEntity
  8
0
 62
0
100
AcDbPolyline
 90
4
 70
1
 10
755.5504131794758
 20
448.46330174783134
 10
753.9956603137759
 20
467.2450423977785
 10
739.03557687646
 20
468.96811103050914
 10
734.6124476114763
 20
449.7517919366313
  0
LWPOLYLINE
  5
44
330
17
100
AcDbEntity
  8
0
 62
0
100
AcDbPolyline
 90
4
 70
1
 10
732.1401949299125
 20
450.93682372312225
 10
737.8336730834762
 20
470.0455124102308
 10
722.9691847955173
 20
474.8629886245664
 10
712.5464794872805
 20
460.42761488079617
  0
LWPOLYLINE
  5
45
330
17
100
AcDbEntity
  8
0
 62
0
100
AcDbPolyline
 90
4
 70
1
 10
710.6235552089062
 20
462.0036978090476
 10
721.2831581217363
 20
475.3321691196644
 10
714.2385812480002
 20
484.04772771840004
 10
701.2463051776001
 20
473.31030947840003
  0
LWPOLYLINE
  5
46
330
17
100
AcDbEntity
  8
0
 62
0
100
AcDbPolyline
 90
4
 70
1
 10
862.9108600498352
 20
448.9477739809095
 10
842.7507500133905
 20
455.9048072803959
 10
832.5835791769603
 20
443.1984363724801
 10
848.1528356249602
 20
431.0651537612801
  0
LWPOLYLINE
  5
47
330
17
100
AcDbEntity
  8
0
 62
0
100
AcDbPolyline
 90
4
 70
1
 10
845.9840816128
 20
428.9169570816001
 10
832.4762049945602
 20
440.83620435968015
 10
819.3222056587659
 20
429.9530690564998
 10
830.2213471641602
 20
415.9253940428801
  0
LWPOLYLINE
  5
48
330
17
100
AcDbEntity
  8
0
 62
0
100
AcDbPolyline
 90
4
 70
1
 10
827.9690882223549
 20
415.6100823939742
 10
818.5921285010852
 20
427.27242698878524
 10
804.3084600076467
 20
420.03758239276266
 10
812.5719744251471
 20
405.01363110970135
  0
LWPOLYLINE
  5
49
330
17
100
AcDbEntity
  8
0
 62
0
100
AcDbPolyline
 90
4
 70
1
 10
810.3746084249602
 20
403.70075424768015
 10
803.1790562994888
 20
418.55432679548505
 10
787.2672951834835
 20
413.22050449611544
 10
791.9009339080769
 20
395.6479745204642
  0
LWPOLYLINE
  5
4A
330
17
100
AcDbEntity
  8
0
 62
0
100
AcDbPolyline
 90
4
 70
1
 10
789.991868839672
 20
397.25635997220934
 10
785.2444960450739
 20
414.1688451270987
 10
769.095419012114
 20
410.38927390661866
 10
771.2175450260729
 20
391.17555493019773
  0
LWPOLYLINE
  5
4B
330
17
100
AcDbEntity
  8
0
 62
0
100
AcDbPolyline
 90
4
 70
1
 10
769.7630312712347
 20
390.89567082084403
 10
767.205633401874
 20
409.9597771770187
 10
749.682166834194
 20
408.1558909126987
 10
749.682166834194
 20
390.03112892357876
  0
LWPOLYLINE
  5
4C
330
17
100
AcDbEntity
  8
0
 62
0
100
AcDbPolyline
 90
4
 70
1
 10
747.633703857088
 20
389.71273864376474
 10
747.4827210821401
 20
407.62050234329695
 10
731.3121374664081
 20
408.1722195870376
 10
729.554470870012
 20
390.09770977315713
  0
LWPOLYLINE
  5
4D
330
17
100
AcDbEntity
  8
0
 62
0
100
AcDbPolyline
 90
4
 70
1
 10
726.4584248488007
 20
391.7115378909502
 10
729.7303660226743
 20
409.01689763781866
 10
714.3543831029943
 20
413.1400662419786
 10
708.2555295426744
 20
396.8191905171787
  0
LWPOLYLINE
  5
4E
330
17
100
AcDbEntity
  8
0
 62
0
100
AcDbPolyline
 90
4
 70
1
 10
706.7246335256372
 20
398.07286378618574
 10
712.3346610848027
 20
413.0037876970576
 10
697.5901560236216
 20
420.7019148478793
 10
688.8069445866818
 20
406.8015128743531
  0
LWPOLYLINE
  5
4F
330
17
100
AcDbEntity
  8
0
 62
0
100
AcDbPolyline
 90
4
 70
1
 10
686.5559686486197
 20
407.5588342476361
 10
695.7209862564024
 20
421.0867439176009
 10
682.3069443975353
 20
431.0922997303625
 10
671.318349089075
 20
417.8591208993163
  0
LWPOLYLINE
  5
50
330
17
100
AcDbEntity
  8
0
 62
0
100
AcDbPolyline
 90
4
 70
1
 10
669.357752750408
 20
417.91390812501123
 10
680.8775792814265
 20
433.2913229859145
 10
670.3772432361657
 20
444.50634158922963
 10
655.356973051363
 20
432.82413434058253
  0
LWPOLYLINE
  5
51
330
17
100
AcDbEntity
  8
0
 62
0
100
AcDbPolyline
 90
4
 70
1
 10
654.6088010841663
 20
433.9095903952968
 10
668.1921386598857
 20
445.3073198638115
 10
663.0799125856336
 20
455.9035138594282
 10
644.5256538669139
 20
448.08667338070836
  0
LWPOLYLINE
  5
52
330
17
100
AcDbEntity
  8
0
 62
0
100
AcDbPolyline
 90
4
 70
1
 10
787.7453317119999
 20
484.3807554560002
 10
773.7866879999999
 20
495.5208268800002
 10
766.6241855179048
 20
491.12417540303613
 10
775.4292121298753
 20
474.9721418886307
  0
LWPOLYLINE
  5
53
330
17
100
AcDbEntity
  8
0
 62
0
100
AcDbPolyline
 90
4
 70
1
 10
773.8185993938753
 20
474.2205226118307
 10
765.8786755250344
 20
489.1951681376961
 10
752.2640761481399
 20
481.7671135725891
 10
751.4909820348598
 20
468.88221168458915
  0
LWPOLYLINE
  5
54
330
17
100
AcDbEntity
  8
0
 62
0
100
AcDbPolyline
 90
4
 70
1
 10
749.6876561237424
 20
469.47214342956613
 10
749.7729951164599
 20
482.1107109562691
 10
735.2389142141931
 20
489.9659423286253
 10
727.4183773906766
 20
475.09209898303067
  0
LWPOLYLINE
  5
55
330
17
100
AcDbEntity
  8
0
 62
0
100
AcDbPolyline
 90
4
 70
1
 10
882.5094806937601
 20
432.9136097484801
 10
863.1821278617601
 20
445.04689235968004
 10
853.8176726937048
 20
433.7223627330034
 10
869.4129237401602
 20
420.4351097036801
  0
LWPOLYLINE
  5
56
330
17
100
AcDbEntity
  8
0
 62
0
100
AcDbPolyline
 90
4
 70
1
 10
868.0170593689602
 20
419.3613678796801
 10
852.5030565246445
 20
431.3044931545587
 10
840.9462820621146
 20
420.7165160930413
 10
853.6289189273602
 20
406.7985885388801
  0
LWPOLYLINE
  5
57
330
17
100
AcDbEntity
  8
0
 62
0
100
AcDbPolyline
 90
4
 70
1
 10
852.2330545561603
 20
405.5100983500801
 10
838.9186559385603
 20
420.1129871564801
 10
824.6378896793602
 20
409.6976914636801
 10
835.1605595545602
 20
394.0210608332801
  0
LWPOLYLINE
  5
58
330
17
100
AcDbEntity
  8
0
 62
0
100
AcDbPolyline
 90
4
 70
1
 10
833.3177981023451
 20
393.3680925273005
 10
823.2974130525569
 20
407.9658260710252
 10
808.2274910023654
 20
400.1225825539951
 10
816.8550466816002
 20
385.1834866303998
  0
LWPOLYLINE
  5
59
330
17
100
AcDbEntity
  8
0
 62
0
100
AcDbPolyline
 90
4
 70
1
 10
814.7769499033602
 20
384.05127886848015
 10
807.0756978679517
 20
398.5372364054168
 10
792.6578683289603
 20
393.71495528448014
 10
796.2012163481603
 20
377.5014537420802
  0
LWPOLYLINE
  5
5A
330
17
100
AcDbEntity
  8
0
 62
0
100
AcDbPolyline
 90
4
 70
1
 10
794.5906036121603
 20
377.2867053772802
 10
790.2956363161603
 20
393.92970364928016
 10
772.9010187673603
 20
389.52736217088017
 10
774.9411282329603
 20
373.4212348108802
  0
LWPOLYLINE
  5
5B
330
17
100
AcDbEntity
  8
0
 62
0
100
AcDbPolyline
 90
4
 70
1
 10
752.8186103228596
 20
372.5190389860682
 10
752.5437324159157
 20
387.91220177493216
 10
736.7657405573301
 20
388.24205526326494
 10
734.0169614878901
 20
373.5635750324554
  0
LWPOLYLINE
  5
5C
330
17
100
AcDbEntity
  8
0
 62
0
100
AcDbPolyline
 90
4
 70
1
 10
732.4432854706358
 20
373.70101398592743
 10
733.9276261681333
 20
387.88471398423775
 10
718.5894389606582
 20
391.40315119312095
 10
714.1913924495542
 20
375.1303791020362
  0
LWPOLYLINE
  5
5D
330
17
100
AcDbEntity
  8
0
 62
0
100
AcDbPolyline
 90
4
 70
1
 10
712.388503602215
 20
375.143851462372
 10
716.9075834546359
 20
392.0766557522249
 10
700.371959365036
 20
397.4453648722249
 10
693.7069390584818
 20
382.2243654740236
  0
LWPOLYLINE
  5
5E
330
17
100
AcDbEntity
  8
0
 62
0
100
AcDbPolyline
 90
4
 70
1
 10
692.1679046393931
 20
382.3281658811899
 10
699.518972149164
 20
399.3091122432329
 10
683.301175639468
 20
406.3872183470409
 10
673.4365523681286
 20
390.7054462197762
  0
LWPOLYLINE
  5
5F
330
17
100
AcDbEntity
  8
0
 62
0
100
AcDbPolyline
 90
4
 70
1
 10
671.8560044032006
 20
392.07983575449623
 10
682.476541918636
 20
407.6928884050249
 10
669.6947192457401
 20
415.80178665987285
 10
656.2566831841286
 20
401.2195261603842
  0
LWPOLYLINE
  5
60
330
17
100
AcDbEntity
  8
0
 62
0
100
AcDbPolyline
 90
4
 70
1
 10
654.7448546959365
 20
402.04415988121616
 10
667.689237953964
 20
416.7917766216009
 10
654.7028114141117
 20
429.47509725985907
 10
639.3516919070726
 20
414.41366569369615
  0
LWPOLYLINE
  5
61
330
17
100
AcDbEntity
  8
0
 62
0
100
AcDbPolyline
 90
4
 70
1
 10
638.0060249661447
 20
415.2587005091841
 10
653.8766231300282
 20
431.2915862128968
 10
643.5146899771496
 20
443.87568341210255
 10
623.4374958981126
 20
427.7656452751361
  0
LWPOLYLINE
  5
62
330
17
100
AcDbEntity
  8
0
 62
0
100
AcDbPolyline
 90
4
 70
1
 10
773.1376172066998
 20
497.143096492269
 10
762.4001989666999
 20
507.708716040429
 10
753.5525663369399
 20
501.00856705866903
 10
762.0566015830199
 20
489.75575274314906
  0
LWPOLYLINE
  5
63
330
17
100
AcDbEntity
  8
0
 62
0
100
AcDbPolyline
 90
4
 70
1
 10
680.6986737401933
 20
462.72043226454815
 10
682.7995840933072
 20
459.3293367808821
 10
669.3855422344401
 20
448.202279107789
 10
664.6999205625935
 20
456.38535550294824
  0
LWPOLYLINE
  5
64
330
17
100
AcDbEntity
  8
0
 62
0
100
AcDbPolyline
 90
4
 70
1
 10
734.3644512905398
 20
492.2133635565891
 10
725.5659086899383
 20
475.32912237960363
 10
715.5619238537402
 20
485.32440765258906
 10
728.5930889865399
 20
497.8505081325891
  0
LWPOLYLINE
  5
65
330
17
100
AcDbEntity
  8
0
 62
0
100
AcDbPolyline
 90
4
 70
1
 10
751.3191833430199
 20
501.094466404589
 10
760.8540107401399
 20
488.7249605921091
 10
751.3191833430199
 20
482.9697044154691
 10
739.98046968158
 20
489.49805470538905
  0
LWPOLYLINE
  5
66
330
17
100
AcDbEntity
  8
0
 62
0
100
AcDbPolyline
 90
4
 70
1
 10
749.5152970786999
 20
501.953459863789
 10
737.9188853794999
 20
490.35704816458906
 10
729.9302462089399
 20
499.548278178029
 10
738.3483821090999
 20
509.083105575149
  0
LWPOLYLINE
  5
67
330
17
100
AcDbEntity
  8
0
 62
0
100
AcDbPolyline
 90
7
 70
1
 10
744.1626940860599
 20
524.4751946221891
 10
756.0983031693374
 20
523.6779892266469
 10
758.1642874710199
 20
517.087850873069
 10
762.8887514966198
 20
510.3018025453891
 10
751.8936352188598
 20
502.2272640289091
 10
740.0395254818999
 20
510.0441045076291
 10
743.8190967023799
 20
515.627561992429
  0
LWPOLYLINE
  5
68
330
17
100
AcDbEntity
  8
0
 62
0
100
AcDbPolyline
 90
4
 70
1
 10
841.7658569984003
 20
396.0282790527998
 10
825.3376070912003
 20
387.22359609599977
 10
834.7036916488798
 20
377.9762953189619
 10
847.1799660513282
 20
389.82509191833594
  0
LWPOLYLINE
  5
69
330
17
100
AcDbEntity
  8
0
 62
0
100
AcDbPolyline
 90
4
 70
1
 10
847.8396730279937
 20
388.39572680222716
 10
834.9204114016258
 20
375.97124540835836
 10
853.5021579110402
 20
362.61217913087995
 10
861.6509993617411
 20
381.3567049008127
  0
LWPOLYLINE
  5
6A
330
17
100
AcDbEntity
  8
0
 62
0
100
AcDbPolyline
 90
4
 70
1
 10
862.8054865709059
 20
380.6420223427583
 10
855.108905176474
 20
361.62047118223353
 10
879.1101939353601
 20
355.3705301908891
 10
881.1717782374401
 20
375.505336874537
  0
LWPOLYLINE
  5
6B
330
17
100
AcDbEntity
  8
0
 62
0
100
AcDbPolyline
 90
4
 70
1
 10
883.5769599232001
 20
374.749422630441
 10
880.4158639933441
 20
355.6454080978331
 10
899.0542937600794
 20
353.9436206474825
 10
898.7106963763995
 20
373.3568728254015
  0
LWPOLYLINE
  5
6C
330
17
100
AcDbEntity
  8
0
 62
0
100
AcDbPolyline
 90
4
 70
1
 10
869.0178260961281
 20
401.20212620650494
 10
859.2919474763609
 20
384.3214742904513
 10
878.3926201766415
 20
377.9147445726292
 10
881.0994165843972
 20
395.1314703254526
  0
LWPOLYLINE
  5
6D
330
17
100
AcDbEntity
  8
0
 62
0
100
AcDbPolyline
 90
4
 70
1
 10
882.5597054650372
 20
394.7878729417726
 10
880.012942373888
 20
377.21902882564103
 10
898.7547821650722
 20
375.43226621394575
 10
898.3252854354723
 20
390.894148479545
  0
LWPOLYLINE
  5
6E
330
17
100
AcDbEntity
  8
0
 62
0
100
AcDbPolyline
 90
4
 70
1
 10
824.1564910848003
 20
386.2572284543998
 10
806.4397509888004
 20
379.3852807807998
 10
813.0623892326404
 20
368.03308243199984
 10
828.4332927977474
 20
380.14938959390713
  0
LWPOLYLINE
  5
6F
330
17
100
AcDbEntity
  8
0
 62
0
100
AcDbPolyline
 90
4
 70
1
 10
829.1479753558018
 20
378.4451465708544
 10
814.7803761510403
 20
366.9593406079998
 10
830.8886497376734
 20
353.14552607849424
 10
840.362993959117
 20
369.3741756417024
  0
LWPOLYLINE
  5
70
330
17
100
AcDbEntity
  8
0
 62
0
100
AcDbPolyline
 90
4
 70
1
 10
841.5174811682817
 20
368.21968843253757
 10
832.3541537757707
 20
351.2485060761701
 10
849.9901972166411
 20
343.2635804141346
 10
855.5487098275844
 20
359.3664723452928
  0
LWPOLYLINE
  5
71
330
17
100
AcDbEntity
  8
0
 62
0
100
AcDbPolyline
 90
4
 70
1
 10
857.0477989236567
 20
359.0647398765012
 10
852.4675328897916
 20
343.66126661824035
 10
870.3371412211716
 20
337.3762397897728
 10
874.1313741414116
 20
354.7400307802863
  0
LWPOLYLINE
  5
72
330
17
100
AcDbEntity
  8
0
 62
0
100
AcDbPolyline
 90
4
 70
1
 10
875.5531772247007
 20
354.3907040651862
 10
873.5874897112201
 20
337.8883471675035
 10
891.6900660200504
 20
335.06441764622326
 10
892.3045254575924
 20
352.403737371593
  0
LWPOLYLINE
  5
73
330
17
100
AcDbEntity
  8
0
 62
0
100
AcDbPolyline
 90
4
 70
1
 10
877.2179380111352
 20
424.0078634491289
 10
858.6796872992772
 20
408.6176676348926
 10
880.549263963135
 20
397.22891013072905
 10
884.259267541073
 20
417.6303198971437
  0
LWPOLYLINE
  5
74
330
17
100
AcDbEntity
  8
0
 62
0
100
AcDbPolyline
 90
4
 70
1
 10
886.0846286418729
 20
416.34182970834377
 10
882.7315041568771
 20
396.5917592060926
 10
899.0769047122723
 20
392.7195095803449
 10
898.1105370706723
 20
407.7518951163442
  0
LWPOLYLINE
  5
75
330
17
100
AcDbEntity
  8
0
 62
0
100
AcDbPolyline
 90
4
 70
1
 10
804.6143898880002
 20
378.84840986879976
 10
785.9312821504003
 20
373.0502040191998
 10
794.4283463206639
 20
359.8778795063933
 10
809.6894363048273
 20
370.44216638309206
  0
LWPOLYLINE
  5
76
330
17
100
AcDbEntity
  8
0
 62
0
100
AcDbPolyline
 90
4
 70
1
 10
810.7347182848002
 20
368.5404883583998
 10
796.0244552960003
 20
358.9841861247998
 10
810.1632863078403
 20
342.90752375039983
 10
821.4375754598403
 20
357.9399092863998
  0
LWPOLYLINE
  5
77
330
17
100
AcDbEntity
  8
0
 62
0
100
AcDbPolyline
 90
4
 70
1
 10
823.1555623782403
 20
356.4366707327998
 10
811.5164296570802
 20
342.23080624353344
 10
827.1284071270403
 20
330.88161532159984
 10
835.4059758524204
 20
347.12800148236875
  0
LWPOLYLINE
  5
78
330
17
100
AcDbEntity
  8
0
 62
0
100
AcDbPolyline
 90
4
 70
1
 10
837.2215802726403
 20
346.45087176959987
 10
829.0275270240874
 20
331.3920271936977
 10
847.8399056460903
 20
324.80360118775457
 10
852.8982109030403
 20
340.86741428479985
  0
LWPOLYLINE
  5
79
330
17
100
AcDbEntity
  8
0
 62
0
100
AcDbPolyline
 90
4
 70
1
 10
854.7235720038403
 20
341.08216264959987
 10
849.1231857200039
 20
322.16381155932555
 10
866.4082790778212
 20
318.7110783946734
 10
869.9702921451182
 20
335.61662632155935
  0
LWPOLYLINE
  5
7A
330
17
100
AcDbEntity
  8
0
 62
0
100
AcDbPolyline
 90
4
 70
1
 10
872.0108153702403
 20
336.0355760767999
 10
868.5500501075231
 20
317.2949192766082
 10
888.2465444014765
 20
315.28447892756697
 10
890.4791747430403
 20
333.45859569919986
  0
LWPOLYLINE
  5
7B
330
17
100
AcDbEntity
  8
0
 62
0
100
AcDbPolyline
 90
4
 70
1
 10
791.2594175639376
 20
362.0724105236517
 10
771.7578900736003
 20
349.1057613439998
 10
786.5876068403202
 20
335.2812724454398
 10
801.2524662260826
 20
348.5529710273796
  0
LWPOLYLINE
  5
7C
330
17
100
AcDbEntity
  8
0
 62
0
100
AcDbPolyline
 90
4
 70
1
 10
803.4699714860345
 20
347.04660261293367
 10
788.3914931046402
 20
333.64918487295984
 10
804.8841675212802
 20
322.48226990335985
 10
815.5615065767427
 20
335.64957691349593
  0
LWPOLYLINE
  5
7D
330
17
100
AcDbEntity
  8
0
 62
0
100
AcDbPolyline
 90
4
 70
1
 10
816.8241766041602
 20
334.42227898623986
 10
806.5162550937603
 20
321.27967906047985
 10
823.460642977999
 20
311.1263586999554
 10
831.9424614860802
 20
327.37853262079983
  0
LWPOLYLINE
  5
7E
330
17
100
AcDbEntity
  8
0
 62
0
100
AcDbPolyline
 90
4
 70
1
 10
833.2487355238403
 20
326.37189966079984
 10
825.3451802481628
 20
311.3133950210939
 10
844.1223999448439
 20
304.15876482252014
 10
848.0663726950403
 20
320.57369381119986
  0
LWPOLYLINE
  5
7F
330
17
100
AcDbEntity
  8
0
 62
0
100
AcDbPolyline
 90
4
 70
1
 10
849.3548628838403
 20
319.4999519871999
 10
845.5805475035495
 20
304.5417274343762
 10
864.4946226022403
 20
300.81684424959985
 10
867.7158480742403
 20
315.09761050879985
  0
LWPOLYLINE
  5
80
330
17
100
AcDbEntity
  8
0
 62
0
100
AcDbPolyline
 90
4
 70
1
 10
869.5412091750403
 20
315.20498469119985
 10
866.1052353382403
 20
300.06522497279985
 10
886.6137041766403
 20
298.1324896895999
 10
887.0432009062403
 20
313.4869977727999
  0
LWPOLYLINE
  5
81
330
17
100
AcDbEntity
  8
0
 62
0
100
AcDbPolyline
 90
4
 70
1
 10
674.4726393798735
 20
388.1693214037498
 10
661.4159388000337
 20
396.2438599202296
 10
654.255475128884
 20
387.05764195084265
 10
664.6027701241269
 20
375.3984693353596
  0
LWPOLYLINE
  5
82
330
17
100
AcDbEntity
  8
0
 62
0
100
AcDbPolyline
 90
4
 70
1
 10
663.2437603872809
 20
373.25967494183357
 10
652.7737170892165
 20
386.7802486385504
 10
640.7729061796585
 20
377.05539638912694
 10
645.9035444882479
 20
363.4336028833261
  0
LWPOLYLINE
  5
83
330
17
100
AcDbEntity
  8
0
 62
0
100
AcDbPolyline
 90
4
 70
1
 10
644.8019872277587
 20
361.56766516949546
 10
637.2189528057716
 20
377.711575551818
 10
623.1117196640344
 20
372.6635090466301
 10
625.1410508588613
 20
356.1917023360004
  0
LWPOLYLINE
  5
84
330
17
100
AcDbEntity
  8
0
 62
0
100
AcDbPolyline
 90
4
 70
1
 10
623.3281394537671
 20
356.70318778376645
 10
621.588573446767
 20
371.9605142919231
 10
603.1933662388496
 20
371.07507539444543
 10
603.8360704894657
 20
354.375203515081
  0
LWPOLYLINE
  5
85
330
17
100
AcDbEntity
  8
0
 62
0
100
AcDbPolyline
 90
4
 70
1
 10
694.6589856710731
 20
378.72039335254993
 10
676.4483243360335
 20
387.5680259823098
 10
669.4904773165135
 20
377.43190316374995
 10
683.1948726265534
 20
365.1615478726297
  0
LWPOLYLINE
  5
86
330
17
100
AcDbEntity
  8
0
 62
0
100
AcDbPolyline
 90
4
 70
1
 10
682.0317818208333
 20
363.8598065083902
 10
668.0301884358735
 20
376.40111101271
 10
658.9598705543988
 20
365.00517883814973
 10
668.6314838573135
 20
349.68641443159044
  0
LWPOLYLINE
  5
87
330
17
100
AcDbEntity
  8
0
 62
0
100
AcDbPolyline
 90
4
 70
1
 10
666.2761409888335
 20
349.04118891863055
 10
655.6702806712085
 20
365.0679246736321
 10
642.1861724704152
 20
358.0546064609794
 10
648.3446525280339
 20
339.27013832023067
  0
LWPOLYLINE
  5
88
330
17
100
AcDbEntity
  8
0
 62
0
100
AcDbPolyline
 90
4
 70
1
 10
646.4119172448338
 20
339.27013832023067
 10
639.6091908770948
 20
356.81460182141
 10
622.8423379235536
 20
352.95923013801695
 10
626.356617582527
 20
335.52174531418643
  0
LWPOLYLINE
  5
89
330
17
100
AcDbEntity
  8
0
 62
0
100
AcDbPolyline
 90
4
 70
1
 10
624.8297065824343
 20
334.43830011223076
 10
621.2863585632343
 20
352.6919111202305
 10
604.0066274089338
 20
350.3054999237511
 10
606.2539730272346
 20
332.7203131938308
  0
LWPOLYLINE
  5
8A
330
17
100
AcDbEntity
  8
0
 62
0
100
AcDbPolyline
 90
4
 70
1
 10
659.3664340934736
 20
396.99682137430966
 10
643.303256406434
 20
408.7650317653495
 10
634.8155055456341
 20
400.79554483542967
 10
647.2053645955627
 20
385.7288489515439
  0
LWPOLYLINE
  5
8B
330
17
100
AcDbEntity
  8
0
 62
0
100
AcDbPolyline
 90
4
 70
1
 10
645.4507400544339
 20
383.5106240648699
 10
634.5415231225941
 20
398.4571102549496
 10
620.8835271213143
 20
393.8185455752697
 10
624.3195009581143
 20
375.17838751063005
  0
LWPOLYLINE
  5
8C
330
17
100
AcDbEntity
  8
0
 62
0
100
AcDbPolyline
 90
4
 70
1
 10
622.0379778400343
 20
374.1667476002301
 10
619.4672308935488
 20
393.0972605690281
 10
602.8196202598857
 20
390.73652297370944
 10
603.9991151968346
 20
372.6635090466301
  0
LWPOLYLINE
  5
8D
330
17
100
AcDbEntity
  8
0
 62
0
100
AcDbPolyline
 90
4
 70
1
 10
715.5325267296328
 20
372.79333848407003
 10
697.0641673568331
 20
378.97809139030994
 10
688.0447360352332
 20
366.52268623191014
 10
702.561725495713
 20
354.2390797653503
  0
LWPOLYLINE
  5
8E
330
17
100
AcDbEntity
  8
0
 62
0
100
AcDbPolyline
 90
4
 70
1
 10
701.9604300742731
 20
352.43519350103037
 10
686.1549504249933
 20
365.66369277271014
 10
674.7546625589637
 20
353.7464615832312
 10
685.8113530413132
 20
338.8630968456706
  0
LWPOLYLINE
  5
8F
330
17
100
AcDbEntity
  8
0
 62
0
100
AcDbPolyline
 90
4
 70
1
 10
683.9960293731651
 20
338.48347237424304
 10
673.8111860622586
 20
351.23777978557104
 10
660.8455301866521
 20
342.9966756381855
 10
667.6650332678109
 20
329.5305835998405
  0
LWPOLYLINE
  5
90
330
17
100
AcDbEntity
  8
0
 62
0
100
AcDbPolyline
 90
4
 70
1
 10
664.5026390681462
 20
328.481053974251
 10
658.8673224032336
 20
342.49136379223063
 10
643.7916407869661
 20
335.4338577675294
 10
647.674697565428
 20
320.8956346272309
  0
LWPOLYLINE
  5
91
330
17
100
AcDbEntity
  8
0
 62
0
100
AcDbPolyline
 90
4
 70
1
 10
646.2009551385704
 20
318.74644989440867
 10
641.7948274016339
 20
336.69315794263076
 10
625.2592033120343
 20
332.9350615586308
 10
626.7248531648838
 20
316.3375393161106
  0
LWPOLYLINE
  5
92
330
17
100
AcDbEntity
  8
0
 62
0
100
AcDbPolyline
 90
4
 70
1
 10
624.7381417768387
 20
315.24223040813786
 10
623.5607471336066
 20
332.0739092115142
 10
604.692506368782
 20
331.3440628679139
 10
606.6933133797779
 20
315.75579866757204
  0
LWPOLYLINE
  5
93
330
17
100
AcDbEntity
  8
0
 62
0
100
AcDbPolyline
 90
4
 70
1
 10
641.524871510434
 20
409.5783911970295
 10
629.4912348034786
 20
420.70104109209416
 10
620.5320849295367
 20
413.91622998992915
 10
628.2708708704342
 20
397.7699154875896
  0
LWPOLYLINE
  5
94
330
17
100
AcDbEntity
  8
0
 62
0
100
AcDbPolyline
 90
4
 70
1
 10
626.7061004175366
 20
397.27323171792926
 10
618.7872544655368
 20
412.43983498192915
 10
602.0100384655368
 20
407.0711258619292
 10
602.6811271055368
 20
392.8440466939293
  0
LWPOLYLINE
  5
95
330
17
100
AcDbEntity
  8
0
 62
0
100
AcDbPolyline
 90
4
 70
1
 10
735.9468716525574
 20
356.1790051222527
 10
713.6667288045575
 20
366.9164233622527
 10
705.3870066922168
 20
355.6439906298818
 10
722.5250988525574
 20
342.2203614102528
  0
LWPOLYLINE
  5
96
330
17
100
AcDbEntity
  8
0
 62
0
100
AcDbPolyline
 90
4
 70
1
 10
721.8540102125575
 20
340.4755309462528
 10
705.8670997336337
 20
353.0704404242215
 10
694.2451716877533
 20
342.2642284057464
 10
706.5531892205574
 20
327.4564113302528
  0
LWPOLYLINE
  5
97
330
17
100
AcDbEntity
  8
0
 62
0
100
AcDbPolyline
 90
4
 70
1
 10
704.9082880493575
 20
326.74788852705285
 10
692.0233861613576
 20
340.92128060385284
 10
676.7491367910388
 20
331.98903472158867
 10
686.6434999270388
 20
314.0540901542926
  0
LWPOLYLINE
  5
98
330
17
100
AcDbEntity
  8
0
 62
0
100
AcDbPolyline
 90
4
 70
1
 10
685.4409090841588
 20
312.50790192773263
 10
674.8435169773576
 20
331.04285582305283
 10
660.6701249005577
 20
324.0635339670529
 10
670.2367248563188
 20
306.3231490214926
  0
LWPOLYLINE
  5
99
330
17
100
AcDbEntity
  8
0
 62
0
100
AcDbPolyline
 90
4
 70
1
 10
668.3469392460788
 20
305.20645752453265
 10
659.5027594592336
 20
322.91134608727094
 10
644.2126758854739
 20
316.4688951432711
 10
648.4589960071177
 20
301.258599802573
  0
LWPOLYLINE
  5
9A
330
17
100
AcDbEntity
  8
0
 62
0
100
AcDbPolyline
 90
4
 70
1
 10
646.8755556089939
 20
300.66341549399135
 10
642.236990929314
 20
316.03939841367105
 10
624.7994237075543
 20
313.20471999831113
 10
627.4049757251591
 20
299.31569769424925
  0
LWPOLYLINE
  5
9B
330
17
100
AcDbEntity
  8
0
 62
0
100
AcDbPolyline
 90
4
 70
1
 10
625.2574920771592
 20
298.7788267822492
 10
623.6468793411593
 20
312.60325276624917
 10
606.0643569731593
 20
313.4085591342492
 10
607.1380987971593
 20
297.70508495824924
  0
LWPOLYLINE
  5
9C
330
17
100
AcDbEntity
  8
0
 62
0
100
AcDbPolyline
 90
4
 70
1
 10
745.2078948845574
 20
370.9429552022527
 10
737.6917021165574
 20
357.5211824022527
 10
715.6799947245574
 20
368.1243829142527
 10
717.2906074605575
 20
373.4930920342527
  0
LWPOLYLINE
  5
9D
330
17
100
AcDbEntity
  8
0
 62
0
100
AcDbPolyline
 90
4
 70
1
 10
888.9813709588481
 20
313.7334663454109
 10
898.9825543844636
 20
313.6343459415644
 10
898.9825543844636
 20
297.3478299551332
 10
887.9368349124609
 20
297.5706454171037
  0
LWPOLYLINE
  5
9E
330
17
100
AcDbEntity
  8
0
 62
0
100
AcDbPolyline
 90
4
 70
1
 10
892.341109126144
 20
332.51385509226515
 10
898.9825543844636
 20
333.08195785785153
 10
898.9825543844636
 20
315.4210523367003
 10
890.021826786304
 20
315.41988525418526
  0
LWPOLYLINE
  5
9F
330
17
100
AcDbEntity
  8
0
 62
0
100
AcDbPolyline
 90
4
 70
1
 10
894.3329002096641
 20
351.5767990001051
 10
898.7452574413596
 20
352.3964257879626
 10
898.9170561331996
 20
334.8729592202834
 10
893.4739067504642
 20
334.5687285079452
  0
LWPOLYLINE
  5
A0
330
17
100
AcDbEntity
  8
0
 62
0
100
AcDbPolyline
 90
4
 70
1
 10
885.6691140495349
 20
433.369182565929
 10
899.1613286287339
 20
424.69078420432896
 10
897.4662919762724
 20
410.6509980411441
 10
878.2871390095349
 20
425.45033661392904
  0
LWPOLYLINE
  5
A1
330
17
100
AcDbEntity
  8
0
 62
0
100
AcDbPolyline
 90
4
 70
1
 10
845.3949244686393
 20
549.2748685366754
 10
828.0088968544316
 20
539.9290197005795
 10
835.0870029582394
 20
529.4836592367077
 10
849.6555320262712
 20
543.5711519675875
  0
LWPOLYLINE
  5
A2
330
17
100
AcDbEntity
  8
0
 62
0
100
AcDbPolyline
 90
4
 70
1
 10
850.5488852238392
 20
541.7157260957155
 10
836.2215063171647
 20
528.3980979558614
 10
852.0884244781316
 20
515.797546709299
 10
860.3081917710391
 20
532.1563368543716
  0
LWPOLYLINE
  5
A3
330
17
100
AcDbEntity
  8
0
 62
0
100
AcDbPolyline
 90
4
 70
1
 10
861.2983928652849
 20
530.3756614619889
 10
853.2988051439672
 20
514.7015897634279
 10
873.0900144439349
 20
507.211166799204
 10
877.7449203740822
 20
523.4185696075092
  0
LWPOLYLINE
  5
A4
330
17
100
AcDbEntity
  8
0
 62
0
100
AcDbPolyline
 90
4
 70
1
 10
879.4122063036468
 20
522.7417685415397
 10
874.739281885599
 20
506.798849938788
 10
899.0469406044966
 20
503.7486252631557
 10
898.3597458371366
 20
520.3271990257149
  0
LWPOLYLINE
  5
A5
330
17
100
AcDbEntity
  8
0
 62
0
100
AcDbPolyline
 90
4
 70
1
 10
861.1904216743989
 20
560.8559794148831
 10
846.7593315598391
 20
549.9467624830432
 10
857.3861391241073
 20
537.6478113949116
 10
867.8905706561587
 20
552.1801454769632
  0
LWPOLYLINE
  5
A6
330
17
100
AcDbEntity
  8
0
 62
0
100
AcDbPolyline
 90
4
 70
1
 10
868.7495641153587
 20
550.7198565963232
 10
859.1167926904385
 20
537.2291417103543
 10
877.6830960910386
 20
525.3795495499236
 10
881.4686006588028
 20
544.4168983797393
  0
LWPOLYLINE
  5
A7
330
17
100
AcDbEntity
  8
0
 62
0
100
AcDbPolyline
 90
4
 70
1
 10
883.0607600965087
 20
543.7643586974953
 10
879.3742394638385
 20
524.5796118910436
 10
898.8260685558569
 20
521.8618948593149
 10
898.8260685558569
 20
540.931549653554
  0
LWPOLYLINE
  5
A8
330
17
100
AcDbEntity
  8
0
 62
0
100
AcDbPolyline
 90
4
 70
1
 10
826.6345073197116
 20
539.5167028401636
 10
808.2864070311998
 20
532.0949993526757
 10
813.0280509259837
 20
523.5737842374118
 10
829.1084084822076
 20
535.4622537127397
  0
LWPOLYLINE
  5
A9
330
17
100
AcDbEntity
  8
0
 62
0
100
AcDbPolyline
 90
4
 70
1
 10
829.8643227263035
 20
533.4693888873957
 10
813.7152456933437
 20
522.4742726096358
 10
827.5278605172796
 20
507.424707204452
 10
839.8973663297594
 20
522.0619557492198
  0
LWPOLYLINE
  5
AA
330
17
100
AcDbEntity
  8
0
 62
0
100
AcDbPolyline
 90
4
 70
1
 10
841.5368489020525
 20
520.8016174535003
 10
828.9736371060795
 20
506.115111277924
 10
847.2701977870393
 20
494.1751021950442
 10
854.0260404971707
 20
512.3262460980507
  0
LWPOLYLINE
  5
AB
330
17
100
AcDbEntity
  8
0
 62
0
100
AcDbPolyline
 90
4
 70
1
 10
855.6024343412791
 20
511.0113739953639
 10
848.9881847054392
 20
493.9174041572842
 10
867.1988460404789
 20
487.3890538673643
 10
872.73461659711
 20
505.5902053291258
  0
LWPOLYLINE
  5
AC
330
17
100
AcDbEntity
  8
0
 62
0
100
AcDbPolyline
 90
4
 70
1
 10
874.6018429321269
 20
505.56189935754
 10
869.5284272516991
 20
488.15329730056953
 10
886.9535887795205
 20
485.01034258843765
 10
889.2728711193604
 20
502.79150719387695
  0
LWPOLYLINE
  5
AD
330
17
100
AcDbEntity
  8
0
 62
0
100
AcDbPolyline
 90
4
 70
1
 10
873.1398259982386
 20
574.9474986776029
 10
862.2306090663988
 20
561.7189994059231
 10
875.4591083380785
 20
548.9199968638433
 10
886.047942662117
 20
562.4912141077946
  0
LWPOLYLINE
  5
AE
330
17
100
AcDbEntity
  8
0
 62
0
100
AcDbPolyline
 90
4
 70
1
 10
807.0824740110398
 20
532.0402385196517
 10
782.9232829710402
 20
525.7051617580518
 10
788.5067404558401
 20
516.3636078892519
 10
808.3715153303767
 20
527.6944643563295
  0
LWPOLYLINE
  5
AF
330
17
100
AcDbEntity
  8
0
 62
0
100
AcDbPolyline
 90
4
 70
1
 10
809.4447060238398
 20
526.3494068524518
 10
789.58048227984
 20
514.860369335652
 10
804.7202419982398
 20
499.72060961725214
 10
819.1244784538395
 20
513.2676046123348
  0
LWPOLYLINE
  5
B0
330
17
100
AcDbEntity
  8
0
 62
0
100
AcDbPolyline
 90
4
 70
1
 10
820.0747500814397
 20
512.3907631404519
 10
805.6866096398398
 20
498.53949361085216
 10
822.5443562766396
 20
485.86934008765235
 10
833.6176216375504
 20
500.14023392729297
  0
LWPOLYLINE
  5
B1
330
17
100
AcDbEntity
  8
0
 62
0
100
AcDbPolyline
 90
4
 70
1
 10
834.3707067654675
 20
498.93242811507315
 10
824.2623431950395
 20
485.11772081085235
 10
842.6233283854393
 20
475.5614185772525
 10
848.8510309646392
 20
491.98966848445224
  0
LWPOLYLINE
  5
B2
330
17
100
AcDbEntity
  8
0
 62
0
100
AcDbPolyline
 90
4
 70
1
 10
850.2309927569588
 20
490.96520420765154
 10
844.1265669390393
 20
474.9171734828525
 10
862.487552129439
 20
468.15259999165255
 10
865.8294196861077
 20
485.82745039115105
  0
LWPOLYLINE
  5
B3
330
17
100
AcDbEntity
  8
0
 62
0
100
AcDbPolyline
 90
4
 70
1
 10
868.0784230792264
 20
485.65652775631406
 10
864.1137996742699
 20
467.43863932246825
 10
883.4289000998368
 20
466.2219463833981
 10
884.6920292062213
 20
483.23416535090826
  0
LWPOLYLINE
  5
B4
330
17
100
AcDbEntity
  8
0
 62
0
100
AcDbPolyline
 90
4
 70
1
 10
886.34161245144
 20
482.30384342176205
 10
885.2377086836786
 20
465.74241869552463
 10
898.8392386704163
 20
465.2555177436695
 10
898.7017997169443
 20
481.9543505905167
  0
LWPOLYLINE
  5
B5
330
17
100
AcDbEntity
  8
0
 62
0
100
AcDbPolyline
 90
4
 70
1
 10
786.5056396558402
 20
515.3801635321315
 10
767.8654815912005
 20
505.67353744317165
 10
783.9286592782403
 20
489.1808630265318
 10
798.3597493928
 20
502.4952616441317
  0
LWPOLYLINE
  5
B6
330
17
100
AcDbEntity
  8
0
 62
0
100
AcDbPolyline
 90
4
 70
1
 10
800.0613665802224
 20
501.70408904042426
 10
785.1363552266225
 20
488.0675678756244
 10
801.1060100007919
 20
476.90643822697217
 10
811.1209073674222
 20
491.28879334762433
  0
LWPOLYLINE
  5
B7
330
17
100
AcDbEntity
  8
0
 62
0
100
AcDbPolyline
 90
4
 70
1
 10
812.4511831310398
 20
490.37905574845223
 10
802.3309883607025
 20
476.1388330818965
 10
819.5108575447023
 20
466.3119479086486
 10
827.8334010181925
 20
480.1650591444006
  0
LWPOLYLINE
  5
B8
330
17
100
AcDbEntity
  8
0
 62
0
100
AcDbPolyline
 90
4
 70
1
 10
829.7189881743342
 20
479.7031861755286
 10
821.3329782150855
 20
466.1640859035204
 10
837.9062695823341
 20
458.6310028795288
 10
844.348720526334
 20
472.99229977552864
  0
LWPOLYLINE
  5
B9
330
17
100
AcDbEntity
  8
0
 62
0
100
AcDbPolyline
 90
4
 70
1
 10
846.0935509903339
 20
471.9185579515286
 10
839.7404779394692
 20
458.00859838086564
 10
857.1685079810319
 20
452.7327730442214
 10
861.5285897103338
 20
466.6840665595287
  0
LWPOLYLINE
  5
BA
330
17
100
AcDbEntity
  8
0
 62
0
100
AcDbPolyline
 90
4
 70
1
 10
862.8777904595485
 20
466.30005160902147
 10
860.1864124303338
 20
451.78589875152886
 10
879.3795475343336
 20
450.30950374352886
 10
880.3320255422002
 20
464.7442733793223
  0
LWPOLYLINE
  5
BB
330
17
100
AcDbEntity
  8
0
 62
0
100
AcDbPolyline
 90
4
 70
1
 10
882.4665552783335
 20
463.9997119995287
 10
881.6612489103336
 20
450.30950374352886
 10
899.1141165773603
 20
450.27467181522223
 10
898.6330802402083
 20
463.67496977874157
  0
LWPOLYLINE
  5
BC
330
17
100
AcDbEntity
  8
0
 62
0
100
AcDbPolyline
 90
5
 70
1
 10
883.4942325211188
 20
434.7334061151725
 10
889.9366834651187
 20
442.5180343391724
 10
892.3526025691186
 20
448.2893966431723
 10
866.4485810651189
 20
449.6315739231723
 10
864.7037506011189
 20
446.27613072317234
  0
LWPOLYLINE
  5
BD
330
17
100
AcDbEntity
  8
0
 62
0
100
AcDbPolyline
 90
5
 70
1
 10
622.0803569729619
 20
429.27194323901267
 10
612.6314289217621
 20
440.0093614790125
 10
608.765958355362
 20
448.4274973791724
 10
641.7513071886417
 20
449.9736856057324
 10
643.6410927988817
 20
446.02231569341245
  0
LWPOLYLINE
  5
BE
330
17
100
AcDbEntity
  8
0
 62
0
100
AcDbPolyline
 90
5
 70
1
 10
767.3862387777601
 20
507.34853864381193
 10
760.1706937204802
 20
517.3128627705318
 10
757.7089159053374
 20
523.9464246826469
 10
780.1232764813369
 20
525.1543842346468
 10
785.5110007668799
 20
516.7974666950118
  0
LWPOLYLINE
  5
BF
330
17
100
AcDbEntity
  8
0
 62
0
100
AcDbPolyline
 90
5
 70
1
 10
887.9511717134382
 20
562.011661161827
 10
876.4750190985263
 20
548.1303268611551
 10
898.7401692099368
 20
542.7354359178739
 10
898.6542698640168
 20
555.7921364977133
 10
894.4467438846046
 20
558.581179369622
  0
LWPOLYLINE
  5
C0
330
17
100
AcDbEntity
  8
0
 62
0
100
AcDbPolyline
 90
4
 70
1
 10
675.6039599167323
 20
539.8103889015963
 10
660.3482360813405
 20
548.1254455866522
 10
655.7267416727638
 20
542.6344389170652
 10
667.9065374376019
 20
530.431574480227
  0
LWPOLYLINE
  5
C1
330
17
100
AcDbEntity
  8
0
 62
0
100
AcDbPolyline
 90
4
 70
1
 10
667.0269281353811
 20
529.6619163407838
 10
654.5474711601237
 20
541.5366419207644
 10
644.5334888549403
 20
531.2038538117233
 10
652.8982037184599
 20
516.9075814585825
  0
LWPOLYLINE
  5
C2
330
17
100
AcDbEntity
  8
0
 62
0
100
AcDbPolyline
 90
4
 70
1
 10
651.0685728161877
 20
516.5797546579424
 10
643.2345524682838
 20
530.2549305284062
 10
629.0096207839322
 20
525.3071282034143
 10
633.407667295036
 20
508.6770148333026
  0
LWPOLYLINE
  5
C3
330
17
100
AcDbEntity
  8
0
 62
0
100
AcDbPolyline
 90
4
 70
1
 10
631.9403816250555
 20
508.20670960470557
 10
627.4290728190041
 20
524.9978905581023
 10
611.0222977482845
 20
521.9914134509024
 10
612.2534998976612
 20
504.7877739002442
  0
LWPOLYLINE
  5
C4
330
17
100
AcDbEntity
  8
0
 62
0
100
AcDbPolyline
 90
4
 70
1
 10
696.9315047882826
 20
530.6707328554469
 10
677.2532273583961
 20
538.9857551807643
 10
674.0569306054738
 20
535.5640603989469
 10
690.6999288774734
 20
523.2160294229471
  0
LWPOLYLINE
  5
C5
330
17
100
AcDbEntity
  8
0
 62
0
100
AcDbPolyline
 90
4
 70
1
 10
689.6261870534735
 20
522.0349134165472
 10
673.3053113286737
 20
533.7386992981469
 10
663.104764000674
 20
523.7529003349472
 10
675.2380466118738
 20
508.0762697045474
  0
LWPOLYLINE
  5
C6
330
17
100
AcDbEntity
  8
0
 62
0
100
AcDbPolyline
 90
4
 70
1
 10
673.7304269313191
 20
507.50496330834136
 10
662.031022176674
 20
522.4644101461472
 10
650.2578913953804
 20
513.3287771561781
 10
656.6365460838213
 20
497.30366116201327
  0
LWPOLYLINE
  5
C7
330
17
100
AcDbEntity
  8
0
 62
0
100
AcDbPolyline
 90
4
 70
1
 10
655.2132162568276
 20
496.1571851654628
 10
648.6633911304277
 20
512.8001834374625
 10
632.502502937404
 20
506.48121280322283
 10
637.5705643466838
 20
488.6141488518632
  0
LWPOLYLINE
  5
C8
330
17
100
AcDbEntity
  8
0
 62
0
100
AcDbPolyline
 90
4
 70
1
 10
635.8525774282839
 20
488.0987527763432
 10
630.9234537524173
 20
506.2551680754099
 10
614.8788446672421
 20
502.7731764841436
 10
616.3534259044443
 20
484.0614835181033
  0
LWPOLYLINE
  5
C9
330
17
100
AcDbEntity
  8
0
 62
0
100
AcDbPolyline
 90
4
 70
1
 10
658.6989686396765
 20
548.5377624470681
 10
644.7489148622689
 20
557.471294422748
 10
639.7985786314839
 20
553.6882720953818
 10
649.5827909558359
 20
538.278483085462
  0
LWPOLYLINE
  5
CA
330
17
100
AcDbEntity
  8
0
 62
0
100
AcDbPolyline
 90
4
 70
1
 10
646.9282243428437
 20
537.7109937542621
 10
637.9946923671639
 20
553.0869766739418
 10
624.0863285140895
 20
545.4196498462405
 10
630.4787764232283
 20
527.6269641913822
  0
LWPOLYLINE
  5
CB
330
17
100
AcDbEntity
  8
0
 62
0
100
AcDbPolyline
 90
4
 70
1
 10
627.6008715108442
 20
527.2312735520222
 10
622.3287391229255
 20
545.3544302779076
 10
601.5601198907488
 20
540.6932487558619
 10
601.4742205448288
 20
522.2248893830623
  0
LWPOLYLINE
  5
CC
330
17
100
AcDbEntity
  8
0
 62
0
100
AcDbPolyline
 90
4
 70
1
 10
718.4144005677126
 20
525.5033120904669
 10
699.0789884362825
 20
530.6924224402917
 10
696.1009129386516
 20
526.6994203130552
 10
714.3878687277127
 20
516.9133774984671
  0
LWPOLYLINE
  5
CD
330
17
100
AcDbEntity
  8
0
 62
0
100
AcDbPolyline
 90
4
 70
1
 10
712.6430382637127
 20
515.1685470344671
 10
694.6916059647106
 20
525.6074985362466
 10
685.5900606734219
 20
513.1313539496925
 10
698.684394551713
 20
499.3308551304674
  0
LWPOLYLINE
  5
CE
330
17
100
AcDbEntity
  8
0
 62
0
100
AcDbPolyline
 90
4
 70
1
 10
697.697348991393
 20
498.08009270614747
 10
683.7401547740872
 20
512.0814326696918
 10
669.9910313708774
 20
501.07749787439235
 10
681.2905739206733
 20
485.62468754774767
  0
LWPOLYLINE
  5
CF
330
17
100
AcDbEntity
  8
0
 62
0
100
AcDbPolyline
 90
4
 70
1
 10
679.8302850400333
 20
484.3361973589477
 10
668.0620746489935
 20
501.34426785110736
 10
653.2873871507538
 20
493.0979306427875
 10
660.3408587588673
 20
476.58165226593434
  0
LWPOLYLINE
  5
D0
330
17
100
AcDbEntity
  8
0
 62
0
100
AcDbPolyline
 90
4
 70
1
 10
658.7849452896337
 20
476.60525622614784
 10
651.6396291298186
 20
492.5419977832132
 10
636.7506936924419
 20
486.3834223738471
 10
641.8985664208083
 20
470.43500938362416
  0
LWPOLYLINE
  5
D1
330
17
100
AcDbEntity
  8
0
 62
0
100
AcDbPolyline
 90
4
 70
1
 10
639.5435631729069
 20
470.1806776238307
 10
635.1112702948374
 20
486.35047615327153
 10
618.8428128920629
 20
482.5000939364613
 10
620.4150216364332
 20
465.98320752168627
  0
LWPOLYLINE
  5
D2
330
17
100
AcDbEntity
  8
0
 62
0
100
AcDbPolyline
 90
4
 70
1
 10
618.9370584481885
 20
465.4271135929835
 10
617.1922921807216
 20
482.596978039223
 10
598.686337893141
 20
482.0030858899878
 10
598.7321630027442
 20
465.0945881236391
  0
LWPOLYLINE
  5
D3
330
17
100
AcDbEntity
  8
0
 62
0
100
AcDbPolyline
 90
4
 70
1
 10
643.364915630908
 20
558.4864929568216
 10
630.0505170133082
 20
571.1136968070614
 10
620.8513699054254
 20
564.6095998989547
 10
625.6696503713883
 20
547.8349740627418
  0
LWPOLYLINE
  5
D4
330
17
100
AcDbEntity
  8
0
 62
0
100
AcDbPolyline
 90
4
 70
1
 10
623.9516634529883
 20
547.4913766790619
 10
619.3130987733084
 20
563.7263530579415
 10
601.8287189246046
 20
555.729052649622
 10
601.4460348219488
 20
542.5951139616219
  0
LWPOLYLINE
  5
D5
330
17
100
AcDbEntity
  8
0
 62
0
100
AcDbPolyline
 90
4
 70
1
 10
742.0054417293377
 20
523.9464246826469
 10
721.1435083513925
 20
525.5829828949471
 10
719.2980145913925
 20
520.8853624149472
 10
741.2761675513922
 20
515.1811089749473
  0
LWPOLYLINE
  5
D6
330
17
100
AcDbEntity
  8
0
 62
0
100
AcDbPolyline
 90
4
 70
1
 10
740.3634870009921
 20
513.6778704213473
 10
719.1302424313926
 20
519.3754129749473
 10
712.7549003513927
 20
510.8190328149474
 10
727.6866225913924
 20
499.57829809494757
  0
LWPOLYLINE
  5
D7
330
17
100
AcDbEntity
  8
0
 62
0
100
AcDbPolyline
 90
4
 70
1
 10
718.4591537913925
 20
490.16292447574773
 10
704.0710133497928
 20
501.86671035734753
 10
692.4746016505931
 20
491.77353721174774
 10
703.9636391673928
 20
477.600145134948
  0
LWPOLYLINE
  5
D8
330
17
100
AcDbEntity
  8
0
 62
0
100
AcDbPolyline
 90
4
 70
1
 10
701.9587618553928
 20
476.5717017941479
 10
691.1139694329931
 20
490.4229713237477
 10
677.1553257209933
 20
481.0814174549478
 10
686.1747570425932
 20
466.2637802837481
  0
LWPOLYLINE
  5
D9
330
17
100
AcDbEntity
  8
0
 62
0
100
AcDbPolyline
 90
4
 70
1
 10
684.2420217593932
 20
465.8342835541481
 10
675.4373388025933
 20
480.43717236054783
 10
660.4049532665936
 20
474.42421814614795
 10
664.2704238329936
 20
457.6738456917482
  0
LWPOLYLINE
  5
DA
330
17
100
AcDbEntity
  8
0
 62
0
100
AcDbPolyline
 90
4
 70
1
 10
662.9081138937936
 20
457.19200404822817
 10
657.6682537926738
 20
474.45777257814785
 10
640.144787224994
 20
468.44481836374797
 10
644.439754520994
 20
450.9213517960683
  0
LWPOLYLINE
  5
DB
330
17
100
AcDbEntity
  8
0
 62
0
100
AcDbPolyline
 90
4
 70
1
 10
642.371629095165
 20
451.630473835665
 10
638.7118032633941
 20
468.2456308667881
 10
622.2278839813296
 20
463.49260378628827
 10
624.7102098784344
 20
450.46446626134843
  0
LWPOLYLINE
  5
DC
330
17
100
AcDbEntity
  8
0
 62
0
100
AcDbPolyline
 90
4
 70
1
 10
622.9922229600344
 20
450.3785669154284
 10
620.4152425824344
 20
464.1224622626282
 10
601.5173864800347
 20
463.26346880342817
 10
601.0878897504348
 20
450.3785669154284
  0
LWPOLYLINE
  5
DD
330
17
100
AcDbEntity
  8
0
 62
0
100
AcDbPolyline
 90
4
 70
1
 10
628.504492364604
 20
571.7412276000217
 10
618.0891966718042
 20
582.4786458400215
 10
609.2594481702513
 20
577.950244827154
 10
616.7326912652909
 20
563.9486514421945
  0
LWPOLYLINE
  5
DE
330
17
100
AcDbEntity
  8
0
 62
0
100
AcDbPolyline
 90
4
 70
1
 10
705.3595035385929
 20
503.1552005461475
 10
719.6402697977926
 20
491.3440404821477
 10
726.9417142009925
 20
498.2159881557476
 10
711.8019544825927
 20
509.2755289429474
  0
LWPOLYLINE
  5
DF
330
17
100
AcDbEntity
  8
0
 62
0
100
AcDbPolyline
 90
4
 70
1
 10
613.1322004324443
 20
502.57279256386295
 10
614.2918416023642
 20
484.1473828640233
 10
600.5663635481717
 20
483.7691340021976
 10
601.4253570073715
 20
502.23749337499686
  0
LWPOLYLINE
  5
E0
330
17
100
AcDbEntity
  8
0
 62
0
100
AcDbPolyline
 90
4
 70
1
 10
610.6411194007644
 20
504.9779742496229
 10
596.2959286321247
 20
504.2907794822629
 10
597.3267207831647
 20
520.6975545529825
 10
609.2667298660444
 20
521.1270512825826
  0
LWPOLYLINE
  5
E1
330
17
100
AcDbEntity
  8
0
 62
0
100
AcDbPolyline
 90
4
 70
1
 10
799.3617750452031
 20
593.7843783527563
 10
790.4825795927998
 20
605.5190237219998
 10
775.0475408727998
 20
598.5397018659999
 10
781.8597833140035
 20
583.4764568423565
  0
LWPOLYLINE
  5
E2
330
17
100
AcDbEntity
  8
0
 62
0
100
AcDbPolyline
 90
4
 70
1
 10
780.0344222132035
 20
582.4027150183565
 10
773.5711458647997
 20
596.7948714019999
 10
757.3308007767998
 20
594.5131700259999
 10
758.344837368404
 20
577.7856251751566
  0
LWPOLYLINE
  5
E3
330
17
100
AcDbEntity
  8
0
 62
0
100
AcDbPolyline
 90
4
 70
1
 10
756.3047279028041
 20
577.6782509927566
 10
755.2642925912
 20
593.9813728291998
 10
738.9429720408
 20
594.9158232099999
 10
735.3190933848
 20
581.0913972259999
  0
LWPOLYLINE
  5
E4
330
17
100
AcDbEntity
  8
0
 62
0
100
AcDbPolyline
 90
4
 70
1
 10
733.3058274647999
 20
581.3598326819999
 10
737.1981415767999
 20
595.5869118499999
 10
720.1524901207999
 20
601.3582741539999
 10
713.0558289516367
 20
588.2301825414289
  0
LWPOLYLINE
  5
E5
330
17
100
AcDbEntity
  8
0
 62
0
100
AcDbPolyline
 90
4
 70
1
 10
711.2978796305397
 20
588.2277741063175
 10
719.3724181470197
 20
602.6588642208774
 10
709.0373923022179
 20
608.4427009133996
 10
700.3734451317123
 20
594.8222976796154
  0
LWPOLYLINE
  5
E6
330
17
100
AcDbEntity
  8
0
 62
0
100
AcDbPolyline
 90
4
 70
1
 10
829.6326454994742
 20
593.6707562630277
 10
816.2108726994745
 20
604.1397390470273
 10
806.745259058586
 20
597.5750348152599
 10
821.0513598900027
 20
585.0870695783565
  0
LWPOLYLINE
  5
E7
330
17
100
AcDbEntity
  8
0
 62
0
100
AcDbPolyline
 90
4
 70
1
 10
819.2259987892027
 20
583.2617084775566
 10
805.8042259892029
 20
596.0392361831563
 10
793.4785408985335
 20
587.0908049722277
 10
803.549368158803
 20
570.5915549543569
  0
LWPOLYLINE
  5
E8
330
17
100
AcDbEntity
  8
0
 62
0
100
AcDbPolyline
 90
4
 70
1
 10
801.8313812404031
 20
569.9473098599568
 10
791.6308339124032
 20
586.0534372199564
 10
777.0993026898686
 20
579.3722449202562
 10
781.0007898548035
 20
562.645865456757
  0
LWPOLYLINE
  5
E9
330
17
100
AcDbEntity
  8
0
 62
0
100
AcDbPolyline
 90
4
 70
1
 10
779.3901771188035
 20
562.5384912743569
 10
775.7394549172036
 20
578.8593669991566
 10
758.666959915604
 20
575.9602640743567
 10
759.633327557204
 20
559.8541367143571
  0
LWPOLYLINE
  5
EA
330
17
100
AcDbEntity
  8
0
 62
0
100
AcDbPolyline
 90
4
 70
1
 10
758.2374631860041
 20
559.8541367143571
 10
756.519476267604
 20
576.3897608039567
 10
740.679869432568
 20
578.6464595015774
 10
736.7895990878443
 20
561.1759583474019
  0
LWPOLYLINE
  5
EB
330
17
100
AcDbEntity
  8
0
 62
0
100
AcDbPolyline
 90
4
 70
1
 10
735.3579877013325
 20
561.3674605835416
 10
738.5879878068044
 20
578.0003735399566
 10
722.5761650284367
 20
582.6017788949652
 10
716.8037289826128
 20
565.3531902342295
  0
LWPOLYLINE
  5
EC
330
17
100
AcDbEntity
  8
0
 62
0
100
AcDbPolyline
 90
4
 70
1
 10
715.2757943670608
 20
565.9856241685656
 10
720.9956170635087
 20
583.6325710460052
 10
704.1936844311824
 20
589.2856304804192
 10
696.5153772181333
 20
574.5755587605653
  0
LWPOLYLINE
  5
ED
330
17
100
AcDbEntity
  8
0
 62
0
100
AcDbPolyline
 90
4
 70
1
 10
695.3471461136213
 20
575.5376314348694
 10
703.5396435386075
 20
590.7518638537281
 10
694.6334065220597
 20
596.9895073901574
 10
680.0305177156597
 20
584.2764041939975
  0
LWPOLYLINE
  5
EE
330
17
100
AcDbEntity
  8
0
 62
0
100
AcDbPolyline
 90
4
 70
1
 10
854.8754856372018
 20
587.1804467047566
 10
835.7616228788023
 20
598.1867198311562
 10
824.9168304564025
 20
586.6976823143565
 10
840.2793077172022
 20
573.4231295847569
  0
LWPOLYLINE
  5
EF
330
17
100
AcDbEntity
  8
0
 62
0
100
AcDbPolyline
 90
4
 70
1
 10
838.0982696372022
 20
572.5842687847569
 10
824.2725853620026
 20
585.5165663079565
 10
811.4950576564029
 20
574.3496513383567
 10
822.4954587572025
 20
560.5046732647571
  0
LWPOLYLINE
  5
F0
330
17
100
AcDbEntity
  8
0
 62
0
100
AcDbPolyline
 90
4
 70
1
 10
821.0513598900027
 20
559.317265802357
 10
810.4213158324028
 20
572.8464127847568
 10
796.1405495732032
 20
564.7933491047569
 10
802.0461296052031
 20
551.0494537575572
  0
LWPOLYLINE
  5
F1
330
17
100
AcDbEntity
  8
0
 62
0
100
AcDbPolyline
 90
4
 70
1
 10
800.046995409195
 20
551.759291929624
 10
793.403879994698
 20
564.4332342153574
 10
778.6383362863163
 20
560.8910766772832
 10
782.150726531175
 20
544.937842044845
  0
LWPOLYLINE
  5
F2
330
17
100
AcDbEntity
  8
0
 62
0
100
AcDbPolyline
 90
4
 70
1
 10
780.257494209337
 20
543.4079952426465
 10
776.9472014920796
 20
560.7633631455944
 10
760.2590527373374
 20
558.4403807786462
 10
760.5274881933374
 20
541.6631647786465
  0
LWPOLYLINE
  5
F3
330
17
100
AcDbEntity
  8
0
 62
0
100
AcDbPolyline
 90
4
 70
1
 10
758.9554254034205
 20
541.7211754904246
 10
758.7826577293374
 20
558.1719453226461
 10
740.9316999053378
 20
558.7088162346462
 10
739.7001421937
 20
542.1737794420661
  0
LWPOLYLINE
  5
F4
330
17
100
AcDbEntity
  8
0
 62
0
100
AcDbPolyline
 90
4
 70
1
 10
737.3078212493378
 20
542.3342534186465
 10
739.4553048973378
 20
559.1114694186462
 10
723.7518307213381
 20
562.0642594346461
 10
718.7609445056581
 20
545.7870044714465
  0
LWPOLYLINE
  5
F5
330
17
100
AcDbEntity
  8
0
 62
0
100
AcDbPolyline
 90
4
 70
1
 10
716.3025414056394
 20
546.9622397530139
 10
720.9637192572076
 20
561.971248519793
 10
705.2646657346022
 20
568.3933274750175
 10
698.831838900088
 20
553.9738545337343
  0
LWPOLYLINE
  5
F6
330
17
100
AcDbEntity
  8
0
 62
0
100
AcDbPolyline
 90
4
 70
1
 10
696.1030603577173
 20
553.2038014956697
 10
703.3186054149971
 20
568.9405616682135
 10
688.8586410433372
 20
577.4390675790547
 10
678.4421548365656
 20
561.9311750411416
  0
LWPOLYLINE
  5
F7
330
17
100
AcDbEntity
  8
0
 62
0
100
AcDbPolyline
 90
4
 70
1
 10
676.8077050320728
 20
562.564038472207
 10
687.1763466426198
 20
577.8138030404755
 10
672.8653712478358
 20
587.5799833893791
 10
660.5349329409885
 20
574.878568703298
  0
LWPOLYLINE
  5
F8
330
17
100
AcDbEntity
  8
0
 62
0
100
AcDbPolyline
 90
4
 70
1
 10
659.5511169947486
 20
576.1645355988115
 10
672.8826954815322
 20
589.7709919925393
 10
661.6814207735645
 20
602.484095188699
 10
639.2788713576289
 20
597.6050123404431
  0
LWPOLYLINE
  5
F9
330
17
100
AcDbEntity
  8
0
 62
0
100
AcDbPolyline
 90
4
 70
1
 10
870.4782965172014
 20
574.4297625447568
 10
856.7209793972017
 20
584.8316364647566
 10
845.480244677202
 20
574.0942182247569
 10
859.4053339572017
 20
562.1823948647572
  0
LWPOLYLINE
  5
FA
330
17
100
AcDbEntity
  8
0
 62
0
100
AcDbPolyline
 90
4
 70
1
 10
857.5598401972018
 20
561.1757619047571
 10
843.466978757202
 20
573.5909017447568
 10
830.5485224372023
 20
562.6857113447571
 10
841.1181685172021
 20
549.2639385447574
  0
LWPOLYLINE
  5
FB
330
17
100
AcDbEntity
  8
0
 62
0
100
AcDbPolyline
 90
4
 70
1
 10
839.5817299853358
 20
547.8371802666464
 10
828.7100940173359
 20
561.5273885226461
 10
814.593906256131
 20
553.7503653984323
 10
822.9387317133361
 20
539.6498988586466
  0
LWPOLYLINE
  5
FC
330
17
100
AcDbEntity
  8
0
 62
0
100
AcDbPolyline
 90
4
 70
1
 10
821.3281189773361
 20
539.1130279466466
 10
812.4697489293363
 20
553.8769780266463
 10
797.1689279373365
 20
546.8976561706464
 10
803.6113788813365
 20
532.6705770026467
  0
LWPOLYLINE
  5
FD
330
17
100
AcDbEntity
  8
0
 62
0
100
AcDbPolyline
 90
4
 70
1
 10
801.8665484173365
 20
532.4021415466467
 10
795.7750768320566
 20
546.6030482576864
 10
780.3131945664568
 20
541.7067855402465
 10
782.539195585337
 20
527.3018678826469
  0
LWPOLYLINE
  5
FE
330
17
100
AcDbEntity
  8
0
 62
0
100
AcDbPolyline
 90
4
 70
1
 10
780.7426912960568
 20
526.5885006583268
 10
778.7810992013369
 20
541.3947293226465
 10
760.5274881933374
 20
539.6498988586466
 10
762.4065363853374
 20
525.4228196906469
  0
LWPOLYLINE
  5
FF
330
17
100
AcDbEntity
  8
0
 62
0
100
AcDbPolyline
 90
4
 70
1
 10
760.3932704653373
 20
525.5570374186469
 10
758.9168754573375
 20
540.0525520426465
 10
743.2134012813377
 20
539.9183343146466
 10
741.8712240013379
 20
525.8254728746468
  0
LWPOLYLINE
  5
100
330
17
100
AcDbEntity
  8
0
 62
0
100
AcDbPolyline
 90
4
 70
1
 10
740.1263935373378
 20
525.6912551466469
 10
741.6027885453377
 20
539.7841165866466
 10
724.908116448058
 20
542.2221816157664
 10
720.7990407053383
 20
526.8992146986468
  0
LWPOLYLINE
  5
101
330
17
100
AcDbEntity
  8
0
 62
0
100
AcDbPolyline
 90
4
 70
1
 10
718.8983834591302
 20
527.0953067992549
 10
723.502588400442
 20
542.9007864485345
 10
705.4980854956104
 20
548.3296251106784
 10
700.2066857869386
 20
531.9056701707748
  0
LWPOLYLINE
  5
102
330
17
100
AcDbEntity
  8
0
 62
0
100
AcDbPolyline
 90
4
 70
1
 10
698.6941593665609
 20
531.7919340680677
 10
703.6114902826389
 20
547.9082213852363
 10
688.7071292749291
 20
554.5367936466702
 10
680.1052162312483
 20
539.8156838114938
  0
LWPOLYLINE
  5
103
330
17
100
AcDbEntity
  8
0
 62
0
100
AcDbPolyline
 90
4
 70
1
 10
678.2153000327002
 20
540.3601447154842
 10
687.1008089053014
 20
554.5781910303897
 10
671.7800398411833
 20
563.8056815204191
 10
660.9667113719645
 20
549.1562377376921
  0
LWPOLYLINE
  5
104
330
17
100
AcDbEntity
  8
0
 62
0
100
AcDbPolyline
 90
4
 70
1
 10
659.7297607907165
 20
550.118310411996
 10
670.6253304465633
 20
564.371418649072
 10
657.49418170278
 20
575.2337863429829
 10
644.1304395716448
 20
559.8077566317719
  0
LWPOLYLINE
  5
105
330
17
100
AcDbEntity
  8
0
 62
0
100
AcDbPolyline
 90
4
 70
1
 10
642.8548342847329
 20
560.9751824299158
 10
655.7397361727326
 20
575.7498699281555
 10
643.8856264357728
 20
587.7757783569552
 10
626.1044618303332
 20
576.6947627332754
  0
LWPOLYLINE
  5
106
330
17
100
AcDbEntity
  8
0
 62
0
100
AcDbPolyline
 90
5
 70
1
 10
642.3884276799329
 20
589.4746392491152
 10
625.5306810431332
 20
578.0929759147155
 10
615.5448820799334
 20
587.9714006955152
 10
613.6121467967334
 20
595.9170901931151
 10
635.623854188733
 20
597.849825476315
  0
LWPOLYLINE
  5
107
330
17
100
AcDbEntity
  8
0
 62
0
100
AcDbPolyline
 90
4
 70
1
 10
883.1101770164012
 20
583.7712115559567
 10
874.1175892404013
 20
576.5234542439568
 10
885.3344042329602
 20
565.7812637081782
 10
892.4812298135039
 20
577.4635747532977
  0
LWPOLYLINE
  5
108
330
17
100
AcDbEntity
  8
0
 62
0
100
AcDbPolyline
 90
5
 70
1
 10
857.0153146804018
 20
586.2185879399566
 10
864.2295175604016
 20
597.4593226599563
 10
887.5498478004012
 20
595.2782845799563
 10
884.3621767604012
 20
586.7219044199566
 10
871.1081761204015
 20
577.3266634599568
  0
LWPOLYLINE
  5
109
330
17
100
AcDbEntity
  8
0
 62
0
100
AcDbPolyline
 90
7
 70
1
 10
739.4793511348046
 20
357.5899400039615
 10
749.8141161908043
 20
349.93952950796165
 10
763.2358889908039
 20
357.5899400039615
 10
756.7934380468041
 20
364.3008264039613
 10
756.9276557748042
 20
371.6828014439611
 10
747.2639793588044
 20
371.01171280396113
 10
744.3111893428045
 20
364.5692618599613
  0
LWPOLYLINE
  5
10A
330
17
100
AcDbEntity
  8
0
 62
0
100
AcDbPolyline
 90
4
 70
1
 10
764.9807194548039
 20
356.3819804519615
 10
770.6178640308037
 20
347.25517494796173
 10
761.8937117108039
 20
337.7257162599619
 10
753.7064303028042
 20
349.5368763239617
  0
LWPOLYLINE
  5
10B
330
17
100
AcDbEntity
  8
0
 62
0
100
AcDbPolyline
 90
5
 70
1
 10
751.9615998388042
 20
348.8657876839617
 10
759.4777926068041
 20
336.51775670796195
 10
750.7536402868043
 20
331.6859184999621
 10
739.7477865908045
 20
339.87319990796186
 10
748.2035034548044
 20
348.1946990439617
  0
LWPOLYLINE
  5
10C
330
17
100
AcDbEntity
  8
0
 62
0
100
AcDbPolyline
 90
4
 70
1
 10
746.8613261748044
 20
349.5368763239617
 10
737.4660852148046
 20
340.8127240039619
 10
729.8156747188048
 20
347.3893926759617
 10
738.1371738548046
 20
355.7108918119615
  0
LWPOLYLINE
  5
10D
330
17
100
AcDbEntity
  8
0
 62
0
100
AcDbPolyline
 90
4
 70
1
 10
771.8929324468038
 20
346.28209641996165
 10
785.5831407028033
 20
333.397194531962
 10
772.9666742708037
 20
319.84120400396233
 10
762.631909214804
 20
335.9473313639619
  0
LWPOLYLINE
  5
10E
330
17
100
AcDbEntity
  8
0
 62
0
100
AcDbPolyline
 90
4
 70
1
 10
761.558167390804
 20
334.068283171962
 10
770.5507551668038
 20
319.17011536396234
 10
749.8812250548043
 20
310.9828339559625
 10
750.4180959668042
 20
329.2364449639621
  0
LWPOLYLINE
  5
10F
330
17
100
AcDbEntity
  8
0
 62
0
100
AcDbPolyline
 90
4
 70
1
 10
748.5390477748043
 20
330.98127542796203
 10
748.4048300468044
 20
311.25126941196254
 10
730.6880899508047
 20
321.04916355596225
 10
740.6202018228046
 20
335.27624272396196
  0
LWPOLYLINE
  5
110
330
17
100
AcDbEntity
  8
0
 62
0
100
AcDbPolyline
 90
4
 70
1
 10
739.4122422708045
 20
336.7526377319619
 10
729.2116949428048
 20
322.25712310796223
 10
716.729446238805
 20
333.397194531962
 10
728.5406063028048
 20
345.6110077799617
  0
LWPOLYLINE
  5
111
330
17
100
AcDbEntity
  8
0
 62
0
100
AcDbPolyline
 90
4
 70
1
 10
787.5862145367997
 20
332.33614244200066
 10
803.9607773527997
 20
320.3907646500007
 10
788.3915209047998
 20
306.4321209380007
 10
777.9225381207998
 20
320.5249823780007
  0
LWPOLYLINE
  5
112
330
17
100
AcDbEntity
  8
0
 62
0
100
AcDbPolyline
 90
4
 70
1
 10
785.5729486167997
 20
306.4321209380007
 10
768.6615148887997
 20
297.84218634600074
 10
762.236805778004
 20
313.6437004135624
 10
776.4974393780037
 20
319.85127033356224
  0
LWPOLYLINE
  5
113
330
17
100
AcDbEntity
  8
0
 62
0
100
AcDbPolyline
 90
5
 70
1
 10
760.2752346548042
 20
313.0725410663625
 10
749.0009455028045
 20
309.0996963175626
 10
747.9919847767999
 20
296.0973558820008
 10
755.6423952727998
 20
296.23157361000074
 10
765.9771603287998
 20
297.97640407400075
  0
LWPOLYLINE
  5
114
330
17
100
AcDbEntity
  8
0
 62
0
100
AcDbPolyline
 90
4
 70
1
 10
747.6050811316045
 20
309.63656722956256
 10
745.5760656727998
 20
296.36579133800075
 10
729.4699383128
 20
300.12388772200075
 10
736.4381661620048
 20
315.54214726156243
  0
LWPOLYLINE
  5
115
330
17
100
AcDbEntity
  8
0
 62
0
100
AcDbPolyline
 90
4
 70
1
 10
735.4475051116368
 20
316.50670296383436
 10
727.4566723927999
 20
300.79497636200074
 10
710.8136741208
 20
309.3849109540007
 10
723.7651940665171
 20
323.6363486751942
  0
LWPOLYLINE
  5
116
330
17
100
AcDbEntity
  8
0
 62
0
100
AcDbPolyline
 90
4
 70
1
 10
722.8203012613972
 20
325.2684362476742
 10
709.3372791127999
 20
310.8613059620007
 10
698.0681129343986
 20
319.3798496013326
 10
715.0893601285973
 20
332.054484575354
  0
LWPOLYLINE
  5
117
330
17
100
AcDbEntity
  8
0
 62
0
100
AcDbPolyline
 90
4
 70
1
 10
792.0153995607998
 20
306.96899185000075
 10
800.9313279698752
 20
295.40767612223505
 10
810.7023785682748
 20
303.99761071423484
 10
800.0684632407997
 20
312.6061364260007
  0
LWPOLYLINE
  5
118
330
17
100
AcDbEntity
  8
0
 62
0
100
AcDbPolyline
 90
4
 70
1
 10
801.5448582487998
 20
314.2167491620007
 10
813.3867331282747
 20
304.3197332614348
 10
820.2586808018746
 20
311.19168093503464
 10
805.9740432727997
 20
319.3170228260007
  0
LWPOLYLINE
  5
119
330
17
100
AcDbEntity
  8
0
 62
0
100
AcDbPolyline
 90
4
 70
1
 10
856.2540240594735
 20
589.2380322950279
 10
838.428232059474
 20
599.0946466950277
 10
843.8808272594739
 20
601.8209442950275
 10
862.5454800594733
 20
598.6752162950277
  0
LWPOLYLINE
  5
11A
330
17
100
AcDbEntity
  8
0
 62
0
100
AcDbPolyline
 90
4
 70
1
 10
822.9198790354741
 20
309.9365477510349
 10
840.0997482194737
 20
303.89674999103505
 10
830.4360718034739
 20
295.30681539903526
 10
817.5511699154742
 20
304.836274087035
  0
LWPOLYLINE
  5
11B
330
17
100
AcDbEntity
  8
0
 62
0
100
AcDbPolyline
 90
5
 70
1
 10
783.363398011475
 20
372.05576285503327
 10
758.3653461714757
 20
371.8879906950333
 10
759.0364348114757
 20
364.5060156550335
 10
770.6127138514755
 20
351.9231036550338
 10
788.396562811475
 20
362.6605218950335
  0
LWPOLYLINE
  5
11C
330
17
100
AcDbEntity
  8
0
 62
0
100
AcDbPolyline
 90
4
 70
1
 10
770.7804860114754
 20
389.1685231750328
 10
772.9615240914754
 20
373.9012566150332
 10
754.3388143314759
 20
373.5657122950332
 10
754.0032700114759
 20
388.32966237503285
  0
LWPOLYLINE
  5
11D
330
17
100
AcDbEntity
  8
0
 62
0
100
AcDbPolyline
 90
4
 70
1
 10
759.6608310994757
 20
447.1832001670314
 10
775.2300875474753
 20
451.61238519103125
 10
781.4041030354751
 20
433.22455645503175
 10
761.8083147474756
 20
428.66115370303186
  0
LWPOLYLINE
  5
11E
330
17
100
AcDbEntity
  8
0
 62
0
100
AcDbPolyline
 90
4
 70
1
 10
857.9685975844651
 20
384.9327956225211
 10
843.1939100862255
 20
396.8899845745848
 10
856.9378054334252
 20
407.6102229454005
 10
867.4518853740329
 20
402.1126648065206
  0
LWPOLYLINE
  5
11F
330
17
100
AcDbEntity
  8
0
 62
0
100
AcDbPolyline
 90
5
 70
1
 10
600.9307165750515
 20
595.0034545023543
 10
600.5112861750515
 20
575.499940902355
 10
616.2399261750509
 20
583.6788337023547
 10
613.723343775051
 20
585.9857009023546
 10
611.4164765750511
 20
595.0034545023543
  0
LWPOLYLINE
  5
120
330
17
100
AcDbEntity
  8
0
 62
0
100
AcDbPolyline
 90
4
 70
1
 10
899.054832543041
 20
595.5610347903543
 10
889.6595915830413
 20
595.4268170623543
 10
885.0961888310416
 20
584.5551810943547
 10
898.786397087041
 20
576.233681958355
  0
LWPOLYLINE
  5
121
330
17
100
AcDbEntity
  8
0
 62
0
100
AcDbPolyline
 90
5
 70
1
 10
600.7090647798517
 20
448.2165214527592
 10
607.0172979958515
 20
448.2165214527592
 10
610.6411766518513
 20
438.41862730875954
 10
616.4125389558512
 20
432.5130472767598
 10
601.5143711478518
 20
425.26528996476003
  0
LWPOLYLINE
  5
122
330
17
100
AcDbEntity
  8
0
 62
0
100
AcDbPolyline
 90
5
 70
1
 10
898.7547821650722
 20
448.7688327931422
 10
894.370354784321
 20
448.4789433253991
 10
891.1920789852811
 20
442.03649238139934
 10
885.6086215004813
 20
434.9927460159596
 10
898.7547821650722
 20
427.1866221307433
  0
LWPOLYLINE
  5
123
330
17
100
AcDbEntity
  8
0
 62
0
100
AcDbPolyline
 90
4
 70
1
 10
693.5167150250998
 20
598.5356956167175
 10
678.9138262186998
 20
585.0494983072774
 10
664.5705013478389
 20
601.8945356301315
 10
680.6187358450497
 20
606.2311415719115
  0
LWPOLYLINE
  5
124
330
17
100
AcDbEntity
  8
0
 62
0
100
AcDbPolyline
 90
4
 70
1
 10
890.8190593459203
 20
502.87740653979694
 10
899.66669197568
 20
502.53380915611694
 10
898.97949720832
 20
483.5500537077977
 10
888.4997770060804
 20
484.32314782107767
  0
LWPOLYLINE
  5
125
330
17
100
AcDbEntity
  8
0
 62
0
100
AcDbPolyline
 90
4
 70
1
 10
607.9709579814513
 20
576.833553330194
 10
601.7862050752115
 20
573.8270762229942
 10
600.5836142323316
 20
557.0767037685948
 10
614.327509579531
 20
563.2614566748346
  0
LWPOLYLINE
  5
126
330
17
100
AcDbEntity
  8
0
 62
0
100
AcDbPolyline
 90
4
 70
1
 10
893.7181803947518
 20
576.9138189394098
 10
898.6265035715371
 20
573.1641048049125
 10
898.8034216732157
 20
557.8098044068025
 10
886.7087937676802
 20
564.8879105106103
  0
LWPOLYLINE
  5
127
330
17
100
AcDbEntity
  8
0
 62
0
100
AcDbPolyline
 90
4
 70
1
 10
617.5159808000001
 20
431.03663872
 10
627.8239023104
 20
421.5877106688
 10
616.2274906112
 20
413.5346469888
 10
610.536658944
 20
427.6006648832
  0
LWPOLYLINE
  5
128
330
17
100
AcDbEntity
  8
0
 62
0
100
AcDbPolyline
 90
4
 70
1
 10
602.81340291072
 20
423.56848908288
 10
602.5557048729601
 20
408.87970093056
 10
614.5816133017601
 20
413.00286953472
 10
608.82635712512
 20
426.2313688064
  0
LWPOLYLINE
  5
129
330
17
100
AcDbEntity
  8
0
 62
0
100
AcDbPolyline
 90
4
 70
1
 10
704.9939209705822
 20
309.2279696625251
 10
698.7422522713445
 20
296.1709151030722
 10
683.8440844633445
 20
309.1900347190722
 10
695.7894622553445
 20
317.6457515830721
  0
ENDSEC
  0
SECTION
  2
OBJECTS
  0
DICTIONARY
  5
A
330
0
100
AcDbDictionary
281
1
  3
ACAD_COLOR
350
B
  3
ACAD_GROUP
350
C
  3
ACAD_LAYOUT
350
D
  3
ACAD_MATERIAL
350
E
  3
ACAD_MLEADERSTYLE
350
F
  3
ACAD_MLINESTYLE
350
10
  3
ACAD_PLOTSETTINGS
350
11
  3
ACAD_PLOTSTYLENAME
350
12
  3
ACAD_SCALELIST
350
14
  3
ACAD_TABLESTYLE
350
15
  3
ACAD_VISUALSTYLE
350
16
  3
EZDXF_META
350
2D
  0
DICTIONARY
  5
B
330
A
100
AcDbDictionary
281
1
  0
DICTIONARY
  5
C
330
A
100
AcDbDictionary
281
1
  0
DICTIONARY
  5
D
330
A
100
AcDbDictionary
281
1
  3
Model
350
1A
  3
Layout1
350
1E
  0
DICTIONARY
  5
E
330
A
100
AcDbDictionary
281
1
  3
ByBlock
350
1F
  3
ByLayer
350
20
  3
Global
350
21
  0
DICTIONARY
  5
F
330
A
100
AcDbDictionary
281
1
  3
Standard
350
2C
  0
DICTIONARY
  5
10
330
A
100
AcDbDictionary
281
1
  3
Standard
350
22
  0
DICTIONARY
  5
11
330
A
100
AcDbDictionary
281
1
  0
ACDBDICTIONARYWDFLT
  5
12
330
A
100
AcDbDictionary
281
1
  3
Normal
350
13
100
AcDbDictionaryWithDefault
340
13
  0
ACDBPLACEHOLDER
  5
13
330
12
  0
DICTIONARY
  5
14
330
A
100
AcDbDictionary
281
1
  0
DICTIONARY
  5
15
330
A
100
AcDbDictionary
281
1
  0
DICTIONARY
  5
16
330
A
100
AcDbDictionary
281
1
  0
LAYOUT
  5
1A
330
D
100
AcDbPlotSettings
  1

  4
A3
  6

 40
7.5
 41
20.0
 42
7.5
 43
20.0
 44
420.0
 45
297.0
 46
0.0
 47
0.0
 48
0.0
 49
0.0
140
0.0
141
0.0
142
1.0
143
1.0
 70
1024
 72
1
 73
0
 74
5
  7

 75
16
 76
0
 77
2
 78
300
147
1.0
148
0.0
149
0.0
100
AcDbLayout
  1
Model
 70
1
 71
0
 10
0.0
 20
0.0
 11
420.0
 21
297.0
 12
0.0
 22
0.0
 32
0.0
 14
1e+20
 24
1e+20
 34
1e+20
 15
-1e+20
 25
-1e+20
 35
-1e+20
146
0.0
 13
0.0
 23
0.0
 33
0.0
 16
1.0
 26
0.0
 36
0.0
 17
0.0
 27
1.0
 37
0.0
 76
1
330
17
  0
LAYOUT
  5
1E
330
D
100
AcDbPlotSettings
  1

  4
A3
  6

 40
7.5
 41
20.0
 42
7.5
 43
20.0
 44
420.0
 45
297.0
 46
0.0
 47
0.0
 48
0.0
 49
0.0
140
0.0
141
0.0
142
1.0
143
1.0
 70
0
 72
1
 73
0
 74
5
  7

 75
16
 76
0
 77
2
 78
300
147
1.0
148
0.0
149
0.0
100
AcDbLayout
  1
Layout1
 70
1
 71
1
 10
0.0
 20
0.0
 11
420.0
 21
297.0
 12
0.0
 22
0.0
 32
0.0
 14
1e+20
 24
1e+20
 34
1e+20
 15
-1e+20
 25
-1e+20
 35
-1e+20
146
0.0
 13
0.0
 23
0.0
 33
0.0
 16
1.0
 26
0.0
 36
0.0
 17
0.0
 27
1.0
 37
0.0
 76
1
330
1B
  0
MATERIAL
  5
1F
102
{ACAD_REACTORS
330
E
102
}
330
E
100
AcDbMaterial
  1
ByBlock
  2

 70
0
 40
1.0
 71
1
 41
1.0
 91
-1023410177
 42
1.0
 72
1
  3

 73
1
 74
1
 75
1
 44
0.5
 73
0
 45
1.0
 46
1.0
 77
1
  4

 78
1
 79
1
170
1
 48
1.0
171
1
  6

172
1
173
1
174
1
140
1.0
141
1.0
175
1
  7

176
1
177
1
178
1
143
1.0
179
1
  8

270
1
271
1
272
1
145
1.0
146
1.0
273
1
  9

274
1
275
1
276
1
 42
1.0
 72
1
  3

 73
1
 74
1
 75
1
 94
63
  0
MATERIAL
  5
20
102
{ACAD_REACTORS
330
E
102
}
330
E
100
AcDbMaterial
  1
ByLayer
  2

 70
0
 40
1.0
 71
1
 41
1.0
 91
-1023410177
 42
1.0
 72
1
  3

 73
1
 74
1
 75
1
 44
0.5
 73
0
 45
1.0
 46
1.0
 77
1
  4

 78
1
 79
1
170
1
 48
1.0
171
1
  6

172
1
173
1
174
1
140
1.0
141
1.0
175
1
  7

176
1
177
1
178
1
143
1.0
179
1
  8

270
1
271
1
272
1
145
1.0
146
1.0
273
1
  9

274
1
275
1
276
1
 42
1.0
 72
1
  3

 73
1
 74
1
 75
1
 94
63
  0
MATERIAL
  5
21
102
{ACAD_REACTORS
330
E
102
}
330
E
100
AcDbMaterial
  1
Global
  2

 70
0
 40
1.0
 71
1
 41
1.0
 91
-1023410177
 42
1.0
 72
1
  3

 73
1
 74
1
 75
1
 44
0.5
 73
0
 45
1.0
 46
1.0
 77
1
  4

 78
1
 79
1
170
1
 48
1.0
171
1
  6

172
1
173
1
174
1
140
1.0
141
1.0
175
1
  7

176
1
177
1
178
1
143
1.0
179
1
  8

270
1
271
1
272
1
145
1.0
146
1.0
273
1
  9

274
1
275
1
276
1
 42
1.0
 72
1
  3

 73
1
 74
1
 75
1
 94
63
  0
MLINESTYLE
  5
22
102
{ACAD_REACTORS
330
10
102
}
330
10
100
AcDbMlineStyle
  2
Standard
 70
0
  3

 62
256
 51
90.0
 52
90.0
 71
2
 49
0.5
 62
256
  6
BYLAYER
 49
-0.5
 62
256
  6
BYLAYER
  0
MLEADERSTYLE
  5
2C
102
{ACAD_REACTORS
330
F
102
}
330
F
100
AcDbMLeaderStyle
179
2
170
2
171
1
172
0
 90
2
 40
0.0
 41
0.0
173
1
 91
-1056964608
 92
-2
290
1
 42
2.0
291
1
 43
8.0
  3
Standard
 44
4.0
300

342
29
174
1
175
1
176
0
178
1
 93
-1056964608
 45
4.0
292
0
297
0
 46
4.0
 94
-1056964608
 47
1.0
 49
1.0
140
1.0
294
1
141
0.0
177
0
142
1.0
295
0
296
0
143
3.75
271
0
272
9
273
9
  0
DICTIONARY
  5
2D
330
A
100
AcDbDictionary
280
1
281
1
  3
CREATED_BY_EZDXF
350
2E
  3
WRITTEN_BY_EZDXF
350
12C
  0
DICTIONARYVAR
  5
2E
330
2D
100
DictionaryVariables
280
0
  1
1.4.2 @ 2025-09-02T11:43:58.666536+00:00
  0
DICTIONARYVAR
  5
12C
330
2D
100
DictionaryVariables
280
0
  1
1.4.2 @ 2025-09-02T11:43:58.681540+00:00
  0
ENDSEC
  0
EOF
