  0
SECTION
  2
HEADER
  9
$ACADVER
  1
AC1024
  9
$ACADMAINTVER
 70
6
  9
$DWGCODEPAGE
  3
ANSI_1252
  9
$LASTSAVEDBY
  1
ezdxf
  9
$INSBASE
 10
0.0
 20
0.0
 30
0.0
  9
$EXTMIN
 10
1e+20
 20
1e+20
 30
1e+20
  9
$EXTMAX
 10
-1e+20
 20
-1e+20
 30
-1e+20
  9
$LIMMIN
 10
0.0
 20
0.0
  9
$LIMMAX
 10
420.0
 20
297.0
  9
$ORTHOMODE
 70
0
  9
$REGENMODE
 70
1
  9
$FILLMODE
 70
1
  9
$QTEXTMODE
 70
0
  9
$MIRRTEXT
 70
1
  9
$LTSCALE
 40
1.0
  9
$ATTMODE
 70
1
  9
$TEXTSIZE
 40
2.5
  9
$TRACEWID
 40
1.0
  9
$TEXTSTYLE
  7
Standard
  9
$CLAYER
  8
0
  9
$CELTYPE
  6
ByLayer
  9
$CECOLOR
 62
256
  9
$CELTSCALE
 40
1.0
  9
$DISPSILH
 70
0
  9
$DIMSCALE
 40
1.0
  9
$DIMASZ
 40
2.5
  9
$DIMEXO
 40
0.625
  9
$DIMDLI
 40
3.75
  9
$DIMRND
 40
0.0
  9
$DIMDLE
 40
0.0
  9
$DIMEXE
 40
1.25
  9
$DIMTP
 40
0.0
  9
$DIMTM
 40
0.0
  9
$DIMTXT
 40
2.5
  9
$DIMCEN
 40
2.5
  9
$DIMTSZ
 40
0.0
  9
$DIMTOL
 70
0
  9
$DIMLIM
 70
0
  9
$DIMTIH
 70
0
  9
$DIMTOH
 70
0
  9
$DIMSE1
 70
0
  9
$DIMSE2
 70
0
  9
$DIMTAD
 70
1
  9
$DIMZIN
 70
8
  9
$DIMBLK
  1

  9
$DIMASO
 70
1
  9
$DIMSHO
 70
1
  9
$DIMPOST
  1

  9
$DIMAPOST
  1

  9
$DIMALT
 70
0
  9
$DIMALTD
 70
3
  9
$DIMALTF
 40
0.03937007874
  9
$DIMLFAC
 40
1.0
  9
$DIMTOFL
 70
1
  9
$DIMTVP
 40
0.0
  9
$DIMTIX
 70
0
  9
$DIMSOXD
 70
0
  9
$DIMSAH
 70
0
  9
$DIMBLK1
  1

  9
$DIMBLK2
  1

  9
$DIMSTYLE
  2
ISO-25
  9
$DIMCLRD
 70
0
  9
$DIMCLRE
 70
0
  9
$DIMCLRT
 70
0
  9
$DIMTFAC
 40
1.0
  9
$DIMGAP
 40
0.625
  9
$DIMJUST
 70
0
  9
$DIMSD1
 70
0
  9
$DIMSD2
 70
0
  9
$DIMTOLJ
 70
0
  9
$DIMTZIN
 70
8
  9
$DIMALTZ
 70
0
  9
$DIMALTTZ
 70
0
  9
$DIMUPT
 70
0
  9
$DIMDEC
 70
2
  9
$DIMTDEC
 70
2
  9
$DIMALTU
 70
2
  9
$DIMALTTD
 70
3
  9
$DIMTXSTY
  7
Standard
  9
$DIMAUNIT
 70
0
  9
$DIMADEC
 70
0
  9
$DIMALTRND
 40
0.0
  9
$DIMAZIN
 70
0
  9
$DIMDSEP
 70
44
  9
$DIMATFIT
 70
3
  9
$DIMFRAC
 70
0
  9
$DIMLDRBLK
  1

  9
$DIMLUNIT
 70
2
  9
$DIMLWD
 70
-2
  9
$DIMLWE
 70
-2
  9
$DIMTMOVE
 70
0
  9
$DIMFXL
 40
1.0
  9
$DIMFXLON
 70
0
  9
$DIMJOGANG
 40
0.785398163397
  9
$DIMTFILL
 70
0
  9
$DIMTFILLCLR
 70
0
  9
$DIMARCSYM
 70
0
  9
$DIMLTYPE
  6

  9
$DIMLTEX1
  6

  9
$DIMLTEX2
  6

  9
$DIMTXTDIRECTION
 70
0
  9
$LUNITS
 70
2
  9
$LUPREC
 70
4
  9
$SKETCHINC
 40
1.0
  9
$FILLETRAD
 40
10.0
  9
$AUNITS
 70
0
  9
$AUPREC
 70
2
  9
$MENU
  1
.
  9
$ELEVATION
 40
0.0
  9
$PELEVATION
 40
0.0
  9
$THICKNESS
 40
0.0
  9
$LIMCHECK
 70
0
  9
$CHAMFERA
 40
0.0
  9
$CHAMFERB
 40
0.0
  9
$CHAMFERC
 40
0.0
  9
$CHAMFERD
 40
0.0
  9
$SKPOLY
 70
0
  9
$TDCREATE
 40
2460921.6138657406
  9
$TDUCREATE
 40
2458532.153996898
  9
$TDUPDATE
 40
2460921.6138657406
  9
$TDUUPDATE
 40
2458532.1544311
  9
$TDINDWG
 40
0.0
  9
$TDUSRTIMER
 40
0.0
  9
$USRTIMER
 70
1
  9
$ANGBASE
 50
0.0
  9
$ANGDIR
 70
0
  9
$PDMODE
 70
0
  9
$PDSIZE
 40
0.0
  9
$PLINEWID
 40
0.0
  9
$SPLFRAME
 70
0
  9
$SPLINETYPE
 70
6
  9
$SPLINESEGS
 70
8
  9
$HANDSEED
  5
12D
  9
$SURFTAB1
 70
6
  9
$SURFTAB2
 70
6
  9
$SURFTYPE
 70
6
  9
$SURFU
 70
6
  9
$SURFV
 70
6
  9
$UCSBASE
  2

  9
$UCSNAME
  2

  9
$UCSORG
 10
0.0
 20
0.0
 30
0.0
  9
$UCSXDIR
 10
1.0
 20
0.0
 30
0.0
  9
$UCSYDIR
 10
0.0
 20
1.0
 30
0.0
  9
$UCSORTHOREF
  2

  9
$UCSORTHOVIEW
 70
0
  9
$UCSORGTOP
 10
0.0
 20
0.0
 30
0.0
  9
$UCSORGBOTTOM
 10
0.0
 20
0.0
 30
0.0
  9
$UCSORGLEFT
 10
0.0
 20
0.0
 30
0.0
  9
$UCSORGRIGHT
 10
0.0
 20
0.0
 30
0.0
  9
$UCSORGFRONT
 10
0.0
 20
0.0
 30
0.0
  9
$UCSORGBACK
 10
0.0
 20
0.0
 30
0.0
  9
$PUCSBASE
  2

  9
$PUCSNAME
  2

  9
$PUCSORG
 10
0.0
 20
0.0
 30
0.0
  9
$PUCSXDIR
 10
1.0
 20
0.0
 30
0.0
  9
$PUCSYDIR
 10
0.0
 20
1.0
 30
0.0
  9
$PUCSORTHOREF
  2

  9
$PUCSORTHOVIEW
 70
0
  9
$PUCSORGTOP
 10
0.0
 20
0.0
 30
0.0
  9
$PUCSORGBOTTOM
 10
0.0
 20
0.0
 30
0.0
  9
$PUCSORGLEFT
 10
0.0
 20
0.0
 30
0.0
  9
$PUCSORGRIGHT
 10
0.0
 20
0.0
 30
0.0
  9
$PUCSORGFRONT
 10
0.0
 20
0.0
 30
0.0
  9
$PUCSORGBACK
 10
0.0
 20
0.0
 30
0.0
  9
$USERI1
 70
0
  9
$USERI2
 70
0
  9
$USERI3
 70
0
  9
$USERI4
 70
0
  9
$USERI5
 70
0
  9
$USERR1
 40
0.0
  9
$USERR2
 40
0.0
  9
$USERR3
 40
0.0
  9
$USERR4
 40
0.0
  9
$USERR5
 40
0.0
  9
$WORLDVIEW
 70
1
  9
$SHADEDGE
 70
3
  9
$SHADEDIF
 70
70
  9
$TILEMODE
 70
1
  9
$MAXACTVP
 70
64
  9
$PINSBASE
 10
0.0
 20
0.0
 30
0.0
  9
$PLIMCHECK
 70
0
  9
$PEXTMIN
 10
1e+20
 20
1e+20
 30
1e+20
  9
$PEXTMAX
 10
-1e+20
 20
-1e+20
 30
-1e+20
  9
$PLIMMIN
 10
0.0
 20
0.0
  9
$PLIMMAX
 10
420.0
 20
297.0
  9
$UNITMODE
 70
0
  9
$VISRETAIN
 70
1
  9
$PLINEGEN
 70
0
  9
$PSLTSCALE
 70
1
  9
$TREEDEPTH
 70
3020
  9
$CMLSTYLE
  2
Standard
  9
$CMLJUST
 70
0
  9
$CMLSCALE
 40
20.0
  9
$PROXYGRAPHICS
 70
1
  9
$MEASUREMENT
 70
1
  9
$CELWEIGHT
370
-1
  9
$ENDCAPS
280
0
  9
$JOINSTYLE
280
0
  9
$LWDISPLAY
290
0
  9
$INSUNITS
 70
6
  9
$HYPERLINKBASE
  1

  9
$STYLESHEET
  1

  9
$XEDIT
290
1
  9
$CEPSNTYPE
380
0
  9
$PSTYLEMODE
290
1
  9
$FINGERPRINTGUID
  2
{50382914-703F-490D-9E30-4620DBEA0FB1}
  9
$VERSIONGUID
  2
{5E3E5C87-87C5-4429-A316-1C06BDA9A38A}
  9
$EXTNAMES
290
1
  9
$PSVPSCALE
 40
0.0
  9
$OLESTARTUP
290
0
  9
$SORTENTS
280
127
  9
$INDEXCTL
280
0
  9
$HIDETEXT
280
1
  9
$XCLIPFRAME
280
1
  9
$HALOGAP
280
0
  9
$OBSCOLOR
 70
257
  9
$OBSLTYPE
280
0
  9
$INTERSECTIONDISPLAY
280
0
  9
$INTERSECTIONCOLOR
 70
257
  9
$DIMASSOC
280
2
  9
$PROJECTNAME
  1

  9
$CAMERADISPLAY
290
0
  9
$LENSLENGTH
 40
50.0
  9
$CAMERAHEIGHT
 40
0.0
  9
$STEPSPERSEC
 40
24.0
  9
$STEPSIZE
 40
100.0
  9
$3DDWFPREC
 40
2.0
  9
$PSOLWIDTH
 40
0.005
  9
$PSOLHEIGHT
 40
0.08
  9
$LOFTANG1
 40
1.570796326795
  9
$LOFTANG2
 40
1.570796326795
  9
$LOFTMAG1
 40
0.0
  9
$LOFTMAG2
 40
0.0
  9
$LOFTPARAM
 70
7
  9
$LOFTNORMALS
280
1
  9
$LATITUDE
 40
37.795
  9
$LONGITUDE
 40
-122.394
  9
$NORTHDIRECTION
 40
0.0
  9
$TIMEZONE
 70
-8000
  9
$LIGHTGLYPHDISPLAY
280
1
  9
$TILEMODELIGHTSYNCH
280
1
  9
$CMATERIAL
347
20
  9
$SOLIDHIST
280
0
  9
$SHOWHIST
280
1
  9
$DWFFRAME
280
2
  9
$DGNFRAME
280
2
  9
$REALWORLDSCALE
290
1
  9
$INTERFERECOLOR
 62
256
  9
$CSHADOW
280
0
  9
$SHADOWPLANELOCATION
 40
0.0
  0
ENDSEC
  0
SECTION
  2
CLASSES
  0
CLASS
  1
ACDBDICTIONARYWDFLT
  2
AcDbDictionaryWithDefault
  3
ObjectDBX Classes
 90
0
 91
0
280
0
281
0
  0
CLASS
  1
SUN
  2
AcDbSun
  3
SCENEOE
 90
1153
 91
0
280
0
281
0
  0
CLASS
  1
VISUALSTYLE
  2
AcDbVisualStyle
  3
ObjectDBX Classes
 90
4095
 91
0
280
0
281
0
  0
CLASS
  1
MATERIAL
  2
AcDbMaterial
  3
ObjectDBX Classes
 90
1153
 91
0
280
0
281
0
  0
CLASS
  1
SCALE
  2
AcDbScale
  3
ObjectDBX Classes
 90
1153
 91
0
280
0
281
0
  0
CLASS
  1
TABLESTYLE
  2
AcDbTableStyle
  3
ObjectDBX Classes
 90
4095
 91
0
280
0
281
0
  0
CLASS
  1
MLEADERSTYLE
  2
AcDbMLeaderStyle
  3
ACDB_MLEADERSTYLE_CLASS
 90
4095
 91
0
280
0
281
0
  0
CLASS
  1
DICTIONARYVAR
  2
AcDbDictionaryVar
  3
ObjectDBX Classes
 90
0
 91
0
280
0
281
0
  0
CLASS
  1
CELLSTYLEMAP
  2
AcDbCellStyleMap
  3
ObjectDBX Classes
 90
1152
 91
0
280
0
281
0
  0
CLASS
  1
MENTALRAYRENDERSETTINGS
  2
AcDbMentalRayRenderSettings
  3
SCENEOE
 90
1024
 91
0
280
0
281
0
  0
CLASS
  1
ACDBDETAILVIEWSTYLE
  2
AcDbDetailViewStyle
  3
ObjectDBX Classes
 90
1025
 91
0
280
0
281
0
  0
CLASS
  1
ACDBSECTIONVIEWSTYLE
  2
AcDbSectionViewStyle
  3
ObjectDBX Classes
 90
1025
 91
0
280
0
281
0
  0
CLASS
  1
RASTERVARIABLES
  2
AcDbRasterVariables
  3
ISM
 90
0
 91
0
280
0
281
0
  0
CLASS
  1
LAYOUT
  2
AcDbLayout
  3
ObjectDBX Classes
 90
0
 91
0
280
0
281
0
  0
CLASS
  1
ACDBPLACEHOLDER
  2
AcDbPlaceHolder
  3
ObjectDBX Classes
 90
0
 91
0
280
0
281
0
  0
ENDSEC
  0
SECTION
  2
TABLES
  0
TABLE
  2
VPORT
  5
8
330
0
100
AcDbSymbolTable
 70
1
  0
VPORT
  5
23
330
8
100
AcDbSymbolTableRecord
100
AcDbViewportTableRecord
  2
*Active
 70
0
 10
0.0
 20
0.0
 11
1.0
 21
1.0
 12
0.0
 22
0.0
 13
0.0
 23
0.0
 14
0.5
 24
0.5
 15
0.5
 25
0.5
 16
0.0
 26
0.0
 36
1.0
 17
0.0
 27
0.0
 37
0.0
 40
1000.0
 41
1.34
 42
50.0
 43
0.0
 44
0.0
 50
0.0
 51
0.0
 71
0
 72
1000
 73
1
 74
3
 75
0
 76
0
 77
0
 78
0
281
0
 65
0
146
0.0
  0
ENDTAB
  0
TABLE
  2
LTYPE
  5
2
330
0
100
AcDbSymbolTable
 70
3
  0
LTYPE
  5
24
330
2
100
AcDbSymbolTableRecord
100
AcDbLinetypeTableRecord
  2
ByBlock
 70
0
  3

 72
65
 73
0
 40
0.0
  0
LTYPE
  5
25
330
2
100
AcDbSymbolTableRecord
100
AcDbLinetypeTableRecord
  2
ByLayer
 70
0
  3

 72
65
 73
0
 40
0.0
  0
LTYPE
  5
26
330
2
100
AcDbSymbolTableRecord
100
AcDbLinetypeTableRecord
  2
Continuous
 70
0
  3

 72
65
 73
0
 40
0.0
  0
ENDTAB
  0
TABLE
  2
LAYER
  5
1
330
0
100
AcDbSymbolTable
 70
2
  0
LAYER
  5
27
330
1
100
AcDbSymbolTableRecord
100
AcDbLayerTableRecord
  2
0
 70
0
 62
7
  6
Continuous
370
-3
390
13
347
21
  0
LAYER
  5
28
330
1
100
AcDbSymbolTableRecord
100
AcDbLayerTableRecord
  2
Defpoints
 70
0
 62
7
  6
Continuous
290
0
370
-3
390
13
347
21
  0
ENDTAB
  0
TABLE
  2
STYLE
  5
5
330
0
100
AcDbSymbolTable
 70
1
  0
STYLE
  5
29
330
5
100
AcDbSymbolTableRecord
100
AcDbTextStyleTableRecord
  2
Standard
 70
0
 40
0.0
 41
1.0
 50
0.0
 71
0
 42
2.5
  3
txt
  4

  0
ENDTAB
  0
TABLE
  2
VIEW
  5
7
330
0
100
AcDbSymbolTable
 70
0
  0
ENDTAB
  0
TABLE
  2
UCS
  5
6
330
0
100
AcDbSymbolTable
 70
0
  0
ENDTAB
  0
TABLE
  2
APPID
  5
3
330
0
100
AcDbSymbolTable
 70
3
  0
APPID
  5
2A
330
3
100
AcDbSymbolTableRecord
100
AcDbRegAppTableRecord
  2
ACAD
 70
0
  0
APPID
  5
12A
330
3
100
AcDbSymbolTableRecord
100
AcDbRegAppTableRecord
  2
HATCHBACKGROUNDCOLOR
 70
0
  0
APPID
  5
12B
330
3
100
AcDbSymbolTableRecord
100
AcDbRegAppTableRecord
  2
EZDXF
 70
0
  0
ENDTAB
  0
TABLE
  2
DIMSTYLE
  5
4
330
0
100
AcDbSymbolTable
 70
1
100
AcDbDimStyleTable
  0
DIMSTYLE
105
2B
330
4
100
AcDbSymbolTableRecord
100
AcDbDimStyleTableRecord
  2
Standard
 70
0
 40
1.0
 41
2.5
 42
0.625
 43
3.75
 44
1.25
 45
0.0
 46
0.0
 47
0.0
 48
0.0
 49
2.5
140
2.5
141
2.5
142
0.0
143
0.03937007874
144
1.0
145
0.0
146
1.0
147
0.625
148
0.0
 69
0
 70
0
 71
0
 72
0
 73
0
 74
0
 75
0
 76
0
 77
1
 78
8
 79
3
170
0
171
3
172
1
173
0
174
0
175
0
176
0
177
0
178
0
179
2
271
2
272
2
273
2
274
3
275
0
276
0
277
2
278
44
279
0
280
0
281
0
282
0
283
0
284
8
285
0
286
0
288
0
289
3
290
0
371
-2
372
-2
  0
ENDTAB
  0
TABLE
  2
BLOCK_RECORD
  5
9
330
0
100
AcDbSymbolTable
 70
2
  0
BLOCK_RECORD
  5
17
330
9
100
AcDbSymbolTableRecord
100
AcDbBlockTableRecord
  2
*Model_Space
340
1A
 70
0
280
1
281
0
  0
BLOCK_RECORD
  5
1B
330
9
100
AcDbSymbolTableRecord
100
AcDbBlockTableRecord
  2
*Paper_Space
340
1E
 70
0
280
1
281
0
  0
ENDTAB
  0
ENDSEC
  0
SECTION
  2
BLOCKS
  0
BLOCK
  5
18
330
17
100
AcDbEntity
  8
0
100
AcDbBlockBegin
  2
*Model_Space
 70
0
 10
0.0
 20
0.0
 30
0.0
  3
*Model_Space
  1

  0
ENDBLK
  5
19
330
17
100
AcDbEntity
  8
0
100
AcDbBlockEnd
  0
BLOCK
  5
1C
330
1B
100
AcDbEntity
  8
0
100
AcDbBlockBegin
  2
*Paper_Space
 70
0
 10
0.0
 20
0.0
 30
0.0
  3
*Paper_Space
  1

  0
ENDBLK
  5
1D
330
1B
100
AcDbEntity
  8
0
100
AcDbBlockEnd
  0
ENDSEC
  0
SECTION
  2
ENTITIES
  0
TEXT
  5
2F
330
17
100
AcDbEntity
  8
0
100
AcDbText
 10
0.0
 20
0.0
 30
0.0
 40
10.0
  1
Grid Box A3
100
AcDbText
  0
LWPOLYLINE
  5
30
330
17
100
AcDbEntity
  8
0
 62
8
100
AcDbPolyline
 90
5
 70
0
 10
580.0
 20
-20.0
 10
920.0
 20
-20.0
 10
920.0
 20
320.0
 10
580.0
 20
320.0
 10
580.0
 20
-20.0
  0
LWPOLYLINE
  5
31
330
17
100
AcDbEntity
  8
0
 62
0
100
AcDbPolyline
 90
4
 70
1
 10
820.8585229312
 20
163.4914438144001
 10
806.6851308544001
 20
171.9740042240001
 10
793.4070746408188
 20
159.28072097412405
 10
802.0987164207233
 20
145.90269969570647
  0
LWPOLYLINE
  5
32
330
17
100
AcDbEntity
  8
0
 62
0
100
AcDbPolyline
 90
4
 70
1
 10
800.9696923346746
 20
144.27570863423148
 10
791.574431392001
 20
158.79232432395236
 10
777.2078904298625
 20
151.6864398515121
 10
782.8234555090751
 20
134.5046580358317
  0
LWPOLYLINE
  5
33
330
17
100
AcDbEntity
  8
0
 62
0
100
AcDbPolyline
 90
4
 70
1
 10
760.2748772050757
 20
128.16958127423192
 10
757.8036087917693
 20
146.82696196318335
 10
741.8065178322761
 20
146.3158180998314
 10
739.4442858194762
 20
127.84745872703189
  0
LWPOLYLINE
  5
34
330
17
100
AcDbEntity
  8
0
 62
0
100
AcDbPolyline
 90
4
 70
1
 10
737.2968021714762
 20
128.81382636863185
 10
739.6255589394586
 20
146.93584319024313
 10
724.7969411883494
 20
149.66661901766298
 10
716.6809591506768
 20
133.96778712383173
  0
LWPOLYLINE
  5
35
330
17
100
AcDbEntity
  8
0
 62
0
100
AcDbPolyline
 90
4
 70
1
 10
716.1671888508134
 20
136.82160966987504
 10
722.2247146071695
 20
151.38057400743787
 10
709.109491678792
 20
159.40194923352277
 10
698.6224759739906
 20
147.29828447201965
  0
LWPOLYLINE
  5
36
330
17
100
AcDbEntity
  8
0
 62
0
100
AcDbPolyline
 90
4
 70
1
 10
697.3932035245202
 20
147.48821172380678
 10
707.2493714896051
 20
161.10993545199568
 10
699.7039040249929
 20
172.92097959254795
 10
683.5565038573869
 20
162.84150200833227
  0
LWPOLYLINE
  5
37
330
17
100
AcDbEntity
  8
0
 62
0
100
AcDbPolyline
 90
4
 70
1
 10
840.6153724928
 20
155.54575431680013
 10
823.2067974621713
 20
163.65950431742488
 10
811.6456136089603
 20
150.60725495808015
 10
824.7452638617602
 20
136.54123706368011
  0
LWPOLYLINE
  5
38
330
17
100
AcDbEntity
  8
0
 62
0
100
AcDbPolyline
 90
4
 70
1
 10
823.0272769433602
 20
135.25274687488007
 10
810.6792459673602
 20
149.3187647692801
 10
798.4385891737602
 20
139.86983671808014
 10
807.8875172249602
 20
123.65633517568011
  0
LWPOLYLINE
  5
39
330
17
100
AcDbEntity
  8
0
 62
0
100
AcDbPolyline
 90
4
 70
1
 10
806.0688691144677
 20
122.85597584445844
 10
797.6314564849972
 20
137.74471377722512
 10
782.1623672940796
 20
131.47290136899585
 10
787.0870269009558
 20
115.16355376387361
  0
LWPOLYLINE
  5
3A
330
17
100
AcDbEntity
  8
0
 62
0
100
AcDbPolyline
 90
4
 70
1
 10
785.158596699154
 20
115.71503335365867
 10
780.4612234962751
 20
130.63918746943182
 10
763.5270860053843
 20
126.89648205153992
 10
766.7284234584833
 20
112.17237287445431
  0
LWPOLYLINE
  5
3B
330
17
100
AcDbEntity
  8
0
 62
0
100
AcDbPolyline
 90
4
 70
1
 10
765.1067154130756
 20
111.09708627263234
 10
761.5633673938756
 20
126.02209762623193
 10
745.1351174866761
 20
124.84098161983201
 10
744.4908723922761
 20
109.27172517183237
  0
LWPOLYLINE
  5
3C
330
17
100
AcDbEntity
  8
0
 62
0
100
AcDbPolyline
 90
4
 70
1
 10
742.7559229955189
 20
109.79894493494675
 10
743.283662837373
 20
125.6280799692127
 10
727.7615511404515
 20
128.8568589949407
 10
723.6602810066767
 20
112.27820227903231
  0
LWPOLYLINE
  5
3D
330
17
100
AcDbEntity
  8
0
 62
0
100
AcDbPolyline
 90
4
 70
1
 10
722.2359215593101
 20
112.94450260243667
 10
726.0084824285802
 20
128.76166029110158
 10
709.6395162963724
 20
134.0590549377547
 10
702.9135049145186
 20
121.10772789035644
  0
LWPOLYLINE
  5
3E
330
17
100
AcDbEntity
  8
0
 62
0
100
AcDbPolyline
 90
4
 70
1
 10
700.6081911646734
 20
121.88693257793483
 10
709.2637775947143
 20
135.5518751892905
 10
695.0554695023227
 20
144.41681980480496
 10
685.1333721638301
 20
131.49937150367896
  0
LWPOLYLINE
  5
3F
330
17
100
AcDbEntity
  8
0
 62
0
100
AcDbPolyline
 90
4
 70
1
 10
683.6474372243533
 20
131.9751773115887
 10
694.9002515398731
 20
147.09346219350846
 10
684.7641287213132
 20
158.00267912534827
 10
670.2471392608335
 20
146.74986480982847
  0
LWPOLYLINE
  5
40
330
17
100
AcDbEntity
  8
0
 62
0
100
AcDbPolyline
 90
4
 70
1
 10
805.1936363519999
 20
172.8380308480002
 10
788.953291264
 20
182.7701427200002
 10
786.5076584919088
 20
180.39880755800198
 10
798.525272016401
 20
167.69661556711117
  0
LWPOLYLINE
  5
41
330
17
100
AcDbEntity
  8
0
 62
0
100
AcDbPolyline
 90
4
 70
1
 10
797.9632152274746
 20
166.0726676614309
 10
784.863564974675
 20
179.38706627903053
 10
771.7566176585908
 20
171.26377477266618
 10
779.7096042194752
 20
154.58363014463117
  0
LWPOLYLINE
  5
42
330
17
100
AcDbEntity
  8
0
 62
0
100
AcDbPolyline
 90
4
 70
1
 10
777.4547463890752
 20
153.6172625030312
 10
770.0630114169494
 20
171.09887014163291
 10
755.7321573786974
 20
167.62235169221736
 10
758.1273935570757
 20
148.67805011263135
  0
LWPOLYLINE
  5
43
330
17
100
AcDbEntity
  8
0
 62
0
100
AcDbPolyline
 90
4
 70
1
 10
755.5504131794758
 20
148.46330174783134
 10
753.9956603137759
 20
167.2450423977785
 10
739.03557687646
 20
168.96811103050914
 10
734.6124476114763
 20
149.75179193663132
  0
LWPOLYLINE
  5
44
330
17
100
AcDbEntity
  8
0
 62
0
100
AcDbPolyline
 90
4
 70
1
 10
732.1401949299125
 20
150.93682372312225
 10
737.8336730834762
 20
170.0455124102308
 10
722.9691847955173
 20
174.8629886245664
 10
712.5464794872805
 20
160.42761488079617
  0
LWPOLYLINE
  5
45
330
17
100
AcDbEntity
  8
0
 62
0
100
AcDbPolyline
 90
4
 70
1
 10
710.6235552089062
 20
162.0036978090476
 10
721.2831581217363
 20
175.3321691196644
 10
714.2385812480002
 20
184.04772771840004
 10
701.2463051776001
 20
173.31030947840003
  0
LWPOLYLINE
  5
46
330
17
100
AcDbEntity
  8
0
 62
0
100
AcDbPolyline
 90
4
 70
1
 10
862.9108600498352
 20
148.94777398090952
 10
842.7507500133905
 20
155.90480728039591
 10
832.5835791769603
 20
143.1984363724801
 10
848.1528356249602
 20
131.0651537612801
  0
LWPOLYLINE
  5
47
330
17
100
AcDbEntity
  8
0
 62
0
100
AcDbPolyline
 90
4
 70
1
 10
845.9840816128
 20
128.91695708160012
 10
832.4762049945602
 20
140.83620435968015
 10
819.3222056587659
 20
129.95306905649983
 10
830.2213471641602
 20
115.9253940428801
  0
LWPOLYLINE
  5
48
330
17
100
AcDbEntity
  8
0
 62
0
100
AcDbPolyline
 90
4
 70
1
 10
827.9690882223549
 20
115.61008239397421
 10
818.5921285010852
 20
127.27242698878524
 10
804.3084600076467
 20
120.03758239276266
 10
812.5719744251471
 20
105.01363110970135
  0
LWPOLYLINE
  5
49
330
17
100
AcDbEntity
  8
0
 62
0
100
AcDbPolyline
 90
4
 70
1
 10
810.3746084249602
 20
103.70075424768015
 10
803.1790562994888
 20
118.55432679548505
 10
787.2672951834835
 20
113.22050449611544
 10
791.9009339080769
 20
95.64797452046417
  0
LWPOLYLINE
  5
4A
330
17
100
AcDbEntity
  8
0
 62
0
100
AcDbPolyline
 90
4
 70
1
 10
789.991868839672
 20
97.25635997220934
 10
785.2444960450739
 20
114.16884512709868
 10
769.095419012114
 20
110.38927390661866
 10
771.2175450260729
 20
91.17555493019773
  0
LWPOLYLINE
  5
4B
330
17
100
AcDbEntity
  8
0
 62
0
100
AcDbPolyline
 90
4
 70
1
 10
769.7630312712347
 20
90.89567082084403
 10
767.205633401874
 20
109.95977717701868
 10
749.682166834194
 20
108.15589091269868
 10
749.682166834194
 20
90.03112892357876
  0
LWPOLYLINE
  5
4C
330
17
100
AcDbEntity
  8
0
 62
0
100
AcDbPolyline
 90
4
 70
1
 10
747.633703857088
 20
89.71273864376474
 10
747.4827210821401
 20
107.62050234329695
 10
731.3121374664081
 20
108.1722195870376
 10
729.554470870012
 20
90.09770977315713
  0
LWPOLYLINE
  5
4D
330
17
100
AcDbEntity
  8
0
 62
0
100
AcDbPolyline
 90
4
 70
1
 10
726.4584248488007
 20
91.71153789095018
 10
729.7303660226743
 20
109.01689763781866
 10
714.3543831029943
 20
113.14006624197862
 10
708.2555295426744
 20
96.8191905171787
  0
LWPOLYLINE
  5
4E
330
17
100
AcDbEntity
  8
0
 62
0
100
AcDbPolyline
 90
4
 70
1
 10
706.7246335256372
 20
98.07286378618574
 10
712.3346610848027
 20
113.00378769705759
 10
697.5901560236216
 20
120.70191484787932
 10
688.8069445866818
 20
106.80151287435308
  0
LWPOLYLINE
  5
4F
330
17
100
AcDbEntity
  8
0
 62
0
100
AcDbPolyline
 90
4
 70
1
 10
686.5559686486197
 20
107.55883424763613
 10
695.7209862564024
 20
121.08674391760093
 10
682.3069443975353
 20
131.09229973036253
 10
671.318349089075
 20
117.85912089931628
  0
LWPOLYLINE
  5
50
330
17
100
AcDbEntity
  8
0
 62
0
100
AcDbPolyline
 90
4
 70
1
 10
669.357752750408
 20
117.91390812501123
 10
680.8775792814265
 20
133.29132298591452
 10
670.3772432361657
 20
144.50634158922963
 10
655.356973051363
 20
132.82413434058253
  0
LWPOLYLINE
  5
51
330
17
100
AcDbEntity
  8
0
 62
0
100
AcDbPolyline
 90
4
 70
1
 10
654.6088010841663
 20
133.9095903952968
 10
668.1921386598857
 20
145.30731986381147
 10
663.0799125856336
 20
155.9035138594282
 10
644.5256538669139
 20
148.08667338070836
  0
LWPOLYLINE
  5
52
330
17
100
AcDbEntity
  8
0
 62
0
100
AcDbPolyline
 90
4
 70
1
 10
787.7453317119999
 20
184.3807554560002
 10
773.7866879999999
 20
195.5208268800002
 10
766.6241855179048
 20
191.12417540303613
 10
775.4292121298753
 20
174.9721418886307
  0
LWPOLYLINE
  5
53
330
17
100
AcDbEntity
  8
0
 62
0
100
AcDbPolyline
 90
4
 70
1
 10
773.8185993938753
 20
174.2205226118307
 10
765.8786755250344
 20
189.1951681376961
 10
752.2640761481399
 20
181.7671135725891
 10
751.4909820348598
 20
168.88221168458915
  0
LWPOLYLINE
  5
54
330
17
100
AcDbEntity
  8
0
 62
0
100
AcDbPolyline
 90
4
 70
1
 10
749.6876561237424
 20
169.47214342956613
 10
749.7729951164599
 20
182.1107109562691
 10
735.2389142141931
 20
189.96594232862532
 10
727.4183773906766
 20
175.09209898303067
  0
LWPOLYLINE
  5
55
330
17
100
AcDbEntity
  8
0
 62
0
100
AcDbPolyline
 90
4
 70
1
 10
882.5094806937601
 20
132.9136097484801
 10
863.1821278617601
 20
145.04689235968004
 10
853.8176726937048
 20
133.72236273300342
 10
869.4129237401602
 20
120.4351097036801
  0
LWPOLYLINE
  5
56
330
17
100
AcDbEntity
  8
0
 62
0
100
AcDbPolyline
 90
4
 70
1
 10
868.0170593689602
 20
119.36136787968007
 10
852.5030565246445
 20
131.3044931545587
 10
840.9462820621146
 20
120.71651609304132
 10
853.6289189273602
 20
106.7985885388801
  0
LWPOLYLINE
  5
57
330
17
100
AcDbEntity
  8
0
 62
0
100
AcDbPolyline
 90
4
 70
1
 10
852.2330545561603
 20
105.51009835008011
 10
838.9186559385603
 20
120.11298715648007
 10
824.6378896793602
 20
109.69769146368009
 10
835.1605595545602
 20
94.0210608332801
  0
LWPOLYLINE
  5
58
330
17
100
AcDbEntity
  8
0
 62
0
100
AcDbPolyline
 90
4
 70
1
 10
833.3177981023451
 20
93.36809252730052
 10
823.2974130525569
 20
107.96582607102522
 10
808.2274910023654
 20
100.12258255399507
 10
816.8550466816002
 20
85.18348663039978
  0
LWPOLYLINE
  5
59
330
17
100
AcDbEntity
  8
0
 62
0
100
AcDbPolyline
 90
4
 70
1
 10
814.7769499033602
 20
84.05127886848015
 10
807.0756978679517
 20
98.53723640541682
 10
792.6578683289603
 20
93.71495528448014
 10
796.2012163481603
 20
77.50145374208017
  0
LWPOLYLINE
  5
5A
330
17
100
AcDbEntity
  8
0
 62
0
100
AcDbPolyline
 90
4
 70
1
 10
794.5906036121603
 20
77.28670537728021
 10
790.2956363161603
 20
93.92970364928016
 10
772.9010187673603
 20
89.52736217088017
 10
774.9411282329603
 20
73.42123481088021
  0
LWPOLYLINE
  5
5B
330
17
100
AcDbEntity
  8
0
 62
0
100
AcDbPolyline
 90
4
 70
1
 10
752.8186103228596
 20
72.51903898606821
 10
752.5437324159157
 20
87.91220177493216
 10
736.7657405573301
 20
88.24205526326494
 10
734.0169614878901
 20
73.56357503245539
  0
LWPOLYLINE
  5
5C
330
17
100
AcDbEntity
  8
0
 62
0
100
AcDbPolyline
 90
4
 70
1
 10
732.4432854706358
 20
73.70101398592743
 10
733.9276261681333
 20
87.88471398423775
 10
718.5894389606582
 20
91.40315119312095
 10
714.1913924495542
 20
75.13037910203622
  0
LWPOLYLINE
  5
5D
330
17
100
AcDbEntity
  8
0
 62
0
100
AcDbPolyline
 90
4
 70
1
 10
712.388503602215
 20
75.14385146237203
 10
716.9075834546359
 20
92.0766557522249
 10
700.371959365036
 20
97.4453648722249
 10
693.7069390584818
 20
82.22436547402361
  0
LWPOLYLINE
  5
5E
330
17
100
AcDbEntity
  8
0
 62
0
100
AcDbPolyline
 90
4
 70
1
 10
692.1679046393931
 20
82.32816588118988
 10
699.518972149164
 20
99.3091122432329
 10
683.301175639468
 20
106.38721834704091
 10
673.4365523681286
 20
90.7054462197762
  0
LWPOLYLINE
  5
5F
330
17
100
AcDbEntity
  8
0
 62
0
100
AcDbPolyline
 90
4
 70
1
 10
671.8560044032006
 20
92.07983575449623
 10
682.476541918636
 20
107.69288840502492
 10
669.6947192457401
 20
115.80178665987285
 10
656.2566831841286
 20
101.21952616038419
  0
LWPOLYLINE
  5
60
330
17
100
AcDbEntity
  8
0
 62
0
100
AcDbPolyline
 90
4
 70
1
 10
654.7448546959365
 20
102.04415988121616
 10
667.689237953964
 20
116.79177662160089
 10
654.7028114141117
 20
129.47509725985907
 10
639.3516919070726
 20
114.41366569369615
  0
LWPOLYLINE
  5
61
330
17
100
AcDbEntity
  8
0
 62
0
100
AcDbPolyline
 90
4
 70
1
 10
638.0060249661447
 20
115.25870050918411
 10
653.8766231300282
 20
131.2915862128968
 10
643.5146899771496
 20
143.87568341210255
 10
623.4374958981126
 20
127.76564527513608
  0
LWPOLYLINE
  5
62
330
17
100
AcDbEntity
  8
0
 62
0
100
AcDbPolyline
 90
4
 70
1
 10
773.1376172066998
 20
197.14309649226902
 10
762.4001989666999
 20
207.708716040429
 10
753.5525663369399
 20
201.00856705866903
 10
762.0566015830199
 20
189.75575274314906
  0
LWPOLYLINE
  5
63
330
17
100
AcDbEntity
  8
0
 62
0
100
AcDbPolyline
 90
4
 70
1
 10
680.6986737401933
 20
162.72043226454815
 10
682.7995840933072
 20
159.3293367808821
 10
669.3855422344401
 20
148.20227910778902
 10
664.6999205625935
 20
156.38535550294824
  0
LWPOLYLINE
  5
64
330
17
100
AcDbEntity
  8
0
 62
0
100
AcDbPolyline
 90
4
 70
1
 10
734.3644512905398
 20
192.21336355658912
 10
725.5659086899383
 20
175.32912237960363
 10
715.5619238537402
 20
185.32440765258906
 10
728.5930889865399
 20
197.85050813258908
  0
LWPOLYLINE
  5
65
330
17
100
AcDbEntity
  8
0
 62
0
100
AcDbPolyline
 90
4
 70
1
 10
751.3191833430199
 20
201.094466404589
 10
760.8540107401399
 20
188.72496059210908
 10
751.3191833430199
 20
182.9697044154691
 10
739.98046968158
 20
189.49805470538905
  0
LWPOLYLINE
  5
66
330
17
100
AcDbEntity
  8
0
 62
0
100
AcDbPolyline
 90
4
 70
1
 10
749.5152970786999
 20
201.95345986378902
 10
737.9188853794999
 20
190.35704816458906
 10
729.9302462089399
 20
199.54827817802902
 10
738.3483821090999
 20
209.08310557514898
  0
LWPOLYLINE
  5
67
330
17
100
AcDbEntity
  8
0
 62
0
100
AcDbPolyline
 90
7
 70
1
 10
744.1626940860599
 20
224.47519462218906
 10
756.0983031693374
 20
223.6779892266469
 10
758.1642874710199
 20
217.087850873069
 10
762.8887514966198
 20
210.30180254538908
 10
751.8936352188598
 20
202.22726402890908
 10
740.0395254818999
 20
210.04410450762907
 10
743.8190967023799
 20
215.62756199242904
  0
LWPOLYLINE
  5
68
330
17
100
AcDbEntity
  8
0
 62
0
100
AcDbPolyline
 90
4
 70
1
 10
841.7658569984003
 20
96.0282790527998
 10
825.3376070912003
 20
87.22359609599977
 10
834.7036916488798
 20
77.97629531896189
 10
847.1799660513282
 20
89.82509191833594
  0
LWPOLYLINE
  5
69
330
17
100
AcDbEntity
  8
0
 62
0
100
AcDbPolyline
 90
4
 70
1
 10
847.8396730279937
 20
88.39572680222716
 10
834.9204114016258
 20
75.97124540835836
 10
853.5021579110402
 20
62.61217913087995
 10
861.6509993617411
 20
81.3567049008127
  0
LWPOLYLINE
  5
6A
330
17
100
AcDbEntity
  8
0
 62
0
100
AcDbPolyline
 90
4
 70
1
 10
862.8054865709059
 20
80.64202234275831
 10
855.108905176474
 20
61.62047118223353
 10
879.1101939353601
 20
55.3705301908891
 10
881.1717782374401
 20
75.50533687453702
  0
LWPOLYLINE
  5
6B
330
17
100
AcDbEntity
  8
0
 62
0
100
AcDbPolyline
 90
4
 70
1
 10
883.5769599232001
 20
74.74942263044102
 10
880.4158639933441
 20
55.645408097833126
 10
898.2227029487785
 20
53.62589557295933
 10
898.8239983702185
 20
73.4686444804783
  0
LWPOLYLINE
  5
6C
330
17
100
AcDbEntity
  8
0
 62
0
100
AcDbPolyline
 90
4
 70
1
 10
869.0178260961281
 20
101.20212620650494
 10
859.2919474763609
 20
84.3214742904513
 10
878.3926201766415
 20
77.91474457262922
 10
881.0994165843972
 20
95.1314703254526
  0
LWPOLYLINE
  5
6D
330
17
100
AcDbEntity
  8
0
 62
0
100
AcDbPolyline
 90
4
 70
1
 10
882.5597054650372
 20
94.7878729417726
 10
880.012942373888
 20
77.21902882564103
 10
899.1573952065703
 20
75.1380445813422
 10
898.7450783461544
 20
91.49328004450935
  0
LWPOLYLINE
  5
6E
330
17
100
AcDbEntity
  8
0
 62
0
100
AcDbPolyline
 90
4
 70
1
 10
824.1564910848003
 20
86.25722845439981
 10
806.4397509888004
 20
79.3852807807998
 10
813.0623892326404
 20
68.03308243199984
 10
828.4332927977474
 20
80.14938959390713
  0
LWPOLYLINE
  5
6F
330
17
100
AcDbEntity
  8
0
 62
0
100
AcDbPolyline
 90
4
 70
1
 10
829.1479753558018
 20
78.44514657085438
 10
814.7803761510403
 20
66.95934060799982
 10
830.8886497376734
 20
53.14552607849424
 10
840.362993959117
 20
69.37417564170238
  0
LWPOLYLINE
  5
70
330
17
100
AcDbEntity
  8
0
 62
0
100
AcDbPolyline
 90
4
 70
1
 10
841.5174811682817
 20
68.21968843253757
 10
832.3541537757707
 20
51.24850607617009
 10
849.9901972166411
 20
43.263580414134594
 10
855.5487098275844
 20
59.36647234529278
  0
LWPOLYLINE
  5
71
330
17
100
AcDbEntity
  8
0
 62
0
100
AcDbPolyline
 90
4
 70
1
 10
857.0477989236567
 20
59.06473987650122
 10
852.4675328897916
 20
43.66126661824035
 10
870.3371412211716
 20
37.3762397897728
 10
874.1313741414116
 20
54.740030780286304
  0
LWPOLYLINE
  5
72
330
17
100
AcDbEntity
  8
0
 62
0
100
AcDbPolyline
 90
4
 70
1
 10
875.5531772247007
 20
54.390704065186185
 10
873.5874897112201
 20
37.888347167503525
 10
887.0306221551792
 20
35.776951014880254
 10
889.2854799855791
 20
52.2052009220794
  0
LWPOLYLINE
  5
73
330
17
100
AcDbEntity
  8
0
 62
0
100
AcDbPolyline
 90
4
 70
1
 10
877.2179380111352
 20
124.00786344912888
 10
858.6796872992772
 20
108.6176676348926
 10
880.549263963135
 20
97.22891013072905
 10
884.8242169245871
 20
117.00672796002802
  0
LWPOLYLINE
  5
74
330
17
100
AcDbEntity
  8
0
 62
0
100
AcDbPolyline
 90
4
 70
1
 10
886.112707113387
 20
116.23363384674805
 10
882.7315041568771
 20
96.5917592060926
 10
898.9783487574185
 20
93.20509294742126
 10
899.0470682341545
 20
107.43002463177253
  0
LWPOLYLINE
  5
75
330
17
100
AcDbEntity
  8
0
 62
0
100
AcDbPolyline
 90
4
 70
1
 10
804.6143898880002
 20
78.84840986879976
 10
785.9312821504003
 20
73.05020401919978
 10
794.4283463206639
 20
59.8778795063933
 10
809.6894363048273
 20
70.44216638309206
  0
LWPOLYLINE
  5
76
330
17
100
AcDbEntity
  8
0
 62
0
100
AcDbPolyline
 90
4
 70
1
 10
810.7347182848002
 20
68.54048835839978
 10
796.0244552960003
 20
58.984186124799805
 10
810.1632863078403
 20
42.90752375039983
 10
821.4375754598403
 20
57.939909286399825
  0
LWPOLYLINE
  5
77
330
17
100
AcDbEntity
  8
0
 62
0
100
AcDbPolyline
 90
4
 70
1
 10
823.1555623782403
 20
56.436670732799826
 10
811.5164296570802
 20
42.230806243533436
 10
827.1284071270403
 20
30.88161532159984
 10
835.4059758524204
 20
47.128001482368745
  0
LWPOLYLINE
  5
78
330
17
100
AcDbEntity
  8
0
 62
0
100
AcDbPolyline
 90
4
 70
1
 10
837.2215802726403
 20
46.45087176959987
 10
829.0275270240874
 20
31.392027193697686
 10
847.8399056460903
 20
24.803601187754566
 10
852.8982109030403
 20
40.86741428479985
  0
LWPOLYLINE
  5
79
330
17
100
AcDbEntity
  8
0
 62
0
100
AcDbPolyline
 90
4
 70
1
 10
854.7235720038403
 20
41.082162649599866
 10
849.3410117487199
 20
22.88393700740062
 10
866.4082790778212
 20
18.711078394673393
 10
869.9702921451182
 20
35.61662632155935
  0
LWPOLYLINE
  5
7A
330
17
100
AcDbEntity
  8
0
 62
0
100
AcDbPolyline
 90
4
 70
1
 10
872.0108153702403
 20
36.035576076799885
 10
868.5500501075231
 20
17.294919276608198
 10
886.4911742628017
 20
14.855306322606141
 10
889.404880076408
 20
33.16217492507559
  0
LWPOLYLINE
  5
7B
330
17
100
AcDbEntity
  8
0
 62
0
100
AcDbPolyline
 90
4
 70
1
 10
791.2594175639376
 20
62.07241052365168
 10
771.7578900736003
 20
49.1057613439998
 10
786.5876068403202
 20
35.28127244543981
 10
801.2524662260826
 20
48.55297102737961
  0
LWPOLYLINE
  5
7C
330
17
100
AcDbEntity
  8
0
 62
0
100
AcDbPolyline
 90
4
 70
1
 10
803.4699714860345
 20
47.04660261293367
 10
788.3914931046402
 20
33.649184872959836
 10
804.8841675212802
 20
22.48226990335985
 10
815.5615065767427
 20
35.649576913495935
  0
LWPOLYLINE
  5
7D
330
17
100
AcDbEntity
  8
0
 62
0
100
AcDbPolyline
 90
4
 70
1
 10
816.8241766041602
 20
34.42227898623986
 10
806.5162550937603
 20
21.27967906047985
 10
823.460642977999
 20
11.126358699955404
 10
831.9424614860802
 20
27.37853262079983
  0
LWPOLYLINE
  5
7E
330
17
100
AcDbEntity
  8
0
 62
0
100
AcDbPolyline
 90
4
 70
1
 10
833.617995471524
 20
27.556861425448375
 10
825.3451802481628
 20
11.313395021093925
 10
844.8330140748385
 20
6.50121375353908
 10
848.6813047720543
 20
21.78442537962468
  0
LWPOLYLINE
  5
7F
330
17
100
AcDbEntity
  8
0
 62
0
100
AcDbPolyline
 90
4
 70
1
 10
849.7159623936606
 20
19.971090187253573
 10
845.6615132662367
 20
0.8670756546465755
 10
864.4946226022403
 20
0.8168442495998534
 10
867.5830263450196
 20
15.6417631528858
  0
LWPOLYLINE
  5
80
330
17
100
AcDbEntity
  8
0
 62
0
100
AcDbPolyline
 90
4
 70
1
 10
869.5412091750403
 20
15.204984691199854
 10
866.4507011671021
 20
0.7773967375060968
 10
886.9455979088457
 20
0.8653576677281722
 10
887.0432009062403
 20
13.486997772799896
  0
LWPOLYLINE
  5
81
330
17
100
AcDbEntity
  8
0
 62
0
100
AcDbPolyline
 90
4
 70
1
 10
674.4726393798735
 20
88.16932140374979
 10
661.4159388000337
 20
96.24385992022962
 10
654.255475128884
 20
87.05764195084265
 10
664.6027701241269
 20
75.39846933535961
  0
LWPOLYLINE
  5
82
330
17
100
AcDbEntity
  8
0
 62
0
100
AcDbPolyline
 90
4
 70
1
 10
663.2437603872809
 20
73.25967494183357
 10
652.7737170892165
 20
86.7802486385504
 10
640.7729061796585
 20
77.05539638912694
 10
645.9035444882479
 20
63.4336028833261
  0
LWPOLYLINE
  5
83
330
17
100
AcDbEntity
  8
0
 62
0
100
AcDbPolyline
 90
4
 70
1
 10
644.8019872277587
 20
61.567665169495456
 10
637.2189528057716
 20
77.71157555181799
 10
623.1117196640344
 20
72.66350904663011
 10
625.1410508588613
 20
56.19170233600039
  0
LWPOLYLINE
  5
84
330
17
100
AcDbEntity
  8
0
 62
0
100
AcDbPolyline
 90
4
 70
1
 10
623.3281394537671
 20
56.70318778376645
 10
621.588573446767
 20
71.96051429192312
 10
603.1933662388496
 20
71.07507539444543
 10
603.8360704894657
 20
54.37520351508101
  0
LWPOLYLINE
  5
85
330
17
100
AcDbEntity
  8
0
 62
0
100
AcDbPolyline
 90
4
 70
1
 10
694.6589856710731
 20
78.72039335254993
 10
676.4483243360335
 20
87.56802598230979
 10
669.4904773165135
 20
77.43190316374995
 10
683.1948726265534
 20
65.16154787262968
  0
LWPOLYLINE
  5
86
330
17
100
AcDbEntity
  8
0
 62
0
100
AcDbPolyline
 90
4
 70
1
 10
682.0317818208333
 20
63.85980650839019
 10
668.0301884358735
 20
76.40111101270998
 10
658.9598705543988
 20
65.00517883814973
 10
668.6314838573135
 20
49.686414431590435
  0
LWPOLYLINE
  5
87
330
17
100
AcDbEntity
  8
0
 62
0
100
AcDbPolyline
 90
4
 70
1
 10
666.2761409888335
 20
49.04118891863055
 10
655.6702806712085
 20
65.06792467363209
 10
642.1861724704152
 20
58.054606460979414
 10
648.3446525280339
 20
39.27013832023067
  0
LWPOLYLINE
  5
88
330
17
100
AcDbEntity
  8
0
 62
0
100
AcDbPolyline
 90
4
 70
1
 10
646.4119172448338
 20
39.27013832023067
 10
639.6091908770948
 20
56.81460182141001
 10
622.8423379235536
 20
52.95923013801695
 10
626.356617582527
 20
35.52174531418643
  0
LWPOLYLINE
  5
89
330
17
100
AcDbEntity
  8
0
 62
0
100
AcDbPolyline
 90
4
 70
1
 10
624.8297065824343
 20
34.43830011223076
 10
621.2863585632343
 20
52.691911120230486
 10
604.0066274089338
 20
50.305499923751086
 10
606.2539730272346
 20
32.720313193830805
  0
LWPOLYLINE
  5
8A
330
17
100
AcDbEntity
  8
0
 62
0
100
AcDbPolyline
 90
4
 70
1
 10
659.3664340934736
 20
96.99682137430966
 10
643.303256406434
 20
108.76503176534948
 10
634.8155055456341
 20
100.79554483542967
 10
647.2053645955627
 20
85.72884895154391
  0
LWPOLYLINE
  5
8B
330
17
100
AcDbEntity
  8
0
 62
0
100
AcDbPolyline
 90
4
 70
1
 10
645.4507400544339
 20
83.51062406486989
 10
634.5415231225941
 20
98.45711025494961
 10
620.8835271213143
 20
93.8185455752697
 10
624.3195009581143
 20
75.17838751063005
  0
LWPOLYLINE
  5
8C
330
17
100
AcDbEntity
  8
0
 62
0
100
AcDbPolyline
 90
4
 70
1
 10
622.0379778400343
 20
74.16674760023011
 10
619.4672308935488
 20
93.0972605690281
 10
602.8196202598857
 20
90.73652297370944
 10
603.9991151968346
 20
72.66350904663011
  0
LWPOLYLINE
  5
8D
330
17
100
AcDbEntity
  8
0
 62
0
100
AcDbPolyline
 90
4
 70
1
 10
715.5325267296328
 20
72.79333848407003
 10
697.0641673568331
 20
78.97809139030994
 10
688.0447360352332
 20
66.52268623191014
 10
702.561725495713
 20
54.23907976535031
  0
LWPOLYLINE
  5
8E
330
17
100
AcDbEntity
  8
0
 62
0
100
AcDbPolyline
 90
4
 70
1
 10
701.9604300742731
 20
52.43519350103037
 10
686.1549504249933
 20
65.66369277271014
 10
674.7546625589637
 20
53.74646158323122
 10
685.8113530413132
 20
38.86309684567061
  0
LWPOLYLINE
  5
8F
330
17
100
AcDbEntity
  8
0
 62
0
100
AcDbPolyline
 90
4
 70
1
 10
683.9960293731651
 20
38.483472374243036
 10
673.8111860622586
 20
51.237779785571036
 10
660.8455301866521
 20
42.99667563818548
 10
667.6650332678109
 20
29.530583599840497
  0
LWPOLYLINE
  5
90
330
17
100
AcDbEntity
  8
0
 62
0
100
AcDbPolyline
 90
4
 70
1
 10
664.5026390681462
 20
28.481053974250983
 10
658.8673224032336
 20
42.49136379223063
 10
643.7916407869661
 20
35.43385776752939
 10
647.674697565428
 20
20.89563462723089
  0
LWPOLYLINE
  5
91
330
17
100
AcDbEntity
  8
0
 62
0
100
AcDbPolyline
 90
4
 70
1
 10
646.2009551385704
 20
18.74644989440867
 10
641.7948274016339
 20
36.69315794263076
 10
625.2592033120343
 20
32.93506155863082
 10
626.7248531648838
 20
16.33753931611062
  0
LWPOLYLINE
  5
92
330
17
100
AcDbEntity
  8
0
 62
0
100
AcDbPolyline
 90
4
 70
1
 10
624.7381417768387
 20
15.242230408137857
 10
623.5607471336066
 20
32.073909211514206
 10
604.692506368782
 20
31.34406286791392
 10
606.6933133797779
 20
15.755798667572037
  0
LWPOLYLINE
  5
93
330
17
100
AcDbEntity
  8
0
 62
0
100
AcDbPolyline
 90
4
 70
1
 10
641.524871510434
 20
109.57839119702948
 10
629.4912348034786
 20
120.70104109209416
 10
620.5320849295367
 20
113.91622998992915
 10
628.2708708704342
 20
97.76991548758963
  0
LWPOLYLINE
  5
94
330
17
100
AcDbEntity
  8
0
 62
0
100
AcDbPolyline
 90
4
 70
1
 10
626.7061004175366
 20
97.27323171792926
 10
618.7872544655368
 20
112.43983498192915
 10
602.0100384655368
 20
107.0711258619292
 10
602.6811271055368
 20
92.84404669392927
  0
LWPOLYLINE
  5
95
330
17
100
AcDbEntity
  8
0
 62
0
100
AcDbPolyline
 90
4
 70
1
 10
735.9468716525574
 20
56.179005122252704
 10
713.6667288045575
 20
66.91642336225271
 10
705.3870066922168
 20
55.643990629881785
 10
722.5250988525574
 20
42.22036141025279
  0
LWPOLYLINE
  5
96
330
17
100
AcDbEntity
  8
0
 62
0
100
AcDbPolyline
 90
4
 70
1
 10
721.8540102125575
 20
40.475530946252775
 10
705.8670997336337
 20
53.07044042422149
 10
694.2451716877533
 20
42.264228405746394
 10
706.5531892205574
 20
27.45641133025282
  0
LWPOLYLINE
  5
97
330
17
100
AcDbEntity
  8
0
 62
0
100
AcDbPolyline
 90
4
 70
1
 10
704.9082880493575
 20
26.74788852705285
 10
692.0233861613576
 20
40.921280603852836
 10
676.7491367910388
 20
31.989034721588666
 10
686.6434999270388
 20
14.054090154292624
  0
LWPOLYLINE
  5
98
330
17
100
AcDbEntity
  8
0
 62
0
100
AcDbPolyline
 90
4
 70
1
 10
685.4409090841588
 20
12.507901927732632
 10
674.8435169773576
 20
31.042855823052832
 10
660.6701249005577
 20
24.063533967052877
 10
671.6598128105798
 20
1.690367102527908
  0
LWPOLYLINE
  5
99
330
17
100
AcDbEntity
  8
0
 62
0
100
AcDbPolyline
 90
4
 70
1
 10
668.4721417705798
 20
2.6970000625278985
 10
659.5027594592336
 20
22.911346087270942
 10
644.2126758854739
 20
16.468895143271084
 10
648.4589960071177
 20
1.2585998025729737
  0
LWPOLYLINE
  5
9A
330
17
100
AcDbEntity
  8
0
 62
0
100
AcDbPolyline
 90
4
 70
1
 10
647.0542261226179
 20
0.9494853396385682
 10
642.236990929314
 20
16.03939841367105
 10
625.837087680379
 20
14.349783303157862
 10
627.0650286521562
 20
1.2328341388588075
  0
LWPOLYLINE
  5
9B
330
17
100
AcDbEntity
  8
0
 62
0
100
AcDbPolyline
 90
4
 70
1
 10
625.321691604859
 20
1.3789820692385455
 10
623.7755033782992
 20
13.576689189877904
 10
606.0643569731593
 20
13.408559134249174
 10
607.0251309239
 20
0.8635859937185727
  0
LWPOLYLINE
  5
9C
330
17
100
AcDbEntity
  8
0
 62
0
100
AcDbPolyline
 90
4
 70
1
 10
745.2078948845574
 20
70.94295520225268
 10
737.6917021165574
 20
57.52118240225269
 10
715.6799947245574
 20
68.12438291425269
 10
717.2906074605575
 20
73.4930920342527
  0
LWPOLYLINE
  5
9D
330
17
100
AcDbEntity
  8
0
 62
0
100
AcDbPolyline
 90
4
 70
1
 10
888.9813709588481
 20
13.733466345410875
 10
899.1941574422698
 20
13.586707201095827
 10
899.139181860881
 20
0.7224211561172997
 10
888.4739190714542
 20
0.6674455747285025
  0
LWPOLYLINE
  5
9E
330
17
100
AcDbEntity
  8
0
 62
0
100
AcDbPolyline
 90
4
 70
1
 10
891.0541475180718
 20
33.71193073896356
 10
898.8057044938922
 20
33.052223762298
 10
899.135557982225
 20
14.910281903994937
 10
888.0854661230768
 20
15.130184229550126
  0
LWPOLYLINE
  5
9F
330
17
100
AcDbEntity
  8
0
 62
0
100
AcDbPolyline
 90
4
 70
1
 10
890.896092721579
 20
52.742071834079375
 10
898.5196596719786
 20
51.560955827679436
 10
898.6270338543786
 20
34.917957555680296
 10
888.855983255979
 20
35.45482846768027
  0
LWPOLYLINE
  5
A0
330
17
100
AcDbEntity
  8
0
 62
0
100
AcDbPolyline
 90
4
 70
1
 10
885.6691140495349
 20
133.369182565929
 10
899.1613286287339
 20
124.69078420432896
 10
897.5373201207464
 20
110.47837767010834
 10
878.2871390095349
 20
125.45033661392904
  0
LWPOLYLINE
  5
A1
330
17
100
AcDbEntity
  8
0
 62
0
100
AcDbPolyline
 90
4
 70
1
 10
845.3949244686393
 20
249.2748685366754
 10
828.0088968544316
 20
239.9290197005795
 10
835.0870029582394
 20
229.4836592367077
 10
849.6555320262712
 20
243.57115196758753
  0
LWPOLYLINE
  5
A2
330
17
100
AcDbEntity
  8
0
 62
0
100
AcDbPolyline
 90
4
 70
1
 10
850.5488852238392
 20
241.71572609571547
 10
836.2215063171647
 20
228.39809795586143
 10
852.0884244781316
 20
215.797546709299
 10
860.3081917710391
 20
232.1563368543716
  0
LWPOLYLINE
  5
A3
330
17
100
AcDbEntity
  8
0
 62
0
100
AcDbPolyline
 90
4
 70
1
 10
861.2983928652849
 20
230.3756614619889
 10
853.2988051439672
 20
214.70158976342793
 10
873.0900144439349
 20
207.21116679920402
 10
877.7449203740822
 20
223.4185696075092
  0
LWPOLYLINE
  5
A4
330
17
100
AcDbEntity
  8
0
 62
0
100
AcDbPolyline
 90
4
 70
1
 10
879.4122063036468
 20
222.74176854153973
 10
874.739281885599
 20
206.798849938788
 10
895.1269547687987
 20
204.4462816024041
 10
895.6098872916612
 20
221.22644192928715
  0
LWPOLYLINE
  5
A5
330
17
100
AcDbEntity
  8
0
 62
0
100
AcDbPolyline
 90
4
 70
1
 10
861.1904216743989
 20
260.8559794148831
 10
846.7593315598391
 20
249.94676248304324
 10
857.3861391241073
 20
237.64781139491163
 10
867.8905706561587
 20
252.18014547696316
  0
LWPOLYLINE
  5
A6
330
17
100
AcDbEntity
  8
0
 62
0
100
AcDbPolyline
 90
4
 70
1
 10
868.7495641153587
 20
250.7198565963232
 10
859.1167926904385
 20
237.22914171035427
 10
877.6830960910386
 20
225.37954954992358
 10
881.4686006588028
 20
244.41689837973934
  0
LWPOLYLINE
  5
A7
330
17
100
AcDbEntity
  8
0
 62
0
100
AcDbPolyline
 90
4
 70
1
 10
883.0607600965087
 20
243.76435869749525
 10
879.3742394638385
 20
224.57961189104356
 10
899.3028877172782
 20
222.26032955120354
 10
899.5577682197603
 20
241.34933850915615
  0
LWPOLYLINE
  5
A8
330
17
100
AcDbEntity
  8
0
 62
0
100
AcDbPolyline
 90
4
 70
1
 10
826.6345073197116
 20
239.5167028401636
 10
808.2864070311998
 20
232.0949993526757
 10
813.0280509259837
 20
223.57378423741181
 10
829.1084084822076
 20
235.46225371273965
  0
LWPOLYLINE
  5
A9
330
17
100
AcDbEntity
  8
0
 62
0
100
AcDbPolyline
 90
4
 70
1
 10
829.8643227263035
 20
233.46938888739567
 10
813.7152456933437
 20
222.47427260963582
 10
827.5278605172796
 20
207.42470720445198
 10
839.8973663297594
 20
222.0619557492198
  0
LWPOLYLINE
  5
AA
330
17
100
AcDbEntity
  8
0
 62
0
100
AcDbPolyline
 90
4
 70
1
 10
841.5368489020525
 20
220.80161745350028
 10
828.9736371060795
 20
206.11511127792397
 10
847.2701977870393
 20
194.1751021950442
 10
854.0260404971707
 20
212.32624609805066
  0
LWPOLYLINE
  5
AB
330
17
100
AcDbEntity
  8
0
 62
0
100
AcDbPolyline
 90
4
 70
1
 10
855.6024343412791
 20
211.0113739953639
 10
848.9881847054392
 20
193.91740415728418
 10
867.1988460404789
 20
187.38905386736428
 10
872.73461659711
 20
205.5902053291258
  0
LWPOLYLINE
  5
AC
330
17
100
AcDbEntity
  8
0
 62
0
100
AcDbPolyline
 90
4
 70
1
 10
874.6018429321269
 20
205.56189935754003
 10
869.5284272516991
 20
188.15329730056953
 10
886.9535887795205
 20
185.01034258843765
 10
889.2728711193604
 20
202.79150719387695
  0
LWPOLYLINE
  5
AD
330
17
100
AcDbEntity
  8
0
 62
0
100
AcDbPolyline
 90
4
 70
1
 10
873.1398259982386
 20
274.9474986776029
 10
862.2306090663988
 20
261.7189994059231
 10
875.4591083380785
 20
248.91999686384327
 10
886.047942662117
 20
262.4912141077946
  0
LWPOLYLINE
  5
AE
330
17
100
AcDbEntity
  8
0
 62
0
100
AcDbPolyline
 90
4
 70
1
 10
807.0824740110398
 20
232.04023851965167
 10
782.9232829710402
 20
225.70516175805176
 10
788.5067404558401
 20
216.36360788925185
 10
808.3715153303767
 20
227.6944643563295
  0
LWPOLYLINE
  5
AF
330
17
100
AcDbEntity
  8
0
 62
0
100
AcDbPolyline
 90
4
 70
1
 10
809.4447060238398
 20
226.3494068524518
 10
789.58048227984
 20
214.86036933565197
 10
804.7202419982398
 20
199.72060961725214
 10
819.1244784538395
 20
213.26760461233482
  0
LWPOLYLINE
  5
B0
330
17
100
AcDbEntity
  8
0
 62
0
100
AcDbPolyline
 90
4
 70
1
 10
820.0747500814397
 20
212.3907631404519
 10
805.6866096398398
 20
198.53949361085216
 10
822.5443562766396
 20
185.86934008765235
 10
833.6176216375504
 20
200.14023392729297
  0
LWPOLYLINE
  5
B1
330
17
100
AcDbEntity
  8
0
 62
0
100
AcDbPolyline
 90
4
 70
1
 10
834.3707067654675
 20
198.93242811507315
 10
824.2623431950395
 20
185.11772081085235
 10
842.6233283854393
 20
175.56141857725248
 10
848.8510309646392
 20
191.98966848445224
  0
LWPOLYLINE
  5
B2
330
17
100
AcDbEntity
  8
0
 62
0
100
AcDbPolyline
 90
4
 70
1
 10
850.2309927569588
 20
190.96520420765154
 10
844.1265669390393
 20
174.9171734828525
 10
862.487552129439
 20
168.15259999165255
 10
865.8294196861077
 20
185.82745039115105
  0
LWPOLYLINE
  5
B3
330
17
100
AcDbEntity
  8
0
 62
0
100
AcDbPolyline
 90
4
 70
1
 10
868.0784230792264
 20
185.65652775631406
 10
864.1137996742699
 20
167.43863932246825
 10
883.4289000998368
 20
166.22194638339812
 10
884.6920292062213
 20
183.23416535090826
  0
LWPOLYLINE
  5
B4
330
17
100
AcDbEntity
  8
0
 62
0
100
AcDbPolyline
 90
4
 70
1
 10
886.34161245144
 20
182.30384342176205
 10
885.2377086836786
 20
165.74241869552463
 10
898.9841872285865
 20
165.3787971312255
 10
898.8982878826665
 20
182.0432702397046
  0
LWPOLYLINE
  5
B5
330
17
100
AcDbEntity
  8
0
 62
0
100
AcDbPolyline
 90
4
 70
1
 10
786.5056396558402
 20
215.38016353213152
 10
767.8654815912005
 20
205.67353744317165
 10
783.9286592782403
 20
189.18086302653182
 10
798.3597493928
 20
202.4952616441317
  0
LWPOLYLINE
  5
B6
330
17
100
AcDbEntity
  8
0
 62
0
100
AcDbPolyline
 90
4
 70
1
 10
800.0613665802224
 20
201.70408904042426
 10
785.1363552266225
 20
188.06756787562438
 10
801.1060100007919
 20
176.90643822697217
 10
811.1209073674222
 20
191.28879334762433
  0
LWPOLYLINE
  5
B7
330
17
100
AcDbEntity
  8
0
 62
0
100
AcDbPolyline
 90
4
 70
1
 10
812.4511831310398
 20
190.37905574845223
 10
802.3309883607025
 20
176.1388330818965
 10
819.5108575447023
 20
166.31194790864862
 10
827.8334010181925
 20
180.16505914440057
  0
LWPOLYLINE
  5
B8
330
17
100
AcDbEntity
  8
0
 62
0
100
AcDbPolyline
 90
4
 70
1
 10
829.7189881743342
 20
179.70318617552857
 10
821.3329782150855
 20
166.1640859035204
 10
837.9062695823341
 20
158.6310028795288
 10
844.348720526334
 20
172.99229977552864
  0
LWPOLYLINE
  5
B9
330
17
100
AcDbEntity
  8
0
 62
0
100
AcDbPolyline
 90
4
 70
1
 10
846.0935509903339
 20
171.9185579515286
 10
839.7404779394692
 20
158.00859838086564
 10
857.1685079810319
 20
152.7327730442214
 10
861.5285897103338
 20
166.68406655952867
  0
LWPOLYLINE
  5
BA
330
17
100
AcDbEntity
  8
0
 62
0
100
AcDbPolyline
 90
4
 70
1
 10
862.8777904595485
 20
166.30005160902147
 10
860.1864124303338
 20
151.78589875152886
 10
879.3795475343336
 20
150.30950374352886
 10
880.3320255422002
 20
164.7442733793223
  0
LWPOLYLINE
  5
BB
330
17
100
AcDbEntity
  8
0
 62
0
100
AcDbPolyline
 90
4
 70
1
 10
882.4665552783335
 20
163.9997119995287
 10
881.6612489103336
 20
150.30950374352886
 10
899.5122067343334
 20
150.30950374352886
 10
899.5122067343334
 20
163.73127654352874
  0
LWPOLYLINE
  5
BC
330
17
100
AcDbEntity
  8
0
 62
0
100
AcDbPolyline
 90
5
 70
1
 10
883.4942325211188
 20
134.7334061151725
 10
889.9366834651187
 20
142.5180343391724
 10
892.3526025691186
 20
148.28939664317232
 10
866.4485810651189
 20
149.6315739231723
 10
864.7037506011189
 20
146.27613072317234
  0
LWPOLYLINE
  5
BD
330
17
100
AcDbEntity
  8
0
 62
0
100
AcDbPolyline
 90
5
 70
1
 10
622.0803569729619
 20
129.27194323901267
 10
612.6314289217621
 20
140.0093614790125
 10
608.765958355362
 20
148.4274973791724
 10
641.7513071886417
 20
149.97368560573238
 10
643.6410927988817
 20
146.02231569341245
  0
LWPOLYLINE
  5
BE
330
17
100
AcDbEntity
  8
0
 62
0
100
AcDbPolyline
 90
5
 70
1
 10
767.3862387777601
 20
207.34853864381193
 10
760.1706937204802
 20
217.31286277053175
 10
757.7089159053374
 20
223.94642468264692
 10
780.1232764813369
 20
225.15438423464684
 10
785.5110007668799
 20
216.79746669501185
  0
LWPOLYLINE
  5
BF
330
17
100
AcDbEntity
  8
0
 62
0
100
AcDbPolyline
 90
5
 70
1
 10
887.9511717134382
 20
262.01166116182696
 10
876.4750190985263
 20
248.13032686115514
 10
900.0288591921246
 20
242.85220382530224
 10
899.4799086846045
 20
255.56128048962205
 10
894.4467438846046
 20
258.58117936962196
  0
LWPOLYLINE
  5
C0
330
17
100
AcDbEntity
  8
0
 62
0
100
AcDbPolyline
 90
4
 70
1
 10
675.6039599167323
 20
239.8103889015963
 10
660.3482360813405
 20
248.12544558665218
 10
655.7267416727638
 20
242.63443891706515
 10
667.9065374376019
 20
230.43157448022703
  0
LWPOLYLINE
  5
C1
330
17
100
AcDbEntity
  8
0
 62
0
100
AcDbPolyline
 90
4
 70
1
 10
667.0269281353811
 20
229.66191634078382
 10
654.5474711601237
 20
241.5366419207644
 10
644.5334888549403
 20
231.20385381172332
 10
652.8982037184599
 20
216.9075814585825
  0
LWPOLYLINE
  5
C2
330
17
100
AcDbEntity
  8
0
 62
0
100
AcDbPolyline
 90
4
 70
1
 10
651.0685728161877
 20
216.57975465794243
 10
643.2345524682838
 20
230.25493052840625
 10
629.0096207839322
 20
225.30712820341432
 10
633.407667295036
 20
208.67701483330262
  0
LWPOLYLINE
  5
C3
330
17
100
AcDbEntity
  8
0
 62
0
100
AcDbPolyline
 90
4
 70
1
 10
631.9403816250555
 20
208.20670960470557
 10
627.4290728190041
 20
224.9978905581023
 10
611.0222977482845
 20
221.99141345090243
 10
612.2534998976612
 20
204.7877739002442
  0
LWPOLYLINE
  5
C4
330
17
100
AcDbEntity
  8
0
 62
0
100
AcDbPolyline
 90
4
 70
1
 10
696.9315047882826
 20
230.6707328554469
 10
677.2532273583961
 20
238.98575518076427
 10
674.0569306054738
 20
235.56406039894694
 10
690.6999288774734
 20
223.21602942294714
  0
LWPOLYLINE
  5
C5
330
17
100
AcDbEntity
  8
0
 62
0
100
AcDbPolyline
 90
4
 70
1
 10
689.6261870534735
 20
222.03491341654717
 10
673.3053113286737
 20
233.7386992981469
 10
663.104764000674
 20
223.75290033494719
 10
675.2380466118738
 20
208.07626970454743
  0
LWPOLYLINE
  5
C6
330
17
100
AcDbEntity
  8
0
 62
0
100
AcDbPolyline
 90
4
 70
1
 10
673.7304269313191
 20
207.50496330834136
 10
662.031022176674
 20
222.4644101461472
 10
650.2578913953804
 20
213.32877715617815
 10
656.6365460838213
 20
197.30366116201327
  0
LWPOLYLINE
  5
C7
330
17
100
AcDbEntity
  8
0
 62
0
100
AcDbPolyline
 90
4
 70
1
 10
655.2132162568276
 20
196.1571851654628
 10
648.6633911304277
 20
212.80018343746247
 10
632.502502937404
 20
206.48121280322283
 10
637.5705643466838
 20
188.6141488518632
  0
LWPOLYLINE
  5
C8
330
17
100
AcDbEntity
  8
0
 62
0
100
AcDbPolyline
 90
4
 70
1
 10
635.8525774282839
 20
188.0987527763432
 10
630.9234537524173
 20
206.25516807540993
 10
614.8788446672421
 20
202.77317648414362
 10
616.3534259044443
 20
184.06148351810327
  0
LWPOLYLINE
  5
C9
330
17
100
AcDbEntity
  8
0
 62
0
100
AcDbPolyline
 90
4
 70
1
 10
658.6989686396765
 20
248.53776244706808
 10
644.7489148622689
 20
257.471294422748
 10
639.7985786314839
 20
253.68827209538176
 10
649.5827909558359
 20
238.27848308546197
  0
LWPOLYLINE
  5
CA
330
17
100
AcDbEntity
  8
0
 62
0
100
AcDbPolyline
 90
4
 70
1
 10
646.9282243428437
 20
237.71099375426206
 10
637.9946923671639
 20
253.08697667394176
 10
624.0863285140895
 20
245.41964984624053
 10
630.4787764232283
 20
227.62696419138217
  0
LWPOLYLINE
  5
CB
330
17
100
AcDbEntity
  8
0
 62
0
100
AcDbPolyline
 90
4
 70
1
 10
627.6008715108442
 20
227.23127355202223
 10
622.3287391229255
 20
245.35443027790757
 10
601.5601198907488
 20
240.69324875586187
 10
601.4742205448288
 20
222.2248893830623
  0
LWPOLYLINE
  5
CC
330
17
100
AcDbEntity
  8
0
 62
0
100
AcDbPolyline
 90
4
 70
1
 10
718.4144005677126
 20
225.50331209046692
 10
699.0789884362825
 20
230.6924224402917
 10
696.1009129386516
 20
226.69942031305516
 10
714.3878687277127
 20
216.91337749846707
  0
LWPOLYLINE
  5
CD
330
17
100
AcDbEntity
  8
0
 62
0
100
AcDbPolyline
 90
4
 70
1
 10
712.6430382637127
 20
215.1685470344671
 10
694.6916059647106
 20
225.60749853624657
 10
685.5900606734219
 20
213.13135394969254
 10
698.684394551713
 20
199.3308551304674
  0
LWPOLYLINE
  5
CE
330
17
100
AcDbEntity
  8
0
 62
0
100
AcDbPolyline
 90
4
 70
1
 10
697.697348991393
 20
198.08009270614747
 10
683.7401547740872
 20
212.08143266969182
 10
669.9910313708774
 20
201.07749787439235
 10
681.2905739206733
 20
185.62468754774767
  0
LWPOLYLINE
  5
CF
330
17
100
AcDbEntity
  8
0
 62
0
100
AcDbPolyline
 90
4
 70
1
 10
679.8302850400333
 20
184.3361973589477
 10
668.0620746489935
 20
201.34426785110736
 10
653.2873871507538
 20
193.0979306427875
 10
660.3408587588673
 20
176.58165226593434
  0
LWPOLYLINE
  5
D0
330
17
100
AcDbEntity
  8
0
 62
0
100
AcDbPolyline
 90
4
 70
1
 10
658.7849452896337
 20
176.60525622614784
 10
651.6396291298186
 20
192.54199778321322
 10
636.7506936924419
 20
186.3834223738471
 10
641.8985664208083
 20
170.43500938362416
  0
LWPOLYLINE
  5
D1
330
17
100
AcDbEntity
  8
0
 62
0
100
AcDbPolyline
 90
4
 70
1
 10
639.5435631729069
 20
170.18067762383072
 10
635.1112702948374
 20
186.35047615327153
 10
618.8428128920629
 20
182.50009393646133
 10
620.4150216364332
 20
165.98320752168627
  0
LWPOLYLINE
  5
D2
330
17
100
AcDbEntity
  8
0
 62
0
100
AcDbPolyline
 90
4
 70
1
 10
618.9370584481885
 20
165.42711359298352
 10
617.1922921807216
 20
182.59697803922302
 10
598.686337893141
 20
182.0030858899878
 10
598.7321630027442
 20
165.09458812363908
  0
LWPOLYLINE
  5
D3
330
17
100
AcDbEntity
  8
0
 62
0
100
AcDbPolyline
 90
4
 70
1
 10
643.364915630908
 20
258.4864929568216
 10
630.0505170133082
 20
271.1136968070614
 10
620.8513699054254
 20
264.6095998989547
 10
625.6696503713883
 20
247.83497406274182
  0
LWPOLYLINE
  5
D4
330
17
100
AcDbEntity
  8
0
 62
0
100
AcDbPolyline
 90
4
 70
1
 10
623.9516634529883
 20
247.4913766790619
 10
619.3130987733084
 20
263.72635305794154
 10
601.8287189246046
 20
255.72905264962196
 10
601.4460348219488
 20
242.5951139616219
  0
LWPOLYLINE
  5
D5
330
17
100
AcDbEntity
  8
0
 62
0
100
AcDbPolyline
 90
4
 70
1
 10
742.0054417293377
 20
223.94642468264692
 10
721.1435083513925
 20
225.58298289494712
 10
719.2980145913925
 20
220.88536241494717
 10
741.2761675513922
 20
215.18110897494728
  0
LWPOLYLINE
  5
D6
330
17
100
AcDbEntity
  8
0
 62
0
100
AcDbPolyline
 90
4
 70
1
 10
740.3634870009921
 20
213.67787042134728
 10
719.1302424313926
 20
219.37541297494727
 10
712.7549003513927
 20
210.81903281494738
 10
727.6866225913924
 20
199.57829809494757
  0
LWPOLYLINE
  5
D7
330
17
100
AcDbEntity
  8
0
 62
0
100
AcDbPolyline
 90
4
 70
1
 10
718.4591537913925
 20
190.16292447574773
 10
704.0710133497928
 20
201.86671035734753
 10
692.4746016505931
 20
191.77353721174774
 10
703.9636391673928
 20
177.60014513494798
  0
LWPOLYLINE
  5
D8
330
17
100
AcDbEntity
  8
0
 62
0
100
AcDbPolyline
 90
4
 70
1
 10
701.9587618553928
 20
176.57170179414788
 10
691.1139694329931
 20
190.42297132374767
 10
677.1553257209933
 20
181.08141745494783
 10
686.1747570425932
 20
166.26378028374808
  0
LWPOLYLINE
  5
D9
330
17
100
AcDbEntity
  8
0
 62
0
100
AcDbPolyline
 90
4
 70
1
 10
684.2420217593932
 20
165.8342835541481
 10
675.4373388025933
 20
180.43717236054783
 10
660.4049532665936
 20
174.42421814614795
 10
664.2704238329936
 20
157.67384569174823
  0
LWPOLYLINE
  5
DA
330
17
100
AcDbEntity
  8
0
 62
0
100
AcDbPolyline
 90
4
 70
1
 10
662.9081138937936
 20
157.19200404822817
 10
657.6682537926738
 20
174.45777257814785
 10
640.144787224994
 20
168.44481836374797
 10
644.439754520994
 20
150.92135179606828
  0
LWPOLYLINE
  5
DB
330
17
100
AcDbEntity
  8
0
 62
0
100
AcDbPolyline
 90
4
 70
1
 10
642.371629095165
 20
151.630473835665
 10
638.7118032633941
 20
168.24563086678808
 10
622.2278839813296
 20
163.49260378628827
 10
624.7102098784344
 20
150.46446626134843
  0
LWPOLYLINE
  5
DC
330
17
100
AcDbEntity
  8
0
 62
0
100
AcDbPolyline
 90
4
 70
1
 10
622.9922229600344
 20
150.3785669154284
 10
620.4152425824344
 20
164.12246226262818
 10
601.5173864800347
 20
163.26346880342817
 10
601.0878897504348
 20
150.3785669154284
  0
LWPOLYLINE
  5
DD
330
17
100
AcDbEntity
  8
0
 62
0
100
AcDbPolyline
 90
4
 70
1
 10
628.504492364604
 20
271.7412276000217
 10
618.0891966718042
 20
282.4786458400215
 10
609.2594481702513
 20
277.95024482715405
 10
616.7326912652909
 20
263.94865144219455
  0
LWPOLYLINE
  5
DE
330
17
100
AcDbEntity
  8
0
 62
0
100
AcDbPolyline
 90
4
 70
1
 10
705.3595035385929
 20
203.1552005461475
 10
719.6402697977926
 20
191.3440404821477
 10
726.9417142009925
 20
198.2159881557476
 10
711.8019544825927
 20
209.2755289429474
  0
LWPOLYLINE
  5
DF
330
17
100
AcDbEntity
  8
0
 62
0
100
AcDbPolyline
 90
4
 70
1
 10
613.1322004324443
 20
202.57279256386295
 10
614.2918416023642
 20
184.1473828640233
 10
600.5663635481717
 20
183.76913400219757
 10
601.4253570073715
 20
202.23749337499686
  0
LWPOLYLINE
  5
E0
330
17
100
AcDbEntity
  8
0
 62
0
100
AcDbPolyline
 90
4
 70
1
 10
610.6411194007644
 20
204.9779742496229
 10
596.2959286321247
 20
204.2907794822629
 10
597.3267207831647
 20
220.69755455298252
 10
609.2667298660444
 20
221.12705128258256
  0
LWPOLYLINE
  5
E1
330
17
100
AcDbEntity
  8
0
 62
0
100
AcDbPolyline
 90
4
 70
1
 10
799.3617750452031
 20
293.78437835275633
 10
790.4825795927998
 20
305.5190237219998
 10
775.0475408727998
 20
298.53970186599986
 10
781.8597833140035
 20
283.47645684235647
  0
LWPOLYLINE
  5
E2
330
17
100
AcDbEntity
  8
0
 62
0
100
AcDbPolyline
 90
4
 70
1
 10
780.0344222132035
 20
282.4027150183565
 10
773.5711458647997
 20
296.7948714019999
 10
757.3308007767998
 20
294.5131700259999
 10
758.344837368404
 20
277.7856251751566
  0
LWPOLYLINE
  5
E3
330
17
100
AcDbEntity
  8
0
 62
0
100
AcDbPolyline
 90
4
 70
1
 10
756.3047279028041
 20
277.6782509927566
 10
755.2642925912
 20
293.9813728291998
 10
738.9429720408
 20
294.91582320999987
 10
735.3190933848
 20
281.0913972259999
  0
LWPOLYLINE
  5
E4
330
17
100
AcDbEntity
  8
0
 62
0
100
AcDbPolyline
 90
4
 70
1
 10
733.3058274647999
 20
281.35983268199993
 10
737.1981415767999
 20
295.58691184999986
 10
720.1524901207999
 20
301.3582741539999
 10
713.0558289516367
 20
288.2301825414289
  0
LWPOLYLINE
  5
E5
330
17
100
AcDbEntity
  8
0
 62
0
100
AcDbPolyline
 90
4
 70
1
 10
711.2978796305397
 20
288.2277741063175
 10
719.3724181470197
 20
302.6588642208774
 10
709.0373923022179
 20
308.44270091339956
 10
700.3734451317123
 20
294.8222976796154
  0
LWPOLYLINE
  5
E6
330
17
100
AcDbEntity
  8
0
 62
0
100
AcDbPolyline
 90
4
 70
1
 10
829.6326454994742
 20
293.67075626302767
 10
816.2108726994745
 20
304.1397390470273
 10
806.745259058586
 20
297.57503481525987
 10
821.0513598900027
 20
285.0870695783565
  0
LWPOLYLINE
  5
E7
330
17
100
AcDbEntity
  8
0
 62
0
100
AcDbPolyline
 90
4
 70
1
 10
819.2259987892027
 20
283.26170847755657
 10
805.8042259892029
 20
296.0392361831563
 10
793.4785408985335
 20
287.0908049722277
 10
803.549368158803
 20
270.59155495435687
  0
LWPOLYLINE
  5
E8
330
17
100
AcDbEntity
  8
0
 62
0
100
AcDbPolyline
 90
4
 70
1
 10
801.8313812404031
 20
269.9473098599568
 10
791.6308339124032
 20
286.05343721995644
 10
777.0993026898686
 20
279.3722449202562
 10
781.0007898548035
 20
262.64586545675695
  0
LWPOLYLINE
  5
E9
330
17
100
AcDbEntity
  8
0
 62
0
100
AcDbPolyline
 90
4
 70
1
 10
779.3901771188035
 20
262.53849127435694
 10
775.7394549172036
 20
278.8593669991566
 10
758.666959915604
 20
275.9602640743567
 10
759.633327557204
 20
259.8541367143571
  0
LWPOLYLINE
  5
EA
330
17
100
AcDbEntity
  8
0
 62
0
100
AcDbPolyline
 90
4
 70
1
 10
758.2374631860041
 20
259.8541367143571
 10
756.519476267604
 20
276.38976080395673
 10
740.679869432568
 20
278.6464595015774
 10
736.7895990878443
 20
261.1759583474019
  0
LWPOLYLINE
  5
EB
330
17
100
AcDbEntity
  8
0
 62
0
100
AcDbPolyline
 90
4
 70
1
 10
735.3579877013325
 20
261.36746058354163
 10
738.5879878068044
 20
278.0003735399566
 10
722.5761650284367
 20
282.60177889496515
 10
716.8037289826128
 20
265.3531902342295
  0
LWPOLYLINE
  5
EC
330
17
100
AcDbEntity
  8
0
 62
0
100
AcDbPolyline
 90
4
 70
1
 10
715.2757943670608
 20
265.98562416856555
 10
720.9956170635087
 20
283.6325710460052
 10
704.1936844311824
 20
289.2856304804192
 10
696.5153772181333
 20
274.5755587605653
  0
LWPOLYLINE
  5
ED
330
17
100
AcDbEntity
  8
0
 62
0
100
AcDbPolyline
 90
4
 70
1
 10
695.3471461136213
 20
275.53763143486935
 10
703.5396435386075
 20
290.7518638537281
 10
694.6334065220597
 20
296.9895073901574
 10
680.0305177156597
 20
284.27640419399745
  0
LWPOLYLINE
  5
EE
330
17
100
AcDbEntity
  8
0
 62
0
100
AcDbPolyline
 90
4
 70
1
 10
854.8754856372018
 20
287.1804467047566
 10
835.7616228788023
 20
298.1867198311562
 10
824.9168304564025
 20
286.6976823143565
 10
840.2793077172022
 20
273.4231295847569
  0
LWPOLYLINE
  5
EF
330
17
100
AcDbEntity
  8
0
 62
0
100
AcDbPolyline
 90
4
 70
1
 10
838.0982696372022
 20
272.5842687847569
 10
824.2725853620026
 20
285.5165663079565
 10
811.4950576564029
 20
274.3496513383567
 10
822.4954587572025
 20
260.5046732647571
  0
LWPOLYLINE
  5
F0
330
17
100
AcDbEntity
  8
0
 62
0
100
AcDbPolyline
 90
4
 70
1
 10
821.0513598900027
 20
259.31726580235704
 10
810.4213158324028
 20
272.8464127847568
 10
796.1405495732032
 20
264.7933491047569
 10
802.0461296052031
 20
251.04945375755722
  0
LWPOLYLINE
  5
F1
330
17
100
AcDbEntity
  8
0
 62
0
100
AcDbPolyline
 90
4
 70
1
 10
800.046995409195
 20
251.75929192962406
 10
793.403879994698
 20
264.4332342153574
 10
778.6383362863163
 20
260.8910766772832
 10
782.150726531175
 20
244.93784204484496
  0
LWPOLYLINE
  5
F2
330
17
100
AcDbEntity
  8
0
 62
0
100
AcDbPolyline
 90
4
 70
1
 10
780.257494209337
 20
243.4079952426465
 10
776.9472014920796
 20
260.76336314559444
 10
760.2590527373374
 20
258.44038077864616
 10
760.5274881933374
 20
241.66316477864655
  0
LWPOLYLINE
  5
F3
330
17
100
AcDbEntity
  8
0
 62
0
100
AcDbPolyline
 90
4
 70
1
 10
758.9554254034205
 20
241.72117549042457
 10
758.7826577293374
 20
258.17194532264614
 10
740.9316999053378
 20
258.7088162346462
 10
739.7001421937
 20
242.17377944206612
  0
LWPOLYLINE
  5
F4
330
17
100
AcDbEntity
  8
0
 62
0
100
AcDbPolyline
 90
4
 70
1
 10
737.3078212493378
 20
242.33425341864654
 10
739.4553048973378
 20
259.11146941864615
 10
723.7518307213381
 20
262.06425943464615
 10
718.7609445056581
 20
245.7870044714465
  0
LWPOLYLINE
  5
F5
330
17
100
AcDbEntity
  8
0
 62
0
100
AcDbPolyline
 90
4
 70
1
 10
716.3025414056394
 20
246.96223975301393
 10
720.9637192572076
 20
261.971248519793
 10
705.2646657346022
 20
268.3933274750175
 10
698.831838900088
 20
253.9738545337343
  0
LWPOLYLINE
  5
F6
330
17
100
AcDbEntity
  8
0
 62
0
100
AcDbPolyline
 90
4
 70
1
 10
696.1030603577173
 20
253.20380149566972
 10
703.3186054149971
 20
268.9405616682135
 10
688.8586410433372
 20
277.4390675790547
 10
678.4421548365656
 20
261.9311750411416
  0
LWPOLYLINE
  5
F7
330
17
100
AcDbEntity
  8
0
 62
0
100
AcDbPolyline
 90
4
 70
1
 10
676.8077050320728
 20
262.564038472207
 10
687.1763466426198
 20
277.8138030404755
 10
672.8653712478358
 20
287.5799833893791
 10
660.5349329409885
 20
274.878568703298
  0
LWPOLYLINE
  5
F8
330
17
100
AcDbEntity
  8
0
 62
0
100
AcDbPolyline
 90
4
 70
1
 10
659.5511169947486
 20
276.16453559881154
 10
672.8826954815322
 20
289.7709919925393
 10
661.6814207735645
 20
302.48409518869903
 10
639.2788713576289
 20
297.60501234044307
  0
LWPOLYLINE
  5
F9
330
17
100
AcDbEntity
  8
0
 62
0
100
AcDbPolyline
 90
4
 70
1
 10
870.4782965172014
 20
274.42976254475684
 10
856.7209793972017
 20
284.83163646475657
 10
845.480244677202
 20
274.0942182247569
 10
859.4053339572017
 20
262.18239486475716
  0
LWPOLYLINE
  5
FA
330
17
100
AcDbEntity
  8
0
 62
0
100
AcDbPolyline
 90
4
 70
1
 10
857.5598401972018
 20
261.1757619047571
 10
843.466978757202
 20
273.5909017447568
 10
830.5485224372023
 20
262.6857113447571
 10
841.1181685172021
 20
249.26393854475737
  0
LWPOLYLINE
  5
FB
330
17
100
AcDbEntity
  8
0
 62
0
100
AcDbPolyline
 90
4
 70
1
 10
839.5817299853358
 20
247.83718026664644
 10
828.7100940173359
 20
261.5273885226461
 10
814.593906256131
 20
253.75036539843234
 10
822.9387317133361
 20
239.64989885864657
  0
LWPOLYLINE
  5
FC
330
17
100
AcDbEntity
  8
0
 62
0
100
AcDbPolyline
 90
4
 70
1
 10
821.3281189773361
 20
239.11302794664664
 10
812.4697489293363
 20
253.87697802664627
 10
797.1689279373365
 20
246.89765617064643
 10
803.6113788813365
 20
232.67057700264672
  0
LWPOLYLINE
  5
FD
330
17
100
AcDbEntity
  8
0
 62
0
100
AcDbPolyline
 90
4
 70
1
 10
801.8665484173365
 20
232.4021415466467
 10
795.7750768320566
 20
246.6030482576864
 10
780.3131945664568
 20
241.70678554024653
 10
782.539195585337
 20
227.3018678826469
  0
LWPOLYLINE
  5
FE
330
17
100
AcDbEntity
  8
0
 62
0
100
AcDbPolyline
 90
4
 70
1
 10
780.7426912960568
 20
226.58850065832678
 10
778.7810992013369
 20
241.39472932264653
 10
760.5274881933374
 20
239.64989885864657
 10
762.4065363853374
 20
225.42281969064686
  0
LWPOLYLINE
  5
FF
330
17
100
AcDbEntity
  8
0
 62
0
100
AcDbPolyline
 90
4
 70
1
 10
760.3932704653373
 20
225.55703741864693
 10
758.9168754573375
 20
240.05255204264654
 10
743.2134012813377
 20
239.9183343146466
 10
741.8712240013379
 20
225.82547287464683
  0
LWPOLYLINE
  5
100
330
17
100
AcDbEntity
  8
0
 62
0
100
AcDbPolyline
 90
4
 70
1
 10
740.1263935373378
 20
225.69125514664688
 10
741.6027885453377
 20
239.78411658664663
 10
724.908116448058
 20
242.22218161576643
 10
720.7990407053383
 20
226.8992146986468
  0
LWPOLYLINE
  5
101
330
17
100
AcDbEntity
  8
0
 62
0
100
AcDbPolyline
 90
4
 70
1
 10
718.8983834591302
 20
227.0953067992549
 10
723.502588400442
 20
242.90078644853452
 10
705.4980854956104
 20
248.32962511067842
 10
700.2066857869386
 20
231.90567017077478
  0
LWPOLYLINE
  5
102
330
17
100
AcDbEntity
  8
0
 62
0
100
AcDbPolyline
 90
4
 70
1
 10
698.6941593665609
 20
231.7919340680677
 10
703.6114902826389
 20
247.9082213852363
 10
688.7071292749291
 20
254.53679364667016
 10
680.1052162312483
 20
239.81568381149384
  0
LWPOLYLINE
  5
103
330
17
100
AcDbEntity
  8
0
 62
0
100
AcDbPolyline
 90
4
 70
1
 10
678.2153000327002
 20
240.36014471548424
 10
687.1008089053014
 20
254.5781910303897
 10
671.7800398411833
 20
263.80568152041906
 10
660.9667113719645
 20
249.1562377376921
  0
LWPOLYLINE
  5
104
330
17
100
AcDbEntity
  8
0
 62
0
100
AcDbPolyline
 90
4
 70
1
 10
659.7297607907165
 20
250.11831041199605
 10
670.6253304465633
 20
264.371418649072
 10
657.49418170278
 20
275.23378634298285
 10
644.1304395716448
 20
259.8077566317719
  0
LWPOLYLINE
  5
105
330
17
100
AcDbEntity
  8
0
 62
0
100
AcDbPolyline
 90
4
 70
1
 10
642.8548342847329
 20
260.9751824299158
 10
655.7397361727326
 20
275.7498699281555
 10
643.8856264357728
 20
287.77577835695524
 10
626.1044618303332
 20
276.6947627332754
  0
LWPOLYLINE
  5
106
330
17
100
AcDbEntity
  8
0
 62
0
100
AcDbPolyline
 90
5
 70
1
 10
642.3884276799329
 20
289.47463924911517
 10
625.5306810431332
 20
278.09297591471545
 10
615.5448820799334
 20
287.9714006955152
 10
613.6121467967334
 20
295.9170901931151
 10
635.623854188733
 20
297.849825476315
  0
LWPOLYLINE
  5
107
330
17
100
AcDbEntity
  8
0
 62
0
100
AcDbPolyline
 90
4
 70
1
 10
883.1101770164012
 20
283.7712115559567
 10
874.1175892404013
 20
276.52345424395685
 10
885.3344042329602
 20
265.78126370817824
 10
892.4812298135039
 20
277.46357475329773
  0
LWPOLYLINE
  5
108
330
17
100
AcDbEntity
  8
0
 62
0
100
AcDbPolyline
 90
5
 70
1
 10
857.0153146804018
 20
286.2185879399566
 10
864.2295175604016
 20
297.45932265995634
 10
887.5498478004012
 20
295.27828457995633
 10
884.3621767604012
 20
286.72190441995656
 10
871.1081761204015
 20
277.32666345995676
  0
LWPOLYLINE
  5
109
330
17
100
AcDbEntity
  8
0
 62
0
100
AcDbPolyline
 90
7
 70
1
 10
739.4793511348046
 20
57.58994000396149
 10
749.8141161908043
 20
49.93952950796165
 10
763.2358889908039
 20
57.58994000396149
 10
756.7934380468041
 20
64.30082640396131
 10
756.9276557748042
 20
71.68280144396113
 10
747.2639793588044
 20
71.01171280396113
 10
744.3111893428045
 20
64.56926185996127
  0
LWPOLYLINE
  5
10A
330
17
100
AcDbEntity
  8
0
 62
0
100
AcDbPolyline
 90
4
 70
1
 10
764.9807194548039
 20
56.38198045196151
 10
770.6178640308037
 20
47.255174947961734
 10
761.8937117108039
 20
37.72571625996193
 10
753.7064303028042
 20
49.53687632396168
  0
LWPOLYLINE
  5
10B
330
17
100
AcDbEntity
  8
0
 62
0
100
AcDbPolyline
 90
5
 70
1
 10
751.9615998388042
 20
48.865787683961685
 10
759.4777926068041
 20
36.51775670796195
 10
750.7536402868043
 20
31.6859184999621
 10
739.7477865908045
 20
39.87319990796186
 10
748.2035034548044
 20
48.19469904396169
  0
LWPOLYLINE
  5
10C
330
17
100
AcDbEntity
  8
0
 62
0
100
AcDbPolyline
 90
4
 70
1
 10
746.8613261748044
 20
49.53687632396168
 10
737.4660852148046
 20
40.812724003961875
 10
729.8156747188048
 20
47.38939267596169
 10
738.1371738548046
 20
55.71089181196152
  0
LWPOLYLINE
  5
10D
330
17
100
AcDbEntity
  8
0
 62
0
100
AcDbPolyline
 90
4
 70
1
 10
771.8929324468038
 20
46.28209641996165
 10
785.5831407028033
 20
33.397194531961986
 10
772.9666742708037
 20
19.841204003962332
 10
762.631909214804
 20
35.947331363961894
  0
LWPOLYLINE
  5
10E
330
17
100
AcDbEntity
  8
0
 62
0
100
AcDbPolyline
 90
4
 70
1
 10
761.558167390804
 20
34.06828317196198
 10
770.5507551668038
 20
19.17011536396234
 10
749.8812250548043
 20
10.98283395596252
 10
750.4180959668042
 20
29.23644496396207
  0
LWPOLYLINE
  5
10F
330
17
100
AcDbEntity
  8
0
 62
0
100
AcDbPolyline
 90
4
 70
1
 10
748.5390477748043
 20
30.981275427962032
 10
748.4048300468044
 20
11.25126941196254
 10
730.6880899508047
 20
21.049163555962252
 10
740.6202018228046
 20
35.27624272396196
  0
LWPOLYLINE
  5
110
330
17
100
AcDbEntity
  8
0
 62
0
100
AcDbPolyline
 90
4
 70
1
 10
739.4122422708045
 20
36.7526377319619
 10
729.2116949428048
 20
22.25712310796223
 10
716.729446238805
 20
33.397194531961986
 10
728.5406063028048
 20
45.61100777996171
  0
LWPOLYLINE
  5
111
330
17
100
AcDbEntity
  8
0
 62
0
100
AcDbPolyline
 90
4
 70
1
 10
787.5862145367997
 20
32.336142442000664
 10
803.9607773527997
 20
20.390764650000676
 10
788.3590861241553
 20
3.181927207658798
 10
777.9225381207998
 20
20.524982378000686
  0
LWPOLYLINE
  5
112
330
17
100
AcDbEntity
  8
0
 62
0
100
AcDbPolyline
 90
4
 70
1
 10
787.4195620281553
 20
1.571314471658806
 10
767.1526851001554
 20
1.1686612876588078
 10
762.236805778004
 20
13.643700413562385
 10
776.4974393780037
 20
19.85127033356224
  0
LWPOLYLINE
  5
113
330
17
100
AcDbEntity
  8
0
 62
0
100
AcDbPolyline
 90
5
 70
1
 10
760.2752346548042
 20
13.072541066362476
 10
749.0009455028045
 20
9.099696317562575
 10
748.0937677241554
 20
1.7055321996588053
 10
756.1468314041555
 20
1.4370967436588067
 10
764.6025482681554
 20
1.1686612876588078
  0
LWPOLYLINE
  5
114
330
17
100
AcDbEntity
  8
0
 62
0
100
AcDbPolyline
 90
4
 70
1
 10
747.6050811316045
 20
9.636567229562559
 10
745.8120663481556
 20
1.9739676556588042
 10
730.3770276281556
 20
1.8397499276588047
 10
736.4381661620048
 20
15.542147261562434
  0
LWPOLYLINE
  5
115
330
17
100
AcDbEntity
  8
0
 62
0
100
AcDbPolyline
 90
4
 70
1
 10
735.4475051116368
 20
16.506702963834357
 10
727.8268907961556
 20
1.0344435596588086
 10
714.0024648121556
 20
1.571314471658806
 10
723.7651940665171
 20
23.6363486751942
  0
LWPOLYLINE
  5
116
330
17
100
AcDbEntity
  8
0
 62
0
100
AcDbPolyline
 90
4
 70
1
 10
722.8203012613972
 20
25.268436247674174
 10
711.3181102521556
 20
1.1686612876588078
 10
698.0681129343986
 20
19.37984960133258
 10
715.0893601285973
 20
32.054484575354024
  0
LWPOLYLINE
  5
117
330
17
100
AcDbEntity
  8
0
 62
0
100
AcDbPolyline
 90
4
 70
1
 10
792.9224888761553
 20
6.403152679658783
 10
789.1984773286525
 20
1.03119709244497
 10
812.3913007270513
 20
1.9760898975649204
 10
800.0684632407997
 20
12.606136426000717
  0
LWPOLYLINE
  5
118
330
17
100
AcDbEntity
  8
0
 62
0
100
AcDbPolyline
 90
4
 70
1
 10
801.5448582487998
 20
14.216749162000724
 10
813.3867331282747
 20
4.319733261434806
 10
820.2586808018746
 20
11.19168093503464
 10
805.9740432727997
 20
19.31702282600071
  0
LWPOLYLINE
  5
119
330
17
100
AcDbEntity
  8
0
 62
0
100
AcDbPolyline
 90
4
 70
1
 10
856.2540240594735
 20
289.2380322950279
 10
838.428232059474
 20
299.0946466950277
 10
843.8808272594739
 20
301.8209442950275
 10
862.5454800594733
 20
298.67521629502767
  0
LWPOLYLINE
  5
11A
330
17
100
AcDbEntity
  8
0
 62
0
100
AcDbPolyline
 90
4
 70
1
 10
822.9198790354741
 20
9.93654775103488
 10
844.9429652376161
 20
4.79697073048637
 10
843.8434536098401
 20
1.0036556146593691
 10
814.3215664040562
 20
1.1685823588257604
  0
LWPOLYLINE
  5
11B
330
17
100
AcDbEntity
  8
0
 62
0
100
AcDbPolyline
 90
5
 70
1
 10
783.363398011475
 20
72.05576285503327
 10
758.3653461714757
 20
71.8879906950333
 10
759.0364348114757
 20
64.50601565503348
 10
770.6127138514755
 20
51.9231036550338
 10
788.396562811475
 20
62.660521895033526
  0
LWPOLYLINE
  5
11C
330
17
100
AcDbEntity
  8
0
 62
0
100
AcDbPolyline
 90
4
 70
1
 10
770.7804860114754
 20
89.16852317503282
 10
772.9615240914754
 20
73.90125661503322
 10
754.3388143314759
 20
73.56571229503322
 10
754.0032700114759
 20
88.32966237503285
  0
LWPOLYLINE
  5
11D
330
17
100
AcDbEntity
  8
0
 62
0
100
AcDbPolyline
 90
4
 70
1
 10
759.6608310994757
 20
147.18320016703137
 10
775.2300875474753
 20
151.61238519103125
 10
781.4041030354751
 20
133.22455645503175
 10
761.8083147474756
 20
128.66115370303186
  0
LWPOLYLINE
  5
11E
330
17
100
AcDbEntity
  8
0
 62
0
100
AcDbPolyline
 90
4
 70
1
 10
857.9685975844651
 20
84.9327956225211
 10
843.1939100862255
 20
96.88998457458479
 10
856.9378054334252
 20
107.6102229454005
 10
867.4518853740329
 20
102.11266480652063
  0
LWPOLYLINE
  5
11F
330
17
100
AcDbEntity
  8
0
 62
0
100
AcDbPolyline
 90
5
 70
1
 10
600.9307165750515
 20
295.0034545023543
 10
600.5112861750515
 20
275.499940902355
 10
616.2399261750509
 20
283.6788337023547
 10
613.723343775051
 20
285.98570090235455
 10
611.4164765750511
 20
295.0034545023543
  0
LWPOLYLINE
  5
120
330
17
100
AcDbEntity
  8
0
 62
0
100
AcDbPolyline
 90
4
 70
1
 10
899.054832543041
 20
295.56103479035426
 10
889.6595915830413
 20
295.4268170623543
 10
885.0961888310416
 20
284.5551810943547
 10
898.786397087041
 20
276.23368195835496
  0
LWPOLYLINE
  5
121
330
17
100
AcDbEntity
  8
0
 62
0
100
AcDbPolyline
 90
5
 70
1
 10
600.7090647798517
 20
148.2165214527592
 10
607.0172979958515
 20
148.2165214527592
 10
610.6411766518513
 20
138.41862730875954
 10
616.4125389558512
 20
132.51304727675978
 10
601.5143711478518
 20
125.26528996476003
  0
LWPOLYLINE
  5
122
330
17
100
AcDbEntity
  8
0
 62
0
100
AcDbPolyline
 90
5
 70
1
 10
898.7264891908266
 20
148.45662598498637
 10
894.370354784321
 20
148.4789433253991
 10
891.1920789852811
 20
142.03649238139934
 10
885.6086215004813
 20
134.9927460159596
 10
898.7264891908266
 20
127.06768885090747
  0
LWPOLYLINE
  5
123
330
17
100
AcDbEntity
  8
0
 62
0
100
AcDbPolyline
 90
4
 70
1
 10
693.5167150250998
 20
298.5356956167175
 10
678.9138262186998
 20
285.0494983072774
 10
664.5705013478389
 20
301.8945356301315
 10
680.6187358450497
 20
306.2311415719115
  0
LWPOLYLINE
  5
124
330
17
100
AcDbEntity
  8
0
 62
0
100
AcDbPolyline
 90
4
 70
1
 10
890.8190593459203
 20
202.87740653979694
 10
899.66669197568
 20
202.53380915611694
 10
898.97949720832
 20
183.5500537077977
 10
888.4997770060804
 20
184.32314782107767
  0
LWPOLYLINE
  5
125
330
17
100
AcDbEntity
  8
0
 62
0
100
AcDbPolyline
 90
4
 70
1
 10
607.9709579814513
 20
276.83355333019404
 10
601.7862050752115
 20
273.82707622299415
 10
600.5836142323316
 20
257.0767037685948
 10
614.327509579531
 20
263.26145667483456
  0
LWPOLYLINE
  5
126
330
17
100
AcDbEntity
  8
0
 62
0
100
AcDbPolyline
 90
4
 70
1
 10
893.7181803947518
 20
276.9138189394098
 10
900.5214085916156
 20
273.6840035328179
 10
898.8034216732157
 20
257.8098044068025
 10
886.7087937676802
 20
264.88791051061025
  0
LWPOLYLINE
  5
127
330
17
100
AcDbEntity
  8
0
 62
0
100
AcDbPolyline
 90
4
 70
1
 10
617.5159808000001
 20
131.03663871999998
 10
627.8239023104
 20
121.58771066880001
 10
616.2274906112
 20
113.53464698879998
 10
610.536658944
 20
127.60066488320001
  0
LWPOLYLINE
  5
128
330
17
100
AcDbEntity
  8
0
 62
0
100
AcDbPolyline
 90
4
 70
1
 10
602.81340291072
 20
123.56848908287998
 10
602.5557048729601
 20
108.87970093055998
 10
614.5816133017601
 20
113.00286953471999
 10
608.82635712512
 20
126.23136880639998
  0
LWPOLYLINE
  5
129
330
17
100
AcDbEntity
  8
0
 62
0
100
AcDbPolyline
 90
4
 70
1
 10
703.7042953705794
 20
8.401253502527846
 10
707.8985993705794
 20
1.8581392625279065
 10
675.3508003305797
 20
2.5292279025279
 10
695.7894622553445
 20
17.645751583072126
  0
ENDSEC
  0
SECTION
  2
OBJECTS
  0
DICTIONARY
  5
A
330
0
100
AcDbDictionary
281
1
  3
ACAD_COLOR
350
B
  3
ACAD_GROUP
350
C
  3
ACAD_LAYOUT
350
D
  3
ACAD_MATERIAL
350
E
  3
ACAD_MLEADERSTYLE
350
F
  3
ACAD_MLINESTYLE
350
10
  3
ACAD_PLOTSETTINGS
350
11
  3
ACAD_PLOTSTYLENAME
350
12
  3
ACAD_SCALELIST
350
14
  3
ACAD_TABLESTYLE
350
15
  3
ACAD_VISUALSTYLE
350
16
  3
EZDXF_META
350
2D
  0
DICTIONARY
  5
B
330
A
100
AcDbDictionary
281
1
  0
DICTIONARY
  5
C
330
A
100
AcDbDictionary
281
1
  0
DICTIONARY
  5
D
330
A
100
AcDbDictionary
281
1
  3
Model
350
1A
  3
Layout1
350
1E
  0
DICTIONARY
  5
E
330
A
100
AcDbDictionary
281
1
  3
ByBlock
350
1F
  3
ByLayer
350
20
  3
Global
350
21
  0
DICTIONARY
  5
F
330
A
100
AcDbDictionary
281
1
  3
Standard
350
2C
  0
DICTIONARY
  5
10
330
A
100
AcDbDictionary
281
1
  3
Standard
350
22
  0
DICTIONARY
  5
11
330
A
100
AcDbDictionary
281
1
  0
ACDBDICTIONARYWDFLT
  5
12
330
A
100
AcDbDictionary
281
1
  3
Normal
350
13
100
AcDbDictionaryWithDefault
340
13
  0
ACDBPLACEHOLDER
  5
13
330
12
  0
DICTIONARY
  5
14
330
A
100
AcDbDictionary
281
1
  0
DICTIONARY
  5
15
330
A
100
AcDbDictionary
281
1
  0
DICTIONARY
  5
16
330
A
100
AcDbDictionary
281
1
  0
LAYOUT
  5
1A
330
D
100
AcDbPlotSettings
  1

  4
A3
  6

 40
7.5
 41
20.0
 42
7.5
 43
20.0
 44
420.0
 45
297.0
 46
0.0
 47
0.0
 48
0.0
 49
0.0
140
0.0
141
0.0
142
1.0
143
1.0
 70
1024
 72
1
 73
0
 74
5
  7

 75
16
 76
0
 77
2
 78
300
147
1.0
148
0.0
149
0.0
100
AcDbLayout
  1
Model
 70
1
 71
0
 10
0.0
 20
0.0
 11
420.0
 21
297.0
 12
0.0
 22
0.0
 32
0.0
 14
1e+20
 24
1e+20
 34
1e+20
 15
-1e+20
 25
-1e+20
 35
-1e+20
146
0.0
 13
0.0
 23
0.0
 33
0.0
 16
1.0
 26
0.0
 36
0.0
 17
0.0
 27
1.0
 37
0.0
 76
1
330
17
  0
LAYOUT
  5
1E
330
D
100
AcDbPlotSettings
  1

  4
A3
  6

 40
7.5
 41
20.0
 42
7.5
 43
20.0
 44
420.0
 45
297.0
 46
0.0
 47
0.0
 48
0.0
 49
0.0
140
0.0
141
0.0
142
1.0
143
1.0
 70
0
 72
1
 73
0
 74
5
  7

 75
16
 76
0
 77
2
 78
300
147
1.0
148
0.0
149
0.0
100
AcDbLayout
  1
Layout1
 70
1
 71
1
 10
0.0
 20
0.0
 11
420.0
 21
297.0
 12
0.0
 22
0.0
 32
0.0
 14
1e+20
 24
1e+20
 34
1e+20
 15
-1e+20
 25
-1e+20
 35
-1e+20
146
0.0
 13
0.0
 23
0.0
 33
0.0
 16
1.0
 26
0.0
 36
0.0
 17
0.0
 27
1.0
 37
0.0
 76
1
330
1B
  0
MATERIAL
  5
1F
102
{ACAD_REACTORS
330
E
102
}
330
E
100
AcDbMaterial
  1
ByBlock
  2

 70
0
 40
1.0
 71
1
 41
1.0
 91
-1023410177
 42
1.0
 72
1
  3

 73
1
 74
1
 75
1
 44
0.5
 73
0
 45
1.0
 46
1.0
 77
1
  4

 78
1
 79
1
170
1
 48
1.0
171
1
  6

172
1
173
1
174
1
140
1.0
141
1.0
175
1
  7

176
1
177
1
178
1
143
1.0
179
1
  8

270
1
271
1
272
1
145
1.0
146
1.0
273
1
  9

274
1
275
1
276
1
 42
1.0
 72
1
  3

 73
1
 74
1
 75
1
 94
63
  0
MATERIAL
  5
20
102
{ACAD_REACTORS
330
E
102
}
330
E
100
AcDbMaterial
  1
ByLayer
  2

 70
0
 40
1.0
 71
1
 41
1.0
 91
-1023410177
 42
1.0
 72
1
  3

 73
1
 74
1
 75
1
 44
0.5
 73
0
 45
1.0
 46
1.0
 77
1
  4

 78
1
 79
1
170
1
 48
1.0
171
1
  6

172
1
173
1
174
1
140
1.0
141
1.0
175
1
  7

176
1
177
1
178
1
143
1.0
179
1
  8

270
1
271
1
272
1
145
1.0
146
1.0
273
1
  9

274
1
275
1
276
1
 42
1.0
 72
1
  3

 73
1
 74
1
 75
1
 94
63
  0
MATERIAL
  5
21
102
{ACAD_REACTORS
330
E
102
}
330
E
100
AcDbMaterial
  1
Global
  2

 70
0
 40
1.0
 71
1
 41
1.0
 91
-1023410177
 42
1.0
 72
1
  3

 73
1
 74
1
 75
1
 44
0.5
 73
0
 45
1.0
 46
1.0
 77
1
  4

 78
1
 79
1
170
1
 48
1.0
171
1
  6

172
1
173
1
174
1
140
1.0
141
1.0
175
1
  7

176
1
177
1
178
1
143
1.0
179
1
  8

270
1
271
1
272
1
145
1.0
146
1.0
273
1
  9

274
1
275
1
276
1
 42
1.0
 72
1
  3

 73
1
 74
1
 75
1
 94
63
  0
MLINESTYLE
  5
22
102
{ACAD_REACTORS
330
10
102
}
330
10
100
AcDbMlineStyle
  2
Standard
 70
0
  3

 62
256
 51
90.0
 52
90.0
 71
2
 49
0.5
 62
256
  6
BYLAYER
 49
-0.5
 62
256
  6
BYLAYER
  0
MLEADERSTYLE
  5
2C
102
{ACAD_REACTORS
330
F
102
}
330
F
100
AcDbMLeaderStyle
179
2
170
2
171
1
172
0
 90
2
 40
0.0
 41
0.0
173
1
 91
-1056964608
 92
-2
290
1
 42
2.0
291
1
 43
8.0
  3
Standard
 44
4.0
300

342
29
174
1
175
1
176
0
178
1
 93
-1056964608
 45
4.0
292
0
297
0
 46
4.0
 94
-1056964608
 47
1.0
 49
1.0
140
1.0
294
1
141
0.0
177
0
142
1.0
295
0
296
0
143
3.75
271
0
272
9
273
9
  0
DICTIONARY
  5
2D
330
A
100
AcDbDictionary
280
1
281
1
  3
CREATED_BY_EZDXF
350
2E
  3
WRITTEN_BY_EZDXF
350
12C
  0
DICTIONARYVAR
  5
2E
330
2D
100
DictionaryVariables
280
0
  1
1.4.2 @ 2025-09-02T11:43:58.401029+00:00
  0
DICTIONARYVAR
  5
12C
330
2D
100
DictionaryVariables
280
0
  1
1.4.2 @ 2025-09-02T11:43:58.416029+00:00
  0
ENDSEC
  0
EOF
