  0
SECTION
  2
HEADER
  9
$ACADVER
  1
AC1024
  9
$ACADMAINTVER
 70
6
  9
$DWGCODEPAGE
  3
ANSI_1252
  9
$LASTSAVEDBY
  1
ezdxf
  9
$INSBASE
 10
0.0
 20
0.0
 30
0.0
  9
$EXTMIN
 10
1e+20
 20
1e+20
 30
1e+20
  9
$EXTMAX
 10
-1e+20
 20
-1e+20
 30
-1e+20
  9
$LIMMIN
 10
0.0
 20
0.0
  9
$LIMMAX
 10
420.0
 20
297.0
  9
$ORTHOMODE
 70
0
  9
$REGENMODE
 70
1
  9
$FILLMODE
 70
1
  9
$QTEXTMODE
 70
0
  9
$MIRRTEXT
 70
1
  9
$LTSCALE
 40
1.0
  9
$ATTMODE
 70
1
  9
$TEXTSIZE
 40
2.5
  9
$TRACEWID
 40
1.0
  9
$TEXTSTYLE
  7
Standard
  9
$CLAYER
  8
0
  9
$CELTYPE
  6
ByLayer
  9
$CECOLOR
 62
256
  9
$CELTSCALE
 40
1.0
  9
$DISPSILH
 70
0
  9
$DIMSCALE
 40
1.0
  9
$DIMASZ
 40
2.5
  9
$DIMEXO
 40
0.625
  9
$DIMDLI
 40
3.75
  9
$DIMRND
 40
0.0
  9
$DIMDLE
 40
0.0
  9
$DIMEXE
 40
1.25
  9
$DIMTP
 40
0.0
  9
$DIMTM
 40
0.0
  9
$DIMTXT
 40
2.5
  9
$DIMCEN
 40
2.5
  9
$DIMTSZ
 40
0.0
  9
$DIMTOL
 70
0
  9
$DIMLIM
 70
0
  9
$DIMTIH
 70
0
  9
$DIMTOH
 70
0
  9
$DIMSE1
 70
0
  9
$DIMSE2
 70
0
  9
$DIMTAD
 70
1
  9
$DIMZIN
 70
8
  9
$DIMBLK
  1

  9
$DIMASO
 70
1
  9
$DIMSHO
 70
1
  9
$DIMPOST
  1

  9
$DIMAPOST
  1

  9
$DIMALT
 70
0
  9
$DIMALTD
 70
3
  9
$DIMALTF
 40
0.03937007874
  9
$DIMLFAC
 40
1.0
  9
$DIMTOFL
 70
1
  9
$DIMTVP
 40
0.0
  9
$DIMTIX
 70
0
  9
$DIMSOXD
 70
0
  9
$DIMSAH
 70
0
  9
$DIMBLK1
  1

  9
$DIMBLK2
  1

  9
$DIMSTYLE
  2
ISO-25
  9
$DIMCLRD
 70
0
  9
$DIMCLRE
 70
0
  9
$DIMCLRT
 70
0
  9
$DIMTFAC
 40
1.0
  9
$DIMGAP
 40
0.625
  9
$DIMJUST
 70
0
  9
$DIMSD1
 70
0
  9
$DIMSD2
 70
0
  9
$DIMTOLJ
 70
0
  9
$DIMTZIN
 70
8
  9
$DIMALTZ
 70
0
  9
$DIMALTTZ
 70
0
  9
$DIMUPT
 70
0
  9
$DIMDEC
 70
2
  9
$DIMTDEC
 70
2
  9
$DIMALTU
 70
2
  9
$DIMALTTD
 70
3
  9
$DIMTXSTY
  7
Standard
  9
$DIMAUNIT
 70
0
  9
$DIMADEC
 70
0
  9
$DIMALTRND
 40
0.0
  9
$DIMAZIN
 70
0
  9
$DIMDSEP
 70
44
  9
$DIMATFIT
 70
3
  9
$DIMFRAC
 70
0
  9
$DIMLDRBLK
  1

  9
$DIMLUNIT
 70
2
  9
$DIMLWD
 70
-2
  9
$DIMLWE
 70
-2
  9
$DIMTMOVE
 70
0
  9
$DIMFXL
 40
1.0
  9
$DIMFXLON
 70
0
  9
$DIMJOGANG
 40
0.785398163397
  9
$DIMTFILL
 70
0
  9
$DIMTFILLCLR
 70
0
  9
$DIMARCSYM
 70
0
  9
$DIMLTYPE
  6

  9
$DIMLTEX1
  6

  9
$DIMLTEX2
  6

  9
$DIMTXTDIRECTION
 70
0
  9
$LUNITS
 70
2
  9
$LUPREC
 70
4
  9
$SKETCHINC
 40
1.0
  9
$FILLETRAD
 40
10.0
  9
$AUNITS
 70
0
  9
$AUPREC
 70
2
  9
$MENU
  1
.
  9
$ELEVATION
 40
0.0
  9
$PELEVATION
 40
0.0
  9
$THICKNESS
 40
0.0
  9
$LIMCHECK
 70
0
  9
$CHAMFERA
 40
0.0
  9
$CHAMFERB
 40
0.0
  9
$CHAMFERC
 40
0.0
  9
$CHAMFERD
 40
0.0
  9
$SKPOLY
 70
0
  9
$TDCREATE
 40
2460921.6138657406
  9
$TDUCREATE
 40
2458532.153996898
  9
$TDUPDATE
 40
2460921.6138657406
  9
$TDUUPDATE
 40
2458532.1544311
  9
$TDINDWG
 40
0.0
  9
$TDUSRTIMER
 40
0.0
  9
$USRTIMER
 70
1
  9
$ANGBASE
 50
0.0
  9
$ANGDIR
 70
0
  9
$PDMODE
 70
0
  9
$PDSIZE
 40
0.0
  9
$PLINEWID
 40
0.0
  9
$SPLFRAME
 70
0
  9
$SPLINETYPE
 70
6
  9
$SPLINESEGS
 70
8
  9
$HANDSEED
  5
12E
  9
$SURFTAB1
 70
6
  9
$SURFTAB2
 70
6
  9
$SURFTYPE
 70
6
  9
$SURFU
 70
6
  9
$SURFV
 70
6
  9
$UCSBASE
  2

  9
$UCSNAME
  2

  9
$UCSORG
 10
0.0
 20
0.0
 30
0.0
  9
$UCSXDIR
 10
1.0
 20
0.0
 30
0.0
  9
$UCSYDIR
 10
0.0
 20
1.0
 30
0.0
  9
$UCSORTHOREF
  2

  9
$UCSORTHOVIEW
 70
0
  9
$UCSORGTOP
 10
0.0
 20
0.0
 30
0.0
  9
$UCSORGBOTTOM
 10
0.0
 20
0.0
 30
0.0
  9
$UCSORGLEFT
 10
0.0
 20
0.0
 30
0.0
  9
$UCSORGRIGHT
 10
0.0
 20
0.0
 30
0.0
  9
$UCSORGFRONT
 10
0.0
 20
0.0
 30
0.0
  9
$UCSORGBACK
 10
0.0
 20
0.0
 30
0.0
  9
$PUCSBASE
  2

  9
$PUCSNAME
  2

  9
$PUCSORG
 10
0.0
 20
0.0
 30
0.0
  9
$PUCSXDIR
 10
1.0
 20
0.0
 30
0.0
  9
$PUCSYDIR
 10
0.0
 20
1.0
 30
0.0
  9
$PUCSORTHOREF
  2

  9
$PUCSORTHOVIEW
 70
0
  9
$PUCSORGTOP
 10
0.0
 20
0.0
 30
0.0
  9
$PUCSORGBOTTOM
 10
0.0
 20
0.0
 30
0.0
  9
$PUCSORGLEFT
 10
0.0
 20
0.0
 30
0.0
  9
$PUCSORGRIGHT
 10
0.0
 20
0.0
 30
0.0
  9
$PUCSORGFRONT
 10
0.0
 20
0.0
 30
0.0
  9
$PUCSORGBACK
 10
0.0
 20
0.0
 30
0.0
  9
$USERI1
 70
0
  9
$USERI2
 70
0
  9
$USERI3
 70
0
  9
$USERI4
 70
0
  9
$USERI5
 70
0
  9
$USERR1
 40
0.0
  9
$USERR2
 40
0.0
  9
$USERR3
 40
0.0
  9
$USERR4
 40
0.0
  9
$USERR5
 40
0.0
  9
$WORLDVIEW
 70
1
  9
$SHADEDGE
 70
3
  9
$SHADEDIF
 70
70
  9
$TILEMODE
 70
1
  9
$MAXACTVP
 70
64
  9
$PINSBASE
 10
0.0
 20
0.0
 30
0.0
  9
$PLIMCHECK
 70
0
  9
$PEXTMIN
 10
1e+20
 20
1e+20
 30
1e+20
  9
$PEXTMAX
 10
-1e+20
 20
-1e+20
 30
-1e+20
  9
$PLIMMIN
 10
0.0
 20
0.0
  9
$PLIMMAX
 10
420.0
 20
297.0
  9
$UNITMODE
 70
0
  9
$VISRETAIN
 70
1
  9
$PLINEGEN
 70
0
  9
$PSLTSCALE
 70
1
  9
$TREEDEPTH
 70
3020
  9
$CMLSTYLE
  2
Standard
  9
$CMLJUST
 70
0
  9
$CMLSCALE
 40
20.0
  9
$PROXYGRAPHICS
 70
1
  9
$MEASUREMENT
 70
1
  9
$CELWEIGHT
370
-1
  9
$ENDCAPS
280
0
  9
$JOINSTYLE
280
0
  9
$LWDISPLAY
290
0
  9
$INSUNITS
 70
6
  9
$HYPERLINKBASE
  1

  9
$STYLESHEET
  1

  9
$XEDIT
290
1
  9
$CEPSNTYPE
380
0
  9
$PSTYLEMODE
290
1
  9
$FINGERPRINTGUID
  2
{541B2023-08D3-4264-BEEE-03426F986D9F}
  9
$VERSIONGUID
  2
{4F48ACB3-05E6-4448-845B-3D5D2A49E8CE}
  9
$EXTNAMES
290
1
  9
$PSVPSCALE
 40
0.0
  9
$OLESTARTUP
290
0
  9
$SORTENTS
280
127
  9
$INDEXCTL
280
0
  9
$HIDETEXT
280
1
  9
$XCLIPFRAME
280
1
  9
$HALOGAP
280
0
  9
$OBSCOLOR
 70
257
  9
$OBSLTYPE
280
0
  9
$INTERSECTIONDISPLAY
280
0
  9
$INTERSECTIONCOLOR
 70
257
  9
$DIMASSOC
280
2
  9
$PROJECTNAME
  1

  9
$CAMERADISPLAY
290
0
  9
$LENSLENGTH
 40
50.0
  9
$CAMERAHEIGHT
 40
0.0
  9
$STEPSPERSEC
 40
24.0
  9
$STEPSIZE
 40
100.0
  9
$3DDWFPREC
 40
2.0
  9
$PSOLWIDTH
 40
0.005
  9
$PSOLHEIGHT
 40
0.08
  9
$LOFTANG1
 40
1.570796326795
  9
$LOFTANG2
 40
1.570796326795
  9
$LOFTMAG1
 40
0.0
  9
$LOFTMAG2
 40
0.0
  9
$LOFTPARAM
 70
7
  9
$LOFTNORMALS
280
1
  9
$LATITUDE
 40
37.795
  9
$LONGITUDE
 40
-122.394
  9
$NORTHDIRECTION
 40
0.0
  9
$TIMEZONE
 70
-8000
  9
$LIGHTGLYPHDISPLAY
280
1
  9
$TILEMODELIGHTSYNCH
280
1
  9
$CMATERIAL
347
20
  9
$SOLIDHIST
280
0
  9
$SHOWHIST
280
1
  9
$DWFFRAME
280
2
  9
$DGNFRAME
280
2
  9
$REALWORLDSCALE
290
1
  9
$INTERFERECOLOR
 62
256
  9
$CSHADOW
280
0
  9
$SHADOWPLANELOCATION
 40
0.0
  0
ENDSEC
  0
SECTION
  2
CLASSES
  0
CLASS
  1
ACDBDICTIONARYWDFLT
  2
AcDbDictionaryWithDefault
  3
ObjectDBX Classes
 90
0
 91
0
280
0
281
0
  0
CLASS
  1
SUN
  2
AcDbSun
  3
SCENEOE
 90
1153
 91
0
280
0
281
0
  0
CLASS
  1
VISUALSTYLE
  2
AcDbVisualStyle
  3
ObjectDBX Classes
 90
4095
 91
0
280
0
281
0
  0
CLASS
  1
MATERIAL
  2
AcDbMaterial
  3
ObjectDBX Classes
 90
1153
 91
0
280
0
281
0
  0
CLASS
  1
SCALE
  2
AcDbScale
  3
ObjectDBX Classes
 90
1153
 91
0
280
0
281
0
  0
CLASS
  1
TABLESTYLE
  2
AcDbTableStyle
  3
ObjectDBX Classes
 90
4095
 91
0
280
0
281
0
  0
CLASS
  1
MLEADERSTYLE
  2
AcDbMLeaderStyle
  3
ACDB_MLEADERSTYLE_CLASS
 90
4095
 91
0
280
0
281
0
  0
CLASS
  1
DICTIONARYVAR
  2
AcDbDictionaryVar
  3
ObjectDBX Classes
 90
0
 91
0
280
0
281
0
  0
CLASS
  1
CELLSTYLEMAP
  2
AcDbCellStyleMap
  3
ObjectDBX Classes
 90
1152
 91
0
280
0
281
0
  0
CLASS
  1
MENTALRAYRENDERSETTINGS
  2
AcDbMentalRayRenderSettings
  3
SCENEOE
 90
1024
 91
0
280
0
281
0
  0
CLASS
  1
ACDBDETAILVIEWSTYLE
  2
AcDbDetailViewStyle
  3
ObjectDBX Classes
 90
1025
 91
0
280
0
281
0
  0
CLASS
  1
ACDBSECTIONVIEWSTYLE
  2
AcDbSectionViewStyle
  3
ObjectDBX Classes
 90
1025
 91
0
280
0
281
0
  0
CLASS
  1
RASTERVARIABLES
  2
AcDbRasterVariables
  3
ISM
 90
0
 91
0
280
0
281
0
  0
CLASS
  1
LAYOUT
  2
AcDbLayout
  3
ObjectDBX Classes
 90
0
 91
0
280
0
281
0
  0
CLASS
  1
ACDBPLACEHOLDER
  2
AcDbPlaceHolder
  3
ObjectDBX Classes
 90
0
 91
0
280
0
281
0
  0
ENDSEC
  0
SECTION
  2
TABLES
  0
TABLE
  2
VPORT
  5
8
330
0
100
AcDbSymbolTable
 70
1
  0
VPORT
  5
23
330
8
100
AcDbSymbolTableRecord
100
AcDbViewportTableRecord
  2
*Active
 70
0
 10
0.0
 20
0.0
 11
1.0
 21
1.0
 12
0.0
 22
0.0
 13
0.0
 23
0.0
 14
0.5
 24
0.5
 15
0.5
 25
0.5
 16
0.0
 26
0.0
 36
1.0
 17
0.0
 27
0.0
 37
0.0
 40
1000.0
 41
1.34
 42
50.0
 43
0.0
 44
0.0
 50
0.0
 51
0.0
 71
0
 72
1000
 73
1
 74
3
 75
0
 76
0
 77
0
 78
0
281
0
 65
0
146
0.0
  0
ENDTAB
  0
TABLE
  2
LTYPE
  5
2
330
0
100
AcDbSymbolTable
 70
3
  0
LTYPE
  5
24
330
2
100
AcDbSymbolTableRecord
100
AcDbLinetypeTableRecord
  2
ByBlock
 70
0
  3

 72
65
 73
0
 40
0.0
  0
LTYPE
  5
25
330
2
100
AcDbSymbolTableRecord
100
AcDbLinetypeTableRecord
  2
ByLayer
 70
0
  3

 72
65
 73
0
 40
0.0
  0
LTYPE
  5
26
330
2
100
AcDbSymbolTableRecord
100
AcDbLinetypeTableRecord
  2
Continuous
 70
0
  3

 72
65
 73
0
 40
0.0
  0
ENDTAB
  0
TABLE
  2
LAYER
  5
1
330
0
100
AcDbSymbolTable
 70
2
  0
LAYER
  5
27
330
1
100
AcDbSymbolTableRecord
100
AcDbLayerTableRecord
  2
0
 70
0
 62
7
  6
Continuous
370
-3
390
13
347
21
  0
LAYER
  5
28
330
1
100
AcDbSymbolTableRecord
100
AcDbLayerTableRecord
  2
Defpoints
 70
0
 62
7
  6
Continuous
290
0
370
-3
390
13
347
21
  0
ENDTAB
  0
TABLE
  2
STYLE
  5
5
330
0
100
AcDbSymbolTable
 70
1
  0
STYLE
  5
29
330
5
100
AcDbSymbolTableRecord
100
AcDbTextStyleTableRecord
  2
Standard
 70
0
 40
0.0
 41
1.0
 50
0.0
 71
0
 42
2.5
  3
txt
  4

  0
ENDTAB
  0
TABLE
  2
VIEW
  5
7
330
0
100
AcDbSymbolTable
 70
0
  0
ENDTAB
  0
TABLE
  2
UCS
  5
6
330
0
100
AcDbSymbolTable
 70
0
  0
ENDTAB
  0
TABLE
  2
APPID
  5
3
330
0
100
AcDbSymbolTable
 70
3
  0
APPID
  5
2A
330
3
100
AcDbSymbolTableRecord
100
AcDbRegAppTableRecord
  2
ACAD
 70
0
  0
APPID
  5
12B
330
3
100
AcDbSymbolTableRecord
100
AcDbRegAppTableRecord
  2
HATCHBACKGROUNDCOLOR
 70
0
  0
APPID
  5
12C
330
3
100
AcDbSymbolTableRecord
100
AcDbRegAppTableRecord
  2
EZDXF
 70
0
  0
ENDTAB
  0
TABLE
  2
DIMSTYLE
  5
4
330
0
100
AcDbSymbolTable
 70
1
100
AcDbDimStyleTable
  0
DIMSTYLE
105
2B
330
4
100
AcDbSymbolTableRecord
100
AcDbDimStyleTableRecord
  2
Standard
 70
0
 40
1.0
 41
2.5
 42
0.625
 43
3.75
 44
1.25
 45
0.0
 46
0.0
 47
0.0
 48
0.0
 49
2.5
140
2.5
141
2.5
142
0.0
143
0.03937007874
144
1.0
145
0.0
146
1.0
147
0.625
148
0.0
 69
0
 70
0
 71
0
 72
0
 73
0
 74
0
 75
0
 76
0
 77
1
 78
8
 79
3
170
0
171
3
172
1
173
0
174
0
175
0
176
0
177
0
178
0
179
2
271
2
272
2
273
2
274
3
275
0
276
0
277
2
278
44
279
0
280
0
281
0
282
0
283
0
284
8
285
0
286
0
288
0
289
3
290
0
371
-2
372
-2
  0
ENDTAB
  0
TABLE
  2
BLOCK_RECORD
  5
9
330
0
100
AcDbSymbolTable
 70
2
  0
BLOCK_RECORD
  5
17
330
9
100
AcDbSymbolTableRecord
100
AcDbBlockTableRecord
  2
*Model_Space
340
1A
 70
0
280
1
281
0
  0
BLOCK_RECORD
  5
1B
330
9
100
AcDbSymbolTableRecord
100
AcDbBlockTableRecord
  2
*Paper_Space
340
1E
 70
0
280
1
281
0
  0
ENDTAB
  0
ENDSEC
  0
SECTION
  2
BLOCKS
  0
BLOCK
  5
18
330
17
100
AcDbEntity
  8
0
100
AcDbBlockBegin
  2
*Model_Space
 70
0
 10
0.0
 20
0.0
 30
0.0
  3
*Model_Space
  1

  0
ENDBLK
  5
19
330
17
100
AcDbEntity
  8
0
100
AcDbBlockEnd
  0
BLOCK
  5
1C
330
1B
100
AcDbEntity
  8
0
100
AcDbBlockBegin
  2
*Paper_Space
 70
0
 10
0.0
 20
0.0
 30
0.0
  3
*Paper_Space
  1

  0
ENDBLK
  5
1D
330
1B
100
AcDbEntity
  8
0
100
AcDbBlockEnd
  0
ENDSEC
  0
SECTION
  2
ENTITIES
  0
TEXT
  5
2F
330
17
100
AcDbEntity
  8
0
100
AcDbText
 10
0.0
 20
0.0
 30
0.0
 40
10.0
  1
Grid Box C1
100
AcDbText
  0
LWPOLYLINE
  5
30
330
17
100
AcDbEntity
  8
0
 62
8
100
AcDbPolyline
 90
5
 70
0
 10
-20.0
 20
580.0
 10
320.0
 20
580.0
 10
320.0
 20
920.0
 10
-20.0
 20
920.0
 10
-20.0
 20
580.0
  0
LWPOLYLINE
  5
31
330
17
100
AcDbEntity
  8
0
 62
0
100
AcDbPolyline
 90
4
 70
1
 10
220.8585229312
 20
763.4914438144001
 10
206.68513085440003
 20
771.974004224
 10
193.4070746408188
 20
759.280720974124
 10
202.0987164207234
 20
745.9026996957065
  0
LWPOLYLINE
  5
32
330
17
100
AcDbEntity
  8
0
 62
0
100
AcDbPolyline
 90
4
 70
1
 10
200.96969233467462
 20
744.2757086342315
 10
191.57443139200097
 20
758.7923243239524
 10
177.20789042986246
 20
751.6864398515121
 10
182.82345550907507
 20
734.5046580358317
  0
LWPOLYLINE
  5
33
330
17
100
AcDbEntity
  8
0
 62
0
100
AcDbPolyline
 90
4
 70
1
 10
160.27487720507565
 20
728.1695812742319
 10
157.8036087917693
 20
746.8269619631833
 10
141.80651783227614
 20
746.3158180998314
 10
139.44428581947625
 20
727.8474587270318
  0
LWPOLYLINE
  5
34
330
17
100
AcDbEntity
  8
0
 62
0
100
AcDbPolyline
 90
4
 70
1
 10
137.29680217147626
 20
728.8138263686319
 10
139.62555893945864
 20
746.9358431902431
 10
124.79694118834942
 20
749.6666190176629
 10
116.68095915067681
 20
733.9677871238317
  0
LWPOLYLINE
  5
35
330
17
100
AcDbEntity
  8
0
 62
0
100
AcDbPolyline
 90
4
 70
1
 10
116.16718885081343
 20
736.821609669875
 10
122.22471460716957
 20
751.3805740074379
 10
109.10949167879193
 20
759.4019492335228
 10
98.62247597399062
 20
747.2982844720196
  0
LWPOLYLINE
  5
36
330
17
100
AcDbEntity
  8
0
 62
0
100
AcDbPolyline
 90
4
 70
1
 10
97.39320352452017
 20
747.4882117238068
 10
107.2493714896051
 20
761.1099354519956
 10
99.70390402499294
 20
772.920979592548
 10
83.55650385738693
 20
762.8415020083323
  0
LWPOLYLINE
  5
37
330
17
100
AcDbEntity
  8
0
 62
0
100
AcDbPolyline
 90
4
 70
1
 10
240.61537249280002
 20
755.5457543168002
 10
223.20679746217127
 20
763.6595043174249
 10
211.64561360896028
 20
750.6072549580801
 10
224.74526386176024
 20
736.5412370636801
  0
LWPOLYLINE
  5
38
330
17
100
AcDbEntity
  8
0
 62
0
100
AcDbPolyline
 90
4
 70
1
 10
223.02727694336022
 20
735.2527468748801
 10
210.67924596736026
 20
749.31876476928
 10
198.43858917376025
 20
739.8698367180801
 10
207.88751722496028
 20
723.6563351756802
  0
LWPOLYLINE
  5
39
330
17
100
AcDbEntity
  8
0
 62
0
100
AcDbPolyline
 90
4
 70
1
 10
206.0688691144677
 20
722.8559758444585
 10
197.63145648499727
 20
737.7447137772251
 10
182.16236729407956
 20
731.4729013689958
 10
187.08702690095583
 20
715.1635537638736
  0
LWPOLYLINE
  5
3A
330
17
100
AcDbEntity
  8
0
 62
0
100
AcDbPolyline
 90
4
 70
1
 10
185.15859669915397
 20
715.7150333536587
 10
180.46122349627512
 20
730.6391874694318
 10
163.5270860053842
 20
726.8964820515399
 10
166.7284234584833
 20
712.1723728744544
  0
LWPOLYLINE
  5
3B
330
17
100
AcDbEntity
  8
0
 62
0
100
AcDbPolyline
 90
4
 70
1
 10
165.10671541307556
 20
711.0970862726324
 10
161.56336739387564
 20
726.0220976262319
 10
145.13511748667605
 20
724.8409816198321
 10
144.49087239227612
 20
709.2717251718324
  0
LWPOLYLINE
  5
3C
330
17
100
AcDbEntity
  8
0
 62
0
100
AcDbPolyline
 90
4
 70
1
 10
142.7559229955188
 20
709.7989449349468
 10
143.2836628373729
 20
725.6280799692126
 10
127.76155114045145
 20
728.8568589949407
 10
123.66028100667666
 20
712.2782022790323
  0
LWPOLYLINE
  5
3D
330
17
100
AcDbEntity
  8
0
 62
0
100
AcDbPolyline
 90
4
 70
1
 10
122.23592155931004
 20
712.9445026024366
 10
126.00848242858018
 20
728.7616602911016
 10
109.63951629637239
 20
734.0590549377547
 10
102.91350491451863
 20
721.1077278903565
  0
LWPOLYLINE
  5
3E
330
17
100
AcDbEntity
  8
0
 62
0
100
AcDbPolyline
 90
4
 70
1
 10
100.60819116467337
 20
721.8869325779349
 10
109.26377759471427
 20
735.5518751892905
 10
95.05546950232275
 20
744.416819804805
 10
85.13337216383013
 20
731.499371503679
  0
LWPOLYLINE
  5
3F
330
17
100
AcDbEntity
  8
0
 62
0
100
AcDbPolyline
 90
4
 70
1
 10
83.64743722435327
 20
731.9751773115887
 10
94.90025153987307
 20
747.0934621935085
 10
84.76412872131323
 20
758.0026791253483
 10
70.24713926083348
 20
746.7498648098285
  0
LWPOLYLINE
  5
40
330
17
100
AcDbEntity
  8
0
 62
0
100
AcDbPolyline
 90
4
 70
1
 10
205.19363635199994
 20
772.8380308480002
 10
188.95329126399992
 20
782.7701427200002
 10
186.5076584919089
 20
780.398807558002
 10
198.52527201640106
 20
767.6966155671112
  0
LWPOLYLINE
  5
41
330
17
100
AcDbEntity
  8
0
 62
0
100
AcDbPolyline
 90
4
 70
1
 10
197.96321522747468
 20
766.0726676614308
 10
184.86356497467506
 20
779.3870662790305
 10
171.75661765859087
 20
771.2637747726662
 10
179.70960421947518
 20
754.5836301446311
  0
LWPOLYLINE
  5
42
330
17
100
AcDbEntity
  8
0
 62
0
100
AcDbPolyline
 90
4
 70
1
 10
177.45474638907524
 20
753.6172625030313
 10
170.06301141694945
 20
771.0988701416329
 10
155.73215737869737
 20
767.6223516922173
 10
158.12739355707572
 20
748.6780501126314
  0
LWPOLYLINE
  5
43
330
17
100
AcDbEntity
  8
0
 62
0
100
AcDbPolyline
 90
4
 70
1
 10
155.5504131794758
 20
748.4633017478313
 10
153.995660313776
 20
767.2450423977784
 10
139.03557687645997
 20
768.9681110305091
 10
134.61244761147634
 20
749.7517919366313
  0
LWPOLYLINE
  5
44
330
17
100
AcDbEntity
  8
0
 62
0
100
AcDbPolyline
 90
4
 70
1
 10
132.1401949299124
 20
750.9368237231222
 10
137.83367308347624
 20
770.0455124102308
 10
122.96918479551732
 20
774.8629886245665
 10
112.54647948728052
 20
760.4276148807962
  0
LWPOLYLINE
  5
45
330
17
100
AcDbEntity
  8
0
 62
0
100
AcDbPolyline
 90
4
 70
1
 10
110.62355520890617
 20
762.0036978090476
 10
121.28315812173622
 20
775.3321691196644
 10
114.23858124800012
 20
784.0477277184
 10
101.2463051776001
 20
773.3103094784001
  0
LWPOLYLINE
  5
46
330
17
100
AcDbEntity
  8
0
 62
0
100
AcDbPolyline
 90
4
 70
1
 10
262.91086004983515
 20
748.9477739809095
 10
242.75075001339053
 20
755.904807280396
 10
232.58357917696026
 20
743.19843637248
 10
248.15283562496018
 20
731.06515376128
  0
LWPOLYLINE
  5
47
330
17
100
AcDbEntity
  8
0
 62
0
100
AcDbPolyline
 90
4
 70
1
 10
245.98408161279997
 20
728.9169570816001
 10
232.47620499456025
 20
740.8362043596801
 10
219.32220565876594
 20
729.9530690564998
 10
230.2213471641602
 20
715.92539404288
  0
LWPOLYLINE
  5
48
330
17
100
AcDbEntity
  8
0
 62
0
100
AcDbPolyline
 90
4
 70
1
 10
227.9690882223549
 20
715.6100823939742
 10
218.5921285010852
 20
727.2724269887852
 10
204.30846000764666
 20
720.0375823927627
 10
212.57197442514712
 20
705.0136311097014
  0
LWPOLYLINE
  5
49
330
17
100
AcDbEntity
  8
0
 62
0
100
AcDbPolyline
 90
4
 70
1
 10
210.37460842496023
 20
703.7007542476802
 10
203.17905629948882
 20
718.554326795485
 10
187.2672951834835
 20
713.2205044961154
 10
191.90093390807692
 20
695.6479745204642
  0
LWPOLYLINE
  5
4A
330
17
100
AcDbEntity
  8
0
 62
0
100
AcDbPolyline
 90
4
 70
1
 10
189.9918688396719
 20
697.2563599722093
 10
185.24449604507396
 20
714.1688451270986
 10
169.095419012114
 20
710.3892739066187
 10
171.21754502607286
 20
691.1755549301977
  0
LWPOLYLINE
  5
4B
330
17
100
AcDbEntity
  8
0
 62
0
100
AcDbPolyline
 90
4
 70
1
 10
169.7630312712347
 20
690.8956708208441
 10
167.20563340187402
 20
709.9597771770186
 10
149.6821668341941
 20
708.1558909126986
 10
149.6821668341941
 20
690.0311289235788
  0
LWPOLYLINE
  5
4C
330
17
100
AcDbEntity
  8
0
 62
0
100
AcDbPolyline
 90
4
 70
1
 10
147.633703857088
 20
689.7127386437647
 10
147.48272108214007
 20
707.620502343297
 10
131.31213746640816
 20
708.1722195870376
 10
129.55447087001193
 20
690.0977097731571
  0
LWPOLYLINE
  5
4D
330
17
100
AcDbEntity
  8
0
 62
0
100
AcDbPolyline
 90
4
 70
1
 10
126.45842484880075
 20
691.7115378909502
 10
129.73036602267427
 20
709.0168976378186
 10
114.35438310299435
 20
713.1400662419786
 10
108.25552954267437
 20
696.8191905171786
  0
LWPOLYLINE
  5
4E
330
17
100
AcDbEntity
  8
0
 62
0
100
AcDbPolyline
 90
4
 70
1
 10
106.72463352563716
 20
698.0728637861857
 10
112.33466108480275
 20
713.0037876970575
 10
97.5901560236216
 20
720.7019148478794
 10
88.80694458668182
 20
706.8015128743531
  0
LWPOLYLINE
  5
4F
330
17
100
AcDbEntity
  8
0
 62
0
100
AcDbPolyline
 90
4
 70
1
 10
86.55596864861974
 20
707.5588342476361
 10
95.7209862564024
 20
721.0867439176009
 10
82.30694439753523
 20
731.0922997303626
 10
71.31834908907501
 20
717.8591208993163
  0
LWPOLYLINE
  5
50
330
17
100
AcDbEntity
  8
0
 62
0
100
AcDbPolyline
 90
4
 70
1
 10
69.35775275040811
 20
717.9139081250112
 10
80.87757928142645
 20
733.2913229859146
 10
70.37724323616567
 20
744.5063415892296
 10
55.35697305136296
 20
732.8241343405825
  0
LWPOLYLINE
  5
51
330
17
100
AcDbEntity
  8
0
 62
0
100
AcDbPolyline
 90
4
 70
1
 10
54.60880108416637
 20
733.9095903952968
 10
68.1921386598857
 20
745.3073198638115
 10
63.07991258563362
 20
755.9035138594281
 10
44.525653866913956
 20
748.0866733807084
  0
LWPOLYLINE
  5
52
330
17
100
AcDbEntity
  8
0
 62
0
100
AcDbPolyline
 90
4
 70
1
 10
187.74533171199994
 20
784.3807554560002
 10
173.78668799999997
 20
795.5208268800002
 10
166.62418551790478
 20
791.1241754030361
 10
175.42921212987528
 20
774.9721418886306
  0
LWPOLYLINE
  5
53
330
17
100
AcDbEntity
  8
0
 62
0
100
AcDbPolyline
 90
4
 70
1
 10
173.81859939387533
 20
774.2205226118307
 10
165.87867552503445
 20
789.1951681376961
 10
152.2640761481399
 20
781.7671135725891
 10
151.49098203485988
 20
768.8822116845892
  0
LWPOLYLINE
  5
54
330
17
100
AcDbEntity
  8
0
 62
0
100
AcDbPolyline
 90
4
 70
1
 10
149.68765612374239
 20
769.4721434295661
 10
149.77299511645992
 20
782.110710956269
 10
135.23891421419302
 20
789.9659423286253
 10
127.41837739067654
 20
775.0920989830306
  0
LWPOLYLINE
  5
55
330
17
100
AcDbEntity
  8
0
 62
0
100
AcDbPolyline
 90
4
 70
1
 10
282.5094806937601
 20
732.9136097484801
 10
263.18212786176014
 20
745.04689235968
 10
253.81767269370482
 20
733.7223627330034
 10
269.4129237401602
 20
720.4351097036802
  0
LWPOLYLINE
  5
56
330
17
100
AcDbEntity
  8
0
 62
0
100
AcDbPolyline
 90
4
 70
1
 10
268.0170593689602
 20
719.3613678796801
 10
252.50305652464453
 20
731.3044931545587
 10
240.94628206211462
 20
720.7165160930413
 10
253.62891892736025
 20
706.79858853888
  0
LWPOLYLINE
  5
57
330
17
100
AcDbEntity
  8
0
 62
0
100
AcDbPolyline
 90
4
 70
1
 10
252.23305455616025
 20
705.5100983500802
 10
238.91865593856028
 20
720.1129871564801
 10
224.63788967936023
 20
709.69769146368
 10
235.16055955456022
 20
694.0210608332801
  0
LWPOLYLINE
  5
58
330
17
100
AcDbEntity
  8
0
 62
0
100
AcDbPolyline
 90
4
 70
1
 10
233.31779810234514
 20
693.3680925273005
 10
223.29741305255686
 20
707.9658260710253
 10
208.22749100236535
 20
700.122582553995
 10
216.85504668160024
 20
685.1834866303998
  0
LWPOLYLINE
  5
59
330
17
100
AcDbEntity
  8
0
 62
0
100
AcDbPolyline
 90
4
 70
1
 10
214.77694990336022
 20
684.0512788684802
 10
207.0756978679517
 20
698.5372364054168
 10
192.65786832896026
 20
693.7149552844801
 10
196.2012163481603
 20
677.5014537420802
  0
LWPOLYLINE
  5
5A
330
17
100
AcDbEntity
  8
0
 62
0
100
AcDbPolyline
 90
4
 70
1
 10
194.5906036121603
 20
677.2867053772802
 10
190.2956363161603
 20
693.9297036492801
 10
172.9010187673603
 20
689.5273621708802
 10
174.9411282329603
 20
673.4212348108802
  0
LWPOLYLINE
  5
5B
330
17
100
AcDbEntity
  8
0
 62
0
100
AcDbPolyline
 90
4
 70
1
 10
152.81861032285963
 20
672.5190389860682
 10
152.5437324159156
 20
687.9122017749321
 10
136.7657405573301
 20
688.242055263265
 10
134.01696148789011
 20
673.5635750324554
  0
LWPOLYLINE
  5
5C
330
17
100
AcDbEntity
  8
0
 62
0
100
AcDbPolyline
 90
4
 70
1
 10
132.44328547063577
 20
673.7010139859274
 10
133.92762616813332
 20
687.8847139842378
 10
118.58943896065819
 20
691.403151193121
 10
114.1913924495542
 20
675.1303791020362
  0
LWPOLYLINE
  5
5D
330
17
100
AcDbEntity
  8
0
 62
0
100
AcDbPolyline
 90
4
 70
1
 10
112.38850360221505
 20
675.143851462372
 10
116.90758345463593
 20
692.076655752225
 10
100.37195936503599
 20
697.4453648722249
 10
93.7069390584818
 20
682.2243654740237
  0
LWPOLYLINE
  5
5E
330
17
100
AcDbEntity
  8
0
 62
0
100
AcDbPolyline
 90
4
 70
1
 10
92.16790463939316
 20
682.3281658811899
 10
99.51897214916403
 20
699.3091122432329
 10
83.30117563946811
 20
706.387218347041
 10
73.43655236812856
 20
690.7054462197761
  0
LWPOLYLINE
  5
5F
330
17
100
AcDbEntity
  8
0
 62
0
100
AcDbPolyline
 90
4
 70
1
 10
71.85600440320053
 20
692.0798357544962
 10
82.47654191863609
 20
707.6928884050249
 10
69.69471924574015
 20
715.8017866598728
 10
56.256683184128576
 20
701.2195261603842
  0
LWPOLYLINE
  5
60
330
17
100
AcDbEntity
  8
0
 62
0
100
AcDbPolyline
 90
4
 70
1
 10
54.74485469593657
 20
702.0441598812162
 10
67.6892379539641
 20
716.7917766216009
 10
54.70281141411169
 20
729.475097259859
 10
39.35169190707262
 20
714.4136656936962
  0
LWPOLYLINE
  5
61
330
17
100
AcDbEntity
  8
0
 62
0
100
AcDbPolyline
 90
4
 70
1
 10
38.006024966144594
 20
715.2587005091841
 10
53.87662313002818
 20
731.2915862128968
 10
43.51468997714966
 20
743.8756834121025
 10
23.437495898112616
 20
727.7656452751361
  0
LWPOLYLINE
  5
62
330
17
100
AcDbEntity
  8
0
 62
0
100
AcDbPolyline
 90
4
 70
1
 10
173.13761720669982
 20
797.143096492269
 10
162.40019896669986
 20
807.708716040429
 10
153.5525663369399
 20
801.0085670586691
 10
162.05660158301987
 20
789.7557527431491
  0
LWPOLYLINE
  5
63
330
17
100
AcDbEntity
  8
0
 62
0
100
AcDbPolyline
 90
4
 70
1
 10
80.69867374019327
 20
762.7204322645482
 10
82.79958409330726
 20
759.3293367808822
 10
69.3855422344401
 20
748.2022791077891
 10
64.69992056259355
 20
756.3853555029482
  0
LWPOLYLINE
  5
64
330
17
100
AcDbEntity
  8
0
 62
0
100
AcDbPolyline
 90
4
 70
1
 10
134.36445129053988
 20
792.2133635565891
 10
125.56590868993828
 20
775.3291223796036
 10
115.5619238537401
 20
785.3244076525891
 10
128.5930889865399
 20
797.8505081325891
  0
LWPOLYLINE
  5
65
330
17
100
AcDbEntity
  8
0
 62
0
100
AcDbPolyline
 90
4
 70
1
 10
151.31918334301992
 20
801.094466404589
 10
160.85401074013987
 20
788.724960592109
 10
151.31918334301992
 20
782.9697044154691
 10
139.98046968157996
 20
789.498054705389
  0
LWPOLYLINE
  5
66
330
17
100
AcDbEntity
  8
0
 62
0
100
AcDbPolyline
 90
4
 70
1
 10
149.51529707869992
 20
801.953459863789
 10
137.91888537949995
 20
790.3570481645891
 10
129.93024620894
 20
799.548278178029
 10
138.34838210909993
 20
809.0831055751489
  0
LWPOLYLINE
  5
67
330
17
100
AcDbEntity
  8
0
 62
0
100
AcDbPolyline
 90
7
 70
1
 10
144.16269408605984
 20
824.4751946221891
 10
156.0983031693375
 20
823.6779892266469
 10
158.1642874710198
 20
817.087850873069
 10
162.88875149661976
 20
810.3018025453891
 10
151.89363521885986
 20
802.2272640289091
 10
140.0395254818999
 20
810.0441045076291
 10
143.81909670237985
 20
815.627561992429
  0
LWPOLYLINE
  5
68
330
17
100
AcDbEntity
  8
0
 62
0
100
AcDbPolyline
 90
4
 70
1
 10
241.7658569984003
 20
696.0282790527998
 10
225.3376070912003
 20
687.2235960959997
 10
234.70369164887984
 20
677.9762953189619
 10
247.17996605132817
 20
689.8250919183359
  0
LWPOLYLINE
  5
69
330
17
100
AcDbEntity
  8
0
 62
0
100
AcDbPolyline
 90
4
 70
1
 10
247.83967302799374
 20
688.3957268022272
 10
234.92041140162576
 20
675.9712454083583
 10
253.50215791104017
 20
662.6121791308799
 10
261.6509993617411
 20
681.3567049008127
  0
LWPOLYLINE
  5
6A
330
17
100
AcDbEntity
  8
0
 62
0
100
AcDbPolyline
 90
4
 70
1
 10
262.80548657090594
 20
680.6420223427583
 10
255.10890517647397
 20
661.6204711822336
 10
279.11019393536014
 20
655.3705301908891
 10
281.1717782374401
 20
675.5053368745371
  0
LWPOLYLINE
  5
6B
330
17
100
AcDbEntity
  8
0
 62
0
100
AcDbPolyline
 90
4
 70
1
 10
283.5769599232001
 20
674.749422630441
 10
280.41586399334415
 20
655.6454080978331
 10
301.51274335129597
 20
653.4463848422811
 10
300.68810963046406
 20
673.1001551887771
  0
LWPOLYLINE
  5
6C
330
17
100
AcDbEntity
  8
0
 62
0
100
AcDbPolyline
 90
4
 70
1
 10
269.01782609612815
 20
701.202126206505
 10
259.29194747636086
 20
684.3214742904513
 10
278.39262017664146
 20
677.9147445726292
 10
281.0994165843972
 20
695.1314703254526
  0
LWPOLYLINE
  5
6D
330
17
100
AcDbEntity
  8
0
 62
0
100
AcDbPolyline
 90
4
 70
1
 10
282.55970546503715
 20
694.7878729417725
 10
280.012942373888
 20
677.2190288256411
 10
301.806625780735
 20
674.9378620923292
 10
300.625509774335
 20
691.473486181929
  0
LWPOLYLINE
  5
6E
330
17
100
AcDbEntity
  8
0
 62
0
100
AcDbPolyline
 90
4
 70
1
 10
224.15649108480034
 20
686.2572284543999
 10
206.4397509888003
 20
679.3852807807998
 10
213.06238923264038
 20
668.0330824319999
 10
228.4332927977474
 20
680.1493895939071
  0
LWPOLYLINE
  5
6F
330
17
100
AcDbEntity
  8
0
 62
0
100
AcDbPolyline
 90
4
 70
1
 10
229.1479753558018
 20
678.4451465708544
 10
214.7803761510403
 20
666.9593406079998
 10
230.8886497376734
 20
653.1455260784942
 10
240.36299395911703
 20
669.3741756417023
  0
LWPOLYLINE
  5
70
330
17
100
AcDbEntity
  8
0
 62
0
100
AcDbPolyline
 90
4
 70
1
 10
241.51748116828173
 20
668.2196884325376
 10
232.35415377577067
 20
651.2485060761701
 10
249.99019721664115
 20
643.2635804141346
 10
255.5487098275844
 20
659.3664723452928
  0
LWPOLYLINE
  5
71
330
17
100
AcDbEntity
  8
0
 62
0
100
AcDbPolyline
 90
4
 70
1
 10
257.0477989236567
 20
659.0647398765012
 10
252.46753288979164
 20
643.6612666182403
 10
270.3371412211716
 20
637.3762397897729
 10
274.1313741414116
 20
654.7400307802864
  0
LWPOLYLINE
  5
72
330
17
100
AcDbEntity
  8
0
 62
0
100
AcDbPolyline
 90
4
 70
1
 10
275.5531772247007
 20
654.3907040651861
 10
273.5874897112201
 20
637.8883471675035
 10
291.6900660200504
 20
635.0644176462233
 10
292.3045254575924
 20
652.403737371593
  0
LWPOLYLINE
  5
73
330
17
100
AcDbEntity
  8
0
 62
0
100
AcDbPolyline
 90
4
 70
1
 10
277.2179380111352
 20
724.0078634491289
 10
258.67968729927725
 20
708.6176676348925
 10
280.549263963135
 20
697.228910130729
 10
283.01887015833495
 20
716.2341404155289
  0
LWPOLYLINE
  5
74
330
17
100
AcDbEntity
  8
0
 62
0
100
AcDbPolyline
 90
4
 70
1
 10
284.30736034713493
 20
714.6235276795289
 10
282.7315041568771
 20
696.5917592060925
 10
300.09136515993487
 20
693.1486911995291
 10
299.66186843033483
 20
707.536831641129
  0
LWPOLYLINE
  5
75
330
17
100
AcDbEntity
  8
0
 62
0
100
AcDbPolyline
 90
4
 70
1
 10
204.6143898880003
 20
678.8484098687998
 10
185.9312821504003
 20
673.0502040191998
 10
194.42834632066382
 20
659.8778795063934
 10
209.6894363048272
 20
670.4421663830921
  0
LWPOLYLINE
  5
76
330
17
100
AcDbEntity
  8
0
 62
0
100
AcDbPolyline
 90
4
 70
1
 10
210.7347182848003
 20
668.5404883583998
 10
196.02445529600027
 20
658.9841861247999
 10
210.16328630784034
 20
642.9075237503998
 10
221.43757545984033
 20
657.9399092863998
  0
LWPOLYLINE
  5
77
330
17
100
AcDbEntity
  8
0
 62
0
100
AcDbPolyline
 90
4
 70
1
 10
223.15556237824035
 20
656.4366707327998
 10
211.51642965708015
 20
642.2308062435334
 10
227.1284071270403
 20
630.8816153215998
 10
235.4059758524204
 20
647.1280014823687
  0
LWPOLYLINE
  5
78
330
17
100
AcDbEntity
  8
0
 62
0
100
AcDbPolyline
 90
4
 70
1
 10
237.22158027264027
 20
646.4508717695999
 10
229.02752702408736
 20
631.3920271936977
 10
247.8399056460903
 20
624.8036011877546
 10
252.8982109030403
 20
640.8674142847999
  0
LWPOLYLINE
  5
79
330
17
100
AcDbEntity
  8
0
 62
0
100
AcDbPolyline
 90
4
 70
1
 10
254.72357200384033
 20
641.0821626495999
 10
249.1231857200039
 20
622.1638115593255
 10
266.40827907782125
 20
618.7110783946735
 10
269.97029214511815
 20
635.6166263215594
  0
LWPOLYLINE
  5
7A
330
17
100
AcDbEntity
  8
0
 62
0
100
AcDbPolyline
 90
4
 70
1
 10
272.01081537024027
 20
636.0355760767999
 10
268.55005010752313
 20
617.2949192766082
 10
288.2465444014765
 20
615.284478927567
 10
290.4791747430403
 20
633.4585956991998
  0
LWPOLYLINE
  5
7B
330
17
100
AcDbEntity
  8
0
 62
0
100
AcDbPolyline
 90
4
 70
1
 10
191.25941756393763
 20
662.0724105236517
 10
171.75789007360032
 20
649.1057613439998
 10
186.58760684032023
 20
635.2812724454398
 10
201.25246622608256
 20
648.5529710273796
  0
LWPOLYLINE
  5
7C
330
17
100
AcDbEntity
  8
0
 62
0
100
AcDbPolyline
 90
4
 70
1
 10
203.46997148603452
 20
647.0466026129336
 10
188.39149310464023
 20
633.6491848729598
 10
204.88416752128023
 20
622.4822699033598
 10
215.56150657674266
 20
635.6495769134959
  0
LWPOLYLINE
  5
7D
330
17
100
AcDbEntity
  8
0
 62
0
100
AcDbPolyline
 90
4
 70
1
 10
216.82417660416024
 20
634.4222789862399
 10
206.51625509376026
 20
621.2796790604798
 10
223.460642977999
 20
611.1263586999554
 10
231.94246148608022
 20
627.3785326207999
  0
LWPOLYLINE
  5
7E
330
17
100
AcDbEntity
  8
0
 62
0
100
AcDbPolyline
 90
4
 70
1
 10
233.2487355238403
 20
626.3718996607998
 10
225.34518024816282
 20
611.3133950210939
 10
244.1223999448439
 20
604.1587648225202
 10
248.0663726950403
 20
620.5736938111999
  0
LWPOLYLINE
  5
7F
330
17
100
AcDbEntity
  8
0
 62
0
100
AcDbPolyline
 90
4
 70
1
 10
249.35486288384027
 20
619.4999519871999
 10
245.5805475035495
 20
604.5417274343762
 10
264.49462260224027
 20
600.8168442495999
 10
267.7158480742403
 20
615.0976105087998
  0
LWPOLYLINE
  5
80
330
17
100
AcDbEntity
  8
0
 62
0
100
AcDbPolyline
 90
4
 70
1
 10
269.5412091750403
 20
615.2049846911998
 10
266.1052353382403
 20
600.0652249727998
 10
286.61370417664034
 20
598.1324896895999
 10
287.04320090624026
 20
613.4869977727999
  0
LWPOLYLINE
  5
81
330
17
100
AcDbEntity
  8
0
 62
0
100
AcDbPolyline
 90
4
 70
1
 10
74.47263937987344
 20
688.1693214037498
 10
61.41593880003364
 20
696.2438599202296
 10
54.25547512888403
 20
687.0576419508427
 10
64.60277012412695
 20
675.3984693353596
  0
LWPOLYLINE
  5
82
330
17
100
AcDbEntity
  8
0
 62
0
100
AcDbPolyline
 90
4
 70
1
 10
63.24376038728087
 20
673.2596749418335
 10
52.773717089216404
 20
686.7802486385503
 10
40.77290617965849
 20
677.0553963891269
 10
45.903544488247974
 20
663.4336028833261
  0
LWPOLYLINE
  5
83
330
17
100
AcDbEntity
  8
0
 62
0
100
AcDbPolyline
 90
4
 70
1
 10
44.801987227758616
 20
661.5676651694955
 10
37.21895280577155
 20
677.711575551818
 10
23.111719664034297
 20
672.6635090466301
 10
25.141050858861206
 20
656.1917023360004
  0
LWPOLYLINE
  5
84
330
17
100
AcDbEntity
  8
0
 62
0
100
AcDbPolyline
 90
4
 70
1
 10
23.900932357550133
 20
654.8538027635681
 10
21.58857344676693
 20
671.9605142919231
 10
1.3523540535515737
 20
671.174678488367
 10
1.1376056887515875
 20
652.3841965683682
  0
LWPOLYLINE
  5
85
330
17
100
AcDbEntity
  8
0
 62
0
100
AcDbPolyline
 90
4
 70
1
 10
94.65898567107308
 20
678.72039335255
 10
76.44832433603341
 20
687.5680259823098
 10
69.49047731651353
 20
677.4319031637499
 10
83.19487262655338
 20
665.1615478726296
  0
LWPOLYLINE
  5
86
330
17
100
AcDbEntity
  8
0
 62
0
100
AcDbPolyline
 90
4
 70
1
 10
82.03178182083332
 20
663.8598065083902
 10
68.03018843587353
 20
676.40111101271
 10
58.95987055439872
 20
665.0051788381497
 10
68.63148385731353
 20
649.6864144315905
  0
LWPOLYLINE
  5
87
330
17
100
AcDbEntity
  8
0
 62
0
100
AcDbPolyline
 90
4
 70
1
 10
66.27614098883356
 20
649.0411889186305
 10
55.670280671208445
 20
665.0679246736321
 10
42.18617247041516
 20
658.0546064609794
 10
48.34465252803386
 20
639.2701383202307
  0
LWPOLYLINE
  5
88
330
17
100
AcDbEntity
  8
0
 62
0
100
AcDbPolyline
 90
4
 70
1
 10
46.41191724483389
 20
639.2701383202307
 10
39.60919087709482
 20
656.81460182141
 10
22.8423379235536
 20
652.9592301380169
 10
26.356617582527008
 20
635.5217453141864
  0
LWPOLYLINE
  5
89
330
17
100
AcDbEntity
  8
0
 62
0
100
AcDbPolyline
 90
4
 70
1
 10
24.829706582434255
 20
634.4383001122308
 10
21.28635856323433
 20
652.6919111202305
 10
0.8002158749916334
 20
650.3893855859684
 10
0.9720145668316225
 20
632.6082209805296
  0
LWPOLYLINE
  5
8A
330
17
100
AcDbEntity
  8
0
 62
0
100
AcDbPolyline
 90
4
 70
1
 10
59.36643409347363
 20
696.9968213743097
 10
43.303256406433945
 20
708.7650317653495
 10
34.815505545634096
 20
700.7955448354296
 10
47.205364595562685
 20
685.7288489515439
  0
LWPOLYLINE
  5
8B
330
17
100
AcDbEntity
  8
0
 62
0
100
AcDbPolyline
 90
4
 70
1
 10
45.45074005443388
 20
683.51062406487
 10
34.54152312259407
 20
698.4571102549496
 10
20.883527121314273
 20
693.8185455752697
 10
24.319500958114247
 20
675.17838751063
  0
LWPOLYLINE
  5
8C
330
17
100
AcDbEntity
  8
0
 62
0
100
AcDbPolyline
 90
4
 70
1
 10
22.03797784003433
 20
674.1667476002301
 10
19.467230893548845
 20
693.0972605690281
 10
1.0735376951515578
 20
690.6602614387656
 10
1.476190879151532
 20
672.6750858867669
  0
LWPOLYLINE
  5
8D
330
17
100
AcDbEntity
  8
0
 62
0
100
AcDbPolyline
 90
4
 70
1
 10
115.53252672963276
 20
672.7933384840701
 10
97.06416735683308
 20
678.9780913903099
 10
88.0447360352332
 20
666.5226862319101
 10
102.56172549571295
 20
654.2390797653503
  0
LWPOLYLINE
  5
8E
330
17
100
AcDbEntity
  8
0
 62
0
100
AcDbPolyline
 90
4
 70
1
 10
101.960430074273
 20
652.4351935010304
 10
86.15495042499327
 20
665.6636927727102
 10
74.75466255896362
 20
653.7464615832312
 10
85.81135304131323
 20
638.8630968456706
  0
LWPOLYLINE
  5
8F
330
17
100
AcDbEntity
  8
0
 62
0
100
AcDbPolyline
 90
4
 70
1
 10
83.99602937316519
 20
638.4834723742431
 10
73.81118606225857
 20
651.2377797855711
 10
60.84553018665213
 20
642.9966756381855
 10
67.66503326781094
 20
629.5305835998405
  0
LWPOLYLINE
  5
90
330
17
100
AcDbEntity
  8
0
 62
0
100
AcDbPolyline
 90
4
 70
1
 10
64.50263906814627
 20
628.4810539742509
 10
58.867322403233686
 20
642.4913637922307
 10
43.791640786966184
 20
635.4338577675294
 10
47.674697565428005
 20
620.895634627231
  0
LWPOLYLINE
  5
91
330
17
100
AcDbEntity
  8
0
 62
0
100
AcDbPolyline
 90
4
 70
1
 10
46.20095513857035
 20
618.7464498944087
 10
41.794827401633995
 20
636.6931579426307
 10
25.259203312034288
 20
632.9350615586309
 10
26.72485316488377
 20
616.3375393161107
  0
LWPOLYLINE
  5
92
330
17
100
AcDbEntity
  8
0
 62
0
100
AcDbPolyline
 90
4
 70
1
 10
24.738141776838688
 20
615.2422304081379
 10
23.56074713360664
 20
632.0739092115142
 10
1.0579139127516168
 20
631.0620327539697
 10
0.8861152209116279
 20
614.7411570291707
  0
LWPOLYLINE
  5
93
330
17
100
AcDbEntity
  8
0
 62
0
100
AcDbPolyline
 90
4
 70
1
 10
41.524871510434025
 20
709.5783911970295
 10
29.491234803478676
 20
720.7010410920941
 10
20.532084929536722
 20
713.9162299899292
 10
28.27087087043418
 20
697.7699154875896
  0
LWPOLYLINE
  5
94
330
17
100
AcDbEntity
  8
0
 62
0
100
AcDbPolyline
 90
4
 70
1
 10
26.706100417536675
 20
697.2732317179293
 10
18.787254465536705
 20
712.4398349819292
 10
1.2026174007515462
 20
706.9289180787647
 10
1.095243218351553
 20
692.7555260019657
  0
LWPOLYLINE
  5
95
330
17
100
AcDbEntity
  8
0
 62
0
100
AcDbPolyline
 90
4
 70
1
 10
135.94687165255743
 20
656.1790051222526
 10
113.66672880455747
 20
666.9164233622528
 10
105.3870066922168
 20
655.6439906298817
 10
122.52509885255745
 20
642.2203614102527
  0
LWPOLYLINE
  5
96
330
17
100
AcDbEntity
  8
0
 62
0
100
AcDbPolyline
 90
4
 70
1
 10
121.85401021255745
 20
640.4755309462528
 10
105.86709973363378
 20
653.0704404242215
 10
94.24517168775327
 20
642.2642284057464
 10
106.5531892205575
 20
627.4564113302529
  0
LWPOLYLINE
  5
97
330
17
100
AcDbEntity
  8
0
 62
0
100
AcDbPolyline
 90
4
 70
1
 10
104.90828804935751
 20
626.7478885270529
 10
92.02338616135756
 20
640.9212806038529
 10
76.74913679103878
 20
631.9890347215887
 10
86.64349992703876
 20
614.0540901542927
  0
LWPOLYLINE
  5
98
330
17
100
AcDbEntity
  8
0
 62
0
100
AcDbPolyline
 90
4
 70
1
 10
85.44090908415876
 20
612.5079019277326
 10
74.84351697735758
 20
631.0428558230528
 10
60.67012490055765
 20
624.0635339670529
 10
70.2367248563188
 20
606.3231490214926
  0
LWPOLYLINE
  5
99
330
17
100
AcDbEntity
  8
0
 62
0
100
AcDbPolyline
 90
4
 70
1
 10
68.34693924607882
 20
605.2064575245327
 10
59.50275945923369
 20
622.9113460872709
 10
44.212675885473914
 20
616.4688951432711
 10
48.45899600711766
 20
601.2585998025729
  0
LWPOLYLINE
  5
9A
330
17
100
AcDbEntity
  8
0
 62
0
100
AcDbPolyline
 90
4
 70
1
 10
46.875555608993864
 20
600.6634154939914
 10
42.23699092931395
 20
616.039398413671
 10
24.799423707554297
 20
613.2047199983111
 10
27.404975725159204
 20
599.3156976942493
  0
LWPOLYLINE
  5
9B
330
17
100
AcDbEntity
  8
0
 62
0
100
AcDbPolyline
 90
4
 70
1
 10
25.257492077159213
 20
598.7788267822492
 10
23.646879341159263
 20
612.6032527662492
 10
0.8861152209116279
 20
613.4526668403707
 10
1.1438132586716114
 20
596.5304956941319
  0
LWPOLYLINE
  5
9C
330
17
100
AcDbEntity
  8
0
 62
0
100
AcDbPolyline
 90
4
 70
1
 10
145.2078948845574
 20
670.9429552022527
 10
137.6917021165574
 20
657.5211824022526
 10
115.6799947245575
 20
668.1243829142527
 10
117.29060746055745
 20
673.4930920342526
  0
LWPOLYLINE
  5
9D
330
17
100
AcDbEntity
  8
0
 62
0
100
AcDbPolyline
 90
4
 70
1
 10
288.98137095884806
 20
613.7334663454109
 10
304.09965584076804
 20
613.6235151826332
 10
305.36409421271037
 20
597.6805965798812
 10
287.9368349124609
 20
597.5706454171037
  0
LWPOLYLINE
  5
9E
330
17
100
AcDbEntity
  8
0
 62
0
100
AcDbPolyline
 90
4
 70
1
 10
292.34110912614403
 20
632.5138550922652
 10
302.39133259878395
 20
632.7715531300252
 10
304.79651428454395
 20
615.6775832919452
 10
290.021826786304
 20
615.4198852541853
  0
LWPOLYLINE
  5
9F
330
17
100
AcDbEntity
  8
0
 62
0
100
AcDbPolyline
 90
4
 70
1
 10
294.3329002096641
 20
651.5767990001051
 10
302.0638413424641
 20
651.5767990001051
 10
304.21132499046416
 20
634.9123258916252
 10
293.47390675046415
 20
634.5687285079453
  0
LWPOLYLINE
  5
A0
330
17
100
AcDbEntity
  8
0
 62
0
100
AcDbPolyline
 90
4
 70
1
 10
285.66911404953487
 20
733.369182565929
 10
299.16132862873394
 20
724.690784204329
 10
288.28039965593416
 20
714.788097996329
 10
278.28713900953494
 20
725.450336613929
  0
LWPOLYLINE
  5
A1
330
17
100
AcDbEntity
  8
0
 62
0
100
AcDbPolyline
 90
4
 70
1
 10
245.39492446863926
 20
849.2748685366754
 10
228.00889685443155
 20
839.9290197005795
 10
235.0870029582394
 20
829.4836592367077
 10
249.6555320262712
 20
843.5711519675875
  0
LWPOLYLINE
  5
A2
330
17
100
AcDbEntity
  8
0
 62
0
100
AcDbPolyline
 90
4
 70
1
 10
250.5488852238392
 20
841.7157260957155
 10
236.22150631716465
 20
828.3980979558614
 10
252.08842447813163
 20
815.797546709299
 10
260.3081917710391
 20
832.1563368543716
  0
LWPOLYLINE
  5
A3
330
17
100
AcDbEntity
  8
0
 62
0
100
AcDbPolyline
 90
4
 70
1
 10
261.2983928652849
 20
830.3756614619889
 10
253.29880514396723
 20
814.7015897634279
 10
273.09001444393493
 20
807.211166799204
 10
277.7449203740822
 20
823.4185696075092
  0
LWPOLYLINE
  5
A4
330
17
100
AcDbEntity
  8
0
 62
0
100
AcDbPolyline
 90
4
 70
1
 10
279.4122063036468
 20
822.7417685415397
 10
274.739281885599
 20
806.798849938788
 10
295.12695476879867
 20
804.446281602404
 10
295.60988729166115
 20
821.2264419292871
  0
LWPOLYLINE
  5
A5
330
17
100
AcDbEntity
  8
0
 62
0
100
AcDbPolyline
 90
4
 70
1
 10
261.19042167439886
 20
860.8559794148831
 10
246.7593315598391
 20
849.9467624830432
 10
257.38613912410733
 20
837.6478113949116
 10
267.89057065615873
 20
852.1801454769632
  0
LWPOLYLINE
  5
A6
330
17
100
AcDbEntity
  8
0
 62
0
100
AcDbPolyline
 90
4
 70
1
 10
268.7495641153587
 20
850.7198565963232
 10
259.1167926904385
 20
837.2291417103543
 10
277.6830960910386
 20
825.3795495499236
 10
281.46860065880276
 20
844.4168983797393
  0
LWPOLYLINE
  5
A7
330
17
100
AcDbEntity
  8
0
 62
0
100
AcDbPolyline
 90
4
 70
1
 10
283.0607600965087
 20
843.7643586974953
 10
279.37423946383853
 20
824.5796118910436
 10
299.30288771727817
 20
822.2603295512035
 10
299.5577682197603
 20
841.3493385091562
  0
LWPOLYLINE
  5
A8
330
17
100
AcDbEntity
  8
0
 62
0
100
AcDbPolyline
 90
4
 70
1
 10
226.6345073197116
 20
839.5167028401636
 10
208.28640703119981
 20
832.0949993526757
 10
213.02805092598373
 20
823.5737842374118
 10
229.10840848220755
 20
835.4622537127397
  0
LWPOLYLINE
  5
A9
330
17
100
AcDbEntity
  8
0
 62
0
100
AcDbPolyline
 90
4
 70
1
 10
229.8643227263035
 20
833.4693888873957
 10
213.71524569334372
 20
822.4742726096358
 10
227.52786051727958
 20
807.424707204452
 10
239.8973663297594
 20
822.0619557492198
  0
LWPOLYLINE
  5
AA
330
17
100
AcDbEntity
  8
0
 62
0
100
AcDbPolyline
 90
4
 70
1
 10
241.5368489020525
 20
820.8016174535003
 10
228.97363710607954
 20
806.1151112779239
 10
247.27019778703925
 20
794.1751021950442
 10
254.0260404971707
 20
812.3262460980507
  0
LWPOLYLINE
  5
AB
330
17
100
AcDbEntity
  8
0
 62
0
100
AcDbPolyline
 90
4
 70
1
 10
255.60243434127915
 20
811.0113739953639
 10
248.98818470543915
 20
793.9174041572842
 10
267.1988460404789
 20
787.3890538673643
 10
272.73461659710995
 20
805.5902053291259
  0
LWPOLYLINE
  5
AC
330
17
100
AcDbEntity
  8
0
 62
0
100
AcDbPolyline
 90
4
 70
1
 10
274.60184293212694
 20
805.56189935754
 10
269.5284272516991
 20
788.1532973005695
 10
286.9535887795205
 20
785.0103425884377
 10
289.2728711193604
 20
802.7915071938769
  0
LWPOLYLINE
  5
AD
330
17
100
AcDbEntity
  8
0
 62
0
100
AcDbPolyline
 90
4
 70
1
 10
273.1398259982386
 20
874.9474986776029
 10
262.23060906639876
 20
861.7189994059231
 10
275.4591083380785
 20
848.9199968638433
 10
286.04794266211695
 20
862.4912141077946
  0
LWPOLYLINE
  5
AE
330
17
100
AcDbEntity
  8
0
 62
0
100
AcDbPolyline
 90
4
 70
1
 10
207.08247401103984
 20
832.0402385196517
 10
182.92328297104018
 20
825.7051617580518
 10
188.5067404558401
 20
816.3636078892519
 10
208.37151533037667
 20
827.6944643563295
  0
LWPOLYLINE
  5
AF
330
17
100
AcDbEntity
  8
0
 62
0
100
AcDbPolyline
 90
4
 70
1
 10
209.44470602383979
 20
826.3494068524518
 10
189.58048227984006
 20
814.860369335652
 10
204.72024199823983
 20
799.7206096172522
 10
219.12447845383952
 20
813.2676046123348
  0
LWPOLYLINE
  5
B0
330
17
100
AcDbEntity
  8
0
 62
0
100
AcDbPolyline
 90
4
 70
1
 10
220.07475008143967
 20
812.3907631404519
 10
205.68660963983984
 20
798.5394936108521
 10
222.54435627663963
 20
785.8693400876523
 10
233.61762163755043
 20
800.1402339272929
  0
LWPOLYLINE
  5
B1
330
17
100
AcDbEntity
  8
0
 62
0
100
AcDbPolyline
 90
4
 70
1
 10
234.3707067654675
 20
798.9324281150732
 10
224.26234319503953
 20
785.1177208108523
 10
242.62332838543932
 20
775.5614185772524
 10
248.85103096463922
 20
791.9896684844523
  0
LWPOLYLINE
  5
B2
330
17
100
AcDbEntity
  8
0
 62
0
100
AcDbPolyline
 90
4
 70
1
 10
250.2309927569588
 20
790.9652042076516
 10
244.12656693903932
 20
774.9171734828525
 10
262.487552129439
 20
768.1525999916526
 10
265.8294196861077
 20
785.827450391151
  0
LWPOLYLINE
  5
B3
330
17
100
AcDbEntity
  8
0
 62
0
100
AcDbPolyline
 90
4
 70
1
 10
268.07842307922635
 20
785.6565277563141
 10
264.1137996742699
 20
767.4386393224682
 10
283.4289000998368
 20
766.2219463833981
 10
284.69202920622126
 20
783.2341653509083
  0
LWPOLYLINE
  5
B4
330
17
100
AcDbEntity
  8
0
 62
0
100
AcDbPolyline
 90
4
 70
1
 10
286.34161245144
 20
782.303843421762
 10
285.23770868367865
 20
765.7424186955246
 10
296.7555511238693
 20
765.7206524040682
 10
296.9702994886693
 20
781.826779764068
  0
LWPOLYLINE
  5
B5
330
17
100
AcDbEntity
  8
0
 62
0
100
AcDbPolyline
 90
4
 70
1
 10
186.50563965584024
 20
815.3801635321315
 10
167.86548159120042
 20
805.6735374431717
 10
183.92865927824027
 20
789.1808630265318
 10
198.3597493928001
 20
802.4952616441317
  0
LWPOLYLINE
  5
B6
330
17
100
AcDbEntity
  8
0
 62
0
100
AcDbPolyline
 90
4
 70
1
 10
200.0613665802224
 20
801.7040890404243
 10
185.13635522662258
 20
788.0675678756244
 10
201.10601000079197
 20
776.9064382269721
 10
211.12090736742226
 20
791.2887933476243
  0
LWPOLYLINE
  5
B7
330
17
100
AcDbEntity
  8
0
 62
0
100
AcDbPolyline
 90
4
 70
1
 10
212.45118313103978
 20
790.3790557484522
 10
202.33098836070246
 20
776.1388330818966
 10
219.51085754470228
 20
766.3119479086486
 10
227.8334010181925
 20
780.1650591444006
  0
LWPOLYLINE
  5
B8
330
17
100
AcDbEntity
  8
0
 62
0
100
AcDbPolyline
 90
4
 70
1
 10
229.71898817433419
 20
779.7031861755286
 10
221.33297821508552
 20
766.1640859035203
 10
237.90626958233406
 20
758.6310028795288
 10
244.34872052633398
 20
772.9922997755286
  0
LWPOLYLINE
  5
B9
330
17
100
AcDbEntity
  8
0
 62
0
100
AcDbPolyline
 90
4
 70
1
 10
246.09355099033394
 20
771.9185579515286
 10
239.7404779394692
 20
758.0085983808656
 10
257.1685079810319
 20
752.7327730442214
 10
261.5285897103338
 20
766.6840665595287
  0
LWPOLYLINE
  5
BA
330
17
100
AcDbEntity
  8
0
 62
0
100
AcDbPolyline
 90
4
 70
1
 10
262.87779045954846
 20
766.3000516090215
 10
260.1864124303338
 20
751.7858987515289
 10
279.3795475343336
 20
750.3095037435289
 10
280.3320255422002
 20
764.7442733793223
  0
LWPOLYLINE
  5
BB
330
17
100
AcDbEntity
  8
0
 62
0
100
AcDbPolyline
 90
4
 70
1
 10
282.46655527833354
 20
763.9997119995287
 10
281.6612489103336
 20
750.3095037435289
 10
299.5122067343334
 20
750.3095037435289
 10
299.5122067343334
 20
763.7312765435288
  0
LWPOLYLINE
  5
BC
330
17
100
AcDbEntity
  8
0
 62
0
100
AcDbPolyline
 90
5
 70
1
 10
283.49423252111876
 20
734.7334061151726
 10
289.9366834651187
 20
742.5180343391723
 10
292.35260256911863
 20
748.2893966431723
 10
266.4485810651189
 20
749.6315739231723
 10
264.70375060111894
 20
746.2761307231724
  0
LWPOLYLINE
  5
BD
330
17
100
AcDbEntity
  8
0
 62
0
100
AcDbPolyline
 90
5
 70
1
 10
22.080356972961965
 20
729.2719432390127
 10
12.631428921762051
 20
740.0093614790126
 10
8.765958355362102
 20
748.4274973791723
 10
41.751307188641704
 20
749.9736856057324
 10
43.64109279888169
 20
746.0223156934125
  0
LWPOLYLINE
  5
BE
330
17
100
AcDbEntity
  8
0
 62
0
100
AcDbPolyline
 90
5
 70
1
 10
167.38623877776013
 20
807.3485386438119
 10
160.17069372048024
 20
817.3128627705318
 10
157.70891590533745
 20
823.9464246826469
 10
180.12327648133697
 20
825.1543842346468
 10
185.51100076687987
 20
816.7974666950118
  0
LWPOLYLINE
  5
BF
330
17
100
AcDbEntity
  8
0
 62
0
100
AcDbPolyline
 90
5
 70
1
 10
287.95117171343816
 20
862.011661161827
 10
276.47501909852633
 20
848.1303268611551
 10
300.0288591921246
 20
842.8522038253022
 10
299.47990868460454
 20
855.561280489622
 10
294.44674388460464
 20
858.581179369622
  0
LWPOLYLINE
  5
C0
330
17
100
AcDbEntity
  8
0
 62
0
100
AcDbPolyline
 90
4
 70
1
 10
75.60395991673221
 20
839.8103889015963
 10
60.34823608134053
 20
848.1254455866522
 10
55.72674167276375
 20
842.6344389170652
 10
67.90653743760191
 20
830.431574480227
  0
LWPOLYLINE
  5
C1
330
17
100
AcDbEntity
  8
0
 62
0
100
AcDbPolyline
 90
4
 70
1
 10
67.02692813538113
 20
829.6619163407838
 10
54.547471160123735
 20
841.5366419207644
 10
44.53348885494029
 20
831.2038538117233
 10
52.8982037184598
 20
816.9075814585825
  0
LWPOLYLINE
  5
C2
330
17
100
AcDbEntity
  8
0
 62
0
100
AcDbPolyline
 90
4
 70
1
 10
51.06857281618767
 20
816.5797546579424
 10
43.23455246828382
 20
830.2549305284062
 10
29.00962078393212
 20
825.3071282034143
 10
33.40766729503605
 20
808.6770148333026
  0
LWPOLYLINE
  5
C3
330
17
100
AcDbEntity
  8
0
 62
0
100
AcDbPolyline
 90
4
 70
1
 10
31.940381625055466
 20
808.2067096047056
 10
27.42907281900409
 20
824.9978905581023
 10
11.022297748284416
 20
821.9914134509024
 10
12.253499897661243
 20
804.7877739002442
  0
LWPOLYLINE
  5
C4
330
17
100
AcDbEntity
  8
0
 62
0
100
AcDbPolyline
 90
4
 70
1
 10
96.93150478828267
 20
830.6707328554469
 10
77.25322735839615
 20
838.9857551807643
 10
74.05693060547378
 20
835.5640603989469
 10
90.69992887747344
 20
823.2160294229471
  0
LWPOLYLINE
  5
C5
330
17
100
AcDbEntity
  8
0
 62
0
100
AcDbPolyline
 90
4
 70
1
 10
89.62618705347347
 20
822.0349134165472
 10
73.30531132867378
 20
833.7386992981469
 10
63.10476400067398
 20
823.7529003349472
 10
75.23804661187376
 20
808.0762697045475
  0
LWPOLYLINE
  5
C6
330
17
100
AcDbEntity
  8
0
 62
0
100
AcDbPolyline
 90
4
 70
1
 10
73.73042693131913
 20
807.5049633083413
 10
62.031022176674014
 20
822.4644101461472
 10
50.2578913953804
 20
813.3287771561781
 10
56.6365460838212
 20
797.3036611620132
  0
LWPOLYLINE
  5
C7
330
17
100
AcDbEntity
  8
0
 62
0
100
AcDbPolyline
 90
4
 70
1
 10
55.21321625682765
 20
796.1571851654628
 10
48.66339113042778
 20
812.8001834374625
 10
32.502502937403904
 20
806.4812128032229
 10
37.57056434668385
 20
788.6141488518632
  0
LWPOLYLINE
  5
C8
330
17
100
AcDbEntity
  8
0
 62
0
100
AcDbPolyline
 90
4
 70
1
 10
35.85257742828384
 20
788.0987527763432
 10
30.923453752417288
 20
806.25516807541
 10
14.878844667242106
 20
802.7731764841436
 10
16.353425904444236
 20
784.0614835181033
  0
LWPOLYLINE
  5
C9
330
17
100
AcDbEntity
  8
0
 62
0
100
AcDbPolyline
 90
4
 70
1
 10
58.698968639676536
 20
848.5377624470681
 10
44.74891486226886
 20
857.471294422748
 10
39.79857863148385
 20
853.6882720953818
 10
49.58279095583589
 20
838.278483085462
  0
LWPOLYLINE
  5
CA
330
17
100
AcDbEntity
  8
0
 62
0
100
AcDbPolyline
 90
4
 70
1
 10
46.92822434284369
 20
837.7109937542621
 10
37.99469236716391
 20
853.0869766739418
 10
24.08632851408953
 20
845.4196498462405
 10
30.478776423228283
 20
827.6269641913822
  0
LWPOLYLINE
  5
CB
330
17
100
AcDbEntity
  8
0
 62
0
100
AcDbPolyline
 90
4
 70
1
 10
27.600871510844115
 20
827.2312735520222
 10
22.328739122925583
 20
845.3544302779076
 10
1.5601198907487515
 20
840.6932487558619
 10
1.4742205448287677
 20
822.2248893830623
  0
LWPOLYLINE
  5
CC
330
17
100
AcDbEntity
  8
0
 62
0
100
AcDbPolyline
 90
4
 70
1
 10
118.41440056771268
 20
825.5033120904669
 10
99.07898843628254
 20
830.6924224402917
 10
96.10091293865167
 20
826.6994203130552
 10
114.38786872771271
 20
816.9133774984671
  0
LWPOLYLINE
  5
CD
330
17
100
AcDbEntity
  8
0
 62
0
100
AcDbPolyline
 90
4
 70
1
 10
112.64303826371275
 20
815.1685470344671
 10
94.6916059647105
 20
825.6074985362466
 10
85.59006067342187
 20
813.1313539496925
 10
98.68439455171301
 20
799.3308551304674
  0
LWPOLYLINE
  5
CE
330
17
100
AcDbEntity
  8
0
 62
0
100
AcDbPolyline
 90
4
 70
1
 10
97.69734899139303
 20
798.0800927061475
 10
83.74015477408716
 20
812.0814326696918
 10
69.99103137087747
 20
801.0774978743923
 10
81.2905739206733
 20
785.6246875477477
  0
LWPOLYLINE
  5
CF
330
17
100
AcDbEntity
  8
0
 62
0
100
AcDbPolyline
 90
4
 70
1
 10
79.83028504003335
 20
784.3361973589476
 10
68.06207464899353
 20
801.3442678511074
 10
53.28738715075383
 20
793.0979306427876
 10
60.340858758867284
 20
776.5816522659343
  0
LWPOLYLINE
  5
D0
330
17
100
AcDbEntity
  8
0
 62
0
100
AcDbPolyline
 90
4
 70
1
 10
58.7849452896337
 20
776.6052562261478
 10
51.6396291298185
 20
792.5419977832132
 10
36.75069369244193
 20
786.3834223738471
 10
41.898566420808265
 20
770.4350093836242
  0
LWPOLYLINE
  5
D1
330
17
100
AcDbEntity
  8
0
 62
0
100
AcDbPolyline
 90
4
 70
1
 10
39.543563172907
 20
770.1806776238307
 10
35.11127029483731
 20
786.3504761532715
 10
18.842812892062852
 20
782.5000939364613
 10
20.415021636433153
 20
765.9832075216863
  0
LWPOLYLINE
  5
D2
330
17
100
AcDbEntity
  8
0
 62
0
100
AcDbPolyline
 90
4
 70
1
 10
18.93705844818851
 20
765.4271135929835
 10
17.192292180721495
 20
782.596978039223
 10
1.1995975018715592
 20
781.6642514875281
 10
1.6290942314715313
 20
765.1286273979291
  0
LWPOLYLINE
  5
D3
330
17
100
AcDbEntity
  8
0
 62
0
100
AcDbPolyline
 90
4
 70
1
 10
43.364915630907944
 20
858.4864929568216
 10
30.050517013308195
 20
871.1136968070614
 10
20.851369905425315
 20
864.6095998989547
 10
25.669650371388286
 20
847.8349740627418
  0
LWPOLYLINE
  5
D4
330
17
100
AcDbEntity
  8
0
 62
0
100
AcDbPolyline
 90
4
 70
1
 10
23.951663452988328
 20
847.4913766790619
 10
19.31309877330841
 20
863.7263530579415
 10
1.828718924604516
 20
855.729052649622
 10
1.4460348219487855
 20
842.5951139616219
  0
LWPOLYLINE
  5
D5
330
17
100
AcDbEntity
  8
0
 62
0
100
AcDbPolyline
 90
4
 70
1
 10
142.00544172933775
 20
823.9464246826469
 10
121.14350835139254
 20
825.5829828949471
 10
119.29801459139259
 20
820.8853624149472
 10
141.27616755139218
 20
815.1811089749473
  0
LWPOLYLINE
  5
D6
330
17
100
AcDbEntity
  8
0
 62
0
100
AcDbPolyline
 90
4
 70
1
 10
140.36348700099217
 20
813.6778704213473
 10
119.13024243139256
 20
819.3754129749473
 10
112.75490035139268
 20
810.8190328149474
 10
127.68662259139239
 20
799.5782980949475
  0
LWPOLYLINE
  5
D7
330
17
100
AcDbEntity
  8
0
 62
0
100
AcDbPolyline
 90
4
 70
1
 10
118.45915379139257
 20
790.1629244757478
 10
104.07101334979285
 20
801.8667103573475
 10
92.47460165059306
 20
791.7735372117477
 10
103.96363916739284
 20
777.600145134948
  0
LWPOLYLINE
  5
D8
330
17
100
AcDbEntity
  8
0
 62
0
100
AcDbPolyline
 90
4
 70
1
 10
101.95876185539288
 20
776.5717017941479
 10
91.11396943299309
 20
790.4229713237477
 10
77.15532572099335
 20
781.0814174549478
 10
86.17475704259317
 20
766.263780283748
  0
LWPOLYLINE
  5
D9
330
17
100
AcDbEntity
  8
0
 62
0
100
AcDbPolyline
 90
4
 70
1
 10
84.2420217593932
 20
765.8342835541481
 10
75.43733880259339
 20
780.4371723605478
 10
60.40495326659362
 20
774.424218146148
 10
64.27042383299357
 20
757.6738456917483
  0
LWPOLYLINE
  5
DA
330
17
100
AcDbEntity
  8
0
 62
0
100
AcDbPolyline
 90
4
 70
1
 10
62.908113893793654
 20
757.1920040482282
 10
57.66825379267374
 20
774.4577725781478
 10
40.14478722499405
 20
768.444818363748
 10
44.43975452099397
 20
750.9213517960683
  0
LWPOLYLINE
  5
DB
330
17
100
AcDbEntity
  8
0
 62
0
100
AcDbPolyline
 90
4
 70
1
 10
42.371629095164906
 20
751.630473835665
 10
38.711803263394074
 20
768.2456308667881
 10
22.22788398132957
 20
763.4926037862883
 10
24.71020987843434
 20
750.4644662613484
  0
LWPOLYLINE
  5
DC
330
17
100
AcDbEntity
  8
0
 62
0
100
AcDbPolyline
 90
4
 70
1
 10
22.992222960034383
 20
750.3785669154283
 10
20.415242582434416
 20
764.1224622626282
 10
1.5173864800347587
 20
763.2634688034282
 10
1.0878897504347833
 20
750.3785669154283
  0
LWPOLYLINE
  5
DD
330
17
100
AcDbEntity
  8
0
 62
0
100
AcDbPolyline
 90
4
 70
1
 10
28.504492364604005
 20
871.7412276000217
 10
18.08919667180419
 20
882.4786458400215
 10
9.259448170251233
 20
877.950244827154
 10
16.732691265290953
 20
863.9486514421945
  0
LWPOLYLINE
  5
DE
330
17
100
AcDbEntity
  8
0
 62
0
100
AcDbPolyline
 90
4
 70
1
 10
105.35950353859283
 20
803.1552005461475
 10
119.64026979779254
 20
791.3440404821476
 10
126.94171420099241
 20
798.2159881557476
 10
111.80195448259269
 20
809.2755289429474
  0
LWPOLYLINE
  5
DF
330
17
100
AcDbEntity
  8
0
 62
0
100
AcDbPolyline
 90
4
 70
1
 10
13.132200432444336
 20
802.572792563863
 10
14.291841602364286
 20
784.1473828640233
 10
1.3113757034715483
 20
783.533967353128
 10
1.4253570073715878
 20
802.2374933749968
  0
LWPOLYLINE
  5
E0
330
17
100
AcDbEntity
  8
0
 62
0
100
AcDbPolyline
 90
4
 70
1
 10
10.64111940076441
 20
804.9779742496229
 10
1.3113757034715483
 20
804.6061506491267
 10
1.714028887471522
 20
820.8464957371256
 10
9.266729866044443
 20
821.1270512825826
  0
LWPOLYLINE
  5
E1
330
17
100
AcDbEntity
  8
0
 62
0
100
AcDbPolyline
 90
4
 70
1
 10
205.15560371262302
 20
898.2833677693769
 10
190.22607227616075
 20
898.6264945337607
 10
175.0475408727998
 20
898.5397018659999
 10
181.8597833140035
 20
883.4764568423565
  0
LWPOLYLINE
  5
E2
330
17
100
AcDbEntity
  8
0
 62
0
100
AcDbPolyline
 90
4
 70
1
 10
180.03442221320353
 20
882.4027150183565
 10
173.58307400416078
 20
898.0896236217608
 10
156.7253273673608
 20
898.0896236217608
 10
158.344837368404
 20
877.7856251751566
  0
LWPOLYLINE
  5
E3
330
17
100
AcDbEntity
  8
0
 62
0
100
AcDbPolyline
 90
4
 70
1
 10
156.30472790280407
 20
877.6782509927566
 10
155.2220888137608
 20
898.3043719865608
 10
139.33070981856082
 20
897.2306301625607
 10
134.82099415776082
 20
882.3056188089607
  0
LWPOLYLINE
  5
E4
330
17
100
AcDbEntity
  8
0
 62
0
100
AcDbPolyline
 90
4
 70
1
 10
133.21038142176084
 20
882.9498639033608
 10
137.61272290016083
 20
897.8748752569608
 10
118.39274425056085
 20
898.0896236217608
 10
113.71975050794416
 20
889.0076686676812
  0
LWPOLYLINE
  5
E5
330
17
100
AcDbEntity
  8
0
 62
0
100
AcDbPolyline
 90
4
 70
1
 10
111.94532630265344
 20
888.7765549863083
 10
116.99191287545338
 20
898.8697281319081
 10
97.12768913145364
 20
898.2254830375082
 10
100.37344513171234
 20
894.8222976796154
  0
LWPOLYLINE
  5
E6
330
17
100
AcDbEntity
  8
0
 62
0
100
AcDbPolyline
 90
4
 70
1
 10
233.78542621102758
 20
898.6817259860809
 10
216.30319132939033
 20
898.9016283116362
 10
206.7452590585861
 20
897.5750348152599
 10
221.0513598900027
 20
885.0870695783565
  0
LWPOLYLINE
  5
E7
330
17
100
AcDbEntity
  8
0
 62
0
100
AcDbPolyline
 90
4
 70
1
 10
219.22599878920266
 20
883.2617084775566
 10
205.80422598920296
 20
896.0392361831563
 10
193.47854089853354
 20
887.0908049722277
 10
203.54936815880302
 20
870.5915549543569
  0
LWPOLYLINE
  5
E8
330
17
100
AcDbEntity
  8
0
 62
0
100
AcDbPolyline
 90
4
 70
1
 10
201.83138124040306
 20
869.9473098599568
 10
191.63083391240326
 20
886.0534372199564
 10
177.09930268986858
 20
879.3722449202562
 10
181.00078985480354
 20
862.645865456757
  0
LWPOLYLINE
  5
E9
330
17
100
AcDbEntity
  8
0
 62
0
100
AcDbPolyline
 90
4
 70
1
 10
179.39017711880354
 20
862.5384912743569
 10
175.73945491720366
 20
878.8593669991566
 10
158.66695991560402
 20
875.9602640743567
 10
159.63332755720398
 20
859.8541367143571
  0
LWPOLYLINE
  5
EA
330
17
100
AcDbEntity
  8
0
 62
0
100
AcDbPolyline
 90
4
 70
1
 10
158.23746318600405
 20
859.8541367143571
 10
156.51947626760403
 20
876.3897608039567
 10
140.67986943256807
 20
878.6464595015774
 10
136.7895990878443
 20
861.1759583474019
  0
LWPOLYLINE
  5
EB
330
17
100
AcDbEntity
  8
0
 62
0
100
AcDbPolyline
 90
4
 70
1
 10
135.3579877013325
 20
861.3674605835416
 10
139.03866240963856
 20
879.5210715722578
 10
122.82086589994363
 20
883.0257648857936
 10
116.80372898261282
 20
865.3531902342295
  0
LWPOLYLINE
  5
EC
330
17
100
AcDbEntity
  8
0
 62
0
100
AcDbPolyline
 90
4
 70
1
 10
115.27579436706088
 20
865.9856241685656
 10
120.99561706350875
 20
883.6325710460052
 10
105.55931264554468
 20
890.081410491681
 10
96.51537721813327
 20
874.5755587605653
  0
LWPOLYLINE
  5
ED
330
17
100
AcDbEntity
  8
0
 62
0
100
AcDbPolyline
 90
4
 70
1
 10
95.3471461136213
 20
875.5376314348694
 10
103.53964353860749
 20
890.7518638537281
 10
94.63340652205972
 20
896.9895073901574
 10
80.03051771565976
 20
884.2764041939975
  0
LWPOLYLINE
  5
EE
330
17
100
AcDbEntity
  8
0
 62
0
100
AcDbPolyline
 90
4
 70
1
 10
254.8754856372018
 20
887.1804467047566
 10
235.7616228788023
 20
898.1867198311562
 10
224.91683045640252
 20
886.6976823143565
 10
240.2793077172022
 20
873.4231295847569
  0
LWPOLYLINE
  5
EF
330
17
100
AcDbEntity
  8
0
 62
0
100
AcDbPolyline
 90
4
 70
1
 10
238.09826963720218
 20
872.5842687847569
 10
224.2725853620026
 20
885.5165663079565
 10
211.49505765640282
 20
874.3496513383567
 10
222.49545875720253
 20
860.5046732647571
  0
LWPOLYLINE
  5
F0
330
17
100
AcDbEntity
  8
0
 62
0
100
AcDbPolyline
 90
4
 70
1
 10
221.0513598900027
 20
859.317265802357
 10
210.42131583240285
 20
872.8464127847568
 10
196.1405495732032
 20
864.7933491047569
 10
202.04612960520308
 20
851.0494537575572
  0
LWPOLYLINE
  5
F1
330
17
100
AcDbEntity
  8
0
 62
0
100
AcDbPolyline
 90
4
 70
1
 10
200.04699540919506
 20
851.759291929624
 10
193.403879994698
 20
864.4332342153574
 10
178.6383362863163
 20
860.8910766772832
 10
182.15072653117494
 20
844.937842044845
  0
LWPOLYLINE
  5
F2
330
17
100
AcDbEntity
  8
0
 62
0
100
AcDbPolyline
 90
4
 70
1
 10
180.25749420933698
 20
843.4079952426465
 10
176.9472014920796
 20
860.7633631455944
 10
160.25905273733736
 20
858.4403807786462
 10
160.52748819333738
 20
841.6631647786465
  0
LWPOLYLINE
  5
F3
330
17
100
AcDbEntity
  8
0
 62
0
100
AcDbPolyline
 90
4
 70
1
 10
158.95542540342046
 20
841.7211754904246
 10
158.78265772933742
 20
858.1719453226461
 10
140.93169990533778
 20
858.7088162346462
 10
139.70014219369995
 20
842.1737794420661
  0
LWPOLYLINE
  5
F4
330
17
100
AcDbEntity
  8
0
 62
0
100
AcDbPolyline
 90
4
 70
1
 10
137.30782124933785
 20
842.3342534186465
 10
139.45530489733784
 20
859.1114694186462
 10
123.75183072133814
 20
862.0642594346461
 10
118.76094450565813
 20
845.7870044714465
  0
LWPOLYLINE
  5
F5
330
17
100
AcDbEntity
  8
0
 62
0
100
AcDbPolyline
 90
4
 70
1
 10
116.30254140563949
 20
846.9622397530139
 10
120.96371925720757
 20
861.971248519793
 10
105.26466573460215
 20
868.3933274750175
 10
98.83183890008797
 20
853.9738545337343
  0
LWPOLYLINE
  5
F6
330
17
100
AcDbEntity
  8
0
 62
0
100
AcDbPolyline
 90
4
 70
1
 10
96.10306035771725
 20
853.2038014956697
 10
103.31860541499714
 20
868.9405616682135
 10
88.85864104333729
 20
877.4390675790547
 10
78.44215483656563
 20
861.9311750411416
  0
LWPOLYLINE
  5
F7
330
17
100
AcDbEntity
  8
0
 62
0
100
AcDbPolyline
 90
4
 70
1
 10
76.80770503207287
 20
862.564038472207
 10
87.17634664261988
 20
877.8138030404755
 10
72.86537124783587
 20
887.5799833893791
 10
60.534932940988426
 20
874.878568703298
  0
LWPOLYLINE
  5
F8
330
17
100
AcDbEntity
  8
0
 62
0
100
AcDbPolyline
 90
4
 70
1
 10
58.45771912746779
 20
876.5083701179219
 10
72.88269548153221
 20
889.7709919925393
 10
66.37656507946727
 20
898.1174243259205
 10
39.27887135762887
 20
897.6050123404431
  0
LWPOLYLINE
  5
F9
330
17
100
AcDbEntity
  8
0
 62
0
100
AcDbPolyline
 90
4
 70
1
 10
270.47829651720144
 20
874.4297625447568
 10
256.72097939720175
 20
884.8316364647566
 10
245.480244677202
 20
874.0942182247569
 10
259.4053339572017
 20
862.1823948647572
  0
LWPOLYLINE
  5
FA
330
17
100
AcDbEntity
  8
0
 62
0
100
AcDbPolyline
 90
4
 70
1
 10
257.55984019720177
 20
861.1757619047571
 10
243.466978757202
 20
873.5909017447568
 10
230.54852243720234
 20
862.6857113447571
 10
241.1181685172021
 20
849.2639385447574
  0
LWPOLYLINE
  5
FB
330
17
100
AcDbEntity
  8
0
 62
0
100
AcDbPolyline
 90
4
 70
1
 10
239.58172998533576
 20
847.8371802666464
 10
228.7100940173359
 20
861.5273885226461
 10
214.59390625613105
 20
853.7503653984323
 10
222.9387317133361
 20
839.6498988586466
  0
LWPOLYLINE
  5
FC
330
17
100
AcDbEntity
  8
0
 62
0
100
AcDbPolyline
 90
4
 70
1
 10
221.3281189773361
 20
839.1130279466466
 10
212.46974892933633
 20
853.8769780266463
 10
197.1689279373366
 20
846.8976561706464
 10
203.61137888133646
 20
832.6705770026467
  0
LWPOLYLINE
  5
FD
330
17
100
AcDbEntity
  8
0
 62
0
100
AcDbPolyline
 90
4
 70
1
 10
201.8665484173365
 20
832.4021415466467
 10
195.77507683205653
 20
846.6030482576864
 10
180.31319456645684
 20
841.7067855402465
 10
182.53919558533693
 20
827.3018678826469
  0
LWPOLYLINE
  5
FE
330
17
100
AcDbEntity
  8
0
 62
0
100
AcDbPolyline
 90
4
 70
1
 10
180.74269129605682
 20
826.5885006583268
 10
178.78109920133699
 20
841.3947293226465
 10
160.52748819333738
 20
839.6498988586466
 10
162.40653638533735
 20
825.4228196906469
  0
LWPOLYLINE
  5
FF
330
17
100
AcDbEntity
  8
0
 62
0
100
AcDbPolyline
 90
4
 70
1
 10
160.39327046533737
 20
825.5570374186469
 10
158.91687545733743
 20
840.0525520426465
 10
143.21340128133772
 20
839.9183343146466
 10
141.8712240013378
 20
825.8254728746468
  0
LWPOLYLINE
  5
100
330
17
100
AcDbEntity
  8
0
 62
0
100
AcDbPolyline
 90
4
 70
1
 10
140.12639353733778
 20
825.6912551466469
 10
141.60278854533777
 20
839.7841165866466
 10
124.90811644805797
 20
842.2221816157664
 10
120.7990407053382
 20
826.8992146986468
  0
LWPOLYLINE
  5
101
330
17
100
AcDbEntity
  8
0
 62
0
100
AcDbPolyline
 90
4
 70
1
 10
118.89838345913012
 20
827.0953067992549
 10
123.50258840044205
 20
842.9007864485345
 10
105.49808549561038
 20
848.3296251106784
 10
100.20668578693852
 20
831.9056701707748
  0
LWPOLYLINE
  5
102
330
17
100
AcDbEntity
  8
0
 62
0
100
AcDbPolyline
 90
4
 70
1
 10
98.69415936656094
 20
831.7919340680677
 10
103.6114902826389
 20
847.9082213852363
 10
88.70712927492912
 20
854.5367936466702
 10
80.10521623124833
 20
839.8156838114938
  0
LWPOLYLINE
  5
103
330
17
100
AcDbEntity
  8
0
 62
0
100
AcDbPolyline
 90
4
 70
1
 10
78.21530003270016
 20
840.3601447154842
 10
87.10080890530145
 20
854.5781910303897
 10
71.78003984118334
 20
863.8056815204191
 10
60.96671137196449
 20
849.1562377376921
  0
LWPOLYLINE
  5
104
330
17
100
AcDbEntity
  8
0
 62
0
100
AcDbPolyline
 90
4
 70
1
 10
59.72976079071651
 20
850.118310411996
 10
70.62533044656334
 20
864.371418649072
 10
57.49418170277994
 20
875.2337863429829
 10
44.13043957164484
 20
859.8077566317719
  0
LWPOLYLINE
  5
105
330
17
100
AcDbEntity
  8
0
 62
0
100
AcDbPolyline
 90
4
 70
1
 10
42.854834284732874
 20
860.9751824299158
 10
55.73973617273259
 20
875.7498699281555
 10
43.88562643577285
 20
887.7757783569552
 10
26.104461830333207
 20
876.6947627332754
  0
LWPOLYLINE
  5
106
330
17
100
AcDbEntity
  8
0
 62
0
100
AcDbPolyline
 90
5
 70
1
 10
42.38842767993282
 20
889.4746392491152
 10
25.5306810431332
 20
878.0929759147155
 10
15.544882079933359
 20
887.9714006955152
 10
13.36056251947075
 20
898.5200775099205
 10
36.446011735469234
 20
898.2516420539205
  0
LWPOLYLINE
  5
107
330
17
100
AcDbEntity
  8
0
 62
0
100
AcDbPolyline
 90
4
 70
1
 10
283.11017701640117
 20
883.7712115559567
 10
274.11758924040134
 20
876.5234542439568
 10
285.3344042329602
 20
865.7812637081782
 10
292.4812298135039
 20
877.4635747532977
  0
LWPOLYLINE
  5
108
330
17
100
AcDbEntity
  8
0
 62
0
100
AcDbPolyline
 90
5
 70
1
 10
257.01531468040184
 20
886.2185879399566
 10
264.65396014715344
 20
898.4975792632649
 10
289.14252149166384
 20
898.822117729569
 10
284.3621767604012
 20
886.7219044199566
 10
271.1081761204015
 20
877.3266634599568
  0
LWPOLYLINE
  5
109
330
17
100
AcDbEntity
  8
0
 62
0
100
AcDbPolyline
 90
7
 70
1
 10
139.47935113480452
 20
657.5899400039615
 10
149.81411619080427
 20
649.9395295079617
 10
163.23588899080397
 20
657.5899400039615
 10
156.7934380468041
 20
664.3008264039613
 10
156.92765577480412
 20
671.6828014439611
 10
147.26397935880436
 20
671.0117128039611
 10
144.31118934280443
 20
664.5692618599612
  0
LWPOLYLINE
  5
10A
330
17
100
AcDbEntity
  8
0
 62
0
100
AcDbPolyline
 90
4
 70
1
 10
164.98071945480393
 20
656.3819804519615
 10
170.6178640308038
 20
647.2551749479617
 10
161.89371171080398
 20
637.7257162599619
 10
153.70643030280416
 20
649.5368763239617
  0
LWPOLYLINE
  5
10B
330
17
100
AcDbEntity
  8
0
 62
0
100
AcDbPolyline
 90
5
 70
1
 10
151.96159983880426
 20
648.8657876839617
 10
159.47779260680403
 20
636.517756707962
 10
150.75364028680428
 20
631.6859184999621
 10
139.74778659080454
 20
639.8731999079619
 10
148.20350345480432
 20
648.1946990439617
  0
LWPOLYLINE
  5
10C
330
17
100
AcDbEntity
  8
0
 62
0
100
AcDbPolyline
 90
4
 70
1
 10
146.86132617480433
 20
649.5368763239617
 10
137.4660852148046
 20
640.8127240039619
 10
129.81567471880476
 20
647.3893926759617
 10
138.1371738548046
 20
655.7108918119616
  0
LWPOLYLINE
  5
10D
330
17
100
AcDbEntity
  8
0
 62
0
100
AcDbPolyline
 90
4
 70
1
 10
171.89293244680374
 20
646.2820964199616
 10
185.5831407028034
 20
633.397194531962
 10
172.9666742708037
 20
619.8412040039623
 10
162.63190921480395
 20
635.9473313639619
  0
LWPOLYLINE
  5
10E
330
17
100
AcDbEntity
  8
0
 62
0
100
AcDbPolyline
 90
4
 70
1
 10
161.558167390804
 20
634.068283171962
 10
170.5507551668038
 20
619.1701153639624
 10
149.8812250548043
 20
610.9828339559625
 10
150.4180959668043
 20
629.2364449639621
  0
LWPOLYLINE
  5
10F
330
17
100
AcDbEntity
  8
0
 62
0
100
AcDbPolyline
 90
4
 70
1
 10
148.53904777480432
 20
630.981275427962
 10
148.4048300468043
 20
611.2512694119625
 10
130.68808995080474
 20
621.0491635559622
 10
140.62020182280452
 20
635.276242723962
  0
LWPOLYLINE
  5
110
330
17
100
AcDbEntity
  8
0
 62
0
100
AcDbPolyline
 90
4
 70
1
 10
139.41224227080454
 20
636.7526377319618
 10
129.2116949428048
 20
622.2571231079622
 10
116.72944623880505
 20
633.397194531962
 10
128.5406063028048
 20
645.6110077799617
  0
LWPOLYLINE
  5
111
330
17
100
AcDbEntity
  8
0
 62
0
100
AcDbPolyline
 90
4
 70
1
 10
187.58621453679973
 20
632.3361424420007
 10
203.9607773527997
 20
620.3907646500006
 10
188.39152090479973
 20
606.4321209380007
 10
177.9225381207998
 20
620.5249823780007
  0
LWPOLYLINE
  5
112
330
17
100
AcDbEntity
  8
0
 62
0
100
AcDbPolyline
 90
4
 70
1
 10
185.57294861679975
 20
606.4321209380007
 10
168.6615148887998
 20
597.8421863460007
 10
162.236805778004
 20
613.6437004135623
 10
176.49743937800366
 20
619.8512703335623
  0
LWPOLYLINE
  5
113
330
17
100
AcDbEntity
  8
0
 62
0
100
AcDbPolyline
 90
5
 70
1
 10
160.2752346548042
 20
613.0725410663624
 10
149.00094550280448
 20
609.0996963175626
 10
147.99198477679988
 20
596.0973558820008
 10
155.64239527279983
 20
596.2315736100007
 10
165.9771603287998
 20
597.9764040740008
  0
LWPOLYLINE
  5
114
330
17
100
AcDbEntity
  8
0
 62
0
100
AcDbPolyline
 90
4
 70
1
 10
147.6050811316045
 20
609.6365672295626
 10
145.57606567279987
 20
596.3657913380007
 10
129.4699383127999
 20
600.1238877220007
 10
136.4381661620048
 20
615.5421472615624
  0
LWPOLYLINE
  5
115
330
17
100
AcDbEntity
  8
0
 62
0
100
AcDbPolyline
 90
4
 70
1
 10
135.44750511163681
 20
616.5067029638344
 10
127.45667239279993
 20
600.7949763620007
 10
110.81367412079999
 20
609.3849109540007
 10
123.7651940665171
 20
623.6363486751942
  0
LWPOLYLINE
  5
116
330
17
100
AcDbEntity
  8
0
 62
0
100
AcDbPolyline
 90
4
 70
1
 10
122.8203012613971
 20
625.2684362476741
 10
109.33727911279999
 20
610.8613059620006
 10
98.0681129343987
 20
619.3798496013326
 10
115.08936012859726
 20
632.0544845753541
  0
LWPOLYLINE
  5
117
330
17
100
AcDbEntity
  8
0
 62
0
100
AcDbPolyline
 90
4
 70
1
 10
192.01539956079972
 20
606.9689918500007
 10
200.9313279698751
 20
595.407676122235
 10
210.7023785682748
 20
603.9976107142348
 10
200.0684632407997
 20
612.6061364260007
  0
LWPOLYLINE
  5
118
330
17
100
AcDbEntity
  8
0
 62
0
100
AcDbPolyline
 90
4
 70
1
 10
201.5448582487997
 20
614.2167491620007
 10
213.38673312827473
 20
604.3197332614347
 10
220.25868080187456
 20
611.1916809350346
 10
205.9740432727997
 20
619.3170228260008
  0
LWPOLYLINE
  5
119
330
17
100
AcDbEntity
  8
0
 62
0
100
AcDbPolyline
 90
4
 70
1
 10
256.2540240594735
 20
889.2380322950279
 10
238.428232059474
 20
899.0946466950277
 10
244.10683660309084
 20
898.7724571702089
 10
262.54548005947333
 20
898.6752162950277
  0
LWPOLYLINE
  5
11A
330
17
100
AcDbEntity
  8
0
 62
0
100
AcDbPolyline
 90
4
 70
1
 10
222.91987903547408
 20
609.9365477510348
 10
240.09974821947367
 20
603.896749991035
 10
230.43607180347385
 20
595.3068153990353
 10
217.55116991547425
 20
604.836274087035
  0
LWPOLYLINE
  5
11B
330
17
100
AcDbEntity
  8
0
 62
0
100
AcDbPolyline
 90
5
 70
1
 10
183.3633980114751
 20
672.0557628550332
 10
158.36534617147578
 20
671.8879906950333
 10
159.03643481147571
 20
664.5060156550335
 10
170.61271385147546
 20
651.9231036550339
 10
188.396562811475
 20
662.6605218950335
  0
LWPOLYLINE
  5
11C
330
17
100
AcDbEntity
  8
0
 62
0
100
AcDbPolyline
 90
4
 70
1
 10
170.78048601147543
 20
689.1685231750328
 10
172.96152409147538
 20
673.9012566150332
 10
154.33881433147587
 20
673.5657122950332
 10
154.00327001147588
 20
688.3296623750329
  0
LWPOLYLINE
  5
11D
330
17
100
AcDbEntity
  8
0
 62
0
100
AcDbPolyline
 90
4
 70
1
 10
159.66083109947567
 20
747.1832001670314
 10
175.23008754747525
 20
751.6123851910313
 10
181.4041030354751
 20
733.2245564550317
 10
161.8083147474756
 20
728.6611537030319
  0
LWPOLYLINE
  5
11E
330
17
100
AcDbEntity
  8
0
 62
0
100
AcDbPolyline
 90
4
 70
1
 10
257.9685975844651
 20
684.9327956225211
 10
243.19391008622551
 20
696.8899845745848
 10
256.9378054334252
 20
707.6102229454004
 10
267.45188537403294
 20
702.1126648065206
  0
LWPOLYLINE
  5
11F
330
17
100
AcDbEntity
  8
0
 62
0
100
AcDbPolyline
 90
5
 70
1
 10
1.4151847274715335
 20
898.5200775099205
 10
1.4151847274715335
 20
875.971499205922
 10
16.239926175050925
 20
883.6788337023547
 10
13.723343775050978
 20
885.9857009023546
 10
11.213078871470891
 20
898.2516420539205
  0
LWPOLYLINE
  5
120
330
17
100
AcDbEntity
  8
0
 62
0
100
AcDbPolyline
 90
4
 70
1
 10
298.9694066649112
 20
899.1657151132489
 10
290.86050841006374
 20
898.822117729569
 10
285.09618883104156
 20
884.5551810943547
 10
298.786397087041
 20
876.233681958355
  0
LWPOLYLINE
  5
121
330
17
100
AcDbEntity
  8
0
 62
0
100
AcDbPolyline
 90
5
 70
1
 10
1.064037596591572
 20
748.9738461115301
 10
7.017297995851493
 20
748.2165214527593
 10
10.641176651851367
 20
738.4186273087596
 10
16.412538955851176
 20
732.5130472767598
 10
1.5143711478517048
 20
725.2652899647601
  0
LWPOLYLINE
  5
122
330
17
100
AcDbEntity
  8
0
 62
0
100
AcDbPolyline
 90
5
 70
1
 10
299.26661750176083
 20
748.1353459417192
 10
294.37035478432097
 20
748.4789433253991
 10
291.1920789852811
 20
742.0364923813993
 10
285.60862150048126
 20
734.9927460159596
 10
299.69611423136075
 20
726.23101273212
  0
LWPOLYLINE
  5
123
330
17
100
AcDbEntity
  8
0
 62
0
100
AcDbPolyline
 90
4
 70
1
 10
93.51671502509976
 20
898.5356956167175
 10
78.91382621869974
 20
885.0494983072774
 10
68.01921937145407
 20
898.6482688807084
 10
83.99112900345385
 20
898.2456156967085
  0
LWPOLYLINE
  5
124
330
17
100
AcDbEntity
  8
0
 62
0
100
AcDbPolyline
 90
4
 70
1
 10
290.8190593459203
 20
802.877406539797
 10
299.66669197568
 20
802.533809156117
 10
298.97949720832
 20
783.5500537077977
 10
288.4997770060804
 20
784.3231478210777
  0
LWPOLYLINE
  5
125
330
17
100
AcDbEntity
  8
0
 62
0
100
AcDbPolyline
 90
4
 70
1
 10
7.970957981451306
 20
876.833553330194
 10
1.7862050752115124
 20
873.8270762229942
 10
1.280128138671541
 20
857.2300906427233
 10
14.32750957953101
 20
863.2614566748346
  0
LWPOLYLINE
  5
126
330
17
100
AcDbEntity
  8
0
 62
0
100
AcDbPolyline
 90
4
 70
1
 10
293.7181803947518
 20
876.9138189394098
 10
300.52140859161557
 20
873.6840035328179
 10
298.80342167321567
 20
857.8098044068025
 10
286.70879376768016
 20
864.8879105106103
  0
LWPOLYLINE
  5
127
330
17
100
AcDbEntity
  8
0
 62
0
100
AcDbPolyline
 90
4
 70
1
 10
17.515980800000023
 20
731.0366387199999
 10
27.8239023104
 20
721.5877106688
 10
16.227490611199983
 20
713.5346469888
 10
10.53665894400001
 20
727.6006648832
  0
LWPOLYLINE
  5
128
330
17
100
AcDbEntity
  8
0
 62
0
100
AcDbPolyline
 90
4
 70
1
 10
2.813402910720015
 20
723.56848908288
 10
2.5557048729600638
 20
708.8797009305599
 10
14.581613301760058
 20
713.00286953472
 10
8.826357125120012
 20
726.2313688064
  0
LWPOLYLINE
  5
129
330
17
100
AcDbEntity
  8
0
 62
0
100
AcDbPolyline
 90
4
 70
1
 10
104.99392097058217
 20
609.2279696625251
 10
98.74225227134446
 20
596.1709151030723
 10
83.84408446334453
 20
609.1900347190722
 10
95.78946225534446
 20
617.6457515830721
  0
LWPOLYLINE
  5
12A
330
17
100
AcDbEntity
  8
0
 62
0
100
AcDbPolyline
 90
3
 70
1
 10
288.8629128426211
 20
713.7542228420589
 10
300.78161888771274
 20
723.3859447013765
 10
300.91356028304585
 20
708.6085084240672
  0
ENDSEC
  0
SECTION
  2
OBJECTS
  0
DICTIONARY
  5
A
330
0
100
AcDbDictionary
281
1
  3
ACAD_COLOR
350
B
  3
ACAD_GROUP
350
C
  3
ACAD_LAYOUT
350
D
  3
ACAD_MATERIAL
350
E
  3
ACAD_MLEADERSTYLE
350
F
  3
ACAD_MLINESTYLE
350
10
  3
ACAD_PLOTSETTINGS
350
11
  3
ACAD_PLOTSTYLENAME
350
12
  3
ACAD_SCALELIST
350
14
  3
ACAD_TABLESTYLE
350
15
  3
ACAD_VISUALSTYLE
350
16
  3
EZDXF_META
350
2D
  0
DICTIONARY
  5
B
330
A
100
AcDbDictionary
281
1
  0
DICTIONARY
  5
C
330
A
100
AcDbDictionary
281
1
  0
DICTIONARY
  5
D
330
A
100
AcDbDictionary
281
1
  3
Model
350
1A
  3
Layout1
350
1E
  0
DICTIONARY
  5
E
330
A
100
AcDbDictionary
281
1
  3
ByBlock
350
1F
  3
ByLayer
350
20
  3
Global
350
21
  0
DICTIONARY
  5
F
330
A
100
AcDbDictionary
281
1
  3
Standard
350
2C
  0
DICTIONARY
  5
10
330
A
100
AcDbDictionary
281
1
  3
Standard
350
22
  0
DICTIONARY
  5
11
330
A
100
AcDbDictionary
281
1
  0
ACDBDICTIONARYWDFLT
  5
12
330
A
100
AcDbDictionary
281
1
  3
Normal
350
13
100
AcDbDictionaryWithDefault
340
13
  0
ACDBPLACEHOLDER
  5
13
330
12
  0
DICTIONARY
  5
14
330
A
100
AcDbDictionary
281
1
  0
DICTIONARY
  5
15
330
A
100
AcDbDictionary
281
1
  0
DICTIONARY
  5
16
330
A
100
AcDbDictionary
281
1
  0
LAYOUT
  5
1A
330
D
100
AcDbPlotSettings
  1

  4
A3
  6

 40
7.5
 41
20.0
 42
7.5
 43
20.0
 44
420.0
 45
297.0
 46
0.0
 47
0.0
 48
0.0
 49
0.0
140
0.0
141
0.0
142
1.0
143
1.0
 70
1024
 72
1
 73
0
 74
5
  7

 75
16
 76
0
 77
2
 78
300
147
1.0
148
0.0
149
0.0
100
AcDbLayout
  1
Model
 70
1
 71
0
 10
0.0
 20
0.0
 11
420.0
 21
297.0
 12
0.0
 22
0.0
 32
0.0
 14
1e+20
 24
1e+20
 34
1e+20
 15
-1e+20
 25
-1e+20
 35
-1e+20
146
0.0
 13
0.0
 23
0.0
 33
0.0
 16
1.0
 26
0.0
 36
0.0
 17
0.0
 27
1.0
 37
0.0
 76
1
330
17
  0
LAYOUT
  5
1E
330
D
100
AcDbPlotSettings
  1

  4
A3
  6

 40
7.5
 41
20.0
 42
7.5
 43
20.0
 44
420.0
 45
297.0
 46
0.0
 47
0.0
 48
0.0
 49
0.0
140
0.0
141
0.0
142
1.0
143
1.0
 70
0
 72
1
 73
0
 74
5
  7

 75
16
 76
0
 77
2
 78
300
147
1.0
148
0.0
149
0.0
100
AcDbLayout
  1
Layout1
 70
1
 71
1
 10
0.0
 20
0.0
 11
420.0
 21
297.0
 12
0.0
 22
0.0
 32
0.0
 14
1e+20
 24
1e+20
 34
1e+20
 15
-1e+20
 25
-1e+20
 35
-1e+20
146
0.0
 13
0.0
 23
0.0
 33
0.0
 16
1.0
 26
0.0
 36
0.0
 17
0.0
 27
1.0
 37
0.0
 76
1
330
1B
  0
MATERIAL
  5
1F
102
{ACAD_REACTORS
330
E
102
}
330
E
100
AcDbMaterial
  1
ByBlock
  2

 70
0
 40
1.0
 71
1
 41
1.0
 91
-1023410177
 42
1.0
 72
1
  3

 73
1
 74
1
 75
1
 44
0.5
 73
0
 45
1.0
 46
1.0
 77
1
  4

 78
1
 79
1
170
1
 48
1.0
171
1
  6

172
1
173
1
174
1
140
1.0
141
1.0
175
1
  7

176
1
177
1
178
1
143
1.0
179
1
  8

270
1
271
1
272
1
145
1.0
146
1.0
273
1
  9

274
1
275
1
276
1
 42
1.0
 72
1
  3

 73
1
 74
1
 75
1
 94
63
  0
MATERIAL
  5
20
102
{ACAD_REACTORS
330
E
102
}
330
E
100
AcDbMaterial
  1
ByLayer
  2

 70
0
 40
1.0
 71
1
 41
1.0
 91
-1023410177
 42
1.0
 72
1
  3

 73
1
 74
1
 75
1
 44
0.5
 73
0
 45
1.0
 46
1.0
 77
1
  4

 78
1
 79
1
170
1
 48
1.0
171
1
  6

172
1
173
1
174
1
140
1.0
141
1.0
175
1
  7

176
1
177
1
178
1
143
1.0
179
1
  8

270
1
271
1
272
1
145
1.0
146
1.0
273
1
  9

274
1
275
1
276
1
 42
1.0
 72
1
  3

 73
1
 74
1
 75
1
 94
63
  0
MATERIAL
  5
21
102
{ACAD_REACTORS
330
E
102
}
330
E
100
AcDbMaterial
  1
Global
  2

 70
0
 40
1.0
 71
1
 41
1.0
 91
-1023410177
 42
1.0
 72
1
  3

 73
1
 74
1
 75
1
 44
0.5
 73
0
 45
1.0
 46
1.0
 77
1
  4

 78
1
 79
1
170
1
 48
1.0
171
1
  6

172
1
173
1
174
1
140
1.0
141
1.0
175
1
  7

176
1
177
1
178
1
143
1.0
179
1
  8

270
1
271
1
272
1
145
1.0
146
1.0
273
1
  9

274
1
275
1
276
1
 42
1.0
 72
1
  3

 73
1
 74
1
 75
1
 94
63
  0
MLINESTYLE
  5
22
102
{ACAD_REACTORS
330
10
102
}
330
10
100
AcDbMlineStyle
  2
Standard
 70
0
  3

 62
256
 51
90.0
 52
90.0
 71
2
 49
0.5
 62
256
  6
BYLAYER
 49
-0.5
 62
256
  6
BYLAYER
  0
MLEADERSTYLE
  5
2C
102
{ACAD_REACTORS
330
F
102
}
330
F
100
AcDbMLeaderStyle
179
2
170
2
171
1
172
0
 90
2
 40
0.0
 41
0.0
173
1
 91
-1056964608
 92
-2
290
1
 42
2.0
291
1
 43
8.0
  3
Standard
 44
4.0
300

342
29
174
1
175
1
176
0
178
1
 93
-1056964608
 45
4.0
292
0
297
0
 46
4.0
 94
-1056964608
 47
1.0
 49
1.0
140
1.0
294
1
141
0.0
177
0
142
1.0
295
0
296
0
143
3.75
271
0
272
9
273
9
  0
DICTIONARY
  5
2D
330
A
100
AcDbDictionary
280
1
281
1
  3
CREATED_BY_EZDXF
350
2E
  3
WRITTEN_BY_EZDXF
350
12D
  0
DICTIONARYVAR
  5
2E
330
2D
100
DictionaryVariables
280
0
  1
1.4.2 @ 2025-09-02T11:43:58.710498+00:00
  0
DICTIONARYVAR
  5
12D
330
2D
100
DictionaryVariables
280
0
  1
1.4.2 @ 2025-09-02T11:43:58.725520+00:00
  0
ENDSEC
  0
EOF
