  0
SECTION
  2
HEADER
  9
$ACADVER
  1
AC1024
  9
$ACADMAINTVER
 70
6
  9
$DWGCODEPAGE
  3
ANSI_1252
  9
$LASTSAVEDBY
  1
ezdxf
  9
$INSBASE
 10
0.0
 20
0.0
 30
0.0
  9
$EXTMIN
 10
1e+20
 20
1e+20
 30
1e+20
  9
$EXTMAX
 10
-1e+20
 20
-1e+20
 30
-1e+20
  9
$LIMMIN
 10
0.0
 20
0.0
  9
$LIMMAX
 10
420.0
 20
297.0
  9
$ORTHOMODE
 70
0
  9
$REGENMODE
 70
1
  9
$FILLMODE
 70
1
  9
$QTEXTMODE
 70
0
  9
$MIRRTEXT
 70
1
  9
$LTSCALE
 40
1.0
  9
$ATTMODE
 70
1
  9
$TEXTSIZE
 40
2.5
  9
$TRACEWID
 40
1.0
  9
$TEXTSTYLE
  7
Standard
  9
$CLAYER
  8
0
  9
$CELTYPE
  6
ByLayer
  9
$CECOLOR
 62
256
  9
$CELTSCALE
 40
1.0
  9
$DISPSILH
 70
0
  9
$DIMSCALE
 40
1.0
  9
$DIMASZ
 40
2.5
  9
$DIMEXO
 40
0.625
  9
$DIMDLI
 40
3.75
  9
$DIMRND
 40
0.0
  9
$DIMDLE
 40
0.0
  9
$DIMEXE
 40
1.25
  9
$DIMTP
 40
0.0
  9
$DIMTM
 40
0.0
  9
$DIMTXT
 40
2.5
  9
$DIMCEN
 40
2.5
  9
$DIMTSZ
 40
0.0
  9
$DIMTOL
 70
0
  9
$DIMLIM
 70
0
  9
$DIMTIH
 70
0
  9
$DIMTOH
 70
0
  9
$DIMSE1
 70
0
  9
$DIMSE2
 70
0
  9
$DIMTAD
 70
1
  9
$DIMZIN
 70
8
  9
$DIMBLK
  1

  9
$DIMASO
 70
1
  9
$DIMSHO
 70
1
  9
$DIMPOST
  1

  9
$DIMAPOST
  1

  9
$DIMALT
 70
0
  9
$DIMALTD
 70
3
  9
$DIMALTF
 40
0.03937007874
  9
$DIMLFAC
 40
1.0
  9
$DIMTOFL
 70
1
  9
$DIMTVP
 40
0.0
  9
$DIMTIX
 70
0
  9
$DIMSOXD
 70
0
  9
$DIMSAH
 70
0
  9
$DIMBLK1
  1

  9
$DIMBLK2
  1

  9
$DIMSTYLE
  2
ISO-25
  9
$DIMCLRD
 70
0
  9
$DIMCLRE
 70
0
  9
$DIMCLRT
 70
0
  9
$DIMTFAC
 40
1.0
  9
$DIMGAP
 40
0.625
  9
$DIMJUST
 70
0
  9
$DIMSD1
 70
0
  9
$DIMSD2
 70
0
  9
$DIMTOLJ
 70
0
  9
$DIMTZIN
 70
8
  9
$DIMALTZ
 70
0
  9
$DIMALTTZ
 70
0
  9
$DIMUPT
 70
0
  9
$DIMDEC
 70
2
  9
$DIMTDEC
 70
2
  9
$DIMALTU
 70
2
  9
$DIMALTTD
 70
3
  9
$DIMTXSTY
  7
Standard
  9
$DIMAUNIT
 70
0
  9
$DIMADEC
 70
0
  9
$DIMALTRND
 40
0.0
  9
$DIMAZIN
 70
0
  9
$DIMDSEP
 70
44
  9
$DIMATFIT
 70
3
  9
$DIMFRAC
 70
0
  9
$DIMLDRBLK
  1

  9
$DIMLUNIT
 70
2
  9
$DIMLWD
 70
-2
  9
$DIMLWE
 70
-2
  9
$DIMTMOVE
 70
0
  9
$DIMFXL
 40
1.0
  9
$DIMFXLON
 70
0
  9
$DIMJOGANG
 40
0.785398163397
  9
$DIMTFILL
 70
0
  9
$DIMTFILLCLR
 70
0
  9
$DIMARCSYM
 70
0
  9
$DIMLTYPE
  6

  9
$DIMLTEX1
  6

  9
$DIMLTEX2
  6

  9
$DIMTXTDIRECTION
 70
0
  9
$LUNITS
 70
2
  9
$LUPREC
 70
4
  9
$SKETCHINC
 40
1.0
  9
$FILLETRAD
 40
10.0
  9
$AUNITS
 70
0
  9
$AUPREC
 70
2
  9
$MENU
  1
.
  9
$ELEVATION
 40
0.0
  9
$PELEVATION
 40
0.0
  9
$THICKNESS
 40
0.0
  9
$LIMCHECK
 70
0
  9
$CHAMFERA
 40
0.0
  9
$CHAMFERB
 40
0.0
  9
$CHAMFERC
 40
0.0
  9
$CHAMFERD
 40
0.0
  9
$SKPOLY
 70
0
  9
$TDCREATE
 40
2460921.6138657406
  9
$TDUCREATE
 40
2458532.153996898
  9
$TDUPDATE
 40
2460921.6138657406
  9
$TDUUPDATE
 40
2458532.1544311
  9
$TDINDWG
 40
0.0
  9
$TDUSRTIMER
 40
0.0
  9
$USRTIMER
 70
1
  9
$ANGBASE
 50
0.0
  9
$ANGDIR
 70
0
  9
$PDMODE
 70
0
  9
$PDSIZE
 40
0.0
  9
$PLINEWID
 40
0.0
  9
$SPLFRAME
 70
0
  9
$SPLINETYPE
 70
6
  9
$SPLINESEGS
 70
8
  9
$HANDSEED
  5
12E
  9
$SURFTAB1
 70
6
  9
$SURFTAB2
 70
6
  9
$SURFTYPE
 70
6
  9
$SURFU
 70
6
  9
$SURFV
 70
6
  9
$UCSBASE
  2

  9
$UCSNAME
  2

  9
$UCSORG
 10
0.0
 20
0.0
 30
0.0
  9
$UCSXDIR
 10
1.0
 20
0.0
 30
0.0
  9
$UCSYDIR
 10
0.0
 20
1.0
 30
0.0
  9
$UCSORTHOREF
  2

  9
$UCSORTHOVIEW
 70
0
  9
$UCSORGTOP
 10
0.0
 20
0.0
 30
0.0
  9
$UCSORGBOTTOM
 10
0.0
 20
0.0
 30
0.0
  9
$UCSORGLEFT
 10
0.0
 20
0.0
 30
0.0
  9
$UCSORGRIGHT
 10
0.0
 20
0.0
 30
0.0
  9
$UCSORGFRONT
 10
0.0
 20
0.0
 30
0.0
  9
$UCSORGBACK
 10
0.0
 20
0.0
 30
0.0
  9
$PUCSBASE
  2

  9
$PUCSNAME
  2

  9
$PUCSORG
 10
0.0
 20
0.0
 30
0.0
  9
$PUCSXDIR
 10
1.0
 20
0.0
 30
0.0
  9
$PUCSYDIR
 10
0.0
 20
1.0
 30
0.0
  9
$PUCSORTHOREF
  2

  9
$PUCSORTHOVIEW
 70
0
  9
$PUCSORGTOP
 10
0.0
 20
0.0
 30
0.0
  9
$PUCSORGBOTTOM
 10
0.0
 20
0.0
 30
0.0
  9
$PUCSORGLEFT
 10
0.0
 20
0.0
 30
0.0
  9
$PUCSORGRIGHT
 10
0.0
 20
0.0
 30
0.0
  9
$PUCSORGFRONT
 10
0.0
 20
0.0
 30
0.0
  9
$PUCSORGBACK
 10
0.0
 20
0.0
 30
0.0
  9
$USERI1
 70
0
  9
$USERI2
 70
0
  9
$USERI3
 70
0
  9
$USERI4
 70
0
  9
$USERI5
 70
0
  9
$USERR1
 40
0.0
  9
$USERR2
 40
0.0
  9
$USERR3
 40
0.0
  9
$USERR4
 40
0.0
  9
$USERR5
 40
0.0
  9
$WORLDVIEW
 70
1
  9
$SHADEDGE
 70
3
  9
$SHADEDIF
 70
70
  9
$TILEMODE
 70
1
  9
$MAXACTVP
 70
64
  9
$PINSBASE
 10
0.0
 20
0.0
 30
0.0
  9
$PLIMCHECK
 70
0
  9
$PEXTMIN
 10
1e+20
 20
1e+20
 30
1e+20
  9
$PEXTMAX
 10
-1e+20
 20
-1e+20
 30
-1e+20
  9
$PLIMMIN
 10
0.0
 20
0.0
  9
$PLIMMAX
 10
420.0
 20
297.0
  9
$UNITMODE
 70
0
  9
$VISRETAIN
 70
1
  9
$PLINEGEN
 70
0
  9
$PSLTSCALE
 70
1
  9
$TREEDEPTH
 70
3020
  9
$CMLSTYLE
  2
Standard
  9
$CMLJUST
 70
0
  9
$CMLSCALE
 40
20.0
  9
$PROXYGRAPHICS
 70
1
  9
$MEASUREMENT
 70
1
  9
$CELWEIGHT
370
-1
  9
$ENDCAPS
280
0
  9
$JOINSTYLE
280
0
  9
$LWDISPLAY
290
0
  9
$INSUNITS
 70
6
  9
$HYPERLINKBASE
  1

  9
$STYLESHEET
  1

  9
$XEDIT
290
1
  9
$CEPSNTYPE
380
0
  9
$PSTYLEMODE
290
1
  9
$FINGERPRINTGUID
  2
{FCA273C2-ED8B-474F-9035-6F9A5E73C610}
  9
$VERSIONGUID
  2
{4C15E73F-52F0-4A43-84CE-5626C9091CFD}
  9
$EXTNAMES
290
1
  9
$PSVPSCALE
 40
0.0
  9
$OLESTARTUP
290
0
  9
$SORTENTS
280
127
  9
$INDEXCTL
280
0
  9
$HIDETEXT
280
1
  9
$XCLIPFRAME
280
1
  9
$HALOGAP
280
0
  9
$OBSCOLOR
 70
257
  9
$OBSLTYPE
280
0
  9
$INTERSECTIONDISPLAY
280
0
  9
$INTERSECTIONCOLOR
 70
257
  9
$DIMASSOC
280
2
  9
$PROJECTNAME
  1

  9
$CAMERADISPLAY
290
0
  9
$LENSLENGTH
 40
50.0
  9
$CAMERAHEIGHT
 40
0.0
  9
$STEPSPERSEC
 40
24.0
  9
$STEPSIZE
 40
100.0
  9
$3DDWFPREC
 40
2.0
  9
$PSOLWIDTH
 40
0.005
  9
$PSOLHEIGHT
 40
0.08
  9
$LOFTANG1
 40
1.570796326795
  9
$LOFTANG2
 40
1.570796326795
  9
$LOFTMAG1
 40
0.0
  9
$LOFTMAG2
 40
0.0
  9
$LOFTPARAM
 70
7
  9
$LOFTNORMALS
280
1
  9
$LATITUDE
 40
37.795
  9
$LONGITUDE
 40
-122.394
  9
$NORTHDIRECTION
 40
0.0
  9
$TIMEZONE
 70
-8000
  9
$LIGHTGLYPHDISPLAY
280
1
  9
$TILEMODELIGHTSYNCH
280
1
  9
$CMATERIAL
347
20
  9
$SOLIDHIST
280
0
  9
$SHOWHIST
280
1
  9
$DWFFRAME
280
2
  9
$DGNFRAME
280
2
  9
$REALWORLDSCALE
290
1
  9
$INTERFERECOLOR
 62
256
  9
$CSHADOW
280
0
  9
$SHADOWPLANELOCATION
 40
0.0
  0
ENDSEC
  0
SECTION
  2
CLASSES
  0
CLASS
  1
ACDBDICTIONARYWDFLT
  2
AcDbDictionaryWithDefault
  3
ObjectDBX Classes
 90
0
 91
0
280
0
281
0
  0
CLASS
  1
SUN
  2
AcDbSun
  3
SCENEOE
 90
1153
 91
0
280
0
281
0
  0
CLASS
  1
VISUALSTYLE
  2
AcDbVisualStyle
  3
ObjectDBX Classes
 90
4095
 91
0
280
0
281
0
  0
CLASS
  1
MATERIAL
  2
AcDbMaterial
  3
ObjectDBX Classes
 90
1153
 91
0
280
0
281
0
  0
CLASS
  1
SCALE
  2
AcDbScale
  3
ObjectDBX Classes
 90
1153
 91
0
280
0
281
0
  0
CLASS
  1
TABLESTYLE
  2
AcDbTableStyle
  3
ObjectDBX Classes
 90
4095
 91
0
280
0
281
0
  0
CLASS
  1
MLEADERSTYLE
  2
AcDbMLeaderStyle
  3
ACDB_MLEADERSTYLE_CLASS
 90
4095
 91
0
280
0
281
0
  0
CLASS
  1
DICTIONARYVAR
  2
AcDbDictionaryVar
  3
ObjectDBX Classes
 90
0
 91
0
280
0
281
0
  0
CLASS
  1
CELLSTYLEMAP
  2
AcDbCellStyleMap
  3
ObjectDBX Classes
 90
1152
 91
0
280
0
281
0
  0
CLASS
  1
MENTALRAYRENDERSETTINGS
  2
AcDbMentalRayRenderSettings
  3
SCENEOE
 90
1024
 91
0
280
0
281
0
  0
CLASS
  1
ACDBDETAILVIEWSTYLE
  2
AcDbDetailViewStyle
  3
ObjectDBX Classes
 90
1025
 91
0
280
0
281
0
  0
CLASS
  1
ACDBSECTIONVIEWSTYLE
  2
AcDbSectionViewStyle
  3
ObjectDBX Classes
 90
1025
 91
0
280
0
281
0
  0
CLASS
  1
RASTERVARIABLES
  2
AcDbRasterVariables
  3
ISM
 90
0
 91
0
280
0
281
0
  0
CLASS
  1
LAYOUT
  2
AcDbLayout
  3
ObjectDBX Classes
 90
0
 91
0
280
0
281
0
  0
CLASS
  1
ACDBPLACEHOLDER
  2
AcDbPlaceHolder
  3
ObjectDBX Classes
 90
0
 91
0
280
0
281
0
  0
ENDSEC
  0
SECTION
  2
TABLES
  0
TABLE
  2
VPORT
  5
8
330
0
100
AcDbSymbolTable
 70
1
  0
VPORT
  5
23
330
8
100
AcDbSymbolTableRecord
100
AcDbViewportTableRecord
  2
*Active
 70
0
 10
0.0
 20
0.0
 11
1.0
 21
1.0
 12
0.0
 22
0.0
 13
0.0
 23
0.0
 14
0.5
 24
0.5
 15
0.5
 25
0.5
 16
0.0
 26
0.0
 36
1.0
 17
0.0
 27
0.0
 37
0.0
 40
1000.0
 41
1.34
 42
50.0
 43
0.0
 44
0.0
 50
0.0
 51
0.0
 71
0
 72
1000
 73
1
 74
3
 75
0
 76
0
 77
0
 78
0
281
0
 65
0
146
0.0
  0
ENDTAB
  0
TABLE
  2
LTYPE
  5
2
330
0
100
AcDbSymbolTable
 70
3
  0
LTYPE
  5
24
330
2
100
AcDbSymbolTableRecord
100
AcDbLinetypeTableRecord
  2
ByBlock
 70
0
  3

 72
65
 73
0
 40
0.0
  0
LTYPE
  5
25
330
2
100
AcDbSymbolTableRecord
100
AcDbLinetypeTableRecord
  2
ByLayer
 70
0
  3

 72
65
 73
0
 40
0.0
  0
LTYPE
  5
26
330
2
100
AcDbSymbolTableRecord
100
AcDbLinetypeTableRecord
  2
Continuous
 70
0
  3

 72
65
 73
0
 40
0.0
  0
ENDTAB
  0
TABLE
  2
LAYER
  5
1
330
0
100
AcDbSymbolTable
 70
2
  0
LAYER
  5
27
330
1
100
AcDbSymbolTableRecord
100
AcDbLayerTableRecord
  2
0
 70
0
 62
7
  6
Continuous
370
-3
390
13
347
21
  0
LAYER
  5
28
330
1
100
AcDbSymbolTableRecord
100
AcDbLayerTableRecord
  2
Defpoints
 70
0
 62
7
  6
Continuous
290
0
370
-3
390
13
347
21
  0
ENDTAB
  0
TABLE
  2
STYLE
  5
5
330
0
100
AcDbSymbolTable
 70
1
  0
STYLE
  5
29
330
5
100
AcDbSymbolTableRecord
100
AcDbTextStyleTableRecord
  2
Standard
 70
0
 40
0.0
 41
1.0
 50
0.0
 71
0
 42
2.5
  3
txt
  4

  0
ENDTAB
  0
TABLE
  2
VIEW
  5
7
330
0
100
AcDbSymbolTable
 70
0
  0
ENDTAB
  0
TABLE
  2
UCS
  5
6
330
0
100
AcDbSymbolTable
 70
0
  0
ENDTAB
  0
TABLE
  2
APPID
  5
3
330
0
100
AcDbSymbolTable
 70
3
  0
APPID
  5
2A
330
3
100
AcDbSymbolTableRecord
100
AcDbRegAppTableRecord
  2
ACAD
 70
0
  0
APPID
  5
12B
330
3
100
AcDbSymbolTableRecord
100
AcDbRegAppTableRecord
  2
HATCHBACKGROUNDCOLOR
 70
0
  0
APPID
  5
12C
330
3
100
AcDbSymbolTableRecord
100
AcDbRegAppTableRecord
  2
EZDXF
 70
0
  0
ENDTAB
  0
TABLE
  2
DIMSTYLE
  5
4
330
0
100
AcDbSymbolTable
 70
1
100
AcDbDimStyleTable
  0
DIMSTYLE
105
2B
330
4
100
AcDbSymbolTableRecord
100
AcDbDimStyleTableRecord
  2
Standard
 70
0
 40
1.0
 41
2.5
 42
0.625
 43
3.75
 44
1.25
 45
0.0
 46
0.0
 47
0.0
 48
0.0
 49
2.5
140
2.5
141
2.5
142
0.0
143
0.03937007874
144
1.0
145
0.0
146
1.0
147
0.625
148
0.0
 69
0
 70
0
 71
0
 72
0
 73
0
 74
0
 75
0
 76
0
 77
1
 78
8
 79
3
170
0
171
3
172
1
173
0
174
0
175
0
176
0
177
0
178
0
179
2
271
2
272
2
273
2
274
3
275
0
276
0
277
2
278
44
279
0
280
0
281
0
282
0
283
0
284
8
285
0
286
0
288
0
289
3
290
0
371
-2
372
-2
  0
ENDTAB
  0
TABLE
  2
BLOCK_RECORD
  5
9
330
0
100
AcDbSymbolTable
 70
2
  0
BLOCK_RECORD
  5
17
330
9
100
AcDbSymbolTableRecord
100
AcDbBlockTableRecord
  2
*Model_Space
340
1A
 70
0
280
1
281
0
  0
BLOCK_RECORD
  5
1B
330
9
100
AcDbSymbolTableRecord
100
AcDbBlockTableRecord
  2
*Paper_Space
340
1E
 70
0
280
1
281
0
  0
ENDTAB
  0
ENDSEC
  0
SECTION
  2
BLOCKS
  0
BLOCK
  5
18
330
17
100
AcDbEntity
  8
0
100
AcDbBlockBegin
  2
*Model_Space
 70
0
 10
0.0
 20
0.0
 30
0.0
  3
*Model_Space
  1

  0
ENDBLK
  5
19
330
17
100
AcDbEntity
  8
0
100
AcDbBlockEnd
  0
BLOCK
  5
1C
330
1B
100
AcDbEntity
  8
0
100
AcDbBlockBegin
  2
*Paper_Space
 70
0
 10
0.0
 20
0.0
 30
0.0
  3
*Paper_Space
  1

  0
ENDBLK
  5
1D
330
1B
100
AcDbEntity
  8
0
100
AcDbBlockEnd
  0
ENDSEC
  0
SECTION
  2
ENTITIES
  0
TEXT
  5
2F
330
17
100
AcDbEntity
  8
0
100
AcDbText
 10
0.0
 20
0.0
 30
0.0
 40
10.0
  1
Grid Box B2
100
AcDbText
  0
LWPOLYLINE
  5
30
330
17
100
AcDbEntity
  8
0
 62
8
100
AcDbPolyline
 90
5
 70
0
 10
280.0
 20
280.0
 10
620.0
 20
280.0
 10
620.0
 20
620.0
 10
280.0
 20
620.0
 10
280.0
 20
280.0
  0
LWPOLYLINE
  5
31
330
17
100
AcDbEntity
  8
0
 62
0
100
AcDbPolyline
 90
4
 70
1
 10
520.8585229312
 20
463.4914438144001
 10
506.68513085440003
 20
471.9740042240001
 10
493.4070746408188
 20
459.28072097412405
 10
502.0987164207234
 20
445.9026996957065
  0
LWPOLYLINE
  5
32
330
17
100
AcDbEntity
  8
0
 62
0
100
AcDbPolyline
 90
4
 70
1
 10
500.9696923346746
 20
444.2757086342315
 10
491.574431392001
 20
458.79232432395236
 10
477.20789042986246
 20
451.6864398515121
 10
482.8234555090751
 20
434.5046580358317
  0
LWPOLYLINE
  5
33
330
17
100
AcDbEntity
  8
0
 62
0
100
AcDbPolyline
 90
4
 70
1
 10
460.27487720507565
 20
428.1695812742319
 10
457.8036087917693
 20
446.82696196318335
 10
441.80651783227614
 20
446.3158180998314
 10
439.44428581947625
 20
427.8474587270319
  0
LWPOLYLINE
  5
34
330
17
100
AcDbEntity
  8
0
 62
0
100
AcDbPolyline
 90
4
 70
1
 10
437.29680217147626
 20
428.81382636863185
 10
439.62555893945864
 20
446.93584319024313
 10
424.7969411883494
 20
449.666619017663
 10
416.6809591506768
 20
433.9677871238317
  0
LWPOLYLINE
  5
35
330
17
100
AcDbEntity
  8
0
 62
0
100
AcDbPolyline
 90
4
 70
1
 10
416.16718885081343
 20
436.82160966987504
 10
422.2247146071696
 20
451.3805740074379
 10
409.1094916787919
 20
459.40194923352277
 10
398.6224759739906
 20
447.29828447201965
  0
LWPOLYLINE
  5
36
330
17
100
AcDbEntity
  8
0
 62
0
100
AcDbPolyline
 90
4
 70
1
 10
397.3932035245202
 20
447.4882117238068
 10
407.2493714896051
 20
461.1099354519957
 10
399.70390402499294
 20
472.92097959254795
 10
383.55650385738693
 20
462.84150200833227
  0
LWPOLYLINE
  5
37
330
17
100
AcDbEntity
  8
0
 62
0
100
AcDbPolyline
 90
4
 70
1
 10
540.6153724928
 20
455.5457543168001
 10
523.2067974621713
 20
463.6595043174249
 10
511.6456136089603
 20
450.60725495808015
 10
524.7452638617602
 20
436.5412370636801
  0
LWPOLYLINE
  5
38
330
17
100
AcDbEntity
  8
0
 62
0
100
AcDbPolyline
 90
4
 70
1
 10
523.0272769433602
 20
435.2527468748801
 10
510.67924596736026
 20
449.3187647692801
 10
498.43858917376025
 20
439.86983671808014
 10
507.8875172249603
 20
423.6563351756801
  0
LWPOLYLINE
  5
39
330
17
100
AcDbEntity
  8
0
 62
0
100
AcDbPolyline
 90
4
 70
1
 10
506.0688691144677
 20
422.85597584445844
 10
497.6314564849973
 20
437.7447137772251
 10
482.16236729407956
 20
431.47290136899585
 10
487.08702690095583
 20
415.1635537638736
  0
LWPOLYLINE
  5
3A
330
17
100
AcDbEntity
  8
0
 62
0
100
AcDbPolyline
 90
4
 70
1
 10
485.158596699154
 20
415.71503335365867
 10
480.4612234962751
 20
430.6391874694318
 10
463.5270860053842
 20
426.8964820515399
 10
466.7284234584833
 20
412.1723728744543
  0
LWPOLYLINE
  5
3B
330
17
100
AcDbEntity
  8
0
 62
0
100
AcDbPolyline
 90
4
 70
1
 10
465.10671541307556
 20
411.09708627263234
 10
461.56336739387564
 20
426.0220976262319
 10
445.13511748667605
 20
424.840981619832
 10
444.4908723922761
 20
409.2717251718324
  0
LWPOLYLINE
  5
3C
330
17
100
AcDbEntity
  8
0
 62
0
100
AcDbPolyline
 90
4
 70
1
 10
442.7559229955188
 20
409.79894493494675
 10
443.2836628373729
 20
425.6280799692127
 10
427.76155114045145
 20
428.8568589949407
 10
423.66028100667666
 20
412.2782022790323
  0
LWPOLYLINE
  5
3D
330
17
100
AcDbEntity
  8
0
 62
0
100
AcDbPolyline
 90
4
 70
1
 10
422.23592155931004
 20
412.94450260243667
 10
426.0084824285802
 20
428.7616602911016
 10
409.6395162963724
 20
434.0590549377547
 10
402.9135049145186
 20
421.10772789035644
  0
LWPOLYLINE
  5
3E
330
17
100
AcDbEntity
  8
0
 62
0
100
AcDbPolyline
 90
4
 70
1
 10
400.60819116467337
 20
421.88693257793483
 10
409.26377759471427
 20
435.5518751892905
 10
395.05546950232275
 20
444.41681980480496
 10
385.13337216383013
 20
431.49937150367896
  0
LWPOLYLINE
  5
3F
330
17
100
AcDbEntity
  8
0
 62
0
100
AcDbPolyline
 90
4
 70
1
 10
383.64743722435327
 20
431.9751773115887
 10
394.90025153987307
 20
447.09346219350846
 10
384.7641287213132
 20
458.00267912534827
 10
370.2471392608335
 20
446.74986480982847
  0
LWPOLYLINE
  5
40
330
17
100
AcDbEntity
  8
0
 62
0
100
AcDbPolyline
 90
4
 70
1
 10
505.19363635199994
 20
472.8380308480002
 10
488.9532912639999
 20
482.7701427200002
 10
486.5076584919089
 20
480.398807558002
 10
498.52527201640106
 20
467.69661556711117
  0
LWPOLYLINE
  5
41
330
17
100
AcDbEntity
  8
0
 62
0
100
AcDbPolyline
 90
4
 70
1
 10
497.9632152274747
 20
466.0726676614309
 10
484.86356497467506
 20
479.38706627903053
 10
471.75661765859087
 20
471.2637747726662
 10
479.7096042194752
 20
454.5836301446312
  0
LWPOLYLINE
  5
42
330
17
100
AcDbEntity
  8
0
 62
0
100
AcDbPolyline
 90
4
 70
1
 10
477.45474638907524
 20
453.6172625030312
 10
470.06301141694945
 20
471.0988701416329
 10
455.73215737869737
 20
467.62235169221736
 10
458.1273935570757
 20
448.67805011263135
  0
LWPOLYLINE
  5
43
330
17
100
AcDbEntity
  8
0
 62
0
100
AcDbPolyline
 90
4
 70
1
 10
455.5504131794758
 20
448.46330174783134
 10
453.995660313776
 20
467.2450423977785
 10
439.03557687645997
 20
468.96811103050914
 10
434.61244761147634
 20
449.7517919366313
  0
LWPOLYLINE
  5
44
330
17
100
AcDbEntity
  8
0
 62
0
100
AcDbPolyline
 90
4
 70
1
 10
432.1401949299124
 20
450.93682372312225
 10
437.83367308347624
 20
470.0455124102308
 10
422.9691847955173
 20
474.8629886245664
 10
412.5464794872805
 20
460.42761488079617
  0
LWPOLYLINE
  5
45
330
17
100
AcDbEntity
  8
0
 62
0
100
AcDbPolyline
 90
4
 70
1
 10
410.62355520890617
 20
462.0036978090476
 10
421.2831581217362
 20
475.3321691196644
 10
414.2385812480001
 20
484.04772771840004
 10
401.2463051776001
 20
473.31030947840003
  0
LWPOLYLINE
  5
46
330
17
100
AcDbEntity
  8
0
 62
0
100
AcDbPolyline
 90
4
 70
1
 10
562.9108600498352
 20
448.9477739809095
 10
542.7507500133905
 20
455.9048072803959
 10
532.5835791769603
 20
443.1984363724801
 10
548.1528356249602
 20
431.0651537612801
  0
LWPOLYLINE
  5
47
330
17
100
AcDbEntity
  8
0
 62
0
100
AcDbPolyline
 90
4
 70
1
 10
545.9840816128
 20
428.9169570816001
 10
532.4762049945602
 20
440.83620435968015
 10
519.3222056587659
 20
429.9530690564998
 10
530.2213471641602
 20
415.9253940428801
  0
LWPOLYLINE
  5
48
330
17
100
AcDbEntity
  8
0
 62
0
100
AcDbPolyline
 90
4
 70
1
 10
527.9690882223549
 20
415.6100823939742
 10
518.5921285010852
 20
427.27242698878524
 10
504.30846000764666
 20
420.03758239276266
 10
512.5719744251471
 20
405.01363110970135
  0
LWPOLYLINE
  5
49
330
17
100
AcDbEntity
  8
0
 62
0
100
AcDbPolyline
 90
4
 70
1
 10
510.37460842496023
 20
403.70075424768015
 10
503.1790562994888
 20
418.55432679548505
 10
487.2672951834835
 20
413.22050449611544
 10
491.9009339080769
 20
395.6479745204642
  0
LWPOLYLINE
  5
4A
330
17
100
AcDbEntity
  8
0
 62
0
100
AcDbPolyline
 90
4
 70
1
 10
489.9918688396719
 20
397.25635997220934
 10
485.24449604507396
 20
414.1688451270987
 10
469.095419012114
 20
410.38927390661866
 10
471.21754502607286
 20
391.17555493019773
  0
LWPOLYLINE
  5
4B
330
17
100
AcDbEntity
  8
0
 62
0
100
AcDbPolyline
 90
4
 70
1
 10
469.7630312712347
 20
390.89567082084403
 10
467.205633401874
 20
409.9597771770187
 10
449.6821668341941
 20
408.1558909126987
 10
449.6821668341941
 20
390.03112892357876
  0
LWPOLYLINE
  5
4C
330
17
100
AcDbEntity
  8
0
 62
0
100
AcDbPolyline
 90
4
 70
1
 10
447.633703857088
 20
389.71273864376474
 10
447.4827210821401
 20
407.62050234329695
 10
431.31213746640816
 20
408.1722195870376
 10
429.5544708700119
 20
390.09770977315713
  0
LWPOLYLINE
  5
4D
330
17
100
AcDbEntity
  8
0
 62
0
100
AcDbPolyline
 90
4
 70
1
 10
426.45842484880075
 20
391.7115378909502
 10
429.7303660226743
 20
409.01689763781866
 10
414.35438310299435
 20
413.1400662419786
 10
408.25552954267437
 20
396.8191905171787
  0
LWPOLYLINE
  5
4E
330
17
100
AcDbEntity
  8
0
 62
0
100
AcDbPolyline
 90
4
 70
1
 10
406.72463352563716
 20
398.07286378618574
 10
412.33466108480275
 20
413.0037876970576
 10
397.5901560236216
 20
420.7019148478793
 10
388.8069445866818
 20
406.8015128743531
  0
LWPOLYLINE
  5
4F
330
17
100
AcDbEntity
  8
0
 62
0
100
AcDbPolyline
 90
4
 70
1
 10
386.55596864861974
 20
407.5588342476361
 10
395.7209862564024
 20
421.0867439176009
 10
382.30694439753523
 20
431.0922997303625
 10
371.318349089075
 20
417.8591208993163
  0
LWPOLYLINE
  5
50
330
17
100
AcDbEntity
  8
0
 62
0
100
AcDbPolyline
 90
4
 70
1
 10
369.3577527504081
 20
417.91390812501123
 10
380.87757928142645
 20
433.2913229859145
 10
370.37724323616567
 20
444.50634158922963
 10
355.35697305136296
 20
432.82413434058253
  0
LWPOLYLINE
  5
51
330
17
100
AcDbEntity
  8
0
 62
0
100
AcDbPolyline
 90
4
 70
1
 10
354.6088010841664
 20
433.9095903952968
 10
368.1921386598857
 20
445.3073198638115
 10
363.0799125856336
 20
455.9035138594282
 10
344.52565386691396
 20
448.08667338070836
  0
LWPOLYLINE
  5
52
330
17
100
AcDbEntity
  8
0
 62
0
100
AcDbPolyline
 90
4
 70
1
 10
487.74533171199994
 20
484.3807554560002
 10
473.78668799999997
 20
495.5208268800002
 10
466.6241855179048
 20
491.12417540303613
 10
475.4292121298753
 20
474.9721418886307
  0
LWPOLYLINE
  5
53
330
17
100
AcDbEntity
  8
0
 62
0
100
AcDbPolyline
 90
4
 70
1
 10
473.81859939387533
 20
474.2205226118307
 10
465.87867552503445
 20
489.1951681376961
 10
452.2640761481399
 20
481.7671135725891
 10
451.4909820348599
 20
468.88221168458915
  0
LWPOLYLINE
  5
54
330
17
100
AcDbEntity
  8
0
 62
0
100
AcDbPolyline
 90
4
 70
1
 10
449.6876561237424
 20
469.47214342956613
 10
449.7729951164599
 20
482.1107109562691
 10
435.238914214193
 20
489.9659423286253
 10
427.41837739067654
 20
475.09209898303067
  0
LWPOLYLINE
  5
55
330
17
100
AcDbEntity
  8
0
 62
0
100
AcDbPolyline
 90
4
 70
1
 10
582.5094806937601
 20
432.9136097484801
 10
563.1821278617601
 20
445.04689235968004
 10
553.8176726937048
 20
433.7223627330034
 10
569.4129237401602
 20
420.4351097036801
  0
LWPOLYLINE
  5
56
330
17
100
AcDbEntity
  8
0
 62
0
100
AcDbPolyline
 90
4
 70
1
 10
568.0170593689602
 20
419.3613678796801
 10
552.5030565246445
 20
431.3044931545587
 10
540.9462820621146
 20
420.7165160930413
 10
553.6289189273602
 20
406.7985885388801
  0
LWPOLYLINE
  5
57
330
17
100
AcDbEntity
  8
0
 62
0
100
AcDbPolyline
 90
4
 70
1
 10
552.2330545561603
 20
405.5100983500801
 10
538.9186559385603
 20
420.1129871564801
 10
524.6378896793602
 20
409.6976914636801
 10
535.1605595545602
 20
394.0210608332801
  0
LWPOLYLINE
  5
58
330
17
100
AcDbEntity
  8
0
 62
0
100
AcDbPolyline
 90
4
 70
1
 10
533.3177981023451
 20
393.3680925273005
 10
523.2974130525569
 20
407.9658260710252
 10
508.22749100236535
 20
400.1225825539951
 10
516.8550466816002
 20
385.1834866303998
  0
LWPOLYLINE
  5
59
330
17
100
AcDbEntity
  8
0
 62
0
100
AcDbPolyline
 90
4
 70
1
 10
514.7769499033602
 20
384.05127886848015
 10
507.0756978679517
 20
398.5372364054168
 10
492.65786832896026
 20
393.71495528448014
 10
496.2012163481603
 20
377.5014537420802
  0
LWPOLYLINE
  5
5A
330
17
100
AcDbEntity
  8
0
 62
0
100
AcDbPolyline
 90
4
 70
1
 10
494.5906036121603
 20
377.2867053772802
 10
490.2956363161603
 20
393.92970364928016
 10
472.9010187673603
 20
389.52736217088017
 10
474.9411282329603
 20
373.4212348108802
  0
LWPOLYLINE
  5
5B
330
17
100
AcDbEntity
  8
0
 62
0
100
AcDbPolyline
 90
4
 70
1
 10
452.8186103228596
 20
372.5190389860682
 10
452.5437324159156
 20
387.91220177493216
 10
436.7657405573301
 20
388.24205526326494
 10
434.0169614878901
 20
373.5635750324554
  0
LWPOLYLINE
  5
5C
330
17
100
AcDbEntity
  8
0
 62
0
100
AcDbPolyline
 90
4
 70
1
 10
432.4432854706358
 20
373.70101398592743
 10
433.9276261681333
 20
387.88471398423775
 10
418.5894389606582
 20
391.40315119312095
 10
414.1913924495542
 20
375.1303791020362
  0
LWPOLYLINE
  5
5D
330
17
100
AcDbEntity
  8
0
 62
0
100
AcDbPolyline
 90
4
 70
1
 10
412.38850360221505
 20
375.143851462372
 10
416.9075834546359
 20
392.0766557522249
 10
400.371959365036
 20
397.4453648722249
 10
393.7069390584818
 20
382.2243654740236
  0
LWPOLYLINE
  5
5E
330
17
100
AcDbEntity
  8
0
 62
0
100
AcDbPolyline
 90
4
 70
1
 10
392.16790463939316
 20
382.3281658811899
 10
399.51897214916403
 20
399.3091122432329
 10
383.3011756394681
 20
406.3872183470409
 10
373.43655236812856
 20
390.7054462197762
  0
LWPOLYLINE
  5
5F
330
17
100
AcDbEntity
  8
0
 62
0
100
AcDbPolyline
 90
4
 70
1
 10
371.85600440320053
 20
392.07983575449623
 10
382.4765419186361
 20
407.6928884050249
 10
369.69471924574015
 20
415.80178665987285
 10
356.2566831841286
 20
401.2195261603842
  0
LWPOLYLINE
  5
60
330
17
100
AcDbEntity
  8
0
 62
0
100
AcDbPolyline
 90
4
 70
1
 10
354.74485469593657
 20
402.04415988121616
 10
367.6892379539641
 20
416.7917766216009
 10
354.7028114141117
 20
429.47509725985907
 10
339.3516919070726
 20
414.41366569369615
  0
LWPOLYLINE
  5
61
330
17
100
AcDbEntity
  8
0
 62
0
100
AcDbPolyline
 90
4
 70
1
 10
338.0060249661446
 20
415.2587005091841
 10
353.8766231300282
 20
431.2915862128968
 10
343.51468997714966
 20
443.87568341210255
 10
323.4374958981126
 20
427.7656452751361
  0
LWPOLYLINE
  5
62
330
17
100
AcDbEntity
  8
0
 62
0
100
AcDbPolyline
 90
4
 70
1
 10
473.1376172066998
 20
497.143096492269
 10
462.40019896669986
 20
507.708716040429
 10
453.5525663369399
 20
501.00856705866903
 10
462.05660158301987
 20
489.75575274314906
  0
LWPOLYLINE
  5
63
330
17
100
AcDbEntity
  8
0
 62
0
100
AcDbPolyline
 90
4
 70
1
 10
380.69867374019327
 20
462.72043226454815
 10
382.79958409330726
 20
459.3293367808821
 10
369.3855422344401
 20
448.202279107789
 10
364.69992056259355
 20
456.38535550294824
  0
LWPOLYLINE
  5
64
330
17
100
AcDbEntity
  8
0
 62
0
100
AcDbPolyline
 90
4
 70
1
 10
434.3644512905399
 20
492.2133635565891
 10
425.5659086899383
 20
475.32912237960363
 10
415.5619238537401
 20
485.32440765258906
 10
428.5930889865399
 20
497.8505081325891
  0
LWPOLYLINE
  5
65
330
17
100
AcDbEntity
  8
0
 62
0
100
AcDbPolyline
 90
4
 70
1
 10
451.3191833430199
 20
501.094466404589
 10
460.85401074013987
 20
488.7249605921091
 10
451.3191833430199
 20
482.9697044154691
 10
439.98046968157996
 20
489.49805470538905
  0
LWPOLYLINE
  5
66
330
17
100
AcDbEntity
  8
0
 62
0
100
AcDbPolyline
 90
4
 70
1
 10
449.5152970786999
 20
501.953459863789
 10
437.91888537949995
 20
490.35704816458906
 10
429.93024620894
 20
499.548278178029
 10
438.34838210909993
 20
509.083105575149
  0
LWPOLYLINE
  5
67
330
17
100
AcDbEntity
  8
0
 62
0
100
AcDbPolyline
 90
7
 70
1
 10
444.16269408605984
 20
524.4751946221891
 10
456.0983031693375
 20
523.6779892266469
 10
458.1642874710198
 20
517.087850873069
 10
462.88875149661976
 20
510.3018025453891
 10
451.89363521885986
 20
502.2272640289091
 10
440.0395254818999
 20
510.0441045076291
 10
443.81909670237985
 20
515.627561992429
  0
LWPOLYLINE
  5
68
330
17
100
AcDbEntity
  8
0
 62
0
100
AcDbPolyline
 90
4
 70
1
 10
541.7658569984003
 20
396.0282790527998
 10
525.3376070912003
 20
387.22359609599977
 10
534.7036916488798
 20
377.9762953189619
 10
547.1799660513282
 20
389.82509191833594
  0
LWPOLYLINE
  5
69
330
17
100
AcDbEntity
  8
0
 62
0
100
AcDbPolyline
 90
4
 70
1
 10
547.8396730279937
 20
388.39572680222716
 10
534.9204114016258
 20
375.97124540835836
 10
553.5021579110402
 20
362.61217913087995
 10
561.6509993617411
 20
381.3567049008127
  0
LWPOLYLINE
  5
6A
330
17
100
AcDbEntity
  8
0
 62
0
100
AcDbPolyline
 90
4
 70
1
 10
562.8054865709059
 20
380.6420223427583
 10
555.108905176474
 20
361.62047118223353
 10
579.1101939353601
 20
355.3705301908891
 10
581.1717782374401
 20
375.505336874537
  0
LWPOLYLINE
  5
6B
330
17
100
AcDbEntity
  8
0
 62
0
100
AcDbPolyline
 90
4
 70
1
 10
583.5769599232001
 20
374.749422630441
 10
580.4158639933441
 20
355.6454080978331
 10
601.512743351296
 20
353.44638484228113
 10
600.688109630464
 20
373.100155188777
  0
LWPOLYLINE
  5
6C
330
17
100
AcDbEntity
  8
0
 62
0
100
AcDbPolyline
 90
4
 70
1
 10
569.0178260961281
 20
401.20212620650494
 10
559.2919474763609
 20
384.3214742904513
 10
578.3926201766415
 20
377.9147445726292
 10
581.0994165843972
 20
395.1314703254526
  0
LWPOLYLINE
  5
6D
330
17
100
AcDbEntity
  8
0
 62
0
100
AcDbPolyline
 90
4
 70
1
 10
582.5597054650372
 20
394.7878729417726
 10
580.012942373888
 20
377.21902882564103
 10
601.806625780735
 20
374.93786209232917
 10
600.625509774335
 20
391.4734861819291
  0
LWPOLYLINE
  5
6E
330
17
100
AcDbEntity
  8
0
 62
0
100
AcDbPolyline
 90
4
 70
1
 10
524.1564910848003
 20
386.2572284543998
 10
506.4397509888003
 20
379.3852807807998
 10
513.0623892326404
 20
368.03308243199984
 10
528.4332927977474
 20
380.14938959390713
  0
LWPOLYLINE
  5
6F
330
17
100
AcDbEntity
  8
0
 62
0
100
AcDbPolyline
 90
4
 70
1
 10
529.1479753558018
 20
378.4451465708544
 10
514.7803761510403
 20
366.9593406079998
 10
530.8886497376734
 20
353.14552607849424
 10
540.362993959117
 20
369.3741756417024
  0
LWPOLYLINE
  5
70
330
17
100
AcDbEntity
  8
0
 62
0
100
AcDbPolyline
 90
4
 70
1
 10
541.5174811682817
 20
368.21968843253757
 10
532.3541537757707
 20
351.2485060761701
 10
549.9901972166411
 20
343.2635804141346
 10
555.5487098275844
 20
359.3664723452928
  0
LWPOLYLINE
  5
71
330
17
100
AcDbEntity
  8
0
 62
0
100
AcDbPolyline
 90
4
 70
1
 10
557.0477989236567
 20
359.0647398765012
 10
552.4675328897916
 20
343.66126661824035
 10
570.3371412211716
 20
337.3762397897728
 10
574.1313741414116
 20
354.7400307802863
  0
LWPOLYLINE
  5
72
330
17
100
AcDbEntity
  8
0
 62
0
100
AcDbPolyline
 90
4
 70
1
 10
575.5531772247007
 20
354.3907040651862
 10
573.5874897112201
 20
337.8883471675035
 10
591.6900660200504
 20
335.06441764622326
 10
592.3045254575924
 20
352.403737371593
  0
LWPOLYLINE
  5
73
330
17
100
AcDbEntity
  8
0
 62
0
100
AcDbPolyline
 90
4
 70
1
 10
577.2179380111352
 20
424.0078634491289
 10
558.6796872992772
 20
408.6176676348926
 10
580.549263963135
 20
397.22891013072905
 10
583.018870158335
 20
416.23414041552894
  0
LWPOLYLINE
  5
74
330
17
100
AcDbEntity
  8
0
 62
0
100
AcDbPolyline
 90
4
 70
1
 10
584.3073603471349
 20
414.62352767952893
 10
582.7315041568771
 20
396.5917592060926
 10
600.0913651599349
 20
393.1486911995291
 10
599.6618684303348
 20
407.53683164112897
  0
LWPOLYLINE
  5
75
330
17
100
AcDbEntity
  8
0
 62
0
100
AcDbPolyline
 90
4
 70
1
 10
504.6143898880003
 20
378.84840986879976
 10
485.9312821504003
 20
373.0502040191998
 10
494.4283463206638
 20
359.8778795063933
 10
509.6894363048272
 20
370.44216638309206
  0
LWPOLYLINE
  5
76
330
17
100
AcDbEntity
  8
0
 62
0
100
AcDbPolyline
 90
4
 70
1
 10
510.7347182848003
 20
368.5404883583998
 10
496.02445529600027
 20
358.9841861247998
 10
510.16328630784034
 20
342.90752375039983
 10
521.4375754598403
 20
357.9399092863998
  0
LWPOLYLINE
  5
77
330
17
100
AcDbEntity
  8
0
 62
0
100
AcDbPolyline
 90
4
 70
1
 10
523.1555623782403
 20
356.4366707327998
 10
511.51642965708015
 20
342.23080624353344
 10
527.1284071270403
 20
330.88161532159984
 10
535.4059758524204
 20
347.12800148236875
  0
LWPOLYLINE
  5
78
330
17
100
AcDbEntity
  8
0
 62
0
100
AcDbPolyline
 90
4
 70
1
 10
537.2215802726403
 20
346.45087176959987
 10
529.0275270240874
 20
331.3920271936977
 10
547.8399056460903
 20
324.80360118775457
 10
552.8982109030403
 20
340.86741428479985
  0
LWPOLYLINE
  5
79
330
17
100
AcDbEntity
  8
0
 62
0
100
AcDbPolyline
 90
4
 70
1
 10
554.7235720038403
 20
341.08216264959987
 10
549.1231857200039
 20
322.16381155932555
 10
566.4082790778212
 20
318.7110783946734
 10
569.9702921451182
 20
335.61662632155935
  0
LWPOLYLINE
  5
7A
330
17
100
AcDbEntity
  8
0
 62
0
100
AcDbPolyline
 90
4
 70
1
 10
572.0108153702403
 20
336.0355760767999
 10
568.5500501075231
 20
317.2949192766082
 10
588.2465444014765
 20
315.28447892756697
 10
590.4791747430403
 20
333.45859569919986
  0
LWPOLYLINE
  5
7B
330
17
100
AcDbEntity
  8
0
 62
0
100
AcDbPolyline
 90
4
 70
1
 10
491.25941756393763
 20
362.0724105236517
 10
471.7578900736003
 20
349.1057613439998
 10
486.58760684032023
 20
335.2812724454398
 10
501.25246622608256
 20
348.5529710273796
  0
LWPOLYLINE
  5
7C
330
17
100
AcDbEntity
  8
0
 62
0
100
AcDbPolyline
 90
4
 70
1
 10
503.4699714860345
 20
347.04660261293367
 10
488.39149310464023
 20
333.64918487295984
 10
504.88416752128023
 20
322.48226990335985
 10
515.5615065767427
 20
335.64957691349593
  0
LWPOLYLINE
  5
7D
330
17
100
AcDbEntity
  8
0
 62
0
100
AcDbPolyline
 90
4
 70
1
 10
516.8241766041602
 20
334.42227898623986
 10
506.51625509376026
 20
321.27967906047985
 10
523.460642977999
 20
311.1263586999554
 10
531.9424614860802
 20
327.37853262079983
  0
LWPOLYLINE
  5
7E
330
17
100
AcDbEntity
  8
0
 62
0
100
AcDbPolyline
 90
4
 70
1
 10
533.2487355238403
 20
326.37189966079984
 10
525.3451802481628
 20
311.3133950210939
 10
544.1223999448439
 20
304.15876482252014
 10
548.0663726950403
 20
320.57369381119986
  0
LWPOLYLINE
  5
7F
330
17
100
AcDbEntity
  8
0
 62
0
100
AcDbPolyline
 90
4
 70
1
 10
549.3548628838403
 20
319.4999519871999
 10
545.5805475035495
 20
304.5417274343762
 10
564.4946226022403
 20
300.81684424959985
 10
567.7158480742403
 20
315.09761050879985
  0
LWPOLYLINE
  5
80
330
17
100
AcDbEntity
  8
0
 62
0
100
AcDbPolyline
 90
4
 70
1
 10
569.5412091750403
 20
315.20498469119985
 10
566.1052353382403
 20
300.06522497279985
 10
586.6137041766403
 20
298.1324896895999
 10
587.0432009062403
 20
313.4869977727999
  0
LWPOLYLINE
  5
81
330
17
100
AcDbEntity
  8
0
 62
0
100
AcDbPolyline
 90
4
 70
1
 10
374.47263937987344
 20
388.1693214037498
 10
361.41593880003364
 20
396.2438599202296
 10
354.25547512888403
 20
387.05764195084265
 10
364.60277012412695
 20
375.3984693353596
  0
LWPOLYLINE
  5
82
330
17
100
AcDbEntity
  8
0
 62
0
100
AcDbPolyline
 90
4
 70
1
 10
363.2437603872809
 20
373.25967494183357
 10
352.7737170892164
 20
386.7802486385504
 10
340.7729061796585
 20
377.05539638912694
 10
345.903544488248
 20
363.4336028833261
  0
LWPOLYLINE
  5
83
330
17
100
AcDbEntity
  8
0
 62
0
100
AcDbPolyline
 90
4
 70
1
 10
344.8019872277586
 20
361.56766516949546
 10
337.21895280577155
 20
377.711575551818
 10
323.1117196640343
 20
372.6635090466301
 10
325.1410508588612
 20
356.1917023360004
  0
LWPOLYLINE
  5
84
330
17
100
AcDbEntity
  8
0
 62
0
100
AcDbPolyline
 90
4
 70
1
 10
323.3281394537671
 20
356.70318778376645
 10
321.58857344676693
 20
371.9605142919231
 10
303.19336623884965
 20
371.07507539444543
 10
303.83607048946567
 20
354.375203515081
  0
LWPOLYLINE
  5
85
330
17
100
AcDbEntity
  8
0
 62
0
100
AcDbPolyline
 90
4
 70
1
 10
394.6589856710731
 20
378.72039335254993
 10
376.4483243360334
 20
387.5680259823098
 10
369.49047731651353
 20
377.43190316374995
 10
383.1948726265534
 20
365.1615478726297
  0
LWPOLYLINE
  5
86
330
17
100
AcDbEntity
  8
0
 62
0
100
AcDbPolyline
 90
4
 70
1
 10
382.0317818208333
 20
363.8598065083902
 10
368.0301884358735
 20
376.40111101271
 10
358.9598705543987
 20
365.00517883814973
 10
368.6314838573135
 20
349.68641443159044
  0
LWPOLYLINE
  5
87
330
17
100
AcDbEntity
  8
0
 62
0
100
AcDbPolyline
 90
4
 70
1
 10
366.27614098883356
 20
349.04118891863055
 10
355.67028067120845
 20
365.0679246736321
 10
342.18617247041516
 20
358.0546064609794
 10
348.34465252803386
 20
339.27013832023067
  0
LWPOLYLINE
  5
88
330
17
100
AcDbEntity
  8
0
 62
0
100
AcDbPolyline
 90
4
 70
1
 10
346.4119172448339
 20
339.27013832023067
 10
339.6091908770948
 20
356.81460182141
 10
322.8423379235536
 20
352.95923013801695
 10
326.356617582527
 20
335.52174531418643
  0
LWPOLYLINE
  5
89
330
17
100
AcDbEntity
  8
0
 62
0
100
AcDbPolyline
 90
4
 70
1
 10
324.82970658243426
 20
334.43830011223076
 10
321.28635856323433
 20
352.6919111202305
 10
304.00662740893387
 20
350.3054999237511
 10
306.25397302723457
 20
332.7203131938308
  0
LWPOLYLINE
  5
8A
330
17
100
AcDbEntity
  8
0
 62
0
100
AcDbPolyline
 90
4
 70
1
 10
359.36643409347363
 20
396.99682137430966
 10
343.30325640643395
 20
408.7650317653495
 10
334.8155055456341
 20
400.79554483542967
 10
347.2053645955627
 20
385.7288489515439
  0
LWPOLYLINE
  5
8B
330
17
100
AcDbEntity
  8
0
 62
0
100
AcDbPolyline
 90
4
 70
1
 10
345.4507400544339
 20
383.5106240648699
 10
334.54152312259407
 20
398.4571102549496
 10
320.8835271213143
 20
393.8185455752697
 10
324.31950095811425
 20
375.17838751063005
  0
LWPOLYLINE
  5
8C
330
17
100
AcDbEntity
  8
0
 62
0
100
AcDbPolyline
 90
4
 70
1
 10
322.03797784003433
 20
374.1667476002301
 10
319.46723089354884
 20
393.0972605690281
 10
302.8196202598857
 20
390.73652297370944
 10
303.9991151968346
 20
372.6635090466301
  0
LWPOLYLINE
  5
8D
330
17
100
AcDbEntity
  8
0
 62
0
100
AcDbPolyline
 90
4
 70
1
 10
415.53252672963276
 20
372.79333848407003
 10
397.0641673568331
 20
378.97809139030994
 10
388.0447360352332
 20
366.52268623191014
 10
402.56172549571295
 20
354.2390797653503
  0
LWPOLYLINE
  5
8E
330
17
100
AcDbEntity
  8
0
 62
0
100
AcDbPolyline
 90
4
 70
1
 10
401.960430074273
 20
352.43519350103037
 10
386.1549504249933
 20
365.66369277271014
 10
374.7546625589636
 20
353.7464615832312
 10
385.8113530413132
 20
338.8630968456706
  0
LWPOLYLINE
  5
8F
330
17
100
AcDbEntity
  8
0
 62
0
100
AcDbPolyline
 90
4
 70
1
 10
383.9960293731652
 20
338.48347237424304
 10
373.81118606225857
 20
351.23777978557104
 10
360.8455301866521
 20
342.9966756381855
 10
367.66503326781094
 20
329.5305835998405
  0
LWPOLYLINE
  5
90
330
17
100
AcDbEntity
  8
0
 62
0
100
AcDbPolyline
 90
4
 70
1
 10
364.50263906814627
 20
328.481053974251
 10
358.8673224032337
 20
342.49136379223063
 10
343.7916407869662
 20
335.4338577675294
 10
347.674697565428
 20
320.8956346272309
  0
LWPOLYLINE
  5
91
330
17
100
AcDbEntity
  8
0
 62
0
100
AcDbPolyline
 90
4
 70
1
 10
346.20095513857035
 20
318.74644989440867
 10
341.794827401634
 20
336.69315794263076
 10
325.2592033120343
 20
332.9350615586308
 10
326.72485316488377
 20
316.3375393161106
  0
LWPOLYLINE
  5
92
330
17
100
AcDbEntity
  8
0
 62
0
100
AcDbPolyline
 90
4
 70
1
 10
324.7381417768387
 20
315.24223040813786
 10
323.56074713360664
 20
332.0739092115142
 10
304.69250636878206
 20
331.3440628679139
 10
306.693313379778
 20
315.75579866757204
  0
LWPOLYLINE
  5
93
330
17
100
AcDbEntity
  8
0
 62
0
100
AcDbPolyline
 90
4
 70
1
 10
341.524871510434
 20
409.5783911970295
 10
329.4912348034787
 20
420.70104109209416
 10
320.5320849295367
 20
413.91622998992915
 10
328.2708708704342
 20
397.7699154875896
  0
LWPOLYLINE
  5
94
330
17
100
AcDbEntity
  8
0
 62
0
100
AcDbPolyline
 90
4
 70
1
 10
326.7061004175367
 20
397.27323171792926
 10
318.7872544655367
 20
412.43983498192915
 10
302.0100384655368
 20
407.0711258619292
 10
302.6811271055368
 20
392.8440466939293
  0
LWPOLYLINE
  5
95
330
17
100
AcDbEntity
  8
0
 62
0
100
AcDbPolyline
 90
4
 70
1
 10
435.94687165255743
 20
356.1790051222527
 10
413.66672880455747
 20
366.9164233622527
 10
405.3870066922168
 20
355.6439906298818
 10
422.52509885255745
 20
342.2203614102528
  0
LWPOLYLINE
  5
96
330
17
100
AcDbEntity
  8
0
 62
0
100
AcDbPolyline
 90
4
 70
1
 10
421.85401021255745
 20
340.4755309462528
 10
405.8670997336338
 20
353.0704404242215
 10
394.24517168775327
 20
342.2642284057464
 10
406.5531892205575
 20
327.4564113302528
  0
LWPOLYLINE
  5
97
330
17
100
AcDbEntity
  8
0
 62
0
100
AcDbPolyline
 90
4
 70
1
 10
404.9082880493575
 20
326.74788852705285
 10
392.02338616135756
 20
340.92128060385284
 10
376.7491367910388
 20
331.98903472158867
 10
386.64349992703876
 20
314.0540901542926
  0
LWPOLYLINE
  5
98
330
17
100
AcDbEntity
  8
0
 62
0
100
AcDbPolyline
 90
4
 70
1
 10
385.44090908415876
 20
312.50790192773263
 10
374.8435169773576
 20
331.04285582305283
 10
360.67012490055765
 20
324.0635339670529
 10
370.2367248563188
 20
306.3231490214926
  0
LWPOLYLINE
  5
99
330
17
100
AcDbEntity
  8
0
 62
0
100
AcDbPolyline
 90
4
 70
1
 10
368.3469392460788
 20
305.20645752453265
 10
359.5027594592337
 20
322.91134608727094
 10
344.2126758854739
 20
316.4688951432711
 10
348.45899600711766
 20
301.258599802573
  0
LWPOLYLINE
  5
9A
330
17
100
AcDbEntity
  8
0
 62
0
100
AcDbPolyline
 90
4
 70
1
 10
346.87555560899386
 20
300.66341549399135
 10
342.23699092931395
 20
316.03939841367105
 10
324.7994237075543
 20
313.20471999831113
 10
327.4049757251592
 20
299.31569769424925
  0
LWPOLYLINE
  5
9B
330
17
100
AcDbEntity
  8
0
 62
0
100
AcDbPolyline
 90
4
 70
1
 10
325.2574920771592
 20
298.7788267822492
 10
323.64687934115926
 20
312.60325276624917
 10
306.0643569731593
 20
313.4085591342492
 10
307.13809879715933
 20
297.70508495824924
  0
LWPOLYLINE
  5
9C
330
17
100
AcDbEntity
  8
0
 62
0
100
AcDbPolyline
 90
4
 70
1
 10
445.2078948845574
 20
370.9429552022527
 10
437.6917021165574
 20
357.5211824022527
 10
415.6799947245575
 20
368.1243829142527
 10
417.29060746055745
 20
373.4930920342527
  0
LWPOLYLINE
  5
9D
330
17
100
AcDbEntity
  8
0
 62
0
100
AcDbPolyline
 90
4
 70
1
 10
588.9813709588481
 20
313.7334663454109
 10
604.099655840768
 20
313.62351518263324
 10
605.3640942127104
 20
297.6805965798813
 10
587.9368349124609
 20
297.5706454171037
  0
LWPOLYLINE
  5
9E
330
17
100
AcDbEntity
  8
0
 62
0
100
AcDbPolyline
 90
4
 70
1
 10
592.341109126144
 20
332.51385509226515
 10
602.391332598784
 20
332.77155313002515
 10
604.796514284544
 20
315.67758329194527
 10
590.021826786304
 20
315.41988525418526
  0
LWPOLYLINE
  5
9F
330
17
100
AcDbEntity
  8
0
 62
0
100
AcDbPolyline
 90
4
 70
1
 10
594.3329002096641
 20
351.5767990001051
 10
602.0638413424641
 20
351.5767990001051
 10
604.2113249904642
 20
334.9123258916252
 10
593.4739067504642
 20
334.5687285079452
  0
LWPOLYLINE
  5
A0
330
17
100
AcDbEntity
  8
0
 62
0
100
AcDbPolyline
 90
4
 70
1
 10
585.6691140495349
 20
433.369182565929
 10
599.1613286287339
 20
424.69078420432896
 10
588.2803996559342
 20
414.788097996329
 10
578.2871390095349
 20
425.45033661392904
  0
LWPOLYLINE
  5
A1
330
17
100
AcDbEntity
  8
0
 62
0
100
AcDbPolyline
 90
4
 70
1
 10
545.3949244686393
 20
549.2748685366754
 10
528.0088968544316
 20
539.9290197005795
 10
535.0870029582394
 20
529.4836592367077
 10
549.6555320262712
 20
543.5711519675875
  0
LWPOLYLINE
  5
A2
330
17
100
AcDbEntity
  8
0
 62
0
100
AcDbPolyline
 90
4
 70
1
 10
550.5488852238392
 20
541.7157260957155
 10
536.2215063171647
 20
528.3980979558614
 10
552.0884244781316
 20
515.797546709299
 10
560.3081917710391
 20
532.1563368543716
  0
LWPOLYLINE
  5
A3
330
17
100
AcDbEntity
  8
0
 62
0
100
AcDbPolyline
 90
4
 70
1
 10
561.2983928652849
 20
530.3756614619889
 10
553.2988051439672
 20
514.7015897634279
 10
573.0900144439349
 20
507.211166799204
 10
577.7449203740822
 20
523.4185696075092
  0
LWPOLYLINE
  5
A4
330
17
100
AcDbEntity
  8
0
 62
0
100
AcDbPolyline
 90
4
 70
1
 10
579.4122063036468
 20
522.7417685415397
 10
574.739281885599
 20
506.798849938788
 10
595.1269547687987
 20
504.4462816024041
 10
595.6098872916612
 20
521.2264419292871
  0
LWPOLYLINE
  5
A5
330
17
100
AcDbEntity
  8
0
 62
0
100
AcDbPolyline
 90
4
 70
1
 10
561.1904216743989
 20
560.8559794148831
 10
546.7593315598391
 20
549.9467624830432
 10
557.3861391241073
 20
537.6478113949116
 10
567.8905706561587
 20
552.1801454769632
  0
LWPOLYLINE
  5
A6
330
17
100
AcDbEntity
  8
0
 62
0
100
AcDbPolyline
 90
4
 70
1
 10
568.7495641153587
 20
550.7198565963232
 10
559.1167926904385
 20
537.2291417103543
 10
577.6830960910386
 20
525.3795495499236
 10
581.4686006588028
 20
544.4168983797393
  0
LWPOLYLINE
  5
A7
330
17
100
AcDbEntity
  8
0
 62
0
100
AcDbPolyline
 90
4
 70
1
 10
583.0607600965087
 20
543.7643586974953
 10
579.3742394638385
 20
524.5796118910436
 10
599.3028877172782
 20
522.2603295512035
 10
599.5577682197603
 20
541.3493385091562
  0
LWPOLYLINE
  5
A8
330
17
100
AcDbEntity
  8
0
 62
0
100
AcDbPolyline
 90
4
 70
1
 10
526.6345073197116
 20
539.5167028401636
 10
508.2864070311998
 20
532.0949993526757
 10
513.0280509259837
 20
523.5737842374118
 10
529.1084084822076
 20
535.4622537127397
  0
LWPOLYLINE
  5
A9
330
17
100
AcDbEntity
  8
0
 62
0
100
AcDbPolyline
 90
4
 70
1
 10
529.8643227263035
 20
533.4693888873957
 10
513.7152456933437
 20
522.4742726096358
 10
527.5278605172796
 20
507.424707204452
 10
539.8973663297594
 20
522.0619557492198
  0
LWPOLYLINE
  5
AA
330
17
100
AcDbEntity
  8
0
 62
0
100
AcDbPolyline
 90
4
 70
1
 10
541.5368489020525
 20
520.8016174535003
 10
528.9736371060795
 20
506.115111277924
 10
547.2701977870393
 20
494.1751021950442
 10
554.0260404971707
 20
512.3262460980507
  0
LWPOLYLINE
  5
AB
330
17
100
AcDbEntity
  8
0
 62
0
100
AcDbPolyline
 90
4
 70
1
 10
555.6024343412791
 20
511.0113739953639
 10
548.9881847054392
 20
493.9174041572842
 10
567.1988460404789
 20
487.3890538673643
 10
572.73461659711
 20
505.5902053291258
  0
LWPOLYLINE
  5
AC
330
17
100
AcDbEntity
  8
0
 62
0
100
AcDbPolyline
 90
4
 70
1
 10
574.6018429321269
 20
505.56189935754
 10
569.5284272516991
 20
488.15329730056953
 10
586.9535887795205
 20
485.01034258843765
 10
589.2728711193604
 20
502.79150719387695
  0
LWPOLYLINE
  5
AD
330
17
100
AcDbEntity
  8
0
 62
0
100
AcDbPolyline
 90
4
 70
1
 10
573.1398259982386
 20
574.9474986776029
 10
562.2306090663988
 20
561.7189994059231
 10
575.4591083380785
 20
548.9199968638433
 10
586.047942662117
 20
562.4912141077946
  0
LWPOLYLINE
  5
AE
330
17
100
AcDbEntity
  8
0
 62
0
100
AcDbPolyline
 90
4
 70
1
 10
507.08247401103984
 20
532.0402385196517
 10
482.9232829710402
 20
525.7051617580518
 10
488.5067404558401
 20
516.3636078892519
 10
508.37151533037667
 20
527.6944643563295
  0
LWPOLYLINE
  5
AF
330
17
100
AcDbEntity
  8
0
 62
0
100
AcDbPolyline
 90
4
 70
1
 10
509.4447060238398
 20
526.3494068524518
 10
489.58048227984006
 20
514.860369335652
 10
504.7202419982398
 20
499.72060961725214
 10
519.1244784538395
 20
513.2676046123348
  0
LWPOLYLINE
  5
B0
330
17
100
AcDbEntity
  8
0
 62
0
100
AcDbPolyline
 90
4
 70
1
 10
520.0747500814397
 20
512.3907631404519
 10
505.68660963983984
 20
498.53949361085216
 10
522.5443562766396
 20
485.86934008765235
 10
533.6176216375504
 20
500.14023392729297
  0
LWPOLYLINE
  5
B1
330
17
100
AcDbEntity
  8
0
 62
0
100
AcDbPolyline
 90
4
 70
1
 10
534.3707067654675
 20
498.93242811507315
 10
524.2623431950395
 20
485.11772081085235
 10
542.6233283854393
 20
475.5614185772525
 10
548.8510309646392
 20
491.98966848445224
  0
LWPOLYLINE
  5
B2
330
17
100
AcDbEntity
  8
0
 62
0
100
AcDbPolyline
 90
4
 70
1
 10
550.2309927569588
 20
490.96520420765154
 10
544.1265669390393
 20
474.9171734828525
 10
562.487552129439
 20
468.15259999165255
 10
565.8294196861077
 20
485.82745039115105
  0
LWPOLYLINE
  5
B3
330
17
100
AcDbEntity
  8
0
 62
0
100
AcDbPolyline
 90
4
 70
1
 10
568.0784230792264
 20
485.65652775631406
 10
564.1137996742699
 20
467.43863932246825
 10
583.4289000998368
 20
466.2219463833981
 10
584.6920292062213
 20
483.23416535090826
  0
LWPOLYLINE
  5
B4
330
17
100
AcDbEntity
  8
0
 62
0
100
AcDbPolyline
 90
4
 70
1
 10
586.34161245144
 20
482.30384342176205
 10
585.2377086836786
 20
465.74241869552463
 10
596.7555511238693
 20
465.7206524040683
 10
596.9702994886693
 20
481.82677976406796
  0
LWPOLYLINE
  5
B5
330
17
100
AcDbEntity
  8
0
 62
0
100
AcDbPolyline
 90
4
 70
1
 10
486.50563965584024
 20
515.3801635321315
 10
467.8654815912004
 20
505.67353744317165
 10
483.9286592782403
 20
489.1808630265318
 10
498.3597493928001
 20
502.4952616441317
  0
LWPOLYLINE
  5
B6
330
17
100
AcDbEntity
  8
0
 62
0
100
AcDbPolyline
 90
4
 70
1
 10
500.0613665802224
 20
501.70408904042426
 10
485.1363552266226
 20
488.0675678756244
 10
501.10601000079197
 20
476.90643822697217
 10
511.12090736742226
 20
491.28879334762433
  0
LWPOLYLINE
  5
B7
330
17
100
AcDbEntity
  8
0
 62
0
100
AcDbPolyline
 90
4
 70
1
 10
512.4511831310398
 20
490.37905574845223
 10
502.33098836070246
 20
476.1388330818965
 10
519.5108575447023
 20
466.3119479086486
 10
527.8334010181925
 20
480.1650591444006
  0
LWPOLYLINE
  5
B8
330
17
100
AcDbEntity
  8
0
 62
0
100
AcDbPolyline
 90
4
 70
1
 10
529.7189881743342
 20
479.7031861755286
 10
521.3329782150855
 20
466.1640859035204
 10
537.9062695823341
 20
458.6310028795288
 10
544.348720526334
 20
472.99229977552864
  0
LWPOLYLINE
  5
B9
330
17
100
AcDbEntity
  8
0
 62
0
100
AcDbPolyline
 90
4
 70
1
 10
546.0935509903339
 20
471.9185579515286
 10
539.7404779394692
 20
458.00859838086564
 10
557.1685079810319
 20
452.7327730442214
 10
561.5285897103338
 20
466.6840665595287
  0
LWPOLYLINE
  5
BA
330
17
100
AcDbEntity
  8
0
 62
0
100
AcDbPolyline
 90
4
 70
1
 10
562.8777904595485
 20
466.30005160902147
 10
560.1864124303338
 20
451.78589875152886
 10
579.3795475343336
 20
450.30950374352886
 10
580.3320255422002
 20
464.7442733793223
  0
LWPOLYLINE
  5
BB
330
17
100
AcDbEntity
  8
0
 62
0
100
AcDbPolyline
 90
4
 70
1
 10
582.4665552783335
 20
463.9997119995287
 10
581.6612489103336
 20
450.30950374352886
 10
599.5122067343334
 20
450.30950374352886
 10
599.5122067343334
 20
463.73127654352874
  0
LWPOLYLINE
  5
BC
330
17
100
AcDbEntity
  8
0
 62
0
100
AcDbPolyline
 90
5
 70
1
 10
583.4942325211188
 20
434.7334061151725
 10
589.9366834651187
 20
442.5180343391724
 10
592.3526025691186
 20
448.2893966431723
 10
566.4485810651189
 20
449.6315739231723
 10
564.7037506011189
 20
446.27613072317234
  0
LWPOLYLINE
  5
BD
330
17
100
AcDbEntity
  8
0
 62
0
100
AcDbPolyline
 90
5
 70
1
 10
322.08035697296197
 20
429.27194323901267
 10
312.63142892176205
 20
440.0093614790125
 10
308.7659583553621
 20
448.4274973791724
 10
341.7513071886417
 20
449.9736856057324
 10
343.6410927988817
 20
446.02231569341245
  0
LWPOLYLINE
  5
BE
330
17
100
AcDbEntity
  8
0
 62
0
100
AcDbPolyline
 90
5
 70
1
 10
467.3862387777601
 20
507.34853864381193
 10
460.17069372048024
 20
517.3128627705318
 10
457.70891590533745
 20
523.9464246826469
 10
480.123276481337
 20
525.1543842346468
 10
485.5110007668799
 20
516.7974666950118
  0
LWPOLYLINE
  5
BF
330
17
100
AcDbEntity
  8
0
 62
0
100
AcDbPolyline
 90
5
 70
1
 10
587.9511717134382
 20
562.011661161827
 10
576.4750190985263
 20
548.1303268611551
 10
600.0288591921246
 20
542.8522038253022
 10
599.4799086846045
 20
555.561280489622
 10
594.4467438846046
 20
558.581179369622
  0
LWPOLYLINE
  5
C0
330
17
100
AcDbEntity
  8
0
 62
0
100
AcDbPolyline
 90
4
 70
1
 10
375.6039599167322
 20
539.8103889015963
 10
360.34823608134053
 20
548.1254455866522
 10
355.72674167276375
 20
542.6344389170652
 10
367.9065374376019
 20
530.431574480227
  0
LWPOLYLINE
  5
C1
330
17
100
AcDbEntity
  8
0
 62
0
100
AcDbPolyline
 90
4
 70
1
 10
367.0269281353811
 20
529.6619163407838
 10
354.54747116012373
 20
541.5366419207644
 10
344.5334888549403
 20
531.2038538117233
 10
352.8982037184598
 20
516.9075814585825
  0
LWPOLYLINE
  5
C2
330
17
100
AcDbEntity
  8
0
 62
0
100
AcDbPolyline
 90
4
 70
1
 10
351.06857281618767
 20
516.5797546579424
 10
343.2345524682838
 20
530.2549305284062
 10
329.0096207839321
 20
525.3071282034143
 10
333.40766729503605
 20
508.6770148333026
  0
LWPOLYLINE
  5
C3
330
17
100
AcDbEntity
  8
0
 62
0
100
AcDbPolyline
 90
4
 70
1
 10
331.94038162505547
 20
508.20670960470557
 10
327.4290728190041
 20
524.9978905581023
 10
311.0222977482844
 20
521.9914134509024
 10
312.25349989766124
 20
504.7877739002442
  0
LWPOLYLINE
  5
C4
330
17
100
AcDbEntity
  8
0
 62
0
100
AcDbPolyline
 90
4
 70
1
 10
396.93150478828267
 20
530.6707328554469
 10
377.25322735839615
 20
538.9857551807643
 10
374.0569306054738
 20
535.5640603989469
 10
390.69992887747344
 20
523.2160294229471
  0
LWPOLYLINE
  5
C5
330
17
100
AcDbEntity
  8
0
 62
0
100
AcDbPolyline
 90
4
 70
1
 10
389.6261870534735
 20
522.0349134165472
 10
373.3053113286738
 20
533.7386992981469
 10
363.104764000674
 20
523.7529003349472
 10
375.23804661187376
 20
508.0762697045474
  0
LWPOLYLINE
  5
C6
330
17
100
AcDbEntity
  8
0
 62
0
100
AcDbPolyline
 90
4
 70
1
 10
373.73042693131913
 20
507.50496330834136
 10
362.031022176674
 20
522.4644101461472
 10
350.2578913953804
 20
513.3287771561781
 10
356.6365460838212
 20
497.30366116201327
  0
LWPOLYLINE
  5
C7
330
17
100
AcDbEntity
  8
0
 62
0
100
AcDbPolyline
 90
4
 70
1
 10
355.21321625682765
 20
496.1571851654628
 10
348.6633911304278
 20
512.8001834374625
 10
332.5025029374039
 20
506.48121280322283
 10
337.57056434668385
 20
488.6141488518632
  0
LWPOLYLINE
  5
C8
330
17
100
AcDbEntity
  8
0
 62
0
100
AcDbPolyline
 90
4
 70
1
 10
335.85257742828384
 20
488.0987527763432
 10
330.9234537524173
 20
506.2551680754099
 10
314.8788446672421
 20
502.7731764841436
 10
316.35342590444424
 20
484.0614835181033
  0
LWPOLYLINE
  5
C9
330
17
100
AcDbEntity
  8
0
 62
0
100
AcDbPolyline
 90
4
 70
1
 10
358.69896863967654
 20
548.5377624470681
 10
344.74891486226886
 20
557.471294422748
 10
339.79857863148385
 20
553.6882720953818
 10
349.5827909558359
 20
538.278483085462
  0
LWPOLYLINE
  5
CA
330
17
100
AcDbEntity
  8
0
 62
0
100
AcDbPolyline
 90
4
 70
1
 10
346.9282243428437
 20
537.7109937542621
 10
337.9946923671639
 20
553.0869766739418
 10
324.08632851408953
 20
545.4196498462405
 10
330.4787764232283
 20
527.6269641913822
  0
LWPOLYLINE
  5
CB
330
17
100
AcDbEntity
  8
0
 62
0
100
AcDbPolyline
 90
4
 70
1
 10
327.6008715108441
 20
527.2312735520222
 10
322.3287391229256
 20
545.3544302779076
 10
301.56011989074875
 20
540.6932487558619
 10
301.47422054482877
 20
522.2248893830623
  0
LWPOLYLINE
  5
CC
330
17
100
AcDbEntity
  8
0
 62
0
100
AcDbPolyline
 90
4
 70
1
 10
418.4144005677127
 20
525.5033120904669
 10
399.07898843628254
 20
530.6924224402917
 10
396.1009129386517
 20
526.6994203130552
 10
414.3878687277127
 20
516.9133774984671
  0
LWPOLYLINE
  5
CD
330
17
100
AcDbEntity
  8
0
 62
0
100
AcDbPolyline
 90
4
 70
1
 10
412.64303826371275
 20
515.1685470344671
 10
394.6916059647105
 20
525.6074985362466
 10
385.5900606734219
 20
513.1313539496925
 10
398.684394551713
 20
499.3308551304674
  0
LWPOLYLINE
  5
CE
330
17
100
AcDbEntity
  8
0
 62
0
100
AcDbPolyline
 90
4
 70
1
 10
397.697348991393
 20
498.08009270614747
 10
383.74015477408716
 20
512.0814326696918
 10
369.99103137087747
 20
501.07749787439235
 10
381.2905739206733
 20
485.62468754774767
  0
LWPOLYLINE
  5
CF
330
17
100
AcDbEntity
  8
0
 62
0
100
AcDbPolyline
 90
4
 70
1
 10
379.83028504003335
 20
484.3361973589477
 10
368.06207464899353
 20
501.34426785110736
 10
353.28738715075383
 20
493.0979306427875
 10
360.3408587588673
 20
476.58165226593434
  0
LWPOLYLINE
  5
D0
330
17
100
AcDbEntity
  8
0
 62
0
100
AcDbPolyline
 90
4
 70
1
 10
358.7849452896337
 20
476.60525622614784
 10
351.6396291298185
 20
492.5419977832132
 10
336.7506936924419
 20
486.3834223738471
 10
341.89856642080827
 20
470.43500938362416
  0
LWPOLYLINE
  5
D1
330
17
100
AcDbEntity
  8
0
 62
0
100
AcDbPolyline
 90
4
 70
1
 10
339.543563172907
 20
470.1806776238307
 10
335.1112702948373
 20
486.35047615327153
 10
318.84281289206285
 20
482.5000939364613
 10
320.41502163643315
 20
465.98320752168627
  0
LWPOLYLINE
  5
D2
330
17
100
AcDbEntity
  8
0
 62
0
100
AcDbPolyline
 90
4
 70
1
 10
318.9370584481885
 20
465.4271135929835
 10
317.1922921807215
 20
482.596978039223
 10
298.68633789314094
 20
482.0030858899878
 10
298.7321630027442
 20
465.0945881236391
  0
LWPOLYLINE
  5
D3
330
17
100
AcDbEntity
  8
0
 62
0
100
AcDbPolyline
 90
4
 70
1
 10
343.36491563090794
 20
558.4864929568216
 10
330.0505170133082
 20
571.1136968070614
 10
320.8513699054253
 20
564.6095998989547
 10
325.6696503713883
 20
547.8349740627418
  0
LWPOLYLINE
  5
D4
330
17
100
AcDbEntity
  8
0
 62
0
100
AcDbPolyline
 90
4
 70
1
 10
323.9516634529883
 20
547.4913766790619
 10
319.3130987733084
 20
563.7263530579415
 10
301.8287189246045
 20
555.729052649622
 10
301.4460348219488
 20
542.5951139616219
  0
LWPOLYLINE
  5
D5
330
17
100
AcDbEntity
  8
0
 62
0
100
AcDbPolyline
 90
4
 70
1
 10
442.00544172933775
 20
523.9464246826469
 10
421.14350835139254
 20
525.5829828949471
 10
419.2980145913926
 20
520.8853624149472
 10
441.2761675513922
 20
515.1811089749473
  0
LWPOLYLINE
  5
D6
330
17
100
AcDbEntity
  8
0
 62
0
100
AcDbPolyline
 90
4
 70
1
 10
440.36348700099217
 20
513.6778704213473
 10
419.13024243139256
 20
519.3754129749473
 10
412.7549003513927
 20
510.8190328149474
 10
427.6866225913924
 20
499.57829809494757
  0
LWPOLYLINE
  5
D7
330
17
100
AcDbEntity
  8
0
 62
0
100
AcDbPolyline
 90
4
 70
1
 10
418.45915379139257
 20
490.16292447574773
 10
404.07101334979285
 20
501.86671035734753
 10
392.47460165059306
 20
491.77353721174774
 10
403.96363916739284
 20
477.600145134948
  0
LWPOLYLINE
  5
D8
330
17
100
AcDbEntity
  8
0
 62
0
100
AcDbPolyline
 90
4
 70
1
 10
401.9587618553929
 20
476.5717017941479
 10
391.1139694329931
 20
490.4229713237477
 10
377.15532572099335
 20
481.0814174549478
 10
386.17475704259317
 20
466.2637802837481
  0
LWPOLYLINE
  5
D9
330
17
100
AcDbEntity
  8
0
 62
0
100
AcDbPolyline
 90
4
 70
1
 10
384.2420217593932
 20
465.8342835541481
 10
375.4373388025934
 20
480.43717236054783
 10
360.4049532665936
 20
474.42421814614795
 10
364.2704238329936
 20
457.6738456917482
  0
LWPOLYLINE
  5
DA
330
17
100
AcDbEntity
  8
0
 62
0
100
AcDbPolyline
 90
4
 70
1
 10
362.90811389379365
 20
457.19200404822817
 10
357.66825379267374
 20
474.45777257814785
 10
340.14478722499405
 20
468.44481836374797
 10
344.439754520994
 20
450.9213517960683
  0
LWPOLYLINE
  5
DB
330
17
100
AcDbEntity
  8
0
 62
0
100
AcDbPolyline
 90
4
 70
1
 10
342.3716290951649
 20
451.630473835665
 10
338.7118032633941
 20
468.2456308667881
 10
322.22788398132957
 20
463.49260378628827
 10
324.71020987843434
 20
450.46446626134843
  0
LWPOLYLINE
  5
DC
330
17
100
AcDbEntity
  8
0
 62
0
100
AcDbPolyline
 90
4
 70
1
 10
322.9922229600344
 20
450.3785669154284
 10
320.4152425824344
 20
464.1224622626282
 10
301.51738648003476
 20
463.26346880342817
 10
301.0878897504348
 20
450.3785669154284
  0
LWPOLYLINE
  5
DD
330
17
100
AcDbEntity
  8
0
 62
0
100
AcDbPolyline
 90
4
 70
1
 10
328.504492364604
 20
571.7412276000217
 10
318.0891966718042
 20
582.4786458400215
 10
309.25944817025123
 20
577.950244827154
 10
316.73269126529095
 20
563.9486514421945
  0
LWPOLYLINE
  5
DE
330
17
100
AcDbEntity
  8
0
 62
0
100
AcDbPolyline
 90
4
 70
1
 10
405.35950353859283
 20
503.1552005461475
 10
419.64026979779254
 20
491.3440404821477
 10
426.9417142009924
 20
498.2159881557476
 10
411.8019544825927
 20
509.2755289429474
  0
LWPOLYLINE
  5
DF
330
17
100
AcDbEntity
  8
0
 62
0
100
AcDbPolyline
 90
4
 70
1
 10
313.13220043244434
 20
502.57279256386295
 10
314.2918416023643
 20
484.1473828640233
 10
300.56636354817164
 20
483.7691340021976
 10
301.4253570073716
 20
502.23749337499686
  0
LWPOLYLINE
  5
E0
330
17
100
AcDbEntity
  8
0
 62
0
100
AcDbPolyline
 90
4
 70
1
 10
310.6411194007644
 20
504.9779742496229
 10
296.2959286321247
 20
504.2907794822629
 10
297.32672078316466
 20
520.6975545529825
 10
309.26672986604444
 20
521.1270512825826
  0
LWPOLYLINE
  5
E1
330
17
100
AcDbEntity
  8
0
 62
0
100
AcDbPolyline
 90
4
 70
1
 10
499.3617750452031
 20
593.7843783527563
 10
490.48257959279977
 20
605.5190237219998
 10
475.0475408727998
 20
598.5397018659999
 10
481.8597833140035
 20
583.4764568423565
  0
LWPOLYLINE
  5
E2
330
17
100
AcDbEntity
  8
0
 62
0
100
AcDbPolyline
 90
4
 70
1
 10
480.0344222132035
 20
582.4027150183565
 10
473.5711458647998
 20
596.7948714019999
 10
457.3308007767999
 20
594.5131700259999
 10
458.344837368404
 20
577.7856251751566
  0
LWPOLYLINE
  5
E3
330
17
100
AcDbEntity
  8
0
 62
0
100
AcDbPolyline
 90
4
 70
1
 10
456.3047279028041
 20
577.6782509927566
 10
455.2642925912
 20
593.9813728291998
 10
438.94297204079993
 20
594.9158232099999
 10
435.31909338479994
 20
581.0913972259999
  0
LWPOLYLINE
  5
E4
330
17
100
AcDbEntity
  8
0
 62
0
100
AcDbPolyline
 90
4
 70
1
 10
433.3058274647999
 20
581.3598326819999
 10
437.1981415767999
 20
595.5869118499999
 10
420.15249012079994
 20
601.3582741539999
 10
413.0558289516367
 20
588.2301825414289
  0
LWPOLYLINE
  5
E5
330
17
100
AcDbEntity
  8
0
 62
0
100
AcDbPolyline
 90
4
 70
1
 10
411.2978796305397
 20
588.2277741063175
 10
419.3724181470197
 20
602.6588642208774
 10
409.0373923022179
 20
608.4427009133996
 10
400.37344513171234
 20
594.8222976796154
  0
LWPOLYLINE
  5
E6
330
17
100
AcDbEntity
  8
0
 62
0
100
AcDbPolyline
 90
4
 70
1
 10
529.6326454994742
 20
593.6707562630277
 10
516.2108726994745
 20
604.1397390470273
 10
506.7452590585861
 20
597.5750348152599
 10
521.0513598900027
 20
585.0870695783565
  0
LWPOLYLINE
  5
E7
330
17
100
AcDbEntity
  8
0
 62
0
100
AcDbPolyline
 90
4
 70
1
 10
519.2259987892027
 20
583.2617084775566
 10
505.80422598920296
 20
596.0392361831563
 10
493.47854089853354
 20
587.0908049722277
 10
503.549368158803
 20
570.5915549543569
  0
LWPOLYLINE
  5
E8
330
17
100
AcDbEntity
  8
0
 62
0
100
AcDbPolyline
 90
4
 70
1
 10
501.83138124040306
 20
569.9473098599568
 10
491.63083391240326
 20
586.0534372199564
 10
477.0993026898686
 20
579.3722449202562
 10
481.00078985480354
 20
562.645865456757
  0
LWPOLYLINE
  5
E9
330
17
100
AcDbEntity
  8
0
 62
0
100
AcDbPolyline
 90
4
 70
1
 10
479.39017711880354
 20
562.5384912743569
 10
475.73945491720366
 20
578.8593669991566
 10
458.666959915604
 20
575.9602640743567
 10
459.633327557204
 20
559.8541367143571
  0
LWPOLYLINE
  5
EA
330
17
100
AcDbEntity
  8
0
 62
0
100
AcDbPolyline
 90
4
 70
1
 10
458.23746318600405
 20
559.8541367143571
 10
456.51947626760403
 20
576.3897608039567
 10
440.67986943256807
 20
578.6464595015774
 10
436.7895990878443
 20
561.1759583474019
  0
LWPOLYLINE
  5
EB
330
17
100
AcDbEntity
  8
0
 62
0
100
AcDbPolyline
 90
4
 70
1
 10
435.3579877013325
 20
561.3674605835416
 10
438.58798780680445
 20
578.0003735399566
 10
422.5761650284367
 20
582.6017788949652
 10
416.8037289826128
 20
565.3531902342295
  0
LWPOLYLINE
  5
EC
330
17
100
AcDbEntity
  8
0
 62
0
100
AcDbPolyline
 90
4
 70
1
 10
415.2757943670609
 20
565.9856241685656
 10
420.99561706350875
 20
583.6325710460052
 10
404.1936844311824
 20
589.2856304804192
 10
396.51537721813327
 20
574.5755587605653
  0
LWPOLYLINE
  5
ED
330
17
100
AcDbEntity
  8
0
 62
0
100
AcDbPolyline
 90
4
 70
1
 10
395.3471461136213
 20
575.5376314348694
 10
403.5396435386075
 20
590.7518638537281
 10
394.6334065220597
 20
596.9895073901574
 10
380.03051771565976
 20
584.2764041939975
  0
LWPOLYLINE
  5
EE
330
17
100
AcDbEntity
  8
0
 62
0
100
AcDbPolyline
 90
4
 70
1
 10
554.8754856372018
 20
587.1804467047566
 10
535.7616228788023
 20
598.1867198311562
 10
524.9168304564025
 20
586.6976823143565
 10
540.2793077172022
 20
573.4231295847569
  0
LWPOLYLINE
  5
EF
330
17
100
AcDbEntity
  8
0
 62
0
100
AcDbPolyline
 90
4
 70
1
 10
538.0982696372022
 20
572.5842687847569
 10
524.2725853620026
 20
585.5165663079565
 10
511.4950576564028
 20
574.3496513383567
 10
522.4954587572025
 20
560.5046732647571
  0
LWPOLYLINE
  5
F0
330
17
100
AcDbEntity
  8
0
 62
0
100
AcDbPolyline
 90
4
 70
1
 10
521.0513598900027
 20
559.317265802357
 10
510.42131583240285
 20
572.8464127847568
 10
496.1405495732032
 20
564.7933491047569
 10
502.0461296052031
 20
551.0494537575572
  0
LWPOLYLINE
  5
F1
330
17
100
AcDbEntity
  8
0
 62
0
100
AcDbPolyline
 90
4
 70
1
 10
500.04699540919506
 20
551.759291929624
 10
493.403879994698
 20
564.4332342153574
 10
478.6383362863163
 20
560.8910766772832
 10
482.15072653117494
 20
544.937842044845
  0
LWPOLYLINE
  5
F2
330
17
100
AcDbEntity
  8
0
 62
0
100
AcDbPolyline
 90
4
 70
1
 10
480.257494209337
 20
543.4079952426465
 10
476.9472014920796
 20
560.7633631455944
 10
460.25905273733736
 20
558.4403807786462
 10
460.5274881933374
 20
541.6631647786465
  0
LWPOLYLINE
  5
F3
330
17
100
AcDbEntity
  8
0
 62
0
100
AcDbPolyline
 90
4
 70
1
 10
458.95542540342046
 20
541.7211754904246
 10
458.7826577293374
 20
558.1719453226461
 10
440.9316999053378
 20
558.7088162346462
 10
439.70014219369995
 20
542.1737794420661
  0
LWPOLYLINE
  5
F4
330
17
100
AcDbEntity
  8
0
 62
0
100
AcDbPolyline
 90
4
 70
1
 10
437.30782124933785
 20
542.3342534186465
 10
439.45530489733784
 20
559.1114694186462
 10
423.75183072133814
 20
562.0642594346461
 10
418.76094450565813
 20
545.7870044714465
  0
LWPOLYLINE
  5
F5
330
17
100
AcDbEntity
  8
0
 62
0
100
AcDbPolyline
 90
4
 70
1
 10
416.3025414056395
 20
546.9622397530139
 10
420.9637192572076
 20
561.971248519793
 10
405.26466573460215
 20
568.3933274750175
 10
398.831838900088
 20
553.9738545337343
  0
LWPOLYLINE
  5
F6
330
17
100
AcDbEntity
  8
0
 62
0
100
AcDbPolyline
 90
4
 70
1
 10
396.10306035771725
 20
553.2038014956697
 10
403.31860541499714
 20
568.9405616682135
 10
388.8586410433373
 20
577.4390675790547
 10
378.44215483656563
 20
561.9311750411416
  0
LWPOLYLINE
  5
F7
330
17
100
AcDbEntity
  8
0
 62
0
100
AcDbPolyline
 90
4
 70
1
 10
376.8077050320729
 20
562.564038472207
 10
387.1763466426199
 20
577.8138030404755
 10
372.86537124783587
 20
587.5799833893791
 10
360.5349329409884
 20
574.878568703298
  0
LWPOLYLINE
  5
F8
330
17
100
AcDbEntity
  8
0
 62
0
100
AcDbPolyline
 90
4
 70
1
 10
359.5511169947485
 20
576.1645355988115
 10
372.8826954815322
 20
589.7709919925393
 10
361.6814207735644
 20
602.484095188699
 10
339.2788713576289
 20
597.6050123404431
  0
LWPOLYLINE
  5
F9
330
17
100
AcDbEntity
  8
0
 62
0
100
AcDbPolyline
 90
4
 70
1
 10
570.4782965172014
 20
574.4297625447568
 10
556.7209793972017
 20
584.8316364647566
 10
545.480244677202
 20
574.0942182247569
 10
559.4053339572017
 20
562.1823948647572
  0
LWPOLYLINE
  5
FA
330
17
100
AcDbEntity
  8
0
 62
0
100
AcDbPolyline
 90
4
 70
1
 10
557.5598401972018
 20
561.1757619047571
 10
543.466978757202
 20
573.5909017447568
 10
530.5485224372023
 20
562.6857113447571
 10
541.1181685172021
 20
549.2639385447574
  0
LWPOLYLINE
  5
FB
330
17
100
AcDbEntity
  8
0
 62
0
100
AcDbPolyline
 90
4
 70
1
 10
539.5817299853358
 20
547.8371802666464
 10
528.7100940173359
 20
561.5273885226461
 10
514.593906256131
 20
553.7503653984323
 10
522.9387317133361
 20
539.6498988586466
  0
LWPOLYLINE
  5
FC
330
17
100
AcDbEntity
  8
0
 62
0
100
AcDbPolyline
 90
4
 70
1
 10
521.3281189773361
 20
539.1130279466466
 10
512.4697489293363
 20
553.8769780266463
 10
497.1689279373366
 20
546.8976561706464
 10
503.61137888133646
 20
532.6705770026467
  0
LWPOLYLINE
  5
FD
330
17
100
AcDbEntity
  8
0
 62
0
100
AcDbPolyline
 90
4
 70
1
 10
501.8665484173365
 20
532.4021415466467
 10
495.7750768320565
 20
546.6030482576864
 10
480.31319456645684
 20
541.7067855402465
 10
482.5391955853369
 20
527.3018678826469
  0
LWPOLYLINE
  5
FE
330
17
100
AcDbEntity
  8
0
 62
0
100
AcDbPolyline
 90
4
 70
1
 10
480.7426912960568
 20
526.5885006583268
 10
478.781099201337
 20
541.3947293226465
 10
460.5274881933374
 20
539.6498988586466
 10
462.40653638533735
 20
525.4228196906469
  0
LWPOLYLINE
  5
FF
330
17
100
AcDbEntity
  8
0
 62
0
100
AcDbPolyline
 90
4
 70
1
 10
460.39327046533737
 20
525.5570374186469
 10
458.9168754573374
 20
540.0525520426465
 10
443.2134012813377
 20
539.9183343146466
 10
441.8712240013378
 20
525.8254728746468
  0
LWPOLYLINE
  5
100
330
17
100
AcDbEntity
  8
0
 62
0
100
AcDbPolyline
 90
4
 70
1
 10
440.1263935373378
 20
525.6912551466469
 10
441.6027885453378
 20
539.7841165866466
 10
424.90811644805797
 20
542.2221816157664
 10
420.7990407053382
 20
526.8992146986468
  0
LWPOLYLINE
  5
101
330
17
100
AcDbEntity
  8
0
 62
0
100
AcDbPolyline
 90
4
 70
1
 10
418.8983834591301
 20
527.0953067992549
 10
423.50258840044205
 20
542.9007864485345
 10
405.4980854956104
 20
548.3296251106784
 10
400.2066857869385
 20
531.9056701707748
  0
LWPOLYLINE
  5
102
330
17
100
AcDbEntity
  8
0
 62
0
100
AcDbPolyline
 90
4
 70
1
 10
398.69415936656094
 20
531.7919340680677
 10
403.6114902826389
 20
547.9082213852363
 10
388.7071292749291
 20
554.5367936466702
 10
380.10521623124833
 20
539.8156838114938
  0
LWPOLYLINE
  5
103
330
17
100
AcDbEntity
  8
0
 62
0
100
AcDbPolyline
 90
4
 70
1
 10
378.21530003270016
 20
540.3601447154842
 10
387.10080890530145
 20
554.5781910303897
 10
371.78003984118334
 20
563.8056815204191
 10
360.9667113719645
 20
549.1562377376921
  0
LWPOLYLINE
  5
104
330
17
100
AcDbEntity
  8
0
 62
0
100
AcDbPolyline
 90
4
 70
1
 10
359.7297607907165
 20
550.118310411996
 10
370.62533044656334
 20
564.371418649072
 10
357.49418170277994
 20
575.2337863429829
 10
344.13043957164484
 20
559.8077566317719
  0
LWPOLYLINE
  5
105
330
17
100
AcDbEntity
  8
0
 62
0
100
AcDbPolyline
 90
4
 70
1
 10
342.8548342847329
 20
560.9751824299158
 10
355.7397361727326
 20
575.7498699281555
 10
343.88562643577285
 20
587.7757783569552
 10
326.1044618303332
 20
576.6947627332754
  0
LWPOLYLINE
  5
106
330
17
100
AcDbEntity
  8
0
 62
0
100
AcDbPolyline
 90
5
 70
1
 10
342.3884276799328
 20
589.4746392491152
 10
325.5306810431332
 20
578.0929759147155
 10
315.54488207993336
 20
587.9714006955152
 10
313.61214679673344
 20
595.9170901931151
 10
335.623854188733
 20
597.849825476315
  0
LWPOLYLINE
  5
107
330
17
100
AcDbEntity
  8
0
 62
0
100
AcDbPolyline
 90
4
 70
1
 10
583.1101770164012
 20
583.7712115559567
 10
574.1175892404013
 20
576.5234542439568
 10
585.3344042329602
 20
565.7812637081782
 10
592.4812298135039
 20
577.4635747532977
  0
LWPOLYLINE
  5
108
330
17
100
AcDbEntity
  8
0
 62
0
100
AcDbPolyline
 90
5
 70
1
 10
557.0153146804018
 20
586.2185879399566
 10
564.2295175604016
 20
597.4593226599563
 10
587.5498478004012
 20
595.2782845799563
 10
584.3621767604012
 20
586.7219044199566
 10
571.1081761204015
 20
577.3266634599568
  0
LWPOLYLINE
  5
109
330
17
100
AcDbEntity
  8
0
 62
0
100
AcDbPolyline
 90
7
 70
1
 10
439.4793511348045
 20
357.5899400039615
 10
449.81411619080427
 20
349.93952950796165
 10
463.23588899080397
 20
357.5899400039615
 10
456.7934380468041
 20
364.3008264039613
 10
456.9276557748041
 20
371.6828014439611
 10
447.26397935880436
 20
371.01171280396113
 10
444.3111893428044
 20
364.5692618599613
  0
LWPOLYLINE
  5
10A
330
17
100
AcDbEntity
  8
0
 62
0
100
AcDbPolyline
 90
4
 70
1
 10
464.98071945480393
 20
356.3819804519615
 10
470.6178640308038
 20
347.25517494796173
 10
461.893711710804
 20
337.7257162599619
 10
453.70643030280416
 20
349.5368763239617
  0
LWPOLYLINE
  5
10B
330
17
100
AcDbEntity
  8
0
 62
0
100
AcDbPolyline
 90
5
 70
1
 10
451.96159983880426
 20
348.8657876839617
 10
459.47779260680403
 20
336.51775670796195
 10
450.7536402868043
 20
331.6859184999621
 10
439.74778659080454
 20
339.87319990796186
 10
448.2035034548043
 20
348.1946990439617
  0
LWPOLYLINE
  5
10C
330
17
100
AcDbEntity
  8
0
 62
0
100
AcDbPolyline
 90
4
 70
1
 10
446.86132617480433
 20
349.5368763239617
 10
437.4660852148046
 20
340.8127240039619
 10
429.81567471880476
 20
347.3893926759617
 10
438.1371738548046
 20
355.7108918119615
  0
LWPOLYLINE
  5
10D
330
17
100
AcDbEntity
  8
0
 62
0
100
AcDbPolyline
 90
4
 70
1
 10
471.89293244680374
 20
346.28209641996165
 10
485.5831407028034
 20
333.397194531962
 10
472.9666742708037
 20
319.84120400396233
 10
462.63190921480395
 20
335.9473313639619
  0
LWPOLYLINE
  5
10E
330
17
100
AcDbEntity
  8
0
 62
0
100
AcDbPolyline
 90
4
 70
1
 10
461.558167390804
 20
334.068283171962
 10
470.5507551668038
 20
319.17011536396234
 10
449.8812250548043
 20
310.9828339559625
 10
450.4180959668043
 20
329.2364449639621
  0
LWPOLYLINE
  5
10F
330
17
100
AcDbEntity
  8
0
 62
0
100
AcDbPolyline
 90
4
 70
1
 10
448.5390477748043
 20
330.98127542796203
 10
448.4048300468043
 20
311.25126941196254
 10
430.68808995080474
 20
321.04916355596225
 10
440.6202018228045
 20
335.27624272396196
  0
LWPOLYLINE
  5
110
330
17
100
AcDbEntity
  8
0
 62
0
100
AcDbPolyline
 90
4
 70
1
 10
439.41224227080454
 20
336.7526377319619
 10
429.2116949428048
 20
322.25712310796223
 10
416.72944623880505
 20
333.397194531962
 10
428.5406063028048
 20
345.6110077799617
  0
LWPOLYLINE
  5
111
330
17
100
AcDbEntity
  8
0
 62
0
100
AcDbPolyline
 90
4
 70
1
 10
487.58621453679973
 20
332.33614244200066
 10
503.9607773527997
 20
320.3907646500007
 10
488.39152090479973
 20
306.4321209380007
 10
477.9225381207998
 20
320.5249823780007
  0
LWPOLYLINE
  5
112
330
17
100
AcDbEntity
  8
0
 62
0
100
AcDbPolyline
 90
4
 70
1
 10
485.57294861679975
 20
306.4321209380007
 10
468.6615148887998
 20
297.84218634600074
 10
462.236805778004
 20
313.6437004135624
 10
476.49743937800366
 20
319.85127033356224
  0
LWPOLYLINE
  5
113
330
17
100
AcDbEntity
  8
0
 62
0
100
AcDbPolyline
 90
5
 70
1
 10
460.2752346548042
 20
313.0725410663625
 10
449.0009455028045
 20
309.0996963175626
 10
447.9919847767999
 20
296.0973558820008
 10
455.64239527279983
 20
296.23157361000074
 10
465.9771603287998
 20
297.97640407400075
  0
LWPOLYLINE
  5
114
330
17
100
AcDbEntity
  8
0
 62
0
100
AcDbPolyline
 90
4
 70
1
 10
447.6050811316045
 20
309.63656722956256
 10
445.57606567279987
 20
296.36579133800075
 10
429.4699383127999
 20
300.12388772200075
 10
436.4381661620048
 20
315.54214726156243
  0
LWPOLYLINE
  5
115
330
17
100
AcDbEntity
  8
0
 62
0
100
AcDbPolyline
 90
4
 70
1
 10
435.4475051116368
 20
316.50670296383436
 10
427.45667239279993
 20
300.79497636200074
 10
410.8136741208
 20
309.3849109540007
 10
423.7651940665171
 20
323.6363486751942
  0
LWPOLYLINE
  5
116
330
17
100
AcDbEntity
  8
0
 62
0
100
AcDbPolyline
 90
4
 70
1
 10
422.8203012613971
 20
325.2684362476742
 10
409.3372791128
 20
310.8613059620007
 10
398.0681129343987
 20
319.3798496013326
 10
415.08936012859726
 20
332.054484575354
  0
LWPOLYLINE
  5
117
330
17
100
AcDbEntity
  8
0
 62
0
100
AcDbPolyline
 90
4
 70
1
 10
492.0153995607997
 20
306.96899185000075
 10
500.9313279698751
 20
295.40767612223505
 10
510.7023785682748
 20
303.99761071423484
 10
500.0684632407997
 20
312.6061364260007
  0
LWPOLYLINE
  5
118
330
17
100
AcDbEntity
  8
0
 62
0
100
AcDbPolyline
 90
4
 70
1
 10
501.5448582487997
 20
314.2167491620007
 10
513.3867331282747
 20
304.3197332614348
 10
520.2586808018746
 20
311.19168093503464
 10
505.9740432727997
 20
319.3170228260007
  0
LWPOLYLINE
  5
119
330
17
100
AcDbEntity
  8
0
 62
0
100
AcDbPolyline
 90
4
 70
1
 10
556.2540240594735
 20
589.2380322950279
 10
538.428232059474
 20
599.0946466950277
 10
543.8808272594739
 20
601.8209442950275
 10
562.5454800594733
 20
598.6752162950277
  0
LWPOLYLINE
  5
11A
330
17
100
AcDbEntity
  8
0
 62
0
100
AcDbPolyline
 90
4
 70
1
 10
522.9198790354741
 20
309.9365477510349
 10
540.0997482194737
 20
303.89674999103505
 10
530.4360718034739
 20
295.30681539903526
 10
517.5511699154742
 20
304.836274087035
  0
LWPOLYLINE
  5
11B
330
17
100
AcDbEntity
  8
0
 62
0
100
AcDbPolyline
 90
5
 70
1
 10
483.3633980114751
 20
372.05576285503327
 10
458.3653461714758
 20
371.8879906950333
 10
459.0364348114757
 20
364.5060156550335
 10
470.61271385147546
 20
351.9231036550338
 10
488.396562811475
 20
362.6605218950335
  0
LWPOLYLINE
  5
11C
330
17
100
AcDbEntity
  8
0
 62
0
100
AcDbPolyline
 90
4
 70
1
 10
470.78048601147543
 20
389.1685231750328
 10
472.9615240914754
 20
373.9012566150332
 10
454.3388143314759
 20
373.5657122950332
 10
454.0032700114759
 20
388.32966237503285
  0
LWPOLYLINE
  5
11D
330
17
100
AcDbEntity
  8
0
 62
0
100
AcDbPolyline
 90
4
 70
1
 10
459.6608310994757
 20
447.1832001670314
 10
475.23008754747525
 20
451.61238519103125
 10
481.4041030354751
 20
433.22455645503175
 10
461.8083147474756
 20
428.66115370303186
  0
LWPOLYLINE
  5
11E
330
17
100
AcDbEntity
  8
0
 62
0
100
AcDbPolyline
 90
4
 70
1
 10
557.9685975844651
 20
384.9327956225211
 10
543.1939100862255
 20
396.8899845745848
 10
556.9378054334252
 20
407.6102229454005
 10
567.4518853740329
 20
402.1126648065206
  0
LWPOLYLINE
  5
11F
330
17
100
AcDbEntity
  8
0
 62
0
100
AcDbPolyline
 90
5
 70
1
 10
300.93071657505146
 20
595.0034545023543
 10
300.51128617505145
 20
575.499940902355
 10
316.2399261750509
 20
583.6788337023547
 10
313.723343775051
 20
585.9857009023546
 10
311.4164765750511
 20
595.0034545023543
  0
LWPOLYLINE
  5
120
330
17
100
AcDbEntity
  8
0
 62
0
100
AcDbPolyline
 90
4
 70
1
 10
599.054832543041
 20
595.5610347903543
 10
589.6595915830413
 20
595.4268170623543
 10
585.0961888310416
 20
584.5551810943547
 10
598.786397087041
 20
576.233681958355
  0
LWPOLYLINE
  5
121
330
17
100
AcDbEntity
  8
0
 62
0
100
AcDbPolyline
 90
5
 70
1
 10
300.7090647798517
 20
448.2165214527592
 10
307.0172979958515
 20
448.2165214527592
 10
310.64117665185137
 20
438.41862730875954
 10
316.4125389558512
 20
432.5130472767598
 10
301.5143711478517
 20
425.26528996476003
  0
LWPOLYLINE
  5
122
330
17
100
AcDbEntity
  8
0
 62
0
100
AcDbPolyline
 90
5
 70
1
 10
599.2666175017608
 20
448.13534594171915
 10
594.370354784321
 20
448.4789433253991
 10
591.1920789852811
 20
442.03649238139934
 10
585.6086215004813
 20
434.9927460159596
 10
599.6961142313608
 20
426.23101273211995
  0
LWPOLYLINE
  5
123
330
17
100
AcDbEntity
  8
0
 62
0
100
AcDbPolyline
 90
4
 70
1
 10
393.51671502509976
 20
598.5356956167175
 10
378.91382621869974
 20
585.0494983072774
 10
364.57050134783896
 20
601.8945356301315
 10
380.6187358450497
 20
606.2311415719115
  0
LWPOLYLINE
  5
124
330
17
100
AcDbEntity
  8
0
 62
0
100
AcDbPolyline
 90
4
 70
1
 10
590.8190593459203
 20
502.87740653979694
 10
599.66669197568
 20
502.53380915611694
 10
598.97949720832
 20
483.5500537077977
 10
588.4997770060804
 20
484.32314782107767
  0
LWPOLYLINE
  5
125
330
17
100
AcDbEntity
  8
0
 62
0
100
AcDbPolyline
 90
4
 70
1
 10
307.9709579814513
 20
576.833553330194
 10
301.7862050752115
 20
573.8270762229942
 10
300.58361423233157
 20
557.0767037685948
 10
314.327509579531
 20
563.2614566748346
  0
LWPOLYLINE
  5
126
330
17
100
AcDbEntity
  8
0
 62
0
100
AcDbPolyline
 90
4
 70
1
 10
593.7181803947518
 20
576.9138189394098
 10
600.5214085916156
 20
573.6840035328179
 10
598.8034216732157
 20
557.8098044068025
 10
586.7087937676802
 20
564.8879105106103
  0
LWPOLYLINE
  5
127
330
17
100
AcDbEntity
  8
0
 62
0
100
AcDbPolyline
 90
4
 70
1
 10
317.5159808
 20
431.03663872
 10
327.8239023104
 20
421.5877106688
 10
316.2274906112
 20
413.5346469888
 10
310.536658944
 20
427.6006648832
  0
LWPOLYLINE
  5
128
330
17
100
AcDbEntity
  8
0
 62
0
100
AcDbPolyline
 90
4
 70
1
 10
302.81340291072
 20
423.56848908288
 10
302.55570487296006
 20
408.87970093056
 10
314.58161330176006
 20
413.00286953472
 10
308.82635712512
 20
426.2313688064
  0
LWPOLYLINE
  5
129
330
17
100
AcDbEntity
  8
0
 62
0
100
AcDbPolyline
 90
4
 70
1
 10
404.99392097058217
 20
309.2279696625251
 10
398.74225227134446
 20
296.1709151030722
 10
383.84408446334453
 20
309.1900347190722
 10
395.78946225534446
 20
317.6457515830721
  0
LWPOLYLINE
  5
12A
330
17
100
AcDbEntity
  8
0
 62
0
100
AcDbPolyline
 90
3
 70
1
 10
588.8629128426211
 20
413.7542228420588
 10
600.7816188877127
 20
423.3859447013765
 10
600.9135602830459
 20
408.6085084240672
  0
ENDSEC
  0
SECTION
  2
OBJECTS
  0
DICTIONARY
  5
A
330
0
100
AcDbDictionary
281
1
  3
ACAD_COLOR
350
B
  3
ACAD_GROUP
350
C
  3
ACAD_LAYOUT
350
D
  3
ACAD_MATERIAL
350
E
  3
ACAD_MLEADERSTYLE
350
F
  3
ACAD_MLINESTYLE
350
10
  3
ACAD_PLOTSETTINGS
350
11
  3
ACAD_PLOTSTYLENAME
350
12
  3
ACAD_SCALELIST
350
14
  3
ACAD_TABLESTYLE
350
15
  3
ACAD_VISUALSTYLE
350
16
  3
EZDXF_META
350
2D
  0
DICTIONARY
  5
B
330
A
100
AcDbDictionary
281
1
  0
DICTIONARY
  5
C
330
A
100
AcDbDictionary
281
1
  0
DICTIONARY
  5
D
330
A
100
AcDbDictionary
281
1
  3
Model
350
1A
  3
Layout1
350
1E
  0
DICTIONARY
  5
E
330
A
100
AcDbDictionary
281
1
  3
ByBlock
350
1F
  3
ByLayer
350
20
  3
Global
350
21
  0
DICTIONARY
  5
F
330
A
100
AcDbDictionary
281
1
  3
Standard
350
2C
  0
DICTIONARY
  5
10
330
A
100
AcDbDictionary
281
1
  3
Standard
350
22
  0
DICTIONARY
  5
11
330
A
100
AcDbDictionary
281
1
  0
ACDBDICTIONARYWDFLT
  5
12
330
A
100
AcDbDictionary
281
1
  3
Normal
350
13
100
AcDbDictionaryWithDefault
340
13
  0
ACDBPLACEHOLDER
  5
13
330
12
  0
DICTIONARY
  5
14
330
A
100
AcDbDictionary
281
1
  0
DICTIONARY
  5
15
330
A
100
AcDbDictionary
281
1
  0
DICTIONARY
  5
16
330
A
100
AcDbDictionary
281
1
  0
LAYOUT
  5
1A
330
D
100
AcDbPlotSettings
  1

  4
A3
  6

 40
7.5
 41
20.0
 42
7.5
 43
20.0
 44
420.0
 45
297.0
 46
0.0
 47
0.0
 48
0.0
 49
0.0
140
0.0
141
0.0
142
1.0
143
1.0
 70
1024
 72
1
 73
0
 74
5
  7

 75
16
 76
0
 77
2
 78
300
147
1.0
148
0.0
149
0.0
100
AcDbLayout
  1
Model
 70
1
 71
0
 10
0.0
 20
0.0
 11
420.0
 21
297.0
 12
0.0
 22
0.0
 32
0.0
 14
1e+20
 24
1e+20
 34
1e+20
 15
-1e+20
 25
-1e+20
 35
-1e+20
146
0.0
 13
0.0
 23
0.0
 33
0.0
 16
1.0
 26
0.0
 36
0.0
 17
0.0
 27
1.0
 37
0.0
 76
1
330
17
  0
LAYOUT
  5
1E
330
D
100
AcDbPlotSettings
  1

  4
A3
  6

 40
7.5
 41
20.0
 42
7.5
 43
20.0
 44
420.0
 45
297.0
 46
0.0
 47
0.0
 48
0.0
 49
0.0
140
0.0
141
0.0
142
1.0
143
1.0
 70
0
 72
1
 73
0
 74
5
  7

 75
16
 76
0
 77
2
 78
300
147
1.0
148
0.0
149
0.0
100
AcDbLayout
  1
Layout1
 70
1
 71
1
 10
0.0
 20
0.0
 11
420.0
 21
297.0
 12
0.0
 22
0.0
 32
0.0
 14
1e+20
 24
1e+20
 34
1e+20
 15
-1e+20
 25
-1e+20
 35
-1e+20
146
0.0
 13
0.0
 23
0.0
 33
0.0
 16
1.0
 26
0.0
 36
0.0
 17
0.0
 27
1.0
 37
0.0
 76
1
330
1B
  0
MATERIAL
  5
1F
102
{ACAD_REACTORS
330
E
102
}
330
E
100
AcDbMaterial
  1
ByBlock
  2

 70
0
 40
1.0
 71
1
 41
1.0
 91
-1023410177
 42
1.0
 72
1
  3

 73
1
 74
1
 75
1
 44
0.5
 73
0
 45
1.0
 46
1.0
 77
1
  4

 78
1
 79
1
170
1
 48
1.0
171
1
  6

172
1
173
1
174
1
140
1.0
141
1.0
175
1
  7

176
1
177
1
178
1
143
1.0
179
1
  8

270
1
271
1
272
1
145
1.0
146
1.0
273
1
  9

274
1
275
1
276
1
 42
1.0
 72
1
  3

 73
1
 74
1
 75
1
 94
63
  0
MATERIAL
  5
20
102
{ACAD_REACTORS
330
E
102
}
330
E
100
AcDbMaterial
  1
ByLayer
  2

 70
0
 40
1.0
 71
1
 41
1.0
 91
-1023410177
 42
1.0
 72
1
  3

 73
1
 74
1
 75
1
 44
0.5
 73
0
 45
1.0
 46
1.0
 77
1
  4

 78
1
 79
1
170
1
 48
1.0
171
1
  6

172
1
173
1
174
1
140
1.0
141
1.0
175
1
  7

176
1
177
1
178
1
143
1.0
179
1
  8

270
1
271
1
272
1
145
1.0
146
1.0
273
1
  9

274
1
275
1
276
1
 42
1.0
 72
1
  3

 73
1
 74
1
 75
1
 94
63
  0
MATERIAL
  5
21
102
{ACAD_REACTORS
330
E
102
}
330
E
100
AcDbMaterial
  1
Global
  2

 70
0
 40
1.0
 71
1
 41
1.0
 91
-1023410177
 42
1.0
 72
1
  3

 73
1
 74
1
 75
1
 44
0.5
 73
0
 45
1.0
 46
1.0
 77
1
  4

 78
1
 79
1
170
1
 48
1.0
171
1
  6

172
1
173
1
174
1
140
1.0
141
1.0
175
1
  7

176
1
177
1
178
1
143
1.0
179
1
  8

270
1
271
1
272
1
145
1.0
146
1.0
273
1
  9

274
1
275
1
276
1
 42
1.0
 72
1
  3

 73
1
 74
1
 75
1
 94
63
  0
MLINESTYLE
  5
22
102
{ACAD_REACTORS
330
10
102
}
330
10
100
AcDbMlineStyle
  2
Standard
 70
0
  3

 62
256
 51
90.0
 52
90.0
 71
2
 49
0.5
 62
256
  6
BYLAYER
 49
-0.5
 62
256
  6
BYLAYER
  0
MLEADERSTYLE
  5
2C
102
{ACAD_REACTORS
330
F
102
}
330
F
100
AcDbMLeaderStyle
179
2
170
2
171
1
172
0
 90
2
 40
0.0
 41
0.0
173
1
 91
-1056964608
 92
-2
290
1
 42
2.0
291
1
 43
8.0
  3
Standard
 44
4.0
300

342
29
174
1
175
1
176
0
178
1
 93
-1056964608
 45
4.0
292
0
297
0
 46
4.0
 94
-1056964608
 47
1.0
 49
1.0
140
1.0
294
1
141
0.0
177
0
142
1.0
295
0
296
0
143
3.75
271
0
272
9
273
9
  0
DICTIONARY
  5
2D
330
A
100
AcDbDictionary
280
1
281
1
  3
CREATED_BY_EZDXF
350
2E
  3
WRITTEN_BY_EZDXF
350
12D
  0
DICTIONARYVAR
  5
2E
330
2D
100
DictionaryVariables
280
0
  1
1.4.2 @ 2025-09-02T11:43:58.558032+00:00
  0
DICTIONARYVAR
  5
12D
330
2D
100
DictionaryVariables
280
0
  1
1.4.2 @ 2025-09-02T11:43:58.573060+00:00
  0
ENDSEC
  0
EOF
